%TF.GenerationSoftware,KiCad,Pcbnew,9.0.6*%
%TF.CreationDate,2025-11-26T14:41:24-05:00*%
%TF.ProjectId,smt_training,736d745f-7472-4616-996e-696e672e6b69,1.1*%
%TF.SameCoordinates,Original*%
%TF.FileFunction,Soldermask,Top*%
%TF.FilePolarity,Negative*%
%FSLAX46Y46*%
G04 Gerber Fmt 4.6, Leading zero omitted, Abs format (unit mm)*
G04 Created by KiCad (PCBNEW 9.0.6) date 2025-11-26 14:41:24*
%MOMM*%
%LPD*%
G01*
G04 APERTURE LIST*
G04 Aperture macros list*
%AMRoundRect*
0 Rectangle with rounded corners*
0 $1 Rounding radius*
0 $2 $3 $4 $5 $6 $7 $8 $9 X,Y pos of 4 corners*
0 Add a 4 corners polygon primitive as box body*
4,1,4,$2,$3,$4,$5,$6,$7,$8,$9,$2,$3,0*
0 Add four circle primitives for the rounded corners*
1,1,$1+$1,$2,$3*
1,1,$1+$1,$4,$5*
1,1,$1+$1,$6,$7*
1,1,$1+$1,$8,$9*
0 Add four rect primitives between the rounded corners*
20,1,$1+$1,$2,$3,$4,$5,0*
20,1,$1+$1,$4,$5,$6,$7,0*
20,1,$1+$1,$6,$7,$8,$9,0*
20,1,$1+$1,$8,$9,$2,$3,0*%
G04 Aperture macros list end*
%ADD10C,0.250000*%
%ADD11RoundRect,0.250000X0.450000X-0.262500X0.450000X0.262500X-0.450000X0.262500X-0.450000X-0.262500X0*%
%ADD12RoundRect,0.200000X0.275000X-0.200000X0.275000X0.200000X-0.275000X0.200000X-0.275000X-0.200000X0*%
%ADD13RoundRect,0.090000X0.110000X-0.090000X0.110000X0.090000X-0.110000X0.090000X-0.110000X-0.090000X0*%
%ADD14RoundRect,0.243750X-0.243750X-0.456250X0.243750X-0.456250X0.243750X0.456250X-0.243750X0.456250X0*%
%ADD15R,1.500000X0.650000*%
%ADD16RoundRect,0.243750X0.456250X-0.243750X0.456250X0.243750X-0.456250X0.243750X-0.456250X-0.243750X0*%
%ADD17RoundRect,0.200000X-0.275000X0.200000X-0.275000X-0.200000X0.275000X-0.200000X0.275000X0.200000X0*%
%ADD18C,1.100000*%
%ADD19RoundRect,0.300000X0.700000X0.300000X-0.700000X0.300000X-0.700000X-0.300000X0.700000X-0.300000X0*%
%ADD20O,3.200000X1.300000*%
%ADD21RoundRect,0.243750X0.243750X0.456250X-0.243750X0.456250X-0.243750X-0.456250X0.243750X-0.456250X0*%
%ADD22RoundRect,0.150000X-0.512500X-0.150000X0.512500X-0.150000X0.512500X0.150000X-0.512500X0.150000X0*%
%ADD23RoundRect,0.075000X-0.700000X-0.075000X0.700000X-0.075000X0.700000X0.075000X-0.700000X0.075000X0*%
%ADD24RoundRect,0.075000X-0.075000X-0.700000X0.075000X-0.700000X0.075000X0.700000X-0.075000X0.700000X0*%
%ADD25RoundRect,0.225000X-0.225000X-0.250000X0.225000X-0.250000X0.225000X0.250000X-0.225000X0.250000X0*%
%ADD26RoundRect,0.200000X0.200000X0.275000X-0.200000X0.275000X-0.200000X-0.275000X0.200000X-0.275000X0*%
%ADD27RoundRect,0.100000X-0.100000X0.225000X-0.100000X-0.225000X0.100000X-0.225000X0.100000X0.225000X0*%
%ADD28RoundRect,0.225000X-0.250000X0.225000X-0.250000X-0.225000X0.250000X-0.225000X0.250000X0.225000X0*%
%ADD29RoundRect,0.150000X0.150000X-0.512500X0.150000X0.512500X-0.150000X0.512500X-0.150000X-0.512500X0*%
%ADD30R,0.700000X1.000000*%
%ADD31R,2.400000X1.000000*%
%ADD32RoundRect,0.250000X0.375000X0.625000X-0.375000X0.625000X-0.375000X-0.625000X0.375000X-0.625000X0*%
%ADD33R,2.400000X2.400000*%
%ADD34R,1.400000X1.400000*%
%ADD35R,0.900000X0.900000*%
%ADD36R,1.800000X1.800000*%
%ADD37R,1.200000X1.200000*%
%ADD38R,4.200000X4.200000*%
%ADD39R,1.600000X1.600000*%
%ADD40R,0.700000X0.700000*%
%ADD41R,0.600000X0.600000*%
%ADD42R,3.400000X3.400000*%
%ADD43R,3.000000X3.000000*%
G04 APERTURE END LIST*
D10*
%TO.C,REF\u002A\u002A*%
X20390000Y-40232500D02*
X20390000Y-37692500D01*
X21390000Y-40232500D02*
X21390000Y-37692500D01*
X22390000Y-40232500D02*
X22390000Y-37692500D01*
X23390000Y-40232500D02*
X23390000Y-37692500D01*
X24390000Y-41502500D02*
X24390000Y-37692500D01*
X25390000Y-40232500D02*
X25390000Y-37692500D01*
X26390000Y-40232500D02*
X26390000Y-37692500D01*
X27390000Y-40232500D02*
X27390000Y-37692500D01*
X28390000Y-40232500D02*
X28390000Y-37692500D01*
X29390000Y-41502500D02*
X29390000Y-37692500D01*
X30390000Y-40232500D02*
X30390000Y-37692500D01*
X31390000Y-40232500D02*
X31390000Y-37692500D01*
X32390000Y-40232500D02*
X32390000Y-37692500D01*
X33390000Y-40232500D02*
X33390000Y-37692500D01*
X34390000Y-41502500D02*
X34390000Y-37692500D01*
X35390000Y-40232500D02*
X35390000Y-37692500D01*
X36390000Y-40232500D02*
X36390000Y-37692500D01*
X37390000Y-40232500D02*
X37390000Y-37692500D01*
X38390000Y-40232500D02*
X38390000Y-37692500D01*
X39390000Y-41502500D02*
X39390000Y-37692500D01*
X40390000Y-40232500D02*
X40390000Y-37692500D01*
X41390000Y-40232500D02*
X41390000Y-37692500D01*
X42390000Y-40232500D02*
X42390000Y-37692500D01*
X43390000Y-40232500D02*
X43390000Y-37692500D01*
X44390000Y-41502500D02*
X44390000Y-37692500D01*
X45390000Y-40232500D02*
X45390000Y-37692500D01*
X46390000Y-40232500D02*
X46390000Y-37692500D01*
X47390000Y-40232500D02*
X47390000Y-37692500D01*
X48390000Y-40232500D02*
X48390000Y-37692500D01*
X49390000Y-41502500D02*
X49390000Y-37692500D01*
X50390000Y-40232500D02*
X50390000Y-37692500D01*
X51390000Y-40232500D02*
X51390000Y-37692500D01*
X52390000Y-40232500D02*
X52390000Y-37692500D01*
X53390000Y-40232500D02*
X53390000Y-37692500D01*
X54390000Y-41502500D02*
X54390000Y-37692500D01*
X55390000Y-40232500D02*
X55390000Y-37692500D01*
X56390000Y-40232500D02*
X56390000Y-37692500D01*
X57390000Y-40232500D02*
X57390000Y-37692500D01*
X58390000Y-40232500D02*
X58390000Y-37692500D01*
X59390000Y-41502500D02*
X59390000Y-37692500D01*
X60390000Y-40232500D02*
X60390000Y-37692500D01*
X61390000Y-40232500D02*
X61390000Y-37692500D01*
X62390000Y-40232500D02*
X62390000Y-37692500D01*
X63390000Y-40232500D02*
X63390000Y-37692500D01*
X64390000Y-41502500D02*
X64390000Y-37692500D01*
X65390000Y-40232500D02*
X65390000Y-37692500D01*
X66390000Y-40232500D02*
X66390000Y-37692500D01*
X67390000Y-40232500D02*
X67390000Y-37692500D01*
X68390000Y-40232500D02*
X68390000Y-37692500D01*
X69390000Y-41502500D02*
X69390000Y-37692500D01*
X70390000Y-40232500D02*
X70390000Y-37692500D01*
X71390000Y-40232500D02*
X71390000Y-37692500D01*
X72390000Y-40232500D02*
X72390000Y-37692500D01*
X73390000Y-40232500D02*
X73390000Y-37692500D01*
X74390000Y-41502500D02*
X74390000Y-37692500D01*
X75390000Y-40232500D02*
X75390000Y-37692500D01*
X76390000Y-40232500D02*
X76390000Y-37692500D01*
X77390000Y-40232500D02*
X77390000Y-37692500D01*
X78390000Y-40232500D02*
X78390000Y-37692500D01*
X79390000Y-41502500D02*
X79390000Y-37692500D01*
X80390000Y-40232500D02*
X80390000Y-37692500D01*
X81390000Y-40232500D02*
X81390000Y-37692500D01*
X82390000Y-40232500D02*
X82390000Y-37692500D01*
X83390000Y-40232500D02*
X83390000Y-37692500D01*
X84390000Y-41502500D02*
X84390000Y-37692500D01*
X85390000Y-40232500D02*
X85390000Y-37692500D01*
X86390000Y-40232500D02*
X86390000Y-37692500D01*
X87390000Y-40232500D02*
X87390000Y-37692500D01*
X88390000Y-40232500D02*
X88390000Y-37692500D01*
X89390000Y-41502500D02*
X89390000Y-37692500D01*
X90390000Y-40232500D02*
X90390000Y-37692500D01*
X91390000Y-40232500D02*
X91390000Y-37692500D01*
X92390000Y-40232500D02*
X92390000Y-37692500D01*
X93390000Y-40232500D02*
X93390000Y-37692500D01*
X94390000Y-41502500D02*
X94390000Y-37692500D01*
X95390000Y-40232500D02*
X95390000Y-37692500D01*
X96390000Y-40232500D02*
X96390000Y-37692500D01*
X97390000Y-40232500D02*
X97390000Y-37692500D01*
X98390000Y-40232500D02*
X98390000Y-37692500D01*
X99390000Y-41502500D02*
X99390000Y-37692500D01*
X100390000Y-40232500D02*
X100390000Y-37692500D01*
X101390000Y-40232500D02*
X101390000Y-37692500D01*
X102390000Y-40232500D02*
X102390000Y-37692500D01*
X103390000Y-40232500D02*
X103390000Y-37692500D01*
X104390000Y-41502500D02*
X104390000Y-37692500D01*
X105390000Y-40232500D02*
X105390000Y-37692500D01*
X106390000Y-40232500D02*
X106390000Y-37692500D01*
X107390000Y-40232500D02*
X107390000Y-37692500D01*
X108390000Y-40232500D02*
X108390000Y-37692500D01*
X109390000Y-41502500D02*
X109390000Y-37692500D01*
X110390000Y-40232500D02*
X110390000Y-37692500D01*
X111390000Y-40232500D02*
X111390000Y-37692500D01*
X112390000Y-40232500D02*
X112390000Y-37692500D01*
X113390000Y-40232500D02*
X113390000Y-37692500D01*
X114390000Y-41502500D02*
X114390000Y-37692500D01*
X115390000Y-40232500D02*
X115390000Y-37692500D01*
X116390000Y-40232500D02*
X116390000Y-37692500D01*
X117390000Y-40232500D02*
X117390000Y-37692500D01*
X118390000Y-40232500D02*
X118390000Y-37692500D01*
%TD*%
D11*
%TO.C,R2*%
X70470000Y-69452500D03*
X70470000Y-67627500D03*
%TD*%
%TO.C,R6*%
X93660000Y-55592500D03*
X93660000Y-53767500D03*
%TD*%
D12*
%TO.C,R10*%
X100660000Y-70394750D03*
X100660000Y-68744750D03*
%TD*%
D11*
%TO.C,R5*%
X66830000Y-52652500D03*
X66830000Y-50827500D03*
%TD*%
D13*
%TO.C,D1*%
X36140000Y-56770000D03*
X36140000Y-57610000D03*
%TD*%
D14*
%TO.C,D2*%
X90318750Y-70420000D03*
X92193750Y-70420000D03*
%TD*%
D15*
%TO.C,U4*%
X102390000Y-66425000D03*
X102390000Y-67695000D03*
X102390000Y-68965000D03*
X102390000Y-70235000D03*
X107790000Y-70235000D03*
X107790000Y-68965000D03*
X107790000Y-67695000D03*
X107790000Y-66425000D03*
%TD*%
D16*
%TO.C,D5*%
X100660000Y-73672250D03*
X100660000Y-71797250D03*
%TD*%
D17*
%TO.C,R8*%
X110020000Y-66260000D03*
X110020000Y-67910000D03*
%TD*%
D18*
%TO.C,J1*%
X22140000Y-59942500D03*
X22140000Y-55442500D03*
D19*
X24740000Y-61192500D03*
X24740000Y-58692500D03*
X24740000Y-56692500D03*
X24740000Y-54192500D03*
D20*
X22140000Y-63542500D03*
X22140000Y-51842500D03*
%TD*%
D21*
%TO.C,D4*%
X92127500Y-61822502D03*
X90252500Y-61822502D03*
%TD*%
D17*
%TO.C,R3*%
X74260000Y-66782500D03*
X74260000Y-68432500D03*
%TD*%
D22*
%TO.C,Q1*%
X78952500Y-69470000D03*
X78952500Y-71370000D03*
X81227500Y-70420000D03*
%TD*%
D23*
%TO.C,U3*%
X99415000Y-50942500D03*
X99415000Y-51442500D03*
X99415000Y-51942500D03*
X99415000Y-52442500D03*
X99415000Y-52942500D03*
X99415000Y-53442500D03*
X99415000Y-53942500D03*
X99415000Y-54442500D03*
X99415000Y-54942500D03*
X99415000Y-55442500D03*
X99415000Y-55942500D03*
X99415000Y-56442500D03*
X99415000Y-56942500D03*
X99415000Y-57442500D03*
X99415000Y-57942500D03*
X99415000Y-58442500D03*
D24*
X101340000Y-60367500D03*
X101840000Y-60367500D03*
X102340000Y-60367500D03*
X102840000Y-60367500D03*
X103340000Y-60367500D03*
X103840000Y-60367500D03*
X104340000Y-60367500D03*
X104840000Y-60367500D03*
X105340000Y-60367500D03*
X105840000Y-60367500D03*
X106340000Y-60367500D03*
X106840000Y-60367500D03*
X107340000Y-60367500D03*
X107840000Y-60367500D03*
X108340000Y-60367500D03*
X108840000Y-60367500D03*
D23*
X110765000Y-58442500D03*
X110765000Y-57942500D03*
X110765000Y-57442500D03*
X110765000Y-56942500D03*
X110765000Y-56442500D03*
X110765000Y-55942500D03*
X110765000Y-55442500D03*
X110765000Y-54942500D03*
X110765000Y-54442500D03*
X110765000Y-53942500D03*
X110765000Y-53442500D03*
X110765000Y-52942500D03*
X110765000Y-52442500D03*
X110765000Y-51942500D03*
X110765000Y-51442500D03*
X110765000Y-50942500D03*
D24*
X108840000Y-49017500D03*
X108340000Y-49017500D03*
X107840000Y-49017500D03*
X107340000Y-49017500D03*
X106840000Y-49017500D03*
X106340000Y-49017500D03*
X105840000Y-49017500D03*
X105340000Y-49017500D03*
X104840000Y-49017500D03*
X104340000Y-49017500D03*
X103840000Y-49017500D03*
X103340000Y-49017500D03*
X102840000Y-49017500D03*
X102340000Y-49017500D03*
X101840000Y-49017500D03*
X101340000Y-49017500D03*
%TD*%
D25*
%TO.C,C3*%
X104315000Y-64875000D03*
X105865000Y-64875000D03*
%TD*%
%TO.C,C2*%
X85335000Y-56950000D03*
X86885000Y-56950000D03*
%TD*%
D26*
%TO.C,R4*%
X87061250Y-70420000D03*
X85411250Y-70420000D03*
%TD*%
D27*
%TO.C,U2*%
X85360000Y-52102500D03*
X84710000Y-52102500D03*
X84060000Y-52102500D03*
X84060000Y-54002500D03*
X85360000Y-54002500D03*
%TD*%
D28*
%TO.C,C4*%
X110020000Y-72230000D03*
X110020000Y-73780000D03*
%TD*%
D17*
%TO.C,R9*%
X110020000Y-69220000D03*
X110020000Y-70870000D03*
%TD*%
D29*
%TO.C,U1*%
X65830000Y-72960000D03*
X66780000Y-72960000D03*
X67730000Y-72960000D03*
X67730000Y-70685000D03*
X65830000Y-70685000D03*
%TD*%
D28*
%TO.C,C1*%
X61490000Y-72275000D03*
X61490000Y-73825000D03*
%TD*%
D12*
%TO.C,R7*%
X90250000Y-57245000D03*
X90250000Y-55595000D03*
%TD*%
D30*
%TO.C,SW2*%
X48060000Y-72652500D03*
X48060000Y-66652500D03*
X51760000Y-72652500D03*
X51760000Y-66652500D03*
%TD*%
D11*
%TO.C,R1*%
X58140000Y-69492500D03*
X58140000Y-67667500D03*
%TD*%
D31*
%TO.C,SW1*%
X46610000Y-52652500D03*
X53210000Y-52652500D03*
%TD*%
D21*
%TO.C,D3*%
X76197500Y-63822500D03*
X74322500Y-63822500D03*
%TD*%
D32*
%TO.C,F1*%
X36140000Y-61190000D03*
X33340000Y-61190000D03*
%TD*%
D33*
%TO.C,REF\u002A\u002A*%
X117440000Y-63943000D03*
%TD*%
D34*
%TO.C,REF\u002A\u002A*%
X117940000Y-57443000D03*
%TD*%
D35*
%TO.C,REF\u002A\u002A*%
X118190000Y-54293000D03*
%TD*%
D36*
%TO.C,REF\u002A\u002A*%
X117740000Y-61443000D03*
%TD*%
D37*
%TO.C,REF\u002A\u002A*%
X118040000Y-55743000D03*
%TD*%
D38*
%TO.C,REF\u002A\u002A*%
X116540000Y-74843000D03*
%TD*%
D39*
%TO.C,REF\u002A\u002A*%
X117840000Y-59343000D03*
%TD*%
D40*
%TO.C,REF\u002A\u002A*%
X118290000Y-53093000D03*
%TD*%
D41*
%TO.C,REF\u002A\u002A*%
X118340000Y-52043000D03*
%TD*%
D42*
%TO.C,REF\u002A\u002A*%
X116940000Y-70643000D03*
%TD*%
D43*
%TO.C,REF\u002A\u002A*%
X117140000Y-67043000D03*
%TD*%
M02*
