%TF.GenerationSoftware,KiCad,Pcbnew,9.0.6*%
%TF.CreationDate,2025-11-26T14:41:24-05:00*%
%TF.ProjectId,smt_training,736d745f-7472-4616-996e-696e672e6b69,1.1*%
%TF.SameCoordinates,Original*%
%TF.FileFunction,Copper,L1,Top*%
%TF.FilePolarity,Positive*%
%FSLAX46Y46*%
G04 Gerber Fmt 4.6, Leading zero omitted, Abs format (unit mm)*
G04 Created by KiCad (PCBNEW 9.0.6) date 2025-11-26 14:41:24*
%MOMM*%
%LPD*%
G01*
G04 APERTURE LIST*
G04 Aperture macros list*
%AMRoundRect*
0 Rectangle with rounded corners*
0 $1 Rounding radius*
0 $2 $3 $4 $5 $6 $7 $8 $9 X,Y pos of 4 corners*
0 Add a 4 corners polygon primitive as box body*
4,1,4,$2,$3,$4,$5,$6,$7,$8,$9,$2,$3,0*
0 Add four circle primitives for the rounded corners*
1,1,$1+$1,$2,$3*
1,1,$1+$1,$4,$5*
1,1,$1+$1,$6,$7*
1,1,$1+$1,$8,$9*
0 Add four rect primitives between the rounded corners*
20,1,$1+$1,$2,$3,$4,$5,0*
20,1,$1+$1,$4,$5,$6,$7,0*
20,1,$1+$1,$6,$7,$8,$9,0*
20,1,$1+$1,$8,$9,$2,$3,0*%
G04 Aperture macros list end*
%TA.AperFunction,EtchedComponent*%
%ADD10C,0.250000*%
%TD*%
%TA.AperFunction,SMDPad,CuDef*%
%ADD11RoundRect,0.250000X0.450000X-0.262500X0.450000X0.262500X-0.450000X0.262500X-0.450000X-0.262500X0*%
%TD*%
%TA.AperFunction,SMDPad,CuDef*%
%ADD12RoundRect,0.200000X0.275000X-0.200000X0.275000X0.200000X-0.275000X0.200000X-0.275000X-0.200000X0*%
%TD*%
%TA.AperFunction,SMDPad,CuDef*%
%ADD13RoundRect,0.090000X0.110000X-0.090000X0.110000X0.090000X-0.110000X0.090000X-0.110000X-0.090000X0*%
%TD*%
%TA.AperFunction,SMDPad,CuDef*%
%ADD14RoundRect,0.243750X-0.243750X-0.456250X0.243750X-0.456250X0.243750X0.456250X-0.243750X0.456250X0*%
%TD*%
%TA.AperFunction,SMDPad,CuDef*%
%ADD15R,1.500000X0.650000*%
%TD*%
%TA.AperFunction,SMDPad,CuDef*%
%ADD16RoundRect,0.243750X0.456250X-0.243750X0.456250X0.243750X-0.456250X0.243750X-0.456250X-0.243750X0*%
%TD*%
%TA.AperFunction,SMDPad,CuDef*%
%ADD17RoundRect,0.200000X-0.275000X0.200000X-0.275000X-0.200000X0.275000X-0.200000X0.275000X0.200000X0*%
%TD*%
%TA.AperFunction,SMDPad,CuDef*%
%ADD18RoundRect,0.300000X0.700000X0.300000X-0.700000X0.300000X-0.700000X-0.300000X0.700000X-0.300000X0*%
%TD*%
%TA.AperFunction,HeatsinkPad*%
%ADD19O,3.200000X1.300000*%
%TD*%
%TA.AperFunction,SMDPad,CuDef*%
%ADD20RoundRect,0.243750X0.243750X0.456250X-0.243750X0.456250X-0.243750X-0.456250X0.243750X-0.456250X0*%
%TD*%
%TA.AperFunction,SMDPad,CuDef*%
%ADD21RoundRect,0.150000X-0.512500X-0.150000X0.512500X-0.150000X0.512500X0.150000X-0.512500X0.150000X0*%
%TD*%
%TA.AperFunction,SMDPad,CuDef*%
%ADD22RoundRect,0.075000X-0.700000X-0.075000X0.700000X-0.075000X0.700000X0.075000X-0.700000X0.075000X0*%
%TD*%
%TA.AperFunction,SMDPad,CuDef*%
%ADD23RoundRect,0.075000X-0.075000X-0.700000X0.075000X-0.700000X0.075000X0.700000X-0.075000X0.700000X0*%
%TD*%
%TA.AperFunction,SMDPad,CuDef*%
%ADD24RoundRect,0.225000X-0.225000X-0.250000X0.225000X-0.250000X0.225000X0.250000X-0.225000X0.250000X0*%
%TD*%
%TA.AperFunction,SMDPad,CuDef*%
%ADD25RoundRect,0.200000X0.200000X0.275000X-0.200000X0.275000X-0.200000X-0.275000X0.200000X-0.275000X0*%
%TD*%
%TA.AperFunction,SMDPad,CuDef*%
%ADD26RoundRect,0.100000X-0.100000X0.225000X-0.100000X-0.225000X0.100000X-0.225000X0.100000X0.225000X0*%
%TD*%
%TA.AperFunction,SMDPad,CuDef*%
%ADD27RoundRect,0.225000X-0.250000X0.225000X-0.250000X-0.225000X0.250000X-0.225000X0.250000X0.225000X0*%
%TD*%
%TA.AperFunction,SMDPad,CuDef*%
%ADD28RoundRect,0.150000X0.150000X-0.512500X0.150000X0.512500X-0.150000X0.512500X-0.150000X-0.512500X0*%
%TD*%
%TA.AperFunction,SMDPad,CuDef*%
%ADD29R,0.700000X1.000000*%
%TD*%
%TA.AperFunction,SMDPad,CuDef*%
%ADD30R,2.400000X1.000000*%
%TD*%
%TA.AperFunction,SMDPad,CuDef*%
%ADD31RoundRect,0.250000X0.375000X0.625000X-0.375000X0.625000X-0.375000X-0.625000X0.375000X-0.625000X0*%
%TD*%
%TA.AperFunction,ComponentPad*%
%ADD32R,2.400000X2.400000*%
%TD*%
%TA.AperFunction,ComponentPad*%
%ADD33R,1.400000X1.400000*%
%TD*%
%TA.AperFunction,ComponentPad*%
%ADD34R,0.900000X0.900000*%
%TD*%
%TA.AperFunction,ComponentPad*%
%ADD35R,1.800000X1.800000*%
%TD*%
%TA.AperFunction,ComponentPad*%
%ADD36R,1.200000X1.200000*%
%TD*%
%TA.AperFunction,ComponentPad*%
%ADD37R,4.200000X4.200000*%
%TD*%
%TA.AperFunction,ComponentPad*%
%ADD38R,1.600000X1.600000*%
%TD*%
%TA.AperFunction,ComponentPad*%
%ADD39R,0.700000X0.700000*%
%TD*%
%TA.AperFunction,ComponentPad*%
%ADD40R,0.600000X0.600000*%
%TD*%
%TA.AperFunction,ComponentPad*%
%ADD41R,3.400000X3.400000*%
%TD*%
%TA.AperFunction,ComponentPad*%
%ADD42R,3.000000X3.000000*%
%TD*%
%TA.AperFunction,Conductor*%
%ADD43C,0.500000*%
%TD*%
%TA.AperFunction,Conductor*%
%ADD44C,0.300000*%
%TD*%
G04 APERTURE END LIST*
D10*
%TO.C,REF\u002A\u002A*%
X20390000Y-40232500D02*
X20390000Y-37692500D01*
X21390000Y-40232500D02*
X21390000Y-37692500D01*
X22390000Y-40232500D02*
X22390000Y-37692500D01*
X23390000Y-40232500D02*
X23390000Y-37692500D01*
X24390000Y-41502500D02*
X24390000Y-37692500D01*
X25390000Y-40232500D02*
X25390000Y-37692500D01*
X26390000Y-40232500D02*
X26390000Y-37692500D01*
X27390000Y-40232500D02*
X27390000Y-37692500D01*
X28390000Y-40232500D02*
X28390000Y-37692500D01*
X29390000Y-41542500D02*
X29390000Y-37732500D01*
X30390000Y-40272500D02*
X30390000Y-37732500D01*
X31390000Y-40272500D02*
X31390000Y-37732500D01*
X32390000Y-40272500D02*
X32390000Y-37732500D01*
X33390000Y-40272500D02*
X33390000Y-37732500D01*
X34390000Y-41542500D02*
X34390000Y-37732500D01*
X35390000Y-40272500D02*
X35390000Y-37732500D01*
X36390000Y-40272500D02*
X36390000Y-37732500D01*
X37390000Y-40272500D02*
X37390000Y-37732500D01*
X38390000Y-40272500D02*
X38390000Y-37732500D01*
X39390000Y-41542500D02*
X39390000Y-37732500D01*
X40390000Y-40272500D02*
X40390000Y-37732500D01*
X41390000Y-40272500D02*
X41390000Y-37732500D01*
X42390000Y-40272500D02*
X42390000Y-37732500D01*
X43390000Y-40272500D02*
X43390000Y-37732500D01*
X44390000Y-41542500D02*
X44390000Y-37732500D01*
X45390000Y-40272500D02*
X45390000Y-37732500D01*
X46390000Y-40272500D02*
X46390000Y-37732500D01*
X47390000Y-40272500D02*
X47390000Y-37732500D01*
X48390000Y-40272500D02*
X48390000Y-37732500D01*
X49390000Y-41542500D02*
X49390000Y-37732500D01*
X50390000Y-40272500D02*
X50390000Y-37732500D01*
X51390000Y-40272500D02*
X51390000Y-37732500D01*
X52390000Y-40272500D02*
X52390000Y-37732500D01*
X53390000Y-40272500D02*
X53390000Y-37732500D01*
X54390000Y-41542500D02*
X54390000Y-37732500D01*
X55390000Y-40272500D02*
X55390000Y-37732500D01*
X56390000Y-40272500D02*
X56390000Y-37732500D01*
X57390000Y-40272500D02*
X57390000Y-37732500D01*
X58390000Y-40272500D02*
X58390000Y-37732500D01*
X59390000Y-41542500D02*
X59390000Y-37732500D01*
X60390000Y-40272500D02*
X60390000Y-37732500D01*
X61390000Y-40272500D02*
X61390000Y-37732500D01*
X62390000Y-40272500D02*
X62390000Y-37732500D01*
X63390000Y-40272500D02*
X63390000Y-37732500D01*
X64390000Y-41542500D02*
X64390000Y-37732500D01*
X65390000Y-40272500D02*
X65390000Y-37732500D01*
X66390000Y-40272500D02*
X66390000Y-37732500D01*
X67390000Y-40272500D02*
X67390000Y-37732500D01*
X68390000Y-40272500D02*
X68390000Y-37732500D01*
X69390000Y-41542500D02*
X69390000Y-37732500D01*
X70390000Y-40272500D02*
X70390000Y-37732500D01*
X71390000Y-40272500D02*
X71390000Y-37732500D01*
X72390000Y-40272500D02*
X72390000Y-37732500D01*
X73390000Y-40272500D02*
X73390000Y-37732500D01*
X74390000Y-41542500D02*
X74390000Y-37732500D01*
X75390000Y-40272500D02*
X75390000Y-37732500D01*
X76390000Y-40272500D02*
X76390000Y-37732500D01*
X77390000Y-40272500D02*
X77390000Y-37732500D01*
X78390000Y-40272500D02*
X78390000Y-37732500D01*
X79390000Y-41542500D02*
X79390000Y-37732500D01*
X80390000Y-40272500D02*
X80390000Y-37732500D01*
X81390000Y-40272500D02*
X81390000Y-37732500D01*
X82390000Y-40272500D02*
X82390000Y-37732500D01*
X83390000Y-40272500D02*
X83390000Y-37732500D01*
X84390000Y-41542500D02*
X84390000Y-37732500D01*
X85390000Y-40272500D02*
X85390000Y-37732500D01*
X86390000Y-40272500D02*
X86390000Y-37732500D01*
X87390000Y-40272500D02*
X87390000Y-37732500D01*
X88390000Y-40272500D02*
X88390000Y-37732500D01*
X89390000Y-41542500D02*
X89390000Y-37732500D01*
X90390000Y-40272500D02*
X90390000Y-37732500D01*
X91390000Y-40272500D02*
X91390000Y-37732500D01*
X92390000Y-40272500D02*
X92390000Y-37732500D01*
X93390000Y-40272500D02*
X93390000Y-37732500D01*
X94390000Y-41542500D02*
X94390000Y-37732500D01*
X95390000Y-40272500D02*
X95390000Y-37732500D01*
X96390000Y-40272500D02*
X96390000Y-37732500D01*
X97390000Y-40272500D02*
X97390000Y-37732500D01*
X98390000Y-40272500D02*
X98390000Y-37732500D01*
X99390000Y-41542500D02*
X99390000Y-37732500D01*
X100390000Y-40272500D02*
X100390000Y-37732500D01*
X101390000Y-40272500D02*
X101390000Y-37732500D01*
X102390000Y-40272500D02*
X102390000Y-37732500D01*
X103390000Y-40272500D02*
X103390000Y-37732500D01*
X104390000Y-41542500D02*
X104390000Y-37732500D01*
X105390000Y-40272500D02*
X105390000Y-37732500D01*
X106390000Y-40272500D02*
X106390000Y-37732500D01*
X107390000Y-40272500D02*
X107390000Y-37732500D01*
X108390000Y-40272500D02*
X108390000Y-37732500D01*
X109390000Y-41542500D02*
X109390000Y-37732500D01*
X110390000Y-40272500D02*
X110390000Y-37732500D01*
X111390000Y-40272500D02*
X111390000Y-37732500D01*
X112390000Y-40272500D02*
X112390000Y-37732500D01*
X113390000Y-40272500D02*
X113390000Y-37732500D01*
X114390000Y-41542500D02*
X114390000Y-37732500D01*
X115390000Y-40272500D02*
X115390000Y-37732500D01*
X116390000Y-40272500D02*
X116390000Y-37732500D01*
X117390000Y-40272500D02*
X117390000Y-37732500D01*
X118390000Y-40272500D02*
X118390000Y-37732500D01*
%TD*%
D11*
%TO.P,R2,1*%
%TO.N,Net-(Q1-G)*%
X70470000Y-69452500D03*
%TO.P,R2,2*%
%TO.N,GND*%
X70470000Y-67627500D03*
%TD*%
%TO.P,R6,1*%
%TO.N,Net-(R6-Pad1)*%
X93660000Y-55592500D03*
%TO.P,R6,2*%
%TO.N,GND*%
X93660000Y-53767500D03*
%TD*%
D12*
%TO.P,R10,1*%
%TO.N,Net-(D5-A)*%
X100660000Y-70394750D03*
%TO.P,R10,2*%
%TO.N,Net-(U4-OUT)*%
X100660000Y-68744750D03*
%TD*%
D11*
%TO.P,R5,1*%
%TO.N,Net-(SW1-B)*%
X66830000Y-52652500D03*
%TO.P,R5,2*%
%TO.N,GND*%
X66830000Y-50827500D03*
%TD*%
D13*
%TO.P,D1,1,A1*%
%TO.N,GND*%
X36140000Y-56770000D03*
%TO.P,D1,2,A2*%
%TO.N,+5V*%
X36140000Y-57610000D03*
%TD*%
D14*
%TO.P,D2,1,K*%
%TO.N,Net-(D2-K)*%
X90318750Y-70420000D03*
%TO.P,D2,2,A*%
%TO.N,+5V*%
X92193750Y-70420000D03*
%TD*%
D15*
%TO.P,U4,1,GND*%
%TO.N,GND*%
X102390000Y-66425000D03*
%TO.P,U4,2,TRIG*%
%TO.N,/THRES*%
X102390000Y-67695000D03*
%TO.P,U4,3,OUT*%
%TO.N,Net-(U4-OUT)*%
X102390000Y-68965000D03*
%TO.P,U4,4,RESET*%
%TO.N,+5V*%
X102390000Y-70235000D03*
%TO.P,U4,5,CONT*%
%TO.N,unconnected-(U4-CONT-Pad5)*%
X107790000Y-70235000D03*
%TO.P,U4,6,THRES*%
%TO.N,/THRES*%
X107790000Y-68965000D03*
%TO.P,U4,7,DISCH*%
%TO.N,/DISCH*%
X107790000Y-67695000D03*
%TO.P,U4,8,VCC*%
%TO.N,+5V*%
X107790000Y-66425000D03*
%TD*%
D16*
%TO.P,D5,1,K*%
%TO.N,GND*%
X100660000Y-73672250D03*
%TO.P,D5,2,A*%
%TO.N,Net-(D5-A)*%
X100660000Y-71797250D03*
%TD*%
D17*
%TO.P,R8,1*%
%TO.N,+5V*%
X110020000Y-66260000D03*
%TO.P,R8,2*%
%TO.N,/DISCH*%
X110020000Y-67910000D03*
%TD*%
D18*
%TO.P,J1,1,VBUS*%
%TO.N,Net-(J1-VBUS)*%
X24740000Y-61192500D03*
%TO.P,J1,2,D-*%
%TO.N,unconnected-(J1-D--Pad2)*%
X24740000Y-58692500D03*
%TO.P,J1,3,D+*%
%TO.N,unconnected-(J1-D+-Pad3)*%
X24740000Y-56692500D03*
%TO.P,J1,4,GND*%
%TO.N,GND*%
X24740000Y-54192500D03*
D19*
%TO.P,J1,5,Shield*%
%TO.N,unconnected-(J1-Shield-Pad5)*%
X22140000Y-63542500D03*
%TO.N,unconnected-(J1-Shield-Pad5)_1*%
X22140000Y-51842500D03*
%TD*%
D20*
%TO.P,D4,1,K*%
%TO.N,GND*%
X92127500Y-61822502D03*
%TO.P,D4,2,A*%
%TO.N,Net-(D4-A)*%
X90252500Y-61822502D03*
%TD*%
D17*
%TO.P,R3,1*%
%TO.N,Net-(D3-A)*%
X74260000Y-66782500D03*
%TO.P,R3,2*%
%TO.N,Net-(Q1-G)*%
X74260000Y-68432500D03*
%TD*%
D21*
%TO.P,Q1,1,G*%
%TO.N,Net-(Q1-G)*%
X78952500Y-69470000D03*
%TO.P,Q1,2,S*%
%TO.N,GND*%
X78952500Y-71370000D03*
%TO.P,Q1,3,D*%
%TO.N,Net-(Q1-D)*%
X81227500Y-70420000D03*
%TD*%
D22*
%TO.P,U3,1,VBAT*%
%TO.N,unconnected-(U3-VBAT-Pad1)*%
X99415000Y-50942500D03*
%TO.P,U3,2,PC13*%
%TO.N,unconnected-(U3-PC13-Pad2)*%
X99415000Y-51442500D03*
%TO.P,U3,3,PC14*%
%TO.N,unconnected-(U3-PC14-Pad3)*%
X99415000Y-51942500D03*
%TO.P,U3,4,PC15*%
%TO.N,unconnected-(U3-PC15-Pad4)*%
X99415000Y-52442500D03*
%TO.P,U3,5,PF0*%
%TO.N,unconnected-(U3-PF0-Pad5)*%
X99415000Y-52942500D03*
%TO.P,U3,6,PF1*%
%TO.N,unconnected-(U3-PF1-Pad6)*%
X99415000Y-53442500D03*
%TO.P,U3,7,PG10*%
%TO.N,unconnected-(U3-PG10-Pad7)*%
X99415000Y-53942500D03*
%TO.P,U3,8,PC0*%
%TO.N,unconnected-(U3-PC0-Pad8)*%
X99415000Y-54442500D03*
%TO.P,U3,9,PC1*%
%TO.N,unconnected-(U3-PC1-Pad9)*%
X99415000Y-54942500D03*
%TO.P,U3,10,PC2*%
%TO.N,unconnected-(U3-PC2-Pad10)*%
X99415000Y-55442500D03*
%TO.P,U3,11,PC3*%
%TO.N,unconnected-(U3-PC3-Pad11)*%
X99415000Y-55942500D03*
%TO.P,U3,12,PA0*%
%TO.N,unconnected-(U3-PA0-Pad12)*%
X99415000Y-56442500D03*
%TO.P,U3,13,PA1*%
%TO.N,unconnected-(U3-PA1-Pad13)*%
X99415000Y-56942500D03*
%TO.P,U3,14,PA2*%
%TO.N,unconnected-(U3-PA2-Pad14)*%
X99415000Y-57442500D03*
%TO.P,U3,15,VSS*%
%TO.N,unconnected-(U3-VSS-Pad15)_2*%
X99415000Y-57942500D03*
%TO.P,U3,16,VDD*%
%TO.N,unconnected-(U3-VDD-Pad16)*%
X99415000Y-58442500D03*
D23*
%TO.P,U3,17,PA3*%
%TO.N,unconnected-(U3-PA3-Pad17)*%
X101340000Y-60367500D03*
%TO.P,U3,18,PA4*%
%TO.N,unconnected-(U3-PA4-Pad18)*%
X101840000Y-60367500D03*
%TO.P,U3,19,PA5*%
%TO.N,unconnected-(U3-PA5-Pad19)*%
X102340000Y-60367500D03*
%TO.P,U3,20,PA6*%
%TO.N,unconnected-(U3-PA6-Pad20)*%
X102840000Y-60367500D03*
%TO.P,U3,21,PA7*%
%TO.N,unconnected-(U3-PA7-Pad21)*%
X103340000Y-60367500D03*
%TO.P,U3,22,PC4*%
%TO.N,unconnected-(U3-PC4-Pad22)*%
X103840000Y-60367500D03*
%TO.P,U3,23,PC5*%
%TO.N,unconnected-(U3-PC5-Pad23)*%
X104340000Y-60367500D03*
%TO.P,U3,24,PB0*%
%TO.N,unconnected-(U3-PB0-Pad24)*%
X104840000Y-60367500D03*
%TO.P,U3,25,PB1*%
%TO.N,unconnected-(U3-PB1-Pad25)*%
X105340000Y-60367500D03*
%TO.P,U3,26,PB2*%
%TO.N,unconnected-(U3-PB2-Pad26)*%
X105840000Y-60367500D03*
%TO.P,U3,27,VSSA*%
%TO.N,unconnected-(U3-VSSA-Pad27)*%
X106340000Y-60367500D03*
%TO.P,U3,28,VREF+*%
%TO.N,unconnected-(U3-VREF+-Pad28)*%
X106840000Y-60367500D03*
%TO.P,U3,29,VDDA*%
%TO.N,unconnected-(U3-VDDA-Pad29)*%
X107340000Y-60367500D03*
%TO.P,U3,30,PB10*%
%TO.N,unconnected-(U3-PB10-Pad30)*%
X107840000Y-60367500D03*
%TO.P,U3,31,VSS*%
%TO.N,unconnected-(U3-VSS-Pad15)_3*%
X108340000Y-60367500D03*
%TO.P,U3,32,VDD*%
%TO.N,unconnected-(U3-VDD-Pad32)*%
X108840000Y-60367500D03*
D22*
%TO.P,U3,33,PB11*%
%TO.N,unconnected-(U3-PB11-Pad33)*%
X110765000Y-58442500D03*
%TO.P,U3,34,PB12*%
%TO.N,unconnected-(U3-PB12-Pad34)*%
X110765000Y-57942500D03*
%TO.P,U3,35,PB13*%
%TO.N,unconnected-(U3-PB13-Pad35)*%
X110765000Y-57442500D03*
%TO.P,U3,36,PB14*%
%TO.N,unconnected-(U3-PB14-Pad36)*%
X110765000Y-56942500D03*
%TO.P,U3,37,PB15*%
%TO.N,unconnected-(U3-PB15-Pad37)*%
X110765000Y-56442500D03*
%TO.P,U3,38,PC6*%
%TO.N,unconnected-(U3-PC6-Pad38)*%
X110765000Y-55942500D03*
%TO.P,U3,39,PC7*%
%TO.N,unconnected-(U3-PC7-Pad39)*%
X110765000Y-55442500D03*
%TO.P,U3,40,PC8*%
%TO.N,unconnected-(U3-PC8-Pad40)*%
X110765000Y-54942500D03*
%TO.P,U3,41,PC9*%
%TO.N,unconnected-(U3-PC9-Pad41)*%
X110765000Y-54442500D03*
%TO.P,U3,42,PA8*%
%TO.N,unconnected-(U3-PA8-Pad42)*%
X110765000Y-53942500D03*
%TO.P,U3,43,PA9*%
%TO.N,unconnected-(U3-PA9-Pad43)*%
X110765000Y-53442500D03*
%TO.P,U3,44,PA10*%
%TO.N,unconnected-(U3-PA10-Pad44)*%
X110765000Y-52942500D03*
%TO.P,U3,45,PA11*%
%TO.N,unconnected-(U3-PA11-Pad45)*%
X110765000Y-52442500D03*
%TO.P,U3,46,PA12*%
%TO.N,unconnected-(U3-PA12-Pad46)*%
X110765000Y-51942500D03*
%TO.P,U3,47,VSS*%
%TO.N,unconnected-(U3-VSS-Pad15)*%
X110765000Y-51442500D03*
%TO.P,U3,48,VDD*%
%TO.N,unconnected-(U3-VDD-Pad48)*%
X110765000Y-50942500D03*
D23*
%TO.P,U3,49,PA13*%
%TO.N,unconnected-(U3-PA13-Pad49)*%
X108840000Y-49017500D03*
%TO.P,U3,50,PA14*%
%TO.N,unconnected-(U3-PA14-Pad50)*%
X108340000Y-49017500D03*
%TO.P,U3,51,PA15*%
%TO.N,unconnected-(U3-PA15-Pad51)*%
X107840000Y-49017500D03*
%TO.P,U3,52,PC10*%
%TO.N,unconnected-(U3-PC10-Pad52)*%
X107340000Y-49017500D03*
%TO.P,U3,53,PC11*%
%TO.N,unconnected-(U3-PC11-Pad53)*%
X106840000Y-49017500D03*
%TO.P,U3,54,PC12*%
%TO.N,unconnected-(U3-PC12-Pad54)*%
X106340000Y-49017500D03*
%TO.P,U3,55,PD2*%
%TO.N,unconnected-(U3-PD2-Pad55)*%
X105840000Y-49017500D03*
%TO.P,U3,56,PB3*%
%TO.N,unconnected-(U3-PB3-Pad56)*%
X105340000Y-49017500D03*
%TO.P,U3,57,PB4*%
%TO.N,unconnected-(U3-PB4-Pad57)*%
X104840000Y-49017500D03*
%TO.P,U3,58,PB5*%
%TO.N,unconnected-(U3-PB5-Pad58)*%
X104340000Y-49017500D03*
%TO.P,U3,59,PB6*%
%TO.N,unconnected-(U3-PB6-Pad59)*%
X103840000Y-49017500D03*
%TO.P,U3,60,PB7*%
%TO.N,unconnected-(U3-PB7-Pad60)*%
X103340000Y-49017500D03*
%TO.P,U3,61,PB8*%
%TO.N,unconnected-(U3-PB8-Pad61)*%
X102840000Y-49017500D03*
%TO.P,U3,62,PB9*%
%TO.N,unconnected-(U3-PB9-Pad62)*%
X102340000Y-49017500D03*
%TO.P,U3,63,VSS*%
%TO.N,unconnected-(U3-VSS-Pad15)_1*%
X101840000Y-49017500D03*
%TO.P,U3,64,VDD*%
%TO.N,unconnected-(U3-VDD-Pad64)*%
X101340000Y-49017500D03*
%TD*%
D24*
%TO.P,C3,1*%
%TO.N,GND*%
X104315000Y-64875000D03*
%TO.P,C3,2*%
%TO.N,+5V*%
X105865000Y-64875000D03*
%TD*%
%TO.P,C2,1*%
%TO.N,+5V*%
X85335000Y-56950000D03*
%TO.P,C2,2*%
%TO.N,GND*%
X86885000Y-56950000D03*
%TD*%
D25*
%TO.P,R4,1*%
%TO.N,Net-(D2-K)*%
X87061250Y-70420000D03*
%TO.P,R4,2*%
%TO.N,Net-(Q1-D)*%
X85411250Y-70420000D03*
%TD*%
D26*
%TO.P,U2,1*%
%TO.N,Net-(D3-K)*%
X85360000Y-52102500D03*
%TO.P,U2,2*%
%TO.N,Net-(SW1-B)*%
X84710000Y-52102500D03*
%TO.P,U2,3,GND*%
%TO.N,GND*%
X84060000Y-52102500D03*
%TO.P,U2,4*%
%TO.N,Net-(R6-Pad1)*%
X84060000Y-54002500D03*
%TO.P,U2,5,VCC*%
%TO.N,+5V*%
X85360000Y-54002500D03*
%TD*%
D27*
%TO.P,C4,1*%
%TO.N,/THRES*%
X110020000Y-72230000D03*
%TO.P,C4,2*%
%TO.N,GND*%
X110020000Y-73780000D03*
%TD*%
D17*
%TO.P,R9,1*%
%TO.N,/DISCH*%
X110020000Y-69220000D03*
%TO.P,R9,2*%
%TO.N,/THRES*%
X110020000Y-70870000D03*
%TD*%
D28*
%TO.P,U1,1*%
%TO.N,+5V*%
X65830000Y-72960000D03*
%TO.P,U1,2*%
%TO.N,Net-(R1-Pad1)*%
X66780000Y-72960000D03*
%TO.P,U1,3,GND*%
%TO.N,GND*%
X67730000Y-72960000D03*
%TO.P,U1,4*%
%TO.N,Net-(Q1-G)*%
X67730000Y-70685000D03*
%TO.P,U1,5,VCC*%
%TO.N,+5V*%
X65830000Y-70685000D03*
%TD*%
D27*
%TO.P,C1,1*%
%TO.N,+5V*%
X61490000Y-72275000D03*
%TO.P,C1,2*%
%TO.N,GND*%
X61490000Y-73825000D03*
%TD*%
D12*
%TO.P,R7,1*%
%TO.N,Net-(D4-A)*%
X90250000Y-57245000D03*
%TO.P,R7,2*%
%TO.N,Net-(R6-Pad1)*%
X90250000Y-55595000D03*
%TD*%
D29*
%TO.P,SW2,1,1*%
%TO.N,+5V*%
X48060000Y-72652500D03*
%TO.P,SW2,2,2*%
X48060000Y-66652500D03*
%TO.P,SW2,3,3*%
%TO.N,Net-(R1-Pad1)*%
X51760000Y-72652500D03*
%TO.P,SW2,4,4*%
X51760000Y-66652500D03*
%TD*%
D11*
%TO.P,R1,1*%
%TO.N,Net-(R1-Pad1)*%
X58140000Y-69492500D03*
%TO.P,R1,2*%
%TO.N,GND*%
X58140000Y-67667500D03*
%TD*%
D30*
%TO.P,SW1,1,A*%
%TO.N,+5V*%
X46610000Y-52652500D03*
%TO.P,SW1,2,B*%
%TO.N,Net-(SW1-B)*%
X53210000Y-52652500D03*
%TD*%
D20*
%TO.P,D3,1,K*%
%TO.N,Net-(D3-K)*%
X76197500Y-63822500D03*
%TO.P,D3,2,A*%
%TO.N,Net-(D3-A)*%
X74322500Y-63822500D03*
%TD*%
D31*
%TO.P,F1,1*%
%TO.N,+5V*%
X36140000Y-61190000D03*
%TO.P,F1,2*%
%TO.N,Net-(J1-VBUS)*%
X33340000Y-61190000D03*
%TD*%
D32*
%TO.P,REF\u002A\u002A,1*%
%TO.N,N/C*%
X117440000Y-63943000D03*
%TD*%
D33*
%TO.P,REF\u002A\u002A,1*%
%TO.N,N/C*%
X117940000Y-57443000D03*
%TD*%
D34*
%TO.P,REF\u002A\u002A,1*%
%TO.N,N/C*%
X118190000Y-54293000D03*
%TD*%
D35*
%TO.P,REF\u002A\u002A,1*%
%TO.N,N/C*%
X117740000Y-61443000D03*
%TD*%
D36*
%TO.P,REF\u002A\u002A,1*%
%TO.N,N/C*%
X118040000Y-55743000D03*
%TD*%
D37*
%TO.P,REF\u002A\u002A,1*%
%TO.N,N/C*%
X116540000Y-74843000D03*
%TD*%
D38*
%TO.P,REF\u002A\u002A,1*%
%TO.N,N/C*%
X117840000Y-59343000D03*
%TD*%
D39*
%TO.P,REF\u002A\u002A,1*%
%TO.N,N/C*%
X118290000Y-53093000D03*
%TD*%
D40*
%TO.P,REF\u002A\u002A,1*%
%TO.N,N/C*%
X118340000Y-52043000D03*
%TD*%
D41*
%TO.P,REF\u002A\u002A,1*%
%TO.N,N/C*%
X116940000Y-70643000D03*
%TD*%
D42*
%TO.P,REF\u002A\u002A,1*%
%TO.N,N/C*%
X117140000Y-67043000D03*
%TD*%
D43*
%TO.N,GND*%
X95170000Y-55277500D02*
X95170000Y-57610000D01*
X100660000Y-73672250D02*
X100137200Y-73672250D01*
X86885000Y-60144280D02*
X89714222Y-62973502D01*
X62117500Y-53702500D02*
X82460000Y-53702500D01*
X70430000Y-67667500D02*
X70470000Y-67627500D01*
X78952500Y-71370000D02*
X80066000Y-70256500D01*
X95170000Y-58780002D02*
X95170000Y-57610000D01*
X58140000Y-63650000D02*
X58140000Y-67667500D01*
X104315000Y-64875000D02*
X103940000Y-64875000D01*
X58180000Y-67627500D02*
X58140000Y-67667500D01*
X51195000Y-73825000D02*
X61490000Y-73825000D01*
X80066000Y-70256500D02*
X80066000Y-69066900D01*
X50370364Y-48481500D02*
X65530000Y-48481500D01*
X49940000Y-55450000D02*
X49940000Y-72570000D01*
X49940000Y-51050000D02*
X49940000Y-55450000D01*
X110020000Y-73780000D02*
X100767750Y-73780000D01*
X108409196Y-63248000D02*
X110946000Y-65784804D01*
X99008000Y-68287034D02*
X100870034Y-66425000D01*
X36140000Y-55152500D02*
X35180000Y-54192500D01*
X93660000Y-53767500D02*
X95170000Y-55277500D01*
X58140000Y-67667500D02*
X70430000Y-67667500D01*
X78626600Y-67627500D02*
X78002500Y-67627500D01*
X47460000Y-48481500D02*
X47460000Y-48570000D01*
X38362500Y-54192500D02*
X44073500Y-48481500D01*
X69320000Y-71370000D02*
X78952500Y-71370000D01*
X47460000Y-48570000D02*
X49940000Y-51050000D01*
X80066000Y-69066900D02*
X78626600Y-67627500D01*
X51735000Y-57245000D02*
X52700000Y-58210000D01*
X66830000Y-50827500D02*
X66830000Y-49781500D01*
X92127500Y-61822502D02*
X95170000Y-58780002D01*
X36140000Y-56770000D02*
X36140000Y-55152500D01*
X97908000Y-63248000D02*
X108409196Y-63248000D01*
X47460000Y-48481500D02*
X50370364Y-48481500D01*
X38362500Y-54192500D02*
X35180000Y-54192500D01*
X49940000Y-72570000D02*
X51195000Y-73825000D01*
X110946000Y-72854000D02*
X110020000Y-73780000D01*
X95170000Y-57610000D02*
X95170000Y-60510000D01*
X100137200Y-73672250D02*
X99008000Y-72543050D01*
X88374000Y-48481500D02*
X65530000Y-48481500D01*
X52700000Y-58210000D02*
X58140000Y-63650000D01*
X44073500Y-48481500D02*
X47460000Y-48481500D01*
X100870034Y-66425000D02*
X102390000Y-66425000D01*
X99008000Y-72543050D02*
X99008000Y-68287034D01*
D44*
X70470000Y-67627500D02*
X78002500Y-67627500D01*
D43*
X110946000Y-65784804D02*
X110946000Y-72854000D01*
X95170000Y-60510000D02*
X97908000Y-63248000D01*
X58575000Y-57245000D02*
X51735000Y-57245000D01*
X67730000Y-72960000D02*
X69320000Y-71370000D01*
X62117500Y-53702500D02*
X58575000Y-57245000D01*
X100767750Y-73780000D02*
X100660000Y-73672250D01*
X89714222Y-62973502D02*
X90976500Y-62973502D01*
X86885000Y-56950000D02*
X86885000Y-60144280D01*
X103940000Y-64875000D02*
X102390000Y-66425000D01*
X35180000Y-54192500D02*
X24740000Y-54192500D01*
X93660000Y-53767500D02*
X88374000Y-48481500D01*
X49940000Y-55450000D02*
X51735000Y-57245000D01*
X90976500Y-62973502D02*
X92127500Y-61822502D01*
X66830000Y-49781500D02*
X65530000Y-48481500D01*
X82460000Y-53702500D02*
X84060000Y-52102500D01*
%TO.N,+5V*%
X59940000Y-75310000D02*
X64260000Y-75310000D01*
X65830000Y-70685000D02*
X65830000Y-72960000D01*
X105865000Y-67467000D02*
X103097000Y-70235000D01*
X61490000Y-72275000D02*
X65145000Y-72275000D01*
X65830000Y-73740000D02*
X64260000Y-75310000D01*
X52717500Y-75310000D02*
X59940000Y-75310000D01*
X92193750Y-70420000D02*
X92193750Y-68223750D01*
X85360000Y-56925000D02*
X85335000Y-56950000D01*
X104939000Y-63949000D02*
X105865000Y-64875000D01*
X109855000Y-66425000D02*
X110020000Y-66260000D01*
X64260000Y-75310000D02*
X71090000Y-75310000D01*
X42597500Y-61190000D02*
X48060000Y-66652500D01*
X85360000Y-54002500D02*
X85360000Y-56925000D01*
X92193750Y-70420000D02*
X98664750Y-63949000D01*
X107790000Y-66425000D02*
X109855000Y-66425000D01*
X92193750Y-68223750D02*
X85335000Y-61365000D01*
X48060000Y-66652500D02*
X48060000Y-72652500D01*
X107790000Y-66425000D02*
X107415000Y-66425000D01*
X36140000Y-61190000D02*
X40350000Y-61190000D01*
X105865000Y-64875000D02*
X105865000Y-67467000D01*
X40350000Y-61190000D02*
X46610000Y-54930000D01*
X71090000Y-75310000D02*
X73180000Y-75310000D01*
X103097000Y-70235000D02*
X102390000Y-70235000D01*
X48060000Y-72652500D02*
X50717500Y-75310000D01*
X40350000Y-61190000D02*
X42597500Y-61190000D01*
X73180000Y-75310000D02*
X88820000Y-75310000D01*
X88820000Y-75310000D02*
X92193750Y-71936250D01*
X85335000Y-61365000D02*
X85335000Y-56950000D01*
X107415000Y-66425000D02*
X105865000Y-64875000D01*
X36140000Y-61190000D02*
X36140000Y-57610000D01*
X50717500Y-75310000D02*
X52717500Y-75310000D01*
X98664750Y-63949000D02*
X104939000Y-63949000D01*
X46610000Y-54930000D02*
X46610000Y-52652500D01*
X65145000Y-72275000D02*
X65830000Y-72960000D01*
X92193750Y-71936250D02*
X92193750Y-70420000D01*
X65830000Y-72960000D02*
X65830000Y-73740000D01*
D44*
%TO.N,Net-(D3-A)*%
X74260000Y-66782500D02*
X74260000Y-63885000D01*
X74260000Y-63885000D02*
X74322500Y-63822500D01*
%TO.N,Net-(D4-A)*%
X90250000Y-61820002D02*
X90252500Y-61822502D01*
X90250000Y-57245000D02*
X90250000Y-61820002D01*
%TO.N,Net-(D2-K)*%
X87061250Y-70420000D02*
X90318750Y-70420000D01*
D43*
%TO.N,Net-(J1-VBUS)*%
X24740000Y-61192500D02*
X33337500Y-61192500D01*
X33337500Y-61192500D02*
X33340000Y-61190000D01*
D44*
%TO.N,Net-(D3-K)*%
X85360000Y-52102500D02*
X85360000Y-52427499D01*
X76197500Y-60899418D02*
X76197500Y-63822500D01*
X84961999Y-52825500D02*
X84271418Y-52825500D01*
X85360000Y-52427499D02*
X84961999Y-52825500D01*
X84271418Y-52825500D02*
X76197500Y-60899418D01*
%TO.N,Net-(R1-Pad1)*%
X51760000Y-71162500D02*
X53420000Y-69502500D01*
X51760000Y-72652500D02*
X51760000Y-71162500D01*
X53420000Y-69502500D02*
X58130000Y-69502500D01*
X51760000Y-68352500D02*
X52910000Y-69502500D01*
X52910000Y-69502500D02*
X53420000Y-69502500D01*
X51760000Y-66652500D02*
X51760000Y-68352500D01*
X58130000Y-69502500D02*
X58140000Y-69492500D01*
X66012678Y-69492500D02*
X66780000Y-70259822D01*
X66780000Y-70259822D02*
X66780000Y-72960000D01*
X58140000Y-69492500D02*
X66012678Y-69492500D01*
%TO.N,Net-(SW1-B)*%
X84710000Y-51786918D02*
X84349582Y-51426500D01*
X84710000Y-52102500D02*
X84710000Y-51786918D01*
X53210000Y-52652500D02*
X66830000Y-52652500D01*
X80387500Y-52652500D02*
X66830000Y-52652500D01*
X81613500Y-51426500D02*
X80387500Y-52652500D01*
X84349582Y-51426500D02*
X81613500Y-51426500D01*
%TO.N,Net-(R6-Pad1)*%
X84060000Y-54002500D02*
X84736000Y-53326500D01*
X90347500Y-55592500D02*
X93660000Y-55592500D01*
X90250000Y-55595000D02*
X90345000Y-55595000D01*
X90345000Y-55595000D02*
X90347500Y-55592500D01*
X84736000Y-53326500D02*
X87981500Y-53326500D01*
X87981500Y-53326500D02*
X90250000Y-55595000D01*
%TO.N,Net-(Q1-D)*%
X85411250Y-70420000D02*
X81227500Y-70420000D01*
%TO.N,Net-(Q1-G)*%
X73240000Y-69452500D02*
X74260000Y-68432500D01*
X70470000Y-69452500D02*
X73240000Y-69452500D01*
X73240000Y-69452500D02*
X78935000Y-69452500D01*
X68962500Y-69452500D02*
X67730000Y-70685000D01*
X70470000Y-69452500D02*
X68962500Y-69452500D01*
X78935000Y-69452500D02*
X78952500Y-69470000D01*
%TO.N,Net-(D5-A)*%
X100660000Y-71797250D02*
X100660000Y-70394750D01*
%TO.N,/DISCH*%
X107790000Y-67695000D02*
X109805000Y-67695000D01*
X109805000Y-67695000D02*
X110020000Y-67910000D01*
X110020000Y-67910000D02*
X110020000Y-69220000D01*
%TO.N,/THRES*%
X110020000Y-70870000D02*
X108115000Y-68965000D01*
X101594250Y-72635750D02*
X105265000Y-68965000D01*
X99950642Y-72635750D02*
X101594250Y-72635750D01*
X102390000Y-67695000D02*
X100449976Y-67695000D01*
X108115000Y-68965000D02*
X107790000Y-68965000D01*
X99609000Y-68535976D02*
X99609000Y-72294108D01*
X105265000Y-68965000D02*
X107790000Y-68965000D01*
X110020000Y-70870000D02*
X110020000Y-72230000D01*
X100449976Y-67695000D02*
X99609000Y-68535976D01*
X99609000Y-72294108D02*
X99950642Y-72635750D01*
%TO.N,Net-(U4-OUT)*%
X102390000Y-68965000D02*
X100880250Y-68965000D01*
X100880250Y-68965000D02*
X100660000Y-68744750D01*
%TD*%
M02*
