%TF.GenerationSoftware,KiCad,Pcbnew,9.0.6*%
%TF.CreationDate,2025-11-26T14:41:24-05:00*%
%TF.ProjectId,smt_training,736d745f-7472-4616-996e-696e672e6b69,1.1*%
%TF.SameCoordinates,Original*%
%TF.FileFunction,Copper,L2,Bot*%
%TF.FilePolarity,Positive*%
%FSLAX46Y46*%
G04 Gerber Fmt 4.6, Leading zero omitted, Abs format (unit mm)*
G04 Created by KiCad (PCBNEW 9.0.6) date 2025-11-26 14:41:24*
%MOMM*%
%LPD*%
G01*
G04 APERTURE LIST*
G04 Aperture macros list*
%AMRoundRect*
0 Rectangle with rounded corners*
0 $1 Rounding radius*
0 $2 $3 $4 $5 $6 $7 $8 $9 X,Y pos of 4 corners*
0 Add a 4 corners polygon primitive as box body*
4,1,4,$2,$3,$4,$5,$6,$7,$8,$9,$2,$3,0*
0 Add four circle primitives for the rounded corners*
1,1,$1+$1,$2,$3*
1,1,$1+$1,$4,$5*
1,1,$1+$1,$6,$7*
1,1,$1+$1,$8,$9*
0 Add four rect primitives between the rounded corners*
20,1,$1+$1,$2,$3,$4,$5,0*
20,1,$1+$1,$4,$5,$6,$7,0*
20,1,$1+$1,$6,$7,$8,$9,0*
20,1,$1+$1,$8,$9,$2,$3,0*%
G04 Aperture macros list end*
%TA.AperFunction,NonConductor*%
%ADD10C,0.600000*%
%TD*%
%TA.AperFunction,NonConductor*%
%ADD11C,1.200000*%
%TD*%
%TA.AperFunction,NonConductor*%
%ADD12C,1.600000*%
%TD*%
%TA.AperFunction,NonConductor*%
%ADD13C,0.300000*%
%TD*%
%TA.AperFunction,NonConductor*%
%ADD14C,0.100000*%
%TD*%
%TA.AperFunction,NonConductor*%
%ADD15C,3.200000*%
%TD*%
%TA.AperFunction,NonConductor*%
%ADD16C,0.500000*%
%TD*%
%TA.AperFunction,NonConductor*%
%ADD17C,0.250000*%
%TD*%
%TA.AperFunction,NonConductor*%
%ADD18C,0.150000*%
%TD*%
%TA.AperFunction,NonConductor*%
%ADD19C,1.000000*%
%TD*%
%TA.AperFunction,NonConductor*%
%ADD20C,0.800000*%
%TD*%
%TA.AperFunction,NonConductor*%
%ADD21C,2.400000*%
%TD*%
%TA.AperFunction,NonConductor*%
%ADD22C,0.400000*%
%TD*%
%TA.AperFunction,NonConductor*%
%ADD23C,0.200000*%
%TD*%
%TA.AperFunction,EtchedComponent*%
%ADD24C,0.000000*%
%TD*%
%TA.AperFunction,EtchedComponent*%
%ADD25C,0.010000*%
%TD*%
%TA.AperFunction,HeatsinkPad*%
%ADD26O,3.200000X1.300000*%
%TD*%
%TA.AperFunction,ComponentPad*%
%ADD27R,2.400000X2.400000*%
%TD*%
%TA.AperFunction,SMDPad,CuDef*%
%ADD28RoundRect,0.125000X0.537500X0.125000X-0.537500X0.125000X-0.537500X-0.125000X0.537500X-0.125000X0*%
%TD*%
%TA.AperFunction,SMDPad,CuDef*%
%ADD29RoundRect,0.249999X0.750001X0.640001X-0.750001X0.640001X-0.750001X-0.640001X0.750001X-0.640001X0*%
%TD*%
%TA.AperFunction,SMDPad,CuDef*%
%ADD30RoundRect,0.150000X0.825000X0.150000X-0.825000X0.150000X-0.825000X-0.150000X0.825000X-0.150000X0*%
%TD*%
%TA.AperFunction,SMDPad,CuDef*%
%ADD31RoundRect,0.150000X0.512500X0.150000X-0.512500X0.150000X-0.512500X-0.150000X0.512500X-0.150000X0*%
%TD*%
%TA.AperFunction,SMDPad,CuDef*%
%ADD32RoundRect,0.375000X0.625000X0.375000X-0.625000X0.375000X-0.625000X-0.375000X0.625000X-0.375000X0*%
%TD*%
%TA.AperFunction,SMDPad,CuDef*%
%ADD33RoundRect,0.500000X0.500000X1.400000X-0.500000X1.400000X-0.500000X-1.400000X0.500000X-1.400000X0*%
%TD*%
%TA.AperFunction,SMDPad,CuDef*%
%ADD34RoundRect,0.075000X0.700000X0.075000X-0.700000X0.075000X-0.700000X-0.075000X0.700000X-0.075000X0*%
%TD*%
%TA.AperFunction,SMDPad,CuDef*%
%ADD35RoundRect,0.075000X0.075000X0.700000X-0.075000X0.700000X-0.075000X-0.700000X0.075000X-0.700000X0*%
%TD*%
%TA.AperFunction,SMDPad,CuDef*%
%ADD36RoundRect,0.150000X0.750000X0.150000X-0.750000X0.150000X-0.750000X-0.150000X0.750000X-0.150000X0*%
%TD*%
%TA.AperFunction,ComponentPad*%
%ADD37R,1.400000X1.400000*%
%TD*%
%TA.AperFunction,SMDPad,CuDef*%
%ADD38RoundRect,0.200000X0.200000X0.275000X-0.200000X0.275000X-0.200000X-0.275000X0.200000X-0.275000X0*%
%TD*%
%TA.AperFunction,ComponentPad*%
%ADD39R,0.900000X0.900000*%
%TD*%
%TA.AperFunction,ComponentPad*%
%ADD40R,1.800000X1.800000*%
%TD*%
%TA.AperFunction,SMDPad,CuDef*%
%ADD41RoundRect,0.250000X1.000000X0.650000X-1.000000X0.650000X-1.000000X-0.650000X1.000000X-0.650000X0*%
%TD*%
%TA.AperFunction,SMDPad,CuDef*%
%ADD42RoundRect,0.125000X0.625000X0.125000X-0.625000X0.125000X-0.625000X-0.125000X0.625000X-0.125000X0*%
%TD*%
%TA.AperFunction,SMDPad,CuDef*%
%ADD43RoundRect,0.125000X0.125000X0.625000X-0.125000X0.625000X-0.125000X-0.625000X0.125000X-0.625000X0*%
%TD*%
%TA.AperFunction,SMDPad,CuDef*%
%ADD44RoundRect,0.225000X0.225000X0.375000X-0.225000X0.375000X-0.225000X-0.375000X0.225000X-0.375000X0*%
%TD*%
%TA.AperFunction,SMDPad,CuDef*%
%ADD45RoundRect,0.250000X1.000000X0.900000X-1.000000X0.900000X-1.000000X-0.900000X1.000000X-0.900000X0*%
%TD*%
%TA.AperFunction,ComponentPad*%
%ADD46R,1.200000X1.200000*%
%TD*%
%TA.AperFunction,ComponentPad*%
%ADD47R,4.200000X4.200000*%
%TD*%
%TA.AperFunction,SMDPad,CuDef*%
%ADD48RoundRect,0.087500X0.250000X0.087500X-0.250000X0.087500X-0.250000X-0.087500X0.250000X-0.087500X0*%
%TD*%
%TA.AperFunction,ComponentPad*%
%ADD49R,1.600000X1.600000*%
%TD*%
%TA.AperFunction,SMDPad,CuDef*%
%ADD50RoundRect,0.112500X0.187500X0.112500X-0.187500X0.112500X-0.187500X-0.112500X0.187500X-0.112500X0*%
%TD*%
%TA.AperFunction,ComponentPad*%
%ADD51R,0.700000X0.700000*%
%TD*%
%TA.AperFunction,SMDPad,CuDef*%
%ADD52RoundRect,0.075000X0.662500X0.075000X-0.662500X0.075000X-0.662500X-0.075000X0.662500X-0.075000X0*%
%TD*%
%TA.AperFunction,SMDPad,CuDef*%
%ADD53RoundRect,0.075000X0.075000X0.662500X-0.075000X0.662500X-0.075000X-0.662500X0.075000X-0.662500X0*%
%TD*%
%TA.AperFunction,SMDPad,CuDef*%
%ADD54RoundRect,0.250000X0.312500X0.625000X-0.312500X0.625000X-0.312500X-0.625000X0.312500X-0.625000X0*%
%TD*%
%TA.AperFunction,SMDPad,CuDef*%
%ADD55RoundRect,0.250000X0.262500X0.450000X-0.262500X0.450000X-0.262500X-0.450000X0.262500X-0.450000X0*%
%TD*%
%TA.AperFunction,SMDPad,CuDef*%
%ADD56RoundRect,0.150000X0.587500X0.150000X-0.587500X0.150000X-0.587500X-0.150000X0.587500X-0.150000X0*%
%TD*%
%TA.AperFunction,ComponentPad*%
%ADD57R,0.600000X0.600000*%
%TD*%
%TA.AperFunction,SMDPad,CuDef*%
%ADD58RoundRect,0.250000X1.000000X-1.400000X1.000000X1.400000X-1.000000X1.400000X-1.000000X-1.400000X0*%
%TD*%
%TA.AperFunction,ComponentPad*%
%ADD59R,3.400000X3.400000*%
%TD*%
%TA.AperFunction,ComponentPad*%
%ADD60R,3.000000X3.000000*%
%TD*%
%TA.AperFunction,SMDPad,CuDef*%
%ADD61R,2.000000X0.640000*%
%TD*%
G04 APERTURE END LIST*
D10*
X88140000Y-63683000D02*
X83140000Y-63683000D01*
D11*
X88140000Y-68283000D02*
X83140000Y-68283000D01*
D12*
X88140000Y-70083000D02*
X83140000Y-70083000D01*
D13*
X88140000Y-58883000D02*
X83140000Y-58883000D01*
D14*
X88140000Y-52483000D02*
X83140000Y-52483000D01*
D15*
X88140000Y-75683000D02*
X83140000Y-75683000D01*
D16*
X88140000Y-62083000D02*
X83140000Y-62083000D01*
D17*
X88140000Y-57283000D02*
X83140000Y-57283000D01*
D18*
X88140000Y-54083000D02*
X83140000Y-54083000D01*
D19*
X88140000Y-66783000D02*
X83140000Y-66783000D01*
D20*
X88140000Y-65283000D02*
X83140000Y-65283000D01*
D21*
X88140000Y-72483000D02*
X83140000Y-72483000D01*
D22*
X88140000Y-60483000D02*
X83140000Y-60483000D01*
D23*
X88140000Y-55683000D02*
X83140000Y-55683000D01*
D24*
%TA.AperFunction,EtchedComponent*%
%TO.C,G\u002A\u002A\u002A*%
G36*
X22762427Y-65970630D02*
G01*
X22742405Y-66043271D01*
X22727510Y-66098269D01*
X22695407Y-66274588D01*
X22670445Y-66482989D01*
X22686068Y-66788240D01*
X22792035Y-67174643D01*
X22979566Y-67594151D01*
X23236410Y-68031157D01*
X23550312Y-68470054D01*
X23909020Y-68895236D01*
X24300281Y-69291096D01*
X24711842Y-69642027D01*
X25131450Y-69932422D01*
X25546851Y-70146676D01*
X25590461Y-70165659D01*
X25716319Y-70231444D01*
X25766924Y-70276998D01*
X25730341Y-70294132D01*
X25591685Y-70304893D01*
X25369431Y-70304875D01*
X25084645Y-70295422D01*
X24758388Y-70277879D01*
X24411723Y-70253590D01*
X24065714Y-70223900D01*
X23741424Y-70190152D01*
X23459915Y-70153692D01*
X23242251Y-70115863D01*
X22978257Y-70053953D01*
X22499857Y-69917214D01*
X22030426Y-69755332D01*
X21607372Y-69581690D01*
X21268101Y-69409668D01*
X21090460Y-69293819D01*
X20818044Y-69079306D01*
X20559077Y-68838068D01*
X20344271Y-68599461D01*
X20204341Y-68392845D01*
X20155421Y-68275985D01*
X20094055Y-67953843D01*
X20111031Y-67615334D01*
X20206252Y-67314887D01*
X20215813Y-67296519D01*
X20455160Y-66968013D01*
X20805086Y-66668300D01*
X21256767Y-66402622D01*
X21801376Y-66176217D01*
X22430091Y-65994327D01*
X22487001Y-65980897D01*
X22659181Y-65943276D01*
X22742838Y-65938576D01*
X22762427Y-65970630D01*
G37*
%TD.AperFunction*%
%TA.AperFunction,EtchedComponent*%
G36*
X24396543Y-65791090D02*
G01*
X24715230Y-65805518D01*
X25054506Y-65828103D01*
X25392848Y-65857793D01*
X25708730Y-65893537D01*
X25980626Y-65934285D01*
X26122456Y-65961965D01*
X26464483Y-66041689D01*
X26833569Y-66140851D01*
X27171251Y-66244234D01*
X27451027Y-66343481D01*
X28052974Y-66609432D01*
X28546136Y-66905620D01*
X28930094Y-67225178D01*
X29204427Y-67561240D01*
X29368716Y-67906940D01*
X29422541Y-68255411D01*
X29365481Y-68599787D01*
X29197116Y-68933201D01*
X28917027Y-69248787D01*
X28524794Y-69539677D01*
X28019996Y-69799007D01*
X27402213Y-70019909D01*
X27214755Y-70074818D01*
X26984746Y-70137699D01*
X26843550Y-70164994D01*
X26773815Y-70157221D01*
X26758187Y-70114901D01*
X26779313Y-70038552D01*
X26787201Y-70015118D01*
X26828444Y-69759123D01*
X26822459Y-69445138D01*
X26772998Y-69120529D01*
X26683811Y-68832663D01*
X26584840Y-68622512D01*
X26350016Y-68211794D01*
X26060782Y-67782649D01*
X25743036Y-67372338D01*
X25422674Y-67018121D01*
X25399504Y-66995080D01*
X25110307Y-66731042D01*
X24790707Y-66474484D01*
X24469200Y-66245791D01*
X24174286Y-66065350D01*
X23934462Y-65953547D01*
X23927993Y-65951252D01*
X23803489Y-65888190D01*
X23752020Y-65825481D01*
X23779272Y-65807248D01*
X23907039Y-65790903D01*
X24119971Y-65785868D01*
X24396543Y-65791090D01*
G37*
%TD.AperFunction*%
D25*
%TO.C,REF\u002A\u002A*%
X22208597Y-42956835D02*
X22227700Y-42975240D01*
X22283401Y-43031370D01*
X22357074Y-43107787D01*
X22445138Y-43200592D01*
X22544012Y-43305888D01*
X22650118Y-43419777D01*
X22759875Y-43538362D01*
X22869702Y-43657744D01*
X22976020Y-43774025D01*
X23075248Y-43883309D01*
X23163807Y-43981696D01*
X23238115Y-44065290D01*
X23294593Y-44130192D01*
X23329661Y-44172505D01*
X23339738Y-44188330D01*
X23336280Y-44190078D01*
X23303208Y-44208534D01*
X23237796Y-44245743D01*
X23142799Y-44300120D01*
X23020973Y-44370078D01*
X22875072Y-44454031D01*
X22707852Y-44550393D01*
X22522068Y-44657577D01*
X22320476Y-44773997D01*
X22105830Y-44898067D01*
X21880887Y-45028202D01*
X21796809Y-45076857D01*
X21575820Y-45204689D01*
X21366410Y-45325747D01*
X21171302Y-45438460D01*
X20993219Y-45541259D01*
X20834886Y-45632574D01*
X20699025Y-45710833D01*
X20588360Y-45774468D01*
X20505614Y-45821907D01*
X20453512Y-45851582D01*
X20434776Y-45861920D01*
X20435618Y-45856414D01*
X20450993Y-45824771D01*
X20479269Y-45774219D01*
X20496615Y-45744297D01*
X20533504Y-45680488D01*
X20587786Y-45586509D01*
X20657698Y-45465417D01*
X20741477Y-45320265D01*
X20837362Y-45154107D01*
X20943588Y-44969999D01*
X21058392Y-44770995D01*
X21180013Y-44560149D01*
X21306687Y-44340517D01*
X21430722Y-44125516D01*
X21551310Y-43916630D01*
X21664701Y-43720349D01*
X21769191Y-43539614D01*
X21863079Y-43377367D01*
X21944660Y-43236549D01*
X22012231Y-43120102D01*
X22064089Y-43030969D01*
X22098531Y-42972090D01*
X22113854Y-42946408D01*
X22145292Y-42897372D01*
X22208597Y-42956835D01*
%TA.AperFunction,EtchedComponent*%
G36*
X22208597Y-42956835D02*
G01*
X22227700Y-42975240D01*
X22283401Y-43031370D01*
X22357074Y-43107787D01*
X22445138Y-43200592D01*
X22544012Y-43305888D01*
X22650118Y-43419777D01*
X22759875Y-43538362D01*
X22869702Y-43657744D01*
X22976020Y-43774025D01*
X23075248Y-43883309D01*
X23163807Y-43981696D01*
X23238115Y-44065290D01*
X23294593Y-44130192D01*
X23329661Y-44172505D01*
X23339738Y-44188330D01*
X23336280Y-44190078D01*
X23303208Y-44208534D01*
X23237796Y-44245743D01*
X23142799Y-44300120D01*
X23020973Y-44370078D01*
X22875072Y-44454031D01*
X22707852Y-44550393D01*
X22522068Y-44657577D01*
X22320476Y-44773997D01*
X22105830Y-44898067D01*
X21880887Y-45028202D01*
X21796809Y-45076857D01*
X21575820Y-45204689D01*
X21366410Y-45325747D01*
X21171302Y-45438460D01*
X20993219Y-45541259D01*
X20834886Y-45632574D01*
X20699025Y-45710833D01*
X20588360Y-45774468D01*
X20505614Y-45821907D01*
X20453512Y-45851582D01*
X20434776Y-45861920D01*
X20435618Y-45856414D01*
X20450993Y-45824771D01*
X20479269Y-45774219D01*
X20496615Y-45744297D01*
X20533504Y-45680488D01*
X20587786Y-45586509D01*
X20657698Y-45465417D01*
X20741477Y-45320265D01*
X20837362Y-45154107D01*
X20943588Y-44969999D01*
X21058392Y-44770995D01*
X21180013Y-44560149D01*
X21306687Y-44340517D01*
X21430722Y-44125516D01*
X21551310Y-43916630D01*
X21664701Y-43720349D01*
X21769191Y-43539614D01*
X21863079Y-43377367D01*
X21944660Y-43236549D01*
X22012231Y-43120102D01*
X22064089Y-43030969D01*
X22098531Y-42972090D01*
X22113854Y-42946408D01*
X22145292Y-42897372D01*
X22208597Y-42956835D01*
G37*
%TD.AperFunction*%
X24582052Y-38689619D02*
X24597580Y-38712962D01*
X24631791Y-38769043D01*
X24682966Y-38854880D01*
X24749387Y-38967491D01*
X24829335Y-39103894D01*
X24921092Y-39261106D01*
X25022940Y-39436147D01*
X25133161Y-39626032D01*
X25250035Y-39827781D01*
X25371845Y-40038412D01*
X25496873Y-40254942D01*
X25623399Y-40474389D01*
X25749706Y-40693771D01*
X25874076Y-40910105D01*
X25994789Y-41120411D01*
X26110128Y-41321706D01*
X26218374Y-41511007D01*
X26317809Y-41685333D01*
X26406714Y-41841701D01*
X26483371Y-41977129D01*
X26546062Y-42088636D01*
X26593069Y-42173239D01*
X26622672Y-42227956D01*
X26633155Y-42249805D01*
X26633165Y-42249972D01*
X26616261Y-42272899D01*
X26567688Y-42311763D01*
X26492499Y-42362885D01*
X26395748Y-42422588D01*
X26330863Y-42460781D01*
X26237499Y-42513891D01*
X26172467Y-42547361D01*
X26131410Y-42563075D01*
X26109972Y-42562916D01*
X26103794Y-42548765D01*
X26103323Y-42546458D01*
X26085666Y-42518315D01*
X26047603Y-42470458D01*
X25996149Y-42411812D01*
X25972410Y-42386620D01*
X25898794Y-42318809D01*
X25817386Y-42260848D01*
X25723350Y-42211039D01*
X25611845Y-42167682D01*
X25478036Y-42129077D01*
X25317083Y-42093526D01*
X25124148Y-42059328D01*
X24894394Y-42024784D01*
X24629952Y-41985847D01*
X24374311Y-41944034D01*
X24150778Y-41902120D01*
X23954357Y-41858895D01*
X23780050Y-41813151D01*
X23622858Y-41763679D01*
X23477785Y-41709269D01*
X23339833Y-41648713D01*
X23238448Y-41598774D01*
X23141605Y-41546222D01*
X23065020Y-41499307D01*
X23014679Y-41461717D01*
X22996569Y-41437144D01*
X22997103Y-41435333D01*
X23011691Y-41406374D01*
X23044767Y-41345729D01*
X23094372Y-41256794D01*
X23158547Y-41142965D01*
X23235335Y-41007637D01*
X23322777Y-40854205D01*
X23418916Y-40686065D01*
X23521793Y-40506611D01*
X23629450Y-40319241D01*
X23739929Y-40127347D01*
X23851271Y-39934327D01*
X23961519Y-39743575D01*
X24068715Y-39558487D01*
X24170899Y-39382458D01*
X24266115Y-39218884D01*
X24352403Y-39071159D01*
X24427806Y-38942680D01*
X24490366Y-38836841D01*
X24538124Y-38757038D01*
X24569122Y-38706666D01*
X24581402Y-38689121D01*
X24582052Y-38689619D01*
%TA.AperFunction,EtchedComponent*%
G36*
X24582052Y-38689619D02*
G01*
X24597580Y-38712962D01*
X24631791Y-38769043D01*
X24682966Y-38854880D01*
X24749387Y-38967491D01*
X24829335Y-39103894D01*
X24921092Y-39261106D01*
X25022940Y-39436147D01*
X25133161Y-39626032D01*
X25250035Y-39827781D01*
X25371845Y-40038412D01*
X25496873Y-40254942D01*
X25623399Y-40474389D01*
X25749706Y-40693771D01*
X25874076Y-40910105D01*
X25994789Y-41120411D01*
X26110128Y-41321706D01*
X26218374Y-41511007D01*
X26317809Y-41685333D01*
X26406714Y-41841701D01*
X26483371Y-41977129D01*
X26546062Y-42088636D01*
X26593069Y-42173239D01*
X26622672Y-42227956D01*
X26633155Y-42249805D01*
X26633165Y-42249972D01*
X26616261Y-42272899D01*
X26567688Y-42311763D01*
X26492499Y-42362885D01*
X26395748Y-42422588D01*
X26330863Y-42460781D01*
X26237499Y-42513891D01*
X26172467Y-42547361D01*
X26131410Y-42563075D01*
X26109972Y-42562916D01*
X26103794Y-42548765D01*
X26103323Y-42546458D01*
X26085666Y-42518315D01*
X26047603Y-42470458D01*
X25996149Y-42411812D01*
X25972410Y-42386620D01*
X25898794Y-42318809D01*
X25817386Y-42260848D01*
X25723350Y-42211039D01*
X25611845Y-42167682D01*
X25478036Y-42129077D01*
X25317083Y-42093526D01*
X25124148Y-42059328D01*
X24894394Y-42024784D01*
X24629952Y-41985847D01*
X24374311Y-41944034D01*
X24150778Y-41902120D01*
X23954357Y-41858895D01*
X23780050Y-41813151D01*
X23622858Y-41763679D01*
X23477785Y-41709269D01*
X23339833Y-41648713D01*
X23238448Y-41598774D01*
X23141605Y-41546222D01*
X23065020Y-41499307D01*
X23014679Y-41461717D01*
X22996569Y-41437144D01*
X22997103Y-41435333D01*
X23011691Y-41406374D01*
X23044767Y-41345729D01*
X23094372Y-41256794D01*
X23158547Y-41142965D01*
X23235335Y-41007637D01*
X23322777Y-40854205D01*
X23418916Y-40686065D01*
X23521793Y-40506611D01*
X23629450Y-40319241D01*
X23739929Y-40127347D01*
X23851271Y-39934327D01*
X23961519Y-39743575D01*
X24068715Y-39558487D01*
X24170899Y-39382458D01*
X24266115Y-39218884D01*
X24352403Y-39071159D01*
X24427806Y-38942680D01*
X24490366Y-38836841D01*
X24538124Y-38757038D01*
X24569122Y-38706666D01*
X24581402Y-38689121D01*
X24582052Y-38689619D01*
G37*
%TD.AperFunction*%
X27092528Y-43029109D02*
X27100275Y-43040669D01*
X27127963Y-43086073D01*
X27173493Y-43162625D01*
X27235122Y-43267338D01*
X27311108Y-43397223D01*
X27399706Y-43549292D01*
X27499175Y-43720559D01*
X27607772Y-43908035D01*
X27723753Y-44108732D01*
X27845376Y-44319663D01*
X27878731Y-44377573D01*
X28010621Y-44606546D01*
X28143395Y-44837033D01*
X28274340Y-45064328D01*
X28400745Y-45283723D01*
X28519897Y-45490512D01*
X28629084Y-45679986D01*
X28725594Y-45847440D01*
X28806714Y-45988165D01*
X28869732Y-46097454D01*
X29167414Y-46613587D01*
X24993420Y-46613587D01*
X24820863Y-46613572D01*
X24409623Y-46613414D01*
X24010976Y-46613090D01*
X23626865Y-46612609D01*
X23259231Y-46611979D01*
X22910013Y-46611208D01*
X22581153Y-46610304D01*
X22274592Y-46609276D01*
X21992271Y-46608132D01*
X21736130Y-46606880D01*
X21508111Y-46605529D01*
X21310154Y-46604087D01*
X21144201Y-46602563D01*
X21012191Y-46600964D01*
X20916067Y-46599299D01*
X20857769Y-46597576D01*
X20839237Y-46595804D01*
X20852996Y-46586837D01*
X20900468Y-46558264D01*
X20978443Y-46512265D01*
X21083749Y-46450665D01*
X21213215Y-46375288D01*
X21363670Y-46287960D01*
X21531942Y-46190504D01*
X21714860Y-46084746D01*
X21909253Y-45972511D01*
X22111948Y-45855623D01*
X22319775Y-45735907D01*
X22529561Y-45615187D01*
X22738137Y-45495289D01*
X22942330Y-45378037D01*
X23138968Y-45265256D01*
X23324881Y-45158770D01*
X23496897Y-45060405D01*
X23651844Y-44971985D01*
X23786552Y-44895335D01*
X23897848Y-44832280D01*
X23982562Y-44784644D01*
X24037521Y-44754252D01*
X24059555Y-44742929D01*
X24073934Y-44745735D01*
X24117247Y-44771263D01*
X24179001Y-44818557D01*
X24252409Y-44882698D01*
X24318527Y-44946908D01*
X24402741Y-45034375D01*
X24496966Y-45136490D01*
X24596373Y-45247630D01*
X24696132Y-45362175D01*
X24791412Y-45474500D01*
X24877384Y-45578985D01*
X24949217Y-45670006D01*
X25002081Y-45741941D01*
X25031147Y-45789168D01*
X25050550Y-45823659D01*
X25103248Y-45895037D01*
X25170995Y-45970974D01*
X25244133Y-46041730D01*
X25313001Y-46097566D01*
X25367942Y-46128744D01*
X25428620Y-46135950D01*
X25509589Y-46116032D01*
X25586544Y-46070362D01*
X25646265Y-46004824D01*
X25656606Y-45987821D01*
X25669773Y-45959974D01*
X25678354Y-45926461D01*
X25682901Y-45880083D01*
X25683964Y-45813638D01*
X25682092Y-45719927D01*
X25677837Y-45591748D01*
X25674788Y-45517603D01*
X25668309Y-45400346D01*
X25660662Y-45297721D01*
X25652560Y-45218750D01*
X25644716Y-45172454D01*
X25625726Y-45119568D01*
X25569427Y-45015421D01*
X25481944Y-44892019D01*
X25362210Y-44747914D01*
X25209156Y-44581656D01*
X25142738Y-44511607D01*
X25065943Y-44428975D01*
X25002560Y-44358916D01*
X24957803Y-44307214D01*
X24936885Y-44279652D01*
X24934735Y-44275275D01*
X24932156Y-44256434D01*
X24945039Y-44235544D01*
X24978661Y-44208104D01*
X25038298Y-44169611D01*
X25129227Y-44115565D01*
X25206527Y-44070444D01*
X25348774Y-43987907D01*
X25460772Y-43923796D01*
X25546282Y-43876029D01*
X25609066Y-43842524D01*
X25652886Y-43821200D01*
X25681503Y-43809976D01*
X25711116Y-43797523D01*
X25728424Y-43780799D01*
X25730043Y-43776854D01*
X25755367Y-43754915D01*
X25801650Y-43726658D01*
X25874876Y-43687223D01*
X25928944Y-43737556D01*
X25948041Y-43757948D01*
X25992472Y-43813365D01*
X26046723Y-43887356D01*
X26103054Y-43969606D01*
X26223097Y-44151322D01*
X26218386Y-44622416D01*
X26213675Y-45093509D01*
X26145079Y-45160157D01*
X26122028Y-45183918D01*
X26048110Y-45290666D01*
X26004961Y-45417605D01*
X25990259Y-45570894D01*
X25993910Y-45653027D01*
X26019678Y-45797905D01*
X26066644Y-45930136D01*
X26130736Y-46036236D01*
X26175242Y-46074923D01*
X26254352Y-46104307D01*
X26343908Y-46107697D01*
X26432446Y-46086656D01*
X26508502Y-46042750D01*
X26560613Y-45977545D01*
X26562318Y-45974011D01*
X26593817Y-45909457D01*
X26627177Y-45841994D01*
X26655497Y-45778663D01*
X26696122Y-45671920D01*
X26740943Y-45540318D01*
X26788403Y-45389724D01*
X26836943Y-45226001D01*
X26885006Y-45055014D01*
X26931035Y-44882626D01*
X26973472Y-44714703D01*
X27010760Y-44557109D01*
X27041340Y-44415708D01*
X27063657Y-44296365D01*
X27076152Y-44204943D01*
X27077267Y-44147307D01*
X27074754Y-44134214D01*
X27050263Y-44067932D01*
X27004817Y-43979257D01*
X26942406Y-43876207D01*
X26918452Y-43839071D01*
X26822203Y-43687644D01*
X26740389Y-43555217D01*
X26674812Y-43444889D01*
X26627277Y-43359755D01*
X26599591Y-43302914D01*
X26593555Y-43277462D01*
X26594254Y-43276564D01*
X26619240Y-43258231D01*
X26672637Y-43224723D01*
X26747129Y-43180501D01*
X26835401Y-43130025D01*
X26842863Y-43125834D01*
X26938707Y-43073101D01*
X27005456Y-43039472D01*
X27049251Y-43022536D01*
X27076228Y-43019885D01*
X27092528Y-43029109D01*
%TA.AperFunction,EtchedComponent*%
G36*
X27092528Y-43029109D02*
G01*
X27100275Y-43040669D01*
X27127963Y-43086073D01*
X27173493Y-43162625D01*
X27235122Y-43267338D01*
X27311108Y-43397223D01*
X27399706Y-43549292D01*
X27499175Y-43720559D01*
X27607772Y-43908035D01*
X27723753Y-44108732D01*
X27845376Y-44319663D01*
X27878731Y-44377573D01*
X28010621Y-44606546D01*
X28143395Y-44837033D01*
X28274340Y-45064328D01*
X28400745Y-45283723D01*
X28519897Y-45490512D01*
X28629084Y-45679986D01*
X28725594Y-45847440D01*
X28806714Y-45988165D01*
X28869732Y-46097454D01*
X29167414Y-46613587D01*
X24993420Y-46613587D01*
X24820863Y-46613572D01*
X24409623Y-46613414D01*
X24010976Y-46613090D01*
X23626865Y-46612609D01*
X23259231Y-46611979D01*
X22910013Y-46611208D01*
X22581153Y-46610304D01*
X22274592Y-46609276D01*
X21992271Y-46608132D01*
X21736130Y-46606880D01*
X21508111Y-46605529D01*
X21310154Y-46604087D01*
X21144201Y-46602563D01*
X21012191Y-46600964D01*
X20916067Y-46599299D01*
X20857769Y-46597576D01*
X20839237Y-46595804D01*
X20852996Y-46586837D01*
X20900468Y-46558264D01*
X20978443Y-46512265D01*
X21083749Y-46450665D01*
X21213215Y-46375288D01*
X21363670Y-46287960D01*
X21531942Y-46190504D01*
X21714860Y-46084746D01*
X21909253Y-45972511D01*
X22111948Y-45855623D01*
X22319775Y-45735907D01*
X22529561Y-45615187D01*
X22738137Y-45495289D01*
X22942330Y-45378037D01*
X23138968Y-45265256D01*
X23324881Y-45158770D01*
X23496897Y-45060405D01*
X23651844Y-44971985D01*
X23786552Y-44895335D01*
X23897848Y-44832280D01*
X23982562Y-44784644D01*
X24037521Y-44754252D01*
X24059555Y-44742929D01*
X24073934Y-44745735D01*
X24117247Y-44771263D01*
X24179001Y-44818557D01*
X24252409Y-44882698D01*
X24318527Y-44946908D01*
X24402741Y-45034375D01*
X24496966Y-45136490D01*
X24596373Y-45247630D01*
X24696132Y-45362175D01*
X24791412Y-45474500D01*
X24877384Y-45578985D01*
X24949217Y-45670006D01*
X25002081Y-45741941D01*
X25031147Y-45789168D01*
X25050550Y-45823659D01*
X25103248Y-45895037D01*
X25170995Y-45970974D01*
X25244133Y-46041730D01*
X25313001Y-46097566D01*
X25367942Y-46128744D01*
X25428620Y-46135950D01*
X25509589Y-46116032D01*
X25586544Y-46070362D01*
X25646265Y-46004824D01*
X25656606Y-45987821D01*
X25669773Y-45959974D01*
X25678354Y-45926461D01*
X25682901Y-45880083D01*
X25683964Y-45813638D01*
X25682092Y-45719927D01*
X25677837Y-45591748D01*
X25674788Y-45517603D01*
X25668309Y-45400346D01*
X25660662Y-45297721D01*
X25652560Y-45218750D01*
X25644716Y-45172454D01*
X25625726Y-45119568D01*
X25569427Y-45015421D01*
X25481944Y-44892019D01*
X25362210Y-44747914D01*
X25209156Y-44581656D01*
X25142738Y-44511607D01*
X25065943Y-44428975D01*
X25002560Y-44358916D01*
X24957803Y-44307214D01*
X24936885Y-44279652D01*
X24934735Y-44275275D01*
X24932156Y-44256434D01*
X24945039Y-44235544D01*
X24978661Y-44208104D01*
X25038298Y-44169611D01*
X25129227Y-44115565D01*
X25206527Y-44070444D01*
X25348774Y-43987907D01*
X25460772Y-43923796D01*
X25546282Y-43876029D01*
X25609066Y-43842524D01*
X25652886Y-43821200D01*
X25681503Y-43809976D01*
X25711116Y-43797523D01*
X25728424Y-43780799D01*
X25730043Y-43776854D01*
X25755367Y-43754915D01*
X25801650Y-43726658D01*
X25874876Y-43687223D01*
X25928944Y-43737556D01*
X25948041Y-43757948D01*
X25992472Y-43813365D01*
X26046723Y-43887356D01*
X26103054Y-43969606D01*
X26223097Y-44151322D01*
X26218386Y-44622416D01*
X26213675Y-45093509D01*
X26145079Y-45160157D01*
X26122028Y-45183918D01*
X26048110Y-45290666D01*
X26004961Y-45417605D01*
X25990259Y-45570894D01*
X25993910Y-45653027D01*
X26019678Y-45797905D01*
X26066644Y-45930136D01*
X26130736Y-46036236D01*
X26175242Y-46074923D01*
X26254352Y-46104307D01*
X26343908Y-46107697D01*
X26432446Y-46086656D01*
X26508502Y-46042750D01*
X26560613Y-45977545D01*
X26562318Y-45974011D01*
X26593817Y-45909457D01*
X26627177Y-45841994D01*
X26655497Y-45778663D01*
X26696122Y-45671920D01*
X26740943Y-45540318D01*
X26788403Y-45389724D01*
X26836943Y-45226001D01*
X26885006Y-45055014D01*
X26931035Y-44882626D01*
X26973472Y-44714703D01*
X27010760Y-44557109D01*
X27041340Y-44415708D01*
X27063657Y-44296365D01*
X27076152Y-44204943D01*
X27077267Y-44147307D01*
X27074754Y-44134214D01*
X27050263Y-44067932D01*
X27004817Y-43979257D01*
X26942406Y-43876207D01*
X26918452Y-43839071D01*
X26822203Y-43687644D01*
X26740389Y-43555217D01*
X26674812Y-43444889D01*
X26627277Y-43359755D01*
X26599591Y-43302914D01*
X26593555Y-43277462D01*
X26594254Y-43276564D01*
X26619240Y-43258231D01*
X26672637Y-43224723D01*
X26747129Y-43180501D01*
X26835401Y-43130025D01*
X26842863Y-43125834D01*
X26938707Y-43073101D01*
X27005456Y-43039472D01*
X27049251Y-43022536D01*
X27076228Y-43019885D01*
X27092528Y-43029109D01*
G37*
%TD.AperFunction*%
D24*
%TA.AperFunction,EtchedComponent*%
%TO.C,G\u002A\u002A\u002A*%
G36*
X36581396Y-39821325D02*
G01*
X36610922Y-39843590D01*
X36649394Y-39867620D01*
X36700505Y-39895768D01*
X36767943Y-39930387D01*
X36802214Y-39947495D01*
X36890791Y-39989910D01*
X36964805Y-40021578D01*
X37027307Y-40043003D01*
X37081345Y-40054689D01*
X37129970Y-40057143D01*
X37176230Y-40050869D01*
X37223175Y-40036371D01*
X37273854Y-40014155D01*
X37305824Y-39998911D01*
X37394111Y-39958938D01*
X37480027Y-39922921D01*
X37559368Y-39892501D01*
X37627932Y-39869318D01*
X37681515Y-39855014D01*
X37690242Y-39853278D01*
X37773264Y-39846367D01*
X37847991Y-39859050D01*
X37916294Y-39891620D01*
X37918409Y-39893001D01*
X37951397Y-39919086D01*
X37971525Y-39948338D01*
X37981569Y-39986835D01*
X37984300Y-40040655D01*
X37984176Y-40051346D01*
X37971705Y-40152242D01*
X37952956Y-40213133D01*
X37939541Y-40256700D01*
X37888736Y-40361991D01*
X37820345Y-40465386D01*
X37802675Y-40487961D01*
X37767427Y-40528468D01*
X37726408Y-40569510D01*
X37676486Y-40613953D01*
X37614533Y-40664665D01*
X37537417Y-40724510D01*
X37508413Y-40746885D01*
X37474572Y-40774451D01*
X37455703Y-40792698D01*
X37449929Y-40803557D01*
X37455375Y-40808959D01*
X37531801Y-40836405D01*
X37604901Y-40869421D01*
X37665993Y-40904431D01*
X37711883Y-40939589D01*
X37739377Y-40973051D01*
X37747362Y-40991436D01*
X37752241Y-41037762D01*
X37737474Y-41084630D01*
X37704504Y-41130336D01*
X37654774Y-41173171D01*
X37589726Y-41211431D01*
X37510803Y-41243407D01*
X37510574Y-41243483D01*
X37485743Y-41250956D01*
X37460091Y-41256628D01*
X37430111Y-41260766D01*
X37392291Y-41263639D01*
X37343123Y-41265513D01*
X37279096Y-41266655D01*
X37196703Y-41267333D01*
X37118175Y-41267869D01*
X37056331Y-41268687D01*
X37009429Y-41270116D01*
X36973967Y-41272494D01*
X36946444Y-41276158D01*
X36923359Y-41281448D01*
X36901209Y-41288700D01*
X36876492Y-41298254D01*
X36834929Y-41312449D01*
X36789839Y-41323521D01*
X36754474Y-41327753D01*
X36751428Y-41327756D01*
X36725317Y-41329130D01*
X36707963Y-41336126D01*
X36692994Y-41353294D01*
X36674037Y-41385182D01*
X36632622Y-41451508D01*
X36556993Y-41550731D01*
X36470299Y-41643214D01*
X36398043Y-41712551D01*
X36462640Y-41847591D01*
X36476606Y-41876077D01*
X36527603Y-41970220D01*
X36588138Y-42067993D01*
X36659683Y-42171451D01*
X36743706Y-42282650D01*
X36841677Y-42403647D01*
X36955065Y-42536496D01*
X37061869Y-42661642D01*
X37198546Y-42831447D01*
X37317638Y-42992241D01*
X37419920Y-43145202D01*
X37506166Y-43291508D01*
X37577150Y-43432336D01*
X37633647Y-43568866D01*
X37643611Y-43596956D01*
X37681115Y-43731154D01*
X37701626Y-43866486D01*
X37705086Y-44005409D01*
X37691439Y-44150379D01*
X37660626Y-44303853D01*
X37612590Y-44468288D01*
X37551276Y-44628994D01*
X37464519Y-44802593D01*
X37360335Y-44963787D01*
X37238432Y-45112893D01*
X37098513Y-45250230D01*
X36940285Y-45376114D01*
X36763452Y-45490865D01*
X36567719Y-45594800D01*
X36495341Y-45628414D01*
X36319780Y-45700448D01*
X36137227Y-45761881D01*
X35944945Y-45813393D01*
X35740204Y-45855667D01*
X35520268Y-45889384D01*
X35282405Y-45915225D01*
X35277361Y-45915568D01*
X35247936Y-45916480D01*
X35200828Y-45917089D01*
X35139236Y-45917387D01*
X35066359Y-45917365D01*
X34985396Y-45917013D01*
X34899545Y-45916323D01*
X34869552Y-45915997D01*
X34741120Y-45913741D01*
X34628609Y-45909986D01*
X34527132Y-45904342D01*
X34431803Y-45896418D01*
X34337734Y-45885823D01*
X34240037Y-45872165D01*
X34133826Y-45855054D01*
X34006785Y-45831409D01*
X33754849Y-45771856D01*
X33507748Y-45696825D01*
X33267997Y-45607393D01*
X33038115Y-45504637D01*
X32820616Y-45389634D01*
X32618017Y-45263460D01*
X32432836Y-45127193D01*
X32378260Y-45081418D01*
X32303078Y-45013111D01*
X32226419Y-44938363D01*
X32152054Y-44861117D01*
X32083754Y-44785322D01*
X32025291Y-44714921D01*
X31980437Y-44653863D01*
X31930086Y-44573796D01*
X31848994Y-44419969D01*
X31779951Y-44252772D01*
X31722604Y-44071017D01*
X31676603Y-43873518D01*
X31641595Y-43659088D01*
X31617231Y-43426538D01*
X31614137Y-43379761D01*
X31610691Y-43297779D01*
X31608630Y-43204987D01*
X31607889Y-43105016D01*
X31608401Y-43001496D01*
X31610098Y-42898057D01*
X31612916Y-42798330D01*
X31616786Y-42705946D01*
X31621643Y-42624534D01*
X31627420Y-42557725D01*
X31634051Y-42509148D01*
X31641941Y-42468680D01*
X31676775Y-42328094D01*
X31720568Y-42198892D01*
X31772323Y-42083098D01*
X31831041Y-41982740D01*
X31895726Y-41899845D01*
X31965378Y-41836437D01*
X31972477Y-41831338D01*
X32038361Y-41794460D01*
X32110841Y-41769432D01*
X32184460Y-41757216D01*
X32253760Y-41758776D01*
X32313282Y-41775073D01*
X32319001Y-41777773D01*
X32353281Y-41799323D01*
X32384634Y-41830186D01*
X32415206Y-41873317D01*
X32447144Y-41931670D01*
X32482592Y-42008202D01*
X32499237Y-42045469D01*
X32526282Y-42101098D01*
X32553595Y-42148606D01*
X32584452Y-42192454D01*
X32622130Y-42237106D01*
X32669904Y-42287025D01*
X32731050Y-42346674D01*
X32756923Y-42371050D01*
X32816408Y-42423040D01*
X32868129Y-42461360D01*
X32915813Y-42488879D01*
X32924348Y-42493059D01*
X32957395Y-42508234D01*
X32985261Y-42517718D01*
X33014710Y-42522796D01*
X33052503Y-42524750D01*
X33105404Y-42524865D01*
X33133634Y-42524333D01*
X33196470Y-42520002D01*
X33258082Y-42510532D01*
X33321246Y-42494922D01*
X33388736Y-42472171D01*
X33463326Y-42441279D01*
X33547791Y-42401247D01*
X33644906Y-42351072D01*
X33757445Y-42289756D01*
X33824811Y-42252890D01*
X33916965Y-42204909D01*
X33997142Y-42167130D01*
X34069062Y-42138276D01*
X34136443Y-42117066D01*
X34203006Y-42102223D01*
X34272470Y-42092467D01*
X34348554Y-42086520D01*
X34362330Y-42085905D01*
X34420935Y-42085191D01*
X34493857Y-42086366D01*
X34575352Y-42089162D01*
X34659677Y-42093308D01*
X34741089Y-42098533D01*
X34813844Y-42104569D01*
X34872198Y-42111144D01*
X34884040Y-42112377D01*
X34891899Y-42110995D01*
X34887665Y-42104679D01*
X34869567Y-42092034D01*
X34835832Y-42071662D01*
X34784688Y-42042165D01*
X34757046Y-42026231D01*
X34614001Y-41938357D01*
X34478326Y-41844844D01*
X34340547Y-41739229D01*
X34263423Y-41674681D01*
X34175745Y-41591294D01*
X34101802Y-41506283D01*
X34037759Y-41414598D01*
X33979779Y-41311193D01*
X33924026Y-41191018D01*
X33906866Y-41149976D01*
X33849236Y-40988838D01*
X33810288Y-40833194D01*
X33789461Y-40679305D01*
X33786197Y-40523434D01*
X33799936Y-40361842D01*
X33807747Y-40309141D01*
X33846983Y-40130605D01*
X33862139Y-40086451D01*
X35584018Y-40086451D01*
X35603249Y-40190230D01*
X35641409Y-40293236D01*
X35659173Y-40326415D01*
X35702512Y-40388398D01*
X35755439Y-40447673D01*
X35812340Y-40498262D01*
X35867604Y-40534188D01*
X35878061Y-40539172D01*
X35939624Y-40559571D01*
X36007054Y-40570004D01*
X36072335Y-40569736D01*
X36127453Y-40558030D01*
X36147733Y-40549619D01*
X36214633Y-40507735D01*
X36269307Y-40450491D01*
X36311025Y-40380541D01*
X36339056Y-40300537D01*
X36352667Y-40213133D01*
X36351129Y-40120982D01*
X36333710Y-40026737D01*
X36299679Y-39933050D01*
X36283750Y-39900512D01*
X36265202Y-39866914D01*
X36250886Y-39845540D01*
X36232299Y-39823662D01*
X36240341Y-39845540D01*
X36244693Y-39864306D01*
X36249567Y-39898886D01*
X36253326Y-39939806D01*
X36252368Y-39997899D01*
X36235516Y-40063831D01*
X36201359Y-40116741D01*
X36150380Y-40155944D01*
X36083065Y-40180755D01*
X36060768Y-40185392D01*
X36033756Y-40189249D01*
X36021013Y-40188525D01*
X36020614Y-40187963D01*
X36021274Y-40173582D01*
X36028628Y-40148919D01*
X36033906Y-40123633D01*
X36025486Y-40094330D01*
X36000394Y-40076149D01*
X35961173Y-40071990D01*
X35947013Y-40073804D01*
X35922457Y-40084760D01*
X35904741Y-40110454D01*
X35887155Y-40145652D01*
X35842809Y-40107693D01*
X35826671Y-40092066D01*
X35795094Y-40053300D01*
X35770149Y-40012918D01*
X35748547Y-39952669D01*
X35740785Y-39887343D01*
X35746938Y-39823376D01*
X35750349Y-39812723D01*
X36223146Y-39812723D01*
X36228615Y-39818192D01*
X36234085Y-39812723D01*
X36228615Y-39807254D01*
X36223146Y-39812723D01*
X35750349Y-39812723D01*
X35765760Y-39764593D01*
X35796007Y-39714817D01*
X35836434Y-39677874D01*
X35885797Y-39657587D01*
X35914499Y-39649093D01*
X35924139Y-39640519D01*
X35913370Y-39635501D01*
X35882691Y-39637309D01*
X35840800Y-39646369D01*
X35763944Y-39678587D01*
X35698932Y-39728273D01*
X35646917Y-39794135D01*
X35609050Y-39874885D01*
X35586482Y-39969230D01*
X35584394Y-39985895D01*
X35584018Y-40086451D01*
X33862139Y-40086451D01*
X33903957Y-39964621D01*
X33978175Y-39811713D01*
X34069141Y-39672409D01*
X34176360Y-39547233D01*
X34299337Y-39436713D01*
X34437576Y-39341375D01*
X34590584Y-39261743D01*
X34757864Y-39198346D01*
X34938921Y-39151707D01*
X34946576Y-39150171D01*
X35051482Y-39132197D01*
X35156025Y-39119568D01*
X35255098Y-39112651D01*
X35343595Y-39111813D01*
X35416408Y-39117420D01*
X35572419Y-39147795D01*
X35748989Y-39202946D01*
X35922128Y-39279682D01*
X36091880Y-39378021D01*
X36109500Y-39389557D01*
X36170825Y-39431586D01*
X36227690Y-39474221D01*
X36283129Y-39520198D01*
X36340176Y-39572252D01*
X36401866Y-39633120D01*
X36471233Y-39705538D01*
X36551311Y-39792240D01*
X36557126Y-39798470D01*
X36572261Y-39812723D01*
X36581396Y-39821325D01*
G37*
%TD.AperFunction*%
%TD*%
D26*
%TO.P,J1,5,Shield*%
%TO.N,unconnected-(J1-Shield-Pad5)*%
X22140000Y-63542500D03*
%TO.N,unconnected-(J1-Shield-Pad5)_1*%
X22140000Y-51842500D03*
%TD*%
D27*
%TO.P,REF\u002A\u002A,1*%
%TO.N,N/C*%
X117440000Y-63943000D03*
%TD*%
D28*
%TO.P,SOT-23-8,1*%
%TO.N,N/C*%
X56427500Y-60035500D03*
%TO.P,SOT-23-8,2*%
X56427500Y-60685500D03*
%TO.P,SOT-23-8,3*%
X56427500Y-61335500D03*
%TO.P,SOT-23-8,4*%
X56427500Y-61985500D03*
%TO.P,SOT-23-8,5*%
X54152500Y-61985500D03*
%TO.P,SOT-23-8,6*%
X54152500Y-61335500D03*
%TO.P,SOT-23-8,7*%
X54152500Y-60685500D03*
%TO.P,SOT-23-8,8*%
X54152500Y-60035500D03*
%TD*%
D29*
%TO.P,SMDIP-4,1*%
%TO.N,N/C*%
X39100000Y-72860500D03*
%TO.P,SMDIP-4,2*%
X39100000Y-75400500D03*
%TO.P,SMDIP-4,3*%
X31480000Y-75400500D03*
%TO.P,SMDIP-4,4*%
X31480000Y-72860500D03*
%TD*%
D30*
%TO.P,SOIC-8,1*%
%TO.N,N/C*%
X77875000Y-72225500D03*
%TO.P,SOIC-8,2*%
X77875000Y-73495500D03*
%TO.P,SOIC-8,3*%
X77875000Y-74765500D03*
%TO.P,SOIC-8,4*%
X77875000Y-76035500D03*
%TO.P,SOIC-8,5*%
X72925000Y-76035500D03*
%TO.P,SOIC-8,6*%
X72925000Y-74765500D03*
%TO.P,SOIC-8,7*%
X72925000Y-73495500D03*
%TO.P,SOIC-8,8*%
X72925000Y-72225500D03*
%TD*%
D31*
%TO.P,SOT-23-6,1*%
%TO.N,N/C*%
X56427500Y-66148000D03*
%TO.P,SOT-23-6,2*%
X56427500Y-67098000D03*
%TO.P,SOT-23-6,3*%
X56427500Y-68048000D03*
%TO.P,SOT-23-6,4*%
X54152500Y-68048000D03*
%TO.P,SOT-23-6,5*%
X54152500Y-67098000D03*
%TO.P,SOT-23-6,6*%
X54152500Y-66148000D03*
%TD*%
D32*
%TO.P,SOT-223,1*%
%TO.N,N/C*%
X68440000Y-61793000D03*
%TO.P,SOT-223,2*%
X68440000Y-64093000D03*
%TO.P,SOT-223,3*%
X68440000Y-66393000D03*
D33*
%TO.P,SOT-223,4*%
X62140000Y-64093000D03*
%TD*%
D34*
%TO.P,LQFP-64,1*%
%TO.N,N/C*%
X78075000Y-46343000D03*
%TO.P,LQFP-64,2*%
X78075000Y-46843000D03*
%TO.P,LQFP-64,3*%
X78075000Y-47343000D03*
%TO.P,LQFP-64,4*%
X78075000Y-47843000D03*
%TO.P,LQFP-64,5*%
X78075000Y-48343000D03*
%TO.P,LQFP-64,6*%
X78075000Y-48843000D03*
%TO.P,LQFP-64,7*%
X78075000Y-49343000D03*
%TO.P,LQFP-64,8*%
X78075000Y-49843000D03*
%TO.P,LQFP-64,9*%
X78075000Y-50343000D03*
%TO.P,LQFP-64,10*%
X78075000Y-50843000D03*
%TO.P,LQFP-64,11*%
X78075000Y-51343000D03*
%TO.P,LQFP-64,12*%
X78075000Y-51843000D03*
%TO.P,LQFP-64,13*%
X78075000Y-52343000D03*
%TO.P,LQFP-64,14*%
X78075000Y-52843000D03*
%TO.P,LQFP-64,15*%
X78075000Y-53343000D03*
%TO.P,LQFP-64,16*%
X78075000Y-53843000D03*
D35*
%TO.P,LQFP-64,17*%
X76150000Y-55768000D03*
%TO.P,LQFP-64,18*%
X75650000Y-55768000D03*
%TO.P,LQFP-64,19*%
X75150000Y-55768000D03*
%TO.P,LQFP-64,20*%
X74650000Y-55768000D03*
%TO.P,LQFP-64,21*%
X74150000Y-55768000D03*
%TO.P,LQFP-64,22*%
X73650000Y-55768000D03*
%TO.P,LQFP-64,23*%
X73150000Y-55768000D03*
%TO.P,LQFP-64,24*%
X72650000Y-55768000D03*
%TO.P,LQFP-64,25*%
X72150000Y-55768000D03*
%TO.P,LQFP-64,26*%
X71650000Y-55768000D03*
%TO.P,LQFP-64,27*%
X71150000Y-55768000D03*
%TO.P,LQFP-64,28*%
X70650000Y-55768000D03*
%TO.P,LQFP-64,29*%
X70150000Y-55768000D03*
%TO.P,LQFP-64,30*%
X69650000Y-55768000D03*
%TO.P,LQFP-64,31*%
X69150000Y-55768000D03*
%TO.P,LQFP-64,32*%
X68650000Y-55768000D03*
D34*
%TO.P,LQFP-64,33*%
X66725000Y-53843000D03*
%TO.P,LQFP-64,34*%
X66725000Y-53343000D03*
%TO.P,LQFP-64,35*%
X66725000Y-52843000D03*
%TO.P,LQFP-64,36*%
X66725000Y-52343000D03*
%TO.P,LQFP-64,37*%
X66725000Y-51843000D03*
%TO.P,LQFP-64,38*%
X66725000Y-51343000D03*
%TO.P,LQFP-64,39*%
X66725000Y-50843000D03*
%TO.P,LQFP-64,40*%
X66725000Y-50343000D03*
%TO.P,LQFP-64,41*%
X66725000Y-49843000D03*
%TO.P,LQFP-64,42*%
X66725000Y-49343000D03*
%TO.P,LQFP-64,43*%
X66725000Y-48843000D03*
%TO.P,LQFP-64,44*%
X66725000Y-48343000D03*
%TO.P,LQFP-64,45*%
X66725000Y-47843000D03*
%TO.P,LQFP-64,46*%
X66725000Y-47343000D03*
%TO.P,LQFP-64,47*%
X66725000Y-46843000D03*
%TO.P,LQFP-64,48*%
X66725000Y-46343000D03*
D35*
%TO.P,LQFP-64,49*%
X68650000Y-44418000D03*
%TO.P,LQFP-64,50*%
X69150000Y-44418000D03*
%TO.P,LQFP-64,51*%
X69650000Y-44418000D03*
%TO.P,LQFP-64,52*%
X70150000Y-44418000D03*
%TO.P,LQFP-64,53*%
X70650000Y-44418000D03*
%TO.P,LQFP-64,54*%
X71150000Y-44418000D03*
%TO.P,LQFP-64,55*%
X71650000Y-44418000D03*
%TO.P,LQFP-64,56*%
X72150000Y-44418000D03*
%TO.P,LQFP-64,57*%
X72650000Y-44418000D03*
%TO.P,LQFP-64,58*%
X73150000Y-44418000D03*
%TO.P,LQFP-64,59*%
X73650000Y-44418000D03*
%TO.P,LQFP-64,60*%
X74150000Y-44418000D03*
%TO.P,LQFP-64,61*%
X74650000Y-44418000D03*
%TO.P,LQFP-64,62*%
X75150000Y-44418000D03*
%TO.P,LQFP-64,63*%
X75650000Y-44418000D03*
%TO.P,LQFP-64,64*%
X76150000Y-44418000D03*
%TD*%
D36*
%TO.P,SO-4,1*%
%TO.N,N/C*%
X58440000Y-72860500D03*
%TO.P,SO-4,2*%
X58440000Y-75400500D03*
%TO.P,SO-4,3*%
X52140000Y-75400500D03*
%TO.P,SO-4,4*%
X52140000Y-72860500D03*
%TD*%
D37*
%TO.P,REF\u002A\u002A,1*%
%TO.N,N/C*%
X117940000Y-57443000D03*
%TD*%
D38*
%TO.P,0603,1*%
%TO.N,N/C*%
X116715000Y-50303000D03*
%TO.P,0603,2*%
X115065000Y-50303000D03*
%TD*%
D39*
%TO.P,REF\u002A\u002A,1*%
%TO.N,N/C*%
X118190000Y-54293000D03*
%TD*%
D40*
%TO.P,REF\u002A\u002A,1*%
%TO.N,N/C*%
X117740000Y-61443000D03*
%TD*%
D41*
%TO.P,SMA,1*%
%TO.N,N/C*%
X96270000Y-41793000D03*
%TO.P,SMA,2*%
X92270000Y-41793000D03*
%TD*%
D42*
%TO.P,LQFP-32,1*%
%TO.N,N/C*%
X51955000Y-47293000D03*
%TO.P,LQFP-32,2*%
X51955000Y-48093000D03*
%TO.P,LQFP-32,3*%
X51955000Y-48893000D03*
%TO.P,LQFP-32,4*%
X51955000Y-49693000D03*
%TO.P,LQFP-32,5*%
X51955000Y-50493000D03*
%TO.P,LQFP-32,6*%
X51955000Y-51293000D03*
%TO.P,LQFP-32,7*%
X51955000Y-52093000D03*
%TO.P,LQFP-32,8*%
X51955000Y-52893000D03*
D43*
%TO.P,LQFP-32,9*%
X50580000Y-54268000D03*
%TO.P,LQFP-32,10*%
X49780000Y-54268000D03*
%TO.P,LQFP-32,11*%
X48980000Y-54268000D03*
%TO.P,LQFP-32,12*%
X48180000Y-54268000D03*
%TO.P,LQFP-32,13*%
X47380000Y-54268000D03*
%TO.P,LQFP-32,14*%
X46580000Y-54268000D03*
%TO.P,LQFP-32,15*%
X45780000Y-54268000D03*
%TO.P,LQFP-32,16*%
X44980000Y-54268000D03*
D42*
%TO.P,LQFP-32,17*%
X43605000Y-52893000D03*
%TO.P,LQFP-32,18*%
X43605000Y-52093000D03*
%TO.P,LQFP-32,19*%
X43605000Y-51293000D03*
%TO.P,LQFP-32,20*%
X43605000Y-50493000D03*
%TO.P,LQFP-32,21*%
X43605000Y-49693000D03*
%TO.P,LQFP-32,22*%
X43605000Y-48893000D03*
%TO.P,LQFP-32,23*%
X43605000Y-48093000D03*
%TO.P,LQFP-32,24*%
X43605000Y-47293000D03*
D43*
%TO.P,LQFP-32,25*%
X44980000Y-45918000D03*
%TO.P,LQFP-32,26*%
X45780000Y-45918000D03*
%TO.P,LQFP-32,27*%
X46580000Y-45918000D03*
%TO.P,LQFP-32,28*%
X47380000Y-45918000D03*
%TO.P,LQFP-32,29*%
X48180000Y-45918000D03*
%TO.P,LQFP-32,30*%
X48980000Y-45918000D03*
%TO.P,LQFP-32,31*%
X49780000Y-45918000D03*
%TO.P,LQFP-32,32*%
X50580000Y-45918000D03*
%TD*%
D44*
%TO.P,SOD-123,1*%
%TO.N,N/C*%
X86620000Y-47793000D03*
%TO.P,SOD-123,2*%
X83320000Y-47793000D03*
%TD*%
D45*
%TO.P,SMB,1*%
%TO.N,N/C*%
X96420000Y-47793000D03*
%TO.P,SMB,2*%
X92120000Y-47793000D03*
%TD*%
D46*
%TO.P,REF\u002A\u002A,1*%
%TO.N,N/C*%
X118040000Y-55743000D03*
%TD*%
D30*
%TO.P,SOIC-16,1*%
%TO.N,N/C*%
X77875000Y-59648000D03*
%TO.P,SOIC-16,2*%
X77875000Y-60918000D03*
%TO.P,SOIC-16,3*%
X77875000Y-62188000D03*
%TO.P,SOIC-16,4*%
X77875000Y-63458000D03*
%TO.P,SOIC-16,5*%
X77875000Y-64728000D03*
%TO.P,SOIC-16,6*%
X77875000Y-65998000D03*
%TO.P,SOIC-16,7*%
X77875000Y-67268000D03*
%TO.P,SOIC-16,8*%
X77875000Y-68538000D03*
%TO.P,SOIC-16,9*%
X72925000Y-68538000D03*
%TO.P,SOIC-16,10*%
X72925000Y-67268000D03*
%TO.P,SOIC-16,11*%
X72925000Y-65998000D03*
%TO.P,SOIC-16,12*%
X72925000Y-64728000D03*
%TO.P,SOIC-16,13*%
X72925000Y-63458000D03*
%TO.P,SOIC-16,14*%
X72925000Y-62188000D03*
%TO.P,SOIC-16,15*%
X72925000Y-60918000D03*
%TO.P,SOIC-16,16*%
X72925000Y-59648000D03*
%TD*%
D47*
%TO.P,REF\u002A\u002A,1*%
%TO.N,N/C*%
X116540000Y-74843000D03*
%TD*%
D48*
%TO.P,SOT-553,1*%
%TO.N,N/C*%
X46002500Y-73630500D03*
%TO.P,SOT-553,2*%
X46002500Y-74130500D03*
%TO.P,SOT-553,3*%
X46002500Y-74630500D03*
%TO.P,SOT-553,4*%
X44577500Y-74630500D03*
%TO.P,SOT-553,5*%
X44577500Y-73630500D03*
%TD*%
D49*
%TO.P,REF\u002A\u002A,1*%
%TO.N,N/C*%
X117840000Y-59343000D03*
%TD*%
D29*
%TO.P,SMDIP-6,1*%
%TO.N,N/C*%
X39100000Y-62440500D03*
%TO.P,SMDIP-6,2*%
X39100000Y-64980500D03*
%TO.P,SMDIP-6,3*%
X39100000Y-67520500D03*
%TO.P,SMDIP-6,4*%
X31480000Y-67520500D03*
%TO.P,SMDIP-6,5*%
X31480000Y-64980500D03*
%TO.P,SMDIP-6,6*%
X31480000Y-62440500D03*
%TD*%
D50*
%TO.P,SOD-323,1*%
%TO.N,N/C*%
X86020000Y-41793000D03*
%TO.P,SOD-323,2*%
X83920000Y-41793000D03*
%TD*%
D51*
%TO.P,REF\u002A\u002A,1*%
%TO.N,N/C*%
X118290000Y-53093000D03*
%TD*%
D52*
%TO.P,LQFP-48,1*%
%TO.N,N/C*%
X63492500Y-47343000D03*
%TO.P,LQFP-48,2*%
X63492500Y-47843000D03*
%TO.P,LQFP-48,3*%
X63492500Y-48343000D03*
%TO.P,LQFP-48,4*%
X63492500Y-48843000D03*
%TO.P,LQFP-48,5*%
X63492500Y-49343000D03*
%TO.P,LQFP-48,6*%
X63492500Y-49843000D03*
%TO.P,LQFP-48,7*%
X63492500Y-50343000D03*
%TO.P,LQFP-48,8*%
X63492500Y-50843000D03*
%TO.P,LQFP-48,9*%
X63492500Y-51343000D03*
%TO.P,LQFP-48,10*%
X63492500Y-51843000D03*
%TO.P,LQFP-48,11*%
X63492500Y-52343000D03*
%TO.P,LQFP-48,12*%
X63492500Y-52843000D03*
D53*
%TO.P,LQFP-48,13*%
X62080000Y-54255500D03*
%TO.P,LQFP-48,14*%
X61580000Y-54255500D03*
%TO.P,LQFP-48,15*%
X61080000Y-54255500D03*
%TO.P,LQFP-48,16*%
X60580000Y-54255500D03*
%TO.P,LQFP-48,17*%
X60080000Y-54255500D03*
%TO.P,LQFP-48,18*%
X59580000Y-54255500D03*
%TO.P,LQFP-48,19*%
X59080000Y-54255500D03*
%TO.P,LQFP-48,20*%
X58580000Y-54255500D03*
%TO.P,LQFP-48,21*%
X58080000Y-54255500D03*
%TO.P,LQFP-48,22*%
X57580000Y-54255500D03*
%TO.P,LQFP-48,23*%
X57080000Y-54255500D03*
%TO.P,LQFP-48,24*%
X56580000Y-54255500D03*
D52*
%TO.P,LQFP-48,25*%
X55167500Y-52843000D03*
%TO.P,LQFP-48,26*%
X55167500Y-52343000D03*
%TO.P,LQFP-48,27*%
X55167500Y-51843000D03*
%TO.P,LQFP-48,28*%
X55167500Y-51343000D03*
%TO.P,LQFP-48,29*%
X55167500Y-50843000D03*
%TO.P,LQFP-48,30*%
X55167500Y-50343000D03*
%TO.P,LQFP-48,31*%
X55167500Y-49843000D03*
%TO.P,LQFP-48,32*%
X55167500Y-49343000D03*
%TO.P,LQFP-48,33*%
X55167500Y-48843000D03*
%TO.P,LQFP-48,34*%
X55167500Y-48343000D03*
%TO.P,LQFP-48,35*%
X55167500Y-47843000D03*
%TO.P,LQFP-48,36*%
X55167500Y-47343000D03*
D53*
%TO.P,LQFP-48,37*%
X56580000Y-45930500D03*
%TO.P,LQFP-48,38*%
X57080000Y-45930500D03*
%TO.P,LQFP-48,39*%
X57580000Y-45930500D03*
%TO.P,LQFP-48,40*%
X58080000Y-45930500D03*
%TO.P,LQFP-48,41*%
X58580000Y-45930500D03*
%TO.P,LQFP-48,42*%
X59080000Y-45930500D03*
%TO.P,LQFP-48,43*%
X59580000Y-45930500D03*
%TO.P,LQFP-48,44*%
X60080000Y-45930500D03*
%TO.P,LQFP-48,45*%
X60580000Y-45930500D03*
%TO.P,LQFP-48,46*%
X61080000Y-45930500D03*
%TO.P,LQFP-48,47*%
X61580000Y-45930500D03*
%TO.P,LQFP-48,48*%
X62080000Y-45930500D03*
%TD*%
D54*
%TO.P,1206,1*%
%TO.N,N/C*%
X117352500Y-43653000D03*
%TO.P,1206,2*%
X114427500Y-43653000D03*
%TD*%
D55*
%TO.P,0805,1*%
%TO.N,N/C*%
X116802500Y-47178000D03*
%TO.P,0805,2*%
X114977500Y-47178000D03*
%TD*%
D31*
%TO.P,SOT-23-5,1*%
%TO.N,N/C*%
X46427500Y-60073000D03*
%TO.P,SOT-23-5,2*%
X46427500Y-61023000D03*
%TO.P,SOT-23-5,3*%
X46427500Y-61973000D03*
%TO.P,SOT-23-5,4*%
X44152500Y-61973000D03*
%TO.P,SOT-23-5,5*%
X44152500Y-60073000D03*
%TD*%
D56*
%TO.P,SOT-23,1*%
%TO.N,N/C*%
X46227500Y-66148000D03*
%TO.P,SOT-23,2*%
X46227500Y-68048000D03*
%TO.P,SOT-23,3*%
X44352500Y-67098000D03*
%TD*%
D57*
%TO.P,REF\u002A\u002A,1*%
%TO.N,N/C*%
X118340000Y-52043000D03*
%TD*%
D58*
%TO.P,SMC,1*%
%TO.N,N/C*%
X109670000Y-46793000D03*
%TO.P,SMC,2*%
X102870000Y-46793000D03*
%TD*%
D59*
%TO.P,REF\u002A\u002A,1*%
%TO.N,N/C*%
X116940000Y-70643000D03*
%TD*%
D60*
%TO.P,REF\u002A\u002A,1*%
%TO.N,N/C*%
X117140000Y-67043000D03*
%TD*%
D29*
%TO.P,SMDIP-8,1*%
%TO.N,N/C*%
X39100000Y-49480500D03*
%TO.P,SMDIP-8,2*%
X39100000Y-52020500D03*
%TO.P,SMDIP-8,3*%
X39100000Y-54560500D03*
%TO.P,SMDIP-8,4*%
X39100000Y-57100500D03*
%TO.P,SMDIP-8,5*%
X31480000Y-57100500D03*
%TO.P,SMDIP-8,6*%
X31480000Y-54560500D03*
%TO.P,SMDIP-8,7*%
X31480000Y-52020500D03*
%TO.P,SMDIP-8,8*%
X31480000Y-49480500D03*
%TD*%
D61*
%TO.P,SO-6,1*%
%TO.N,N/C*%
X68440000Y-72860500D03*
%TO.P,SO-6,2*%
X68440000Y-74130500D03*
%TO.P,SO-6,3*%
X68440000Y-75400500D03*
%TO.P,SO-6,4*%
X62140000Y-75400500D03*
%TO.P,SO-6,5*%
X62140000Y-74130500D03*
%TO.P,SO-6,6*%
X62140000Y-72860500D03*
%TD*%
M02*
