G04 #@! TF.GenerationSoftware,KiCad,Pcbnew,9.0.3*
G04 #@! TF.CreationDate,2025-10-17T11:28:40-04:00*
G04 #@! TF.ProjectId,smt_training,736d745f-7472-4616-996e-696e672e6b69,1*
G04 #@! TF.SameCoordinates,Original*
G04 #@! TF.FileFunction,Paste,Bot*
G04 #@! TF.FilePolarity,Positive*
%FSLAX46Y46*%
G04 Gerber Fmt 4.6, Leading zero omitted, Abs format (unit mm)*
G04 Created by KiCad (PCBNEW 9.0.3) date 2025-10-17 11:28:40*
%MOMM*%
%LPD*%
G01*
G04 APERTURE LIST*
G04 Aperture macros list*
%AMRoundRect*
0 Rectangle with rounded corners*
0 $1 Rounding radius*
0 $2 $3 $4 $5 $6 $7 $8 $9 X,Y pos of 4 corners*
0 Add a 4 corners polygon primitive as box body*
4,1,4,$2,$3,$4,$5,$6,$7,$8,$9,$2,$3,0*
0 Add four circle primitives for the rounded corners*
1,1,$1+$1,$2,$3*
1,1,$1+$1,$4,$5*
1,1,$1+$1,$6,$7*
1,1,$1+$1,$8,$9*
0 Add four rect primitives between the rounded corners*
20,1,$1+$1,$2,$3,$4,$5,0*
20,1,$1+$1,$4,$5,$6,$7,0*
20,1,$1+$1,$6,$7,$8,$9,0*
20,1,$1+$1,$8,$9,$2,$3,0*%
G04 Aperture macros list end*
%ADD10RoundRect,0.249999X0.750001X0.640001X-0.750001X0.640001X-0.750001X-0.640001X0.750001X-0.640001X0*%
%ADD11RoundRect,0.150000X0.825000X0.150000X-0.825000X0.150000X-0.825000X-0.150000X0.825000X-0.150000X0*%
%ADD12RoundRect,0.125000X0.125000X0.625000X-0.125000X0.625000X-0.125000X-0.625000X0.125000X-0.625000X0*%
%ADD13RoundRect,0.125000X0.625000X0.125000X-0.625000X0.125000X-0.625000X-0.125000X0.625000X-0.125000X0*%
%ADD14RoundRect,0.375000X0.625000X0.375000X-0.625000X0.375000X-0.625000X-0.375000X0.625000X-0.375000X0*%
%ADD15RoundRect,0.500000X0.500000X1.400000X-0.500000X1.400000X-0.500000X-1.400000X0.500000X-1.400000X0*%
%ADD16RoundRect,0.250000X1.000000X-1.400000X1.000000X1.400000X-1.000000X1.400000X-1.000000X-1.400000X0*%
%ADD17RoundRect,0.250000X0.312500X0.625000X-0.312500X0.625000X-0.312500X-0.625000X0.312500X-0.625000X0*%
%ADD18RoundRect,0.250000X0.262500X0.450000X-0.262500X0.450000X-0.262500X-0.450000X0.262500X-0.450000X0*%
%ADD19RoundRect,0.200000X0.200000X0.275000X-0.200000X0.275000X-0.200000X-0.275000X0.200000X-0.275000X0*%
%ADD20RoundRect,0.075000X0.075000X0.700000X-0.075000X0.700000X-0.075000X-0.700000X0.075000X-0.700000X0*%
%ADD21RoundRect,0.075000X0.700000X0.075000X-0.700000X0.075000X-0.700000X-0.075000X0.700000X-0.075000X0*%
%ADD22RoundRect,0.125000X0.537500X0.125000X-0.537500X0.125000X-0.537500X-0.125000X0.537500X-0.125000X0*%
%ADD23RoundRect,0.150000X0.512500X0.150000X-0.512500X0.150000X-0.512500X-0.150000X0.512500X-0.150000X0*%
%ADD24RoundRect,0.150000X0.750000X0.150000X-0.750000X0.150000X-0.750000X-0.150000X0.750000X-0.150000X0*%
%ADD25RoundRect,0.250000X1.000000X0.650000X-1.000000X0.650000X-1.000000X-0.650000X1.000000X-0.650000X0*%
%ADD26RoundRect,0.225000X0.225000X0.375000X-0.225000X0.375000X-0.225000X-0.375000X0.225000X-0.375000X0*%
%ADD27RoundRect,0.250000X1.000000X0.900000X-1.000000X0.900000X-1.000000X-0.900000X1.000000X-0.900000X0*%
%ADD28RoundRect,0.087500X0.250000X0.087500X-0.250000X0.087500X-0.250000X-0.087500X0.250000X-0.087500X0*%
%ADD29RoundRect,0.112500X0.187500X0.112500X-0.187500X0.112500X-0.187500X-0.112500X0.187500X-0.112500X0*%
%ADD30RoundRect,0.075000X0.075000X0.662500X-0.075000X0.662500X-0.075000X-0.662500X0.075000X-0.662500X0*%
%ADD31RoundRect,0.075000X0.662500X0.075000X-0.662500X0.075000X-0.662500X-0.075000X0.662500X-0.075000X0*%
%ADD32RoundRect,0.150000X0.587500X0.150000X-0.587500X0.150000X-0.587500X-0.150000X0.587500X-0.150000X0*%
%ADD33R,2.000000X0.640000*%
G04 APERTURE END LIST*
D10*
X39100000Y-62440500D03*
X39100000Y-64980500D03*
X39100000Y-67520500D03*
X31480000Y-67520500D03*
X31480000Y-64980500D03*
X31480000Y-62440500D03*
D11*
X77875000Y-72225500D03*
X77875000Y-73495500D03*
X77875000Y-74765500D03*
X77875000Y-76035500D03*
X72925000Y-76035500D03*
X72925000Y-74765500D03*
X72925000Y-73495500D03*
X72925000Y-72225500D03*
D12*
X50580000Y-45918000D03*
X49780000Y-45918000D03*
X48980000Y-45918000D03*
X48180000Y-45918000D03*
X47380000Y-45918000D03*
X46580000Y-45918000D03*
X45780000Y-45918000D03*
X44980000Y-45918000D03*
D13*
X43605000Y-47293000D03*
X43605000Y-48093000D03*
X43605000Y-48893000D03*
X43605000Y-49693000D03*
X43605000Y-50493000D03*
X43605000Y-51293000D03*
X43605000Y-52093000D03*
X43605000Y-52893000D03*
D12*
X44980000Y-54268000D03*
X45780000Y-54268000D03*
X46580000Y-54268000D03*
X47380000Y-54268000D03*
X48180000Y-54268000D03*
X48980000Y-54268000D03*
X49780000Y-54268000D03*
X50580000Y-54268000D03*
D13*
X51955000Y-52893000D03*
X51955000Y-52093000D03*
X51955000Y-51293000D03*
X51955000Y-50493000D03*
X51955000Y-49693000D03*
X51955000Y-48893000D03*
X51955000Y-48093000D03*
X51955000Y-47293000D03*
D14*
X68440000Y-61793000D03*
X68440000Y-64093000D03*
X68440000Y-66393000D03*
D15*
X62140000Y-64093000D03*
D16*
X102870000Y-46793000D03*
X109670000Y-46793000D03*
D17*
X114427500Y-43653000D03*
X117352500Y-43653000D03*
D18*
X114977500Y-47178000D03*
X116802500Y-47178000D03*
D19*
X115065000Y-50303000D03*
X116715000Y-50303000D03*
D20*
X76150000Y-44418000D03*
X75650000Y-44418000D03*
X75150000Y-44418000D03*
X74650000Y-44418000D03*
X74150000Y-44418000D03*
X73650000Y-44418000D03*
X73150000Y-44418000D03*
X72650000Y-44418000D03*
X72150000Y-44418000D03*
X71650000Y-44418000D03*
X71150000Y-44418000D03*
X70650000Y-44418000D03*
X70150000Y-44418000D03*
X69650000Y-44418000D03*
X69150000Y-44418000D03*
X68650000Y-44418000D03*
D21*
X66725000Y-46343000D03*
X66725000Y-46843000D03*
X66725000Y-47343000D03*
X66725000Y-47843000D03*
X66725000Y-48343000D03*
X66725000Y-48843000D03*
X66725000Y-49343000D03*
X66725000Y-49843000D03*
X66725000Y-50343000D03*
X66725000Y-50843000D03*
X66725000Y-51343000D03*
X66725000Y-51843000D03*
X66725000Y-52343000D03*
X66725000Y-52843000D03*
X66725000Y-53343000D03*
X66725000Y-53843000D03*
D20*
X68650000Y-55768000D03*
X69150000Y-55768000D03*
X69650000Y-55768000D03*
X70150000Y-55768000D03*
X70650000Y-55768000D03*
X71150000Y-55768000D03*
X71650000Y-55768000D03*
X72150000Y-55768000D03*
X72650000Y-55768000D03*
X73150000Y-55768000D03*
X73650000Y-55768000D03*
X74150000Y-55768000D03*
X74650000Y-55768000D03*
X75150000Y-55768000D03*
X75650000Y-55768000D03*
X76150000Y-55768000D03*
D21*
X78075000Y-53843000D03*
X78075000Y-53343000D03*
X78075000Y-52843000D03*
X78075000Y-52343000D03*
X78075000Y-51843000D03*
X78075000Y-51343000D03*
X78075000Y-50843000D03*
X78075000Y-50343000D03*
X78075000Y-49843000D03*
X78075000Y-49343000D03*
X78075000Y-48843000D03*
X78075000Y-48343000D03*
X78075000Y-47843000D03*
X78075000Y-47343000D03*
X78075000Y-46843000D03*
X78075000Y-46343000D03*
D10*
X31480000Y-72860500D03*
X31480000Y-75400500D03*
X39100000Y-75400500D03*
X39100000Y-72860500D03*
D22*
X54152500Y-60035500D03*
X54152500Y-60685500D03*
X54152500Y-61335500D03*
X54152500Y-61985500D03*
X56427500Y-61985500D03*
X56427500Y-61335500D03*
X56427500Y-60685500D03*
X56427500Y-60035500D03*
D23*
X54152500Y-66148000D03*
X54152500Y-67098000D03*
X54152500Y-68048000D03*
X56427500Y-68048000D03*
X56427500Y-67098000D03*
X56427500Y-66148000D03*
D24*
X52140000Y-72860500D03*
X52140000Y-75400500D03*
X58440000Y-75400500D03*
X58440000Y-72860500D03*
D25*
X92270000Y-41793000D03*
X96270000Y-41793000D03*
D26*
X83320000Y-47793000D03*
X86620000Y-47793000D03*
D27*
X92120000Y-47793000D03*
X96420000Y-47793000D03*
D28*
X44577500Y-73630500D03*
X44577500Y-74630500D03*
X46002500Y-74630500D03*
X46002500Y-74130500D03*
X46002500Y-73630500D03*
D29*
X83920000Y-41793000D03*
X86020000Y-41793000D03*
D30*
X62080000Y-45930500D03*
X61580000Y-45930500D03*
X61080000Y-45930500D03*
X60580000Y-45930500D03*
X60080000Y-45930500D03*
X59580000Y-45930500D03*
X59080000Y-45930500D03*
X58580000Y-45930500D03*
X58080000Y-45930500D03*
X57580000Y-45930500D03*
X57080000Y-45930500D03*
X56580000Y-45930500D03*
D31*
X55167500Y-47343000D03*
X55167500Y-47843000D03*
X55167500Y-48343000D03*
X55167500Y-48843000D03*
X55167500Y-49343000D03*
X55167500Y-49843000D03*
X55167500Y-50343000D03*
X55167500Y-50843000D03*
X55167500Y-51343000D03*
X55167500Y-51843000D03*
X55167500Y-52343000D03*
X55167500Y-52843000D03*
D30*
X56580000Y-54255500D03*
X57080000Y-54255500D03*
X57580000Y-54255500D03*
X58080000Y-54255500D03*
X58580000Y-54255500D03*
X59080000Y-54255500D03*
X59580000Y-54255500D03*
X60080000Y-54255500D03*
X60580000Y-54255500D03*
X61080000Y-54255500D03*
X61580000Y-54255500D03*
X62080000Y-54255500D03*
D31*
X63492500Y-52843000D03*
X63492500Y-52343000D03*
X63492500Y-51843000D03*
X63492500Y-51343000D03*
X63492500Y-50843000D03*
X63492500Y-50343000D03*
X63492500Y-49843000D03*
X63492500Y-49343000D03*
X63492500Y-48843000D03*
X63492500Y-48343000D03*
X63492500Y-47843000D03*
X63492500Y-47343000D03*
D32*
X44352500Y-67098000D03*
X46227500Y-68048000D03*
X46227500Y-66148000D03*
D23*
X44152500Y-60073000D03*
X44152500Y-61973000D03*
X46427500Y-61973000D03*
X46427500Y-61023000D03*
X46427500Y-60073000D03*
D10*
X31480000Y-49480500D03*
X31480000Y-52020500D03*
X31480000Y-54560500D03*
X31480000Y-57100500D03*
X39100000Y-57100500D03*
X39100000Y-54560500D03*
X39100000Y-52020500D03*
X39100000Y-49480500D03*
D33*
X62140000Y-72860500D03*
X62140000Y-74130500D03*
X62140000Y-75400500D03*
X68440000Y-75400500D03*
X68440000Y-74130500D03*
X68440000Y-72860500D03*
D11*
X77875000Y-59648000D03*
X77875000Y-60918000D03*
X77875000Y-62188000D03*
X77875000Y-63458000D03*
X77875000Y-64728000D03*
X77875000Y-65998000D03*
X77875000Y-67268000D03*
X77875000Y-68538000D03*
X72925000Y-68538000D03*
X72925000Y-67268000D03*
X72925000Y-65998000D03*
X72925000Y-64728000D03*
X72925000Y-63458000D03*
X72925000Y-62188000D03*
X72925000Y-60918000D03*
X72925000Y-59648000D03*
M02*
