%TF.GenerationSoftware,KiCad,Pcbnew,9.0.6*%
%TF.CreationDate,2025-11-26T14:41:24-05:00*%
%TF.ProjectId,smt_training,736d745f-7472-4616-996e-696e672e6b69,1.1*%
%TF.SameCoordinates,Original*%
%TF.FileFunction,Paste,Top*%
%TF.FilePolarity,Positive*%
%FSLAX46Y46*%
G04 Gerber Fmt 4.6, Leading zero omitted, Abs format (unit mm)*
G04 Created by KiCad (PCBNEW 9.0.6) date 2025-11-26 14:41:24*
%MOMM*%
%LPD*%
G01*
G04 APERTURE LIST*
G04 Aperture macros list*
%AMRoundRect*
0 Rectangle with rounded corners*
0 $1 Rounding radius*
0 $2 $3 $4 $5 $6 $7 $8 $9 X,Y pos of 4 corners*
0 Add a 4 corners polygon primitive as box body*
4,1,4,$2,$3,$4,$5,$6,$7,$8,$9,$2,$3,0*
0 Add four circle primitives for the rounded corners*
1,1,$1+$1,$2,$3*
1,1,$1+$1,$4,$5*
1,1,$1+$1,$6,$7*
1,1,$1+$1,$8,$9*
0 Add four rect primitives between the rounded corners*
20,1,$1+$1,$2,$3,$4,$5,0*
20,1,$1+$1,$4,$5,$6,$7,0*
20,1,$1+$1,$6,$7,$8,$9,0*
20,1,$1+$1,$8,$9,$2,$3,0*%
G04 Aperture macros list end*
%ADD10RoundRect,0.250000X0.450000X-0.262500X0.450000X0.262500X-0.450000X0.262500X-0.450000X-0.262500X0*%
%ADD11RoundRect,0.200000X0.275000X-0.200000X0.275000X0.200000X-0.275000X0.200000X-0.275000X-0.200000X0*%
%ADD12RoundRect,0.090000X0.110000X-0.090000X0.110000X0.090000X-0.110000X0.090000X-0.110000X-0.090000X0*%
%ADD13RoundRect,0.243750X-0.243750X-0.456250X0.243750X-0.456250X0.243750X0.456250X-0.243750X0.456250X0*%
%ADD14R,1.500000X0.650000*%
%ADD15RoundRect,0.243750X0.456250X-0.243750X0.456250X0.243750X-0.456250X0.243750X-0.456250X-0.243750X0*%
%ADD16RoundRect,0.200000X-0.275000X0.200000X-0.275000X-0.200000X0.275000X-0.200000X0.275000X0.200000X0*%
%ADD17RoundRect,0.300000X0.700000X0.300000X-0.700000X0.300000X-0.700000X-0.300000X0.700000X-0.300000X0*%
%ADD18RoundRect,0.243750X0.243750X0.456250X-0.243750X0.456250X-0.243750X-0.456250X0.243750X-0.456250X0*%
%ADD19RoundRect,0.150000X-0.512500X-0.150000X0.512500X-0.150000X0.512500X0.150000X-0.512500X0.150000X0*%
%ADD20RoundRect,0.075000X-0.700000X-0.075000X0.700000X-0.075000X0.700000X0.075000X-0.700000X0.075000X0*%
%ADD21RoundRect,0.075000X-0.075000X-0.700000X0.075000X-0.700000X0.075000X0.700000X-0.075000X0.700000X0*%
%ADD22RoundRect,0.225000X-0.225000X-0.250000X0.225000X-0.250000X0.225000X0.250000X-0.225000X0.250000X0*%
%ADD23RoundRect,0.200000X0.200000X0.275000X-0.200000X0.275000X-0.200000X-0.275000X0.200000X-0.275000X0*%
%ADD24RoundRect,0.100000X-0.100000X0.225000X-0.100000X-0.225000X0.100000X-0.225000X0.100000X0.225000X0*%
%ADD25RoundRect,0.225000X-0.250000X0.225000X-0.250000X-0.225000X0.250000X-0.225000X0.250000X0.225000X0*%
%ADD26RoundRect,0.150000X0.150000X-0.512500X0.150000X0.512500X-0.150000X0.512500X-0.150000X-0.512500X0*%
%ADD27R,0.700000X1.000000*%
%ADD28R,2.400000X1.000000*%
%ADD29RoundRect,0.250000X0.375000X0.625000X-0.375000X0.625000X-0.375000X-0.625000X0.375000X-0.625000X0*%
G04 APERTURE END LIST*
D10*
%TO.C,R2*%
X70470000Y-69452500D03*
X70470000Y-67627500D03*
%TD*%
%TO.C,R6*%
X93660000Y-55592500D03*
X93660000Y-53767500D03*
%TD*%
D11*
%TO.C,R10*%
X100660000Y-70394750D03*
X100660000Y-68744750D03*
%TD*%
D10*
%TO.C,R5*%
X66830000Y-52652500D03*
X66830000Y-50827500D03*
%TD*%
D12*
%TO.C,D1*%
X36140000Y-56770000D03*
X36140000Y-57610000D03*
%TD*%
D13*
%TO.C,D2*%
X90318750Y-70420000D03*
X92193750Y-70420000D03*
%TD*%
D14*
%TO.C,U4*%
X102390000Y-66425000D03*
X102390000Y-67695000D03*
X102390000Y-68965000D03*
X102390000Y-70235000D03*
X107790000Y-70235000D03*
X107790000Y-68965000D03*
X107790000Y-67695000D03*
X107790000Y-66425000D03*
%TD*%
D15*
%TO.C,D5*%
X100660000Y-73672250D03*
X100660000Y-71797250D03*
%TD*%
D16*
%TO.C,R8*%
X110020000Y-66260000D03*
X110020000Y-67910000D03*
%TD*%
D17*
%TO.C,J1*%
X24740000Y-61192500D03*
X24740000Y-58692500D03*
X24740000Y-56692500D03*
X24740000Y-54192500D03*
%TD*%
D18*
%TO.C,D4*%
X92127500Y-61822502D03*
X90252500Y-61822502D03*
%TD*%
D16*
%TO.C,R3*%
X74260000Y-66782500D03*
X74260000Y-68432500D03*
%TD*%
D19*
%TO.C,Q1*%
X78952500Y-69470000D03*
X78952500Y-71370000D03*
X81227500Y-70420000D03*
%TD*%
D20*
%TO.C,U3*%
X99415000Y-50942500D03*
X99415000Y-51442500D03*
X99415000Y-51942500D03*
X99415000Y-52442500D03*
X99415000Y-52942500D03*
X99415000Y-53442500D03*
X99415000Y-53942500D03*
X99415000Y-54442500D03*
X99415000Y-54942500D03*
X99415000Y-55442500D03*
X99415000Y-55942500D03*
X99415000Y-56442500D03*
X99415000Y-56942500D03*
X99415000Y-57442500D03*
X99415000Y-57942500D03*
X99415000Y-58442500D03*
D21*
X101340000Y-60367500D03*
X101840000Y-60367500D03*
X102340000Y-60367500D03*
X102840000Y-60367500D03*
X103340000Y-60367500D03*
X103840000Y-60367500D03*
X104340000Y-60367500D03*
X104840000Y-60367500D03*
X105340000Y-60367500D03*
X105840000Y-60367500D03*
X106340000Y-60367500D03*
X106840000Y-60367500D03*
X107340000Y-60367500D03*
X107840000Y-60367500D03*
X108340000Y-60367500D03*
X108840000Y-60367500D03*
D20*
X110765000Y-58442500D03*
X110765000Y-57942500D03*
X110765000Y-57442500D03*
X110765000Y-56942500D03*
X110765000Y-56442500D03*
X110765000Y-55942500D03*
X110765000Y-55442500D03*
X110765000Y-54942500D03*
X110765000Y-54442500D03*
X110765000Y-53942500D03*
X110765000Y-53442500D03*
X110765000Y-52942500D03*
X110765000Y-52442500D03*
X110765000Y-51942500D03*
X110765000Y-51442500D03*
X110765000Y-50942500D03*
D21*
X108840000Y-49017500D03*
X108340000Y-49017500D03*
X107840000Y-49017500D03*
X107340000Y-49017500D03*
X106840000Y-49017500D03*
X106340000Y-49017500D03*
X105840000Y-49017500D03*
X105340000Y-49017500D03*
X104840000Y-49017500D03*
X104340000Y-49017500D03*
X103840000Y-49017500D03*
X103340000Y-49017500D03*
X102840000Y-49017500D03*
X102340000Y-49017500D03*
X101840000Y-49017500D03*
X101340000Y-49017500D03*
%TD*%
D22*
%TO.C,C3*%
X104315000Y-64875000D03*
X105865000Y-64875000D03*
%TD*%
%TO.C,C2*%
X85335000Y-56950000D03*
X86885000Y-56950000D03*
%TD*%
D23*
%TO.C,R4*%
X87061250Y-70420000D03*
X85411250Y-70420000D03*
%TD*%
D24*
%TO.C,U2*%
X85360000Y-52102500D03*
X84710000Y-52102500D03*
X84060000Y-52102500D03*
X84060000Y-54002500D03*
X85360000Y-54002500D03*
%TD*%
D25*
%TO.C,C4*%
X110020000Y-72230000D03*
X110020000Y-73780000D03*
%TD*%
D16*
%TO.C,R9*%
X110020000Y-69220000D03*
X110020000Y-70870000D03*
%TD*%
D26*
%TO.C,U1*%
X65830000Y-72960000D03*
X66780000Y-72960000D03*
X67730000Y-72960000D03*
X67730000Y-70685000D03*
X65830000Y-70685000D03*
%TD*%
D25*
%TO.C,C1*%
X61490000Y-72275000D03*
X61490000Y-73825000D03*
%TD*%
D11*
%TO.C,R7*%
X90250000Y-57245000D03*
X90250000Y-55595000D03*
%TD*%
D27*
%TO.C,SW2*%
X48060000Y-72652500D03*
X48060000Y-66652500D03*
X51760000Y-72652500D03*
X51760000Y-66652500D03*
%TD*%
D10*
%TO.C,R1*%
X58140000Y-69492500D03*
X58140000Y-67667500D03*
%TD*%
D28*
%TO.C,SW1*%
X46610000Y-52652500D03*
X53210000Y-52652500D03*
%TD*%
D18*
%TO.C,D3*%
X76197500Y-63822500D03*
X74322500Y-63822500D03*
%TD*%
D29*
%TO.C,F1*%
X36140000Y-61190000D03*
X33340000Y-61190000D03*
%TD*%
M02*
