%TF.GenerationSoftware,KiCad,Pcbnew,9.0.3*%
%TF.CreationDate,2025-10-17T11:28:34-04:00*%
%TF.ProjectId,smt_training,736d745f-7472-4616-996e-696e672e6b69,1*%
%TF.SameCoordinates,Original*%
%TF.FileFunction,Drillmap*%
%TF.FilePolarity,Positive*%
%FSLAX45Y45*%
G04 Gerber Fmt 4.5, Leading zero omitted, Abs format (unit mm)*
G04 Created by KiCad (PCBNEW 9.0.3) date 2025-10-17 11:28:34*
%MOMM*%
%LPD*%
G01*
G04 APERTURE LIST*
%ADD10C,0.050000*%
%ADD11C,0.200000*%
%ADD12C,0.100000*%
%ADD13C,0.120000*%
%ADD14C,0.140000*%
%ADD15C,0.160000*%
%ADD16C,0.220000*%
%ADD17C,0.280000*%
%ADD18C,0.320000*%
%ADD19C,0.400000*%
G04 APERTURE END LIST*
D10*
X1939000Y-3769250D02*
X11939000Y-3769250D01*
X1939000Y-7769250D02*
X1939000Y-3769250D01*
X11939000Y-3769250D02*
X11939000Y-7769250D01*
X11939000Y-7769250D02*
X1939000Y-7769250D01*
D11*
D12*
X11809000Y-5179300D02*
X11859000Y-5229300D01*
X11859000Y-5179300D02*
X11809000Y-5229300D01*
X11859000Y-5309300D02*
G75*
G02*
X11799000Y-5309300I-30000J0D01*
G01*
X11799000Y-5309300D02*
G75*
G02*
X11859000Y-5309300I30000J0D01*
G01*
X2214000Y-5149250D02*
X2214000Y-5219250D01*
X2179000Y-5184250D02*
X2249000Y-5184250D01*
X2304000Y-5149250D02*
X2124000Y-5149250D01*
X2124000Y-5219250D02*
G75*
G02*
X2124000Y-5149250I0J35000D01*
G01*
X2124000Y-5219250D02*
X2304000Y-5219250D01*
X2304000Y-5219250D02*
G75*
G03*
X2304000Y-5149250I0J35000D01*
G01*
X2214000Y-6319250D02*
X2214000Y-6389250D01*
X2179000Y-6354250D02*
X2249000Y-6354250D01*
X2304000Y-6319250D02*
X2124000Y-6319250D01*
X2124000Y-6389250D02*
G75*
G02*
X2124000Y-6319250I0J35000D01*
G01*
X2124000Y-6389250D02*
X2304000Y-6389250D01*
X2304000Y-6389250D02*
G75*
G03*
X2304000Y-6319250I0J35000D01*
G01*
X11847284Y-5457585D02*
X11847284Y-5401016D01*
X11790715Y-5401016D01*
X11790715Y-5457585D01*
X11847284Y-5457585D01*
X11804000Y-5624300D02*
X11854000Y-5574300D01*
X11804000Y-5524300D01*
X11754000Y-5574300D01*
X11804000Y-5624300D01*
D13*
X11734000Y-5684300D02*
X11854000Y-5804300D01*
X11854000Y-5684300D02*
X11734000Y-5804300D01*
X11854000Y-5744300D02*
G75*
G02*
X11734000Y-5744300I-60000J0D01*
G01*
X11734000Y-5744300D02*
G75*
G02*
X11854000Y-5744300I60000J0D01*
G01*
D14*
X11714000Y-5864300D02*
X11854000Y-6004300D01*
X11854000Y-5864300D02*
X11714000Y-6004300D01*
X11784000Y-5864300D02*
X11784000Y-6004300D01*
X11714000Y-5934300D02*
X11854000Y-5934300D01*
D15*
X11694000Y-6064300D02*
X11854000Y-6224300D01*
X11854000Y-6064300D02*
X11694000Y-6224300D01*
X11830569Y-6200869D02*
X11830569Y-6087731D01*
X11717431Y-6087731D01*
X11717431Y-6200869D01*
X11830569Y-6200869D01*
D16*
X11634000Y-6284300D02*
X11854000Y-6504300D01*
X11854000Y-6284300D02*
X11634000Y-6504300D01*
X11744000Y-6504300D02*
X11854000Y-6394300D01*
X11744000Y-6284300D01*
X11634000Y-6394300D01*
X11744000Y-6504300D01*
D17*
X11714000Y-6564300D02*
X11714000Y-6844300D01*
X11574000Y-6704300D02*
X11854000Y-6704300D01*
X11854000Y-6704300D02*
G75*
G02*
X11574000Y-6704300I-140000J0D01*
G01*
X11574000Y-6704300D02*
G75*
G02*
X11854000Y-6704300I140000J0D01*
G01*
D18*
X11807138Y-7177438D02*
X11807138Y-6951162D01*
X11580862Y-6951162D01*
X11580862Y-7177438D01*
X11807138Y-7177438D01*
X11854000Y-7064300D02*
G75*
G02*
X11534000Y-7064300I-160000J0D01*
G01*
X11534000Y-7064300D02*
G75*
G02*
X11854000Y-7064300I160000J0D01*
G01*
D19*
X11654000Y-7684300D02*
X11854000Y-7484300D01*
X11654000Y-7284300D01*
X11454000Y-7484300D01*
X11654000Y-7684300D01*
X11854000Y-7484300D02*
G75*
G02*
X11454000Y-7484300I-200000J0D01*
G01*
X11454000Y-7484300D02*
G75*
G02*
X11854000Y-7484300I200000J0D01*
G01*
D11*
X2197277Y-8083234D02*
X2197277Y-7883234D01*
X2197277Y-7883234D02*
X2244896Y-7883234D01*
X2244896Y-7883234D02*
X2273467Y-7892758D01*
X2273467Y-7892758D02*
X2292515Y-7911805D01*
X2292515Y-7911805D02*
X2302039Y-7930853D01*
X2302039Y-7930853D02*
X2311563Y-7968948D01*
X2311563Y-7968948D02*
X2311563Y-7997519D01*
X2311563Y-7997519D02*
X2302039Y-8035615D01*
X2302039Y-8035615D02*
X2292515Y-8054662D01*
X2292515Y-8054662D02*
X2273467Y-8073710D01*
X2273467Y-8073710D02*
X2244896Y-8083234D01*
X2244896Y-8083234D02*
X2197277Y-8083234D01*
X2397277Y-8083234D02*
X2397277Y-7949900D01*
X2397277Y-7987996D02*
X2406801Y-7968948D01*
X2406801Y-7968948D02*
X2416324Y-7959424D01*
X2416324Y-7959424D02*
X2435372Y-7949900D01*
X2435372Y-7949900D02*
X2454420Y-7949900D01*
X2521086Y-8083234D02*
X2521086Y-7949900D01*
X2521086Y-7883234D02*
X2511563Y-7892758D01*
X2511563Y-7892758D02*
X2521086Y-7902281D01*
X2521086Y-7902281D02*
X2530610Y-7892758D01*
X2530610Y-7892758D02*
X2521086Y-7883234D01*
X2521086Y-7883234D02*
X2521086Y-7902281D01*
X2644896Y-8083234D02*
X2625848Y-8073710D01*
X2625848Y-8073710D02*
X2616324Y-8054662D01*
X2616324Y-8054662D02*
X2616324Y-7883234D01*
X2749658Y-8083234D02*
X2730610Y-8073710D01*
X2730610Y-8073710D02*
X2721086Y-8054662D01*
X2721086Y-8054662D02*
X2721086Y-7883234D01*
X2978229Y-8083234D02*
X2978229Y-7883234D01*
X2978229Y-7883234D02*
X3044896Y-8026091D01*
X3044896Y-8026091D02*
X3111562Y-7883234D01*
X3111562Y-7883234D02*
X3111562Y-8083234D01*
X3292515Y-8083234D02*
X3292515Y-7978472D01*
X3292515Y-7978472D02*
X3282991Y-7959424D01*
X3282991Y-7959424D02*
X3263943Y-7949900D01*
X3263943Y-7949900D02*
X3225848Y-7949900D01*
X3225848Y-7949900D02*
X3206801Y-7959424D01*
X3292515Y-8073710D02*
X3273467Y-8083234D01*
X3273467Y-8083234D02*
X3225848Y-8083234D01*
X3225848Y-8083234D02*
X3206801Y-8073710D01*
X3206801Y-8073710D02*
X3197277Y-8054662D01*
X3197277Y-8054662D02*
X3197277Y-8035615D01*
X3197277Y-8035615D02*
X3206801Y-8016567D01*
X3206801Y-8016567D02*
X3225848Y-8007043D01*
X3225848Y-8007043D02*
X3273467Y-8007043D01*
X3273467Y-8007043D02*
X3292515Y-7997519D01*
X3387753Y-7949900D02*
X3387753Y-8149900D01*
X3387753Y-7959424D02*
X3406801Y-7949900D01*
X3406801Y-7949900D02*
X3444896Y-7949900D01*
X3444896Y-7949900D02*
X3463943Y-7959424D01*
X3463943Y-7959424D02*
X3473467Y-7968948D01*
X3473467Y-7968948D02*
X3482991Y-7987996D01*
X3482991Y-7987996D02*
X3482991Y-8045138D01*
X3482991Y-8045138D02*
X3473467Y-8064186D01*
X3473467Y-8064186D02*
X3463943Y-8073710D01*
X3463943Y-8073710D02*
X3444896Y-8083234D01*
X3444896Y-8083234D02*
X3406801Y-8083234D01*
X3406801Y-8083234D02*
X3387753Y-8073710D01*
X3568705Y-8064186D02*
X3578229Y-8073710D01*
X3578229Y-8073710D02*
X3568705Y-8083234D01*
X3568705Y-8083234D02*
X3559182Y-8073710D01*
X3559182Y-8073710D02*
X3568705Y-8064186D01*
X3568705Y-8064186D02*
X3568705Y-8083234D01*
X3568705Y-7959424D02*
X3578229Y-7968948D01*
X3578229Y-7968948D02*
X3568705Y-7978472D01*
X3568705Y-7978472D02*
X3559182Y-7968948D01*
X3559182Y-7968948D02*
X3568705Y-7959424D01*
X3568705Y-7959424D02*
X3568705Y-7978472D01*
D12*
X1886500Y-8386750D02*
X1936500Y-8436750D01*
X1936500Y-8386750D02*
X1886500Y-8436750D01*
D11*
X2235372Y-8303234D02*
X2254420Y-8303234D01*
X2254420Y-8303234D02*
X2273467Y-8312758D01*
X2273467Y-8312758D02*
X2282991Y-8322281D01*
X2282991Y-8322281D02*
X2292515Y-8341329D01*
X2292515Y-8341329D02*
X2302039Y-8379424D01*
X2302039Y-8379424D02*
X2302039Y-8427043D01*
X2302039Y-8427043D02*
X2292515Y-8465139D01*
X2292515Y-8465139D02*
X2282991Y-8484186D01*
X2282991Y-8484186D02*
X2273467Y-8493710D01*
X2273467Y-8493710D02*
X2254420Y-8503234D01*
X2254420Y-8503234D02*
X2235372Y-8503234D01*
X2235372Y-8503234D02*
X2216324Y-8493710D01*
X2216324Y-8493710D02*
X2206801Y-8484186D01*
X2206801Y-8484186D02*
X2197277Y-8465139D01*
X2197277Y-8465139D02*
X2187753Y-8427043D01*
X2187753Y-8427043D02*
X2187753Y-8379424D01*
X2187753Y-8379424D02*
X2197277Y-8341329D01*
X2197277Y-8341329D02*
X2206801Y-8322281D01*
X2206801Y-8322281D02*
X2216324Y-8312758D01*
X2216324Y-8312758D02*
X2235372Y-8303234D01*
X2387753Y-8484186D02*
X2397277Y-8493710D01*
X2397277Y-8493710D02*
X2387753Y-8503234D01*
X2387753Y-8503234D02*
X2378229Y-8493710D01*
X2378229Y-8493710D02*
X2387753Y-8484186D01*
X2387753Y-8484186D02*
X2387753Y-8503234D01*
X2578229Y-8303234D02*
X2482991Y-8303234D01*
X2482991Y-8303234D02*
X2473467Y-8398472D01*
X2473467Y-8398472D02*
X2482991Y-8388948D01*
X2482991Y-8388948D02*
X2502039Y-8379424D01*
X2502039Y-8379424D02*
X2549658Y-8379424D01*
X2549658Y-8379424D02*
X2568705Y-8388948D01*
X2568705Y-8388948D02*
X2578229Y-8398472D01*
X2578229Y-8398472D02*
X2587753Y-8417520D01*
X2587753Y-8417520D02*
X2587753Y-8465139D01*
X2587753Y-8465139D02*
X2578229Y-8484186D01*
X2578229Y-8484186D02*
X2568705Y-8493710D01*
X2568705Y-8493710D02*
X2549658Y-8503234D01*
X2549658Y-8503234D02*
X2502039Y-8503234D01*
X2502039Y-8503234D02*
X2482991Y-8493710D01*
X2482991Y-8493710D02*
X2473467Y-8484186D01*
X2711563Y-8303234D02*
X2730610Y-8303234D01*
X2730610Y-8303234D02*
X2749658Y-8312758D01*
X2749658Y-8312758D02*
X2759182Y-8322281D01*
X2759182Y-8322281D02*
X2768705Y-8341329D01*
X2768705Y-8341329D02*
X2778229Y-8379424D01*
X2778229Y-8379424D02*
X2778229Y-8427043D01*
X2778229Y-8427043D02*
X2768705Y-8465139D01*
X2768705Y-8465139D02*
X2759182Y-8484186D01*
X2759182Y-8484186D02*
X2749658Y-8493710D01*
X2749658Y-8493710D02*
X2730610Y-8503234D01*
X2730610Y-8503234D02*
X2711563Y-8503234D01*
X2711563Y-8503234D02*
X2692515Y-8493710D01*
X2692515Y-8493710D02*
X2682991Y-8484186D01*
X2682991Y-8484186D02*
X2673467Y-8465139D01*
X2673467Y-8465139D02*
X2663944Y-8427043D01*
X2663944Y-8427043D02*
X2663944Y-8379424D01*
X2663944Y-8379424D02*
X2673467Y-8341329D01*
X2673467Y-8341329D02*
X2682991Y-8322281D01*
X2682991Y-8322281D02*
X2692515Y-8312758D01*
X2692515Y-8312758D02*
X2711563Y-8303234D01*
X2902039Y-8303234D02*
X2921086Y-8303234D01*
X2921086Y-8303234D02*
X2940134Y-8312758D01*
X2940134Y-8312758D02*
X2949658Y-8322281D01*
X2949658Y-8322281D02*
X2959182Y-8341329D01*
X2959182Y-8341329D02*
X2968705Y-8379424D01*
X2968705Y-8379424D02*
X2968705Y-8427043D01*
X2968705Y-8427043D02*
X2959182Y-8465139D01*
X2959182Y-8465139D02*
X2949658Y-8484186D01*
X2949658Y-8484186D02*
X2940134Y-8493710D01*
X2940134Y-8493710D02*
X2921086Y-8503234D01*
X2921086Y-8503234D02*
X2902039Y-8503234D01*
X2902039Y-8503234D02*
X2882991Y-8493710D01*
X2882991Y-8493710D02*
X2873467Y-8484186D01*
X2873467Y-8484186D02*
X2863943Y-8465139D01*
X2863943Y-8465139D02*
X2854420Y-8427043D01*
X2854420Y-8427043D02*
X2854420Y-8379424D01*
X2854420Y-8379424D02*
X2863943Y-8341329D01*
X2863943Y-8341329D02*
X2873467Y-8322281D01*
X2873467Y-8322281D02*
X2882991Y-8312758D01*
X2882991Y-8312758D02*
X2902039Y-8303234D01*
X3054420Y-8503234D02*
X3054420Y-8369900D01*
X3054420Y-8388948D02*
X3063943Y-8379424D01*
X3063943Y-8379424D02*
X3082991Y-8369900D01*
X3082991Y-8369900D02*
X3111563Y-8369900D01*
X3111563Y-8369900D02*
X3130610Y-8379424D01*
X3130610Y-8379424D02*
X3140134Y-8398472D01*
X3140134Y-8398472D02*
X3140134Y-8503234D01*
X3140134Y-8398472D02*
X3149658Y-8379424D01*
X3149658Y-8379424D02*
X3168705Y-8369900D01*
X3168705Y-8369900D02*
X3197277Y-8369900D01*
X3197277Y-8369900D02*
X3216324Y-8379424D01*
X3216324Y-8379424D02*
X3225848Y-8398472D01*
X3225848Y-8398472D02*
X3225848Y-8503234D01*
X3321086Y-8503234D02*
X3321086Y-8369900D01*
X3321086Y-8388948D02*
X3330610Y-8379424D01*
X3330610Y-8379424D02*
X3349658Y-8369900D01*
X3349658Y-8369900D02*
X3378229Y-8369900D01*
X3378229Y-8369900D02*
X3397277Y-8379424D01*
X3397277Y-8379424D02*
X3406801Y-8398472D01*
X3406801Y-8398472D02*
X3406801Y-8503234D01*
X3406801Y-8398472D02*
X3416324Y-8379424D01*
X3416324Y-8379424D02*
X3435372Y-8369900D01*
X3435372Y-8369900D02*
X3463943Y-8369900D01*
X3463943Y-8369900D02*
X3482991Y-8379424D01*
X3482991Y-8379424D02*
X3492515Y-8398472D01*
X3492515Y-8398472D02*
X3492515Y-8503234D01*
X3882991Y-8293710D02*
X3711563Y-8550853D01*
X4140134Y-8303234D02*
X4159182Y-8303234D01*
X4159182Y-8303234D02*
X4178229Y-8312758D01*
X4178229Y-8312758D02*
X4187753Y-8322281D01*
X4187753Y-8322281D02*
X4197277Y-8341329D01*
X4197277Y-8341329D02*
X4206801Y-8379424D01*
X4206801Y-8379424D02*
X4206801Y-8427043D01*
X4206801Y-8427043D02*
X4197277Y-8465139D01*
X4197277Y-8465139D02*
X4187753Y-8484186D01*
X4187753Y-8484186D02*
X4178229Y-8493710D01*
X4178229Y-8493710D02*
X4159182Y-8503234D01*
X4159182Y-8503234D02*
X4140134Y-8503234D01*
X4140134Y-8503234D02*
X4121086Y-8493710D01*
X4121086Y-8493710D02*
X4111563Y-8484186D01*
X4111563Y-8484186D02*
X4102039Y-8465139D01*
X4102039Y-8465139D02*
X4092515Y-8427043D01*
X4092515Y-8427043D02*
X4092515Y-8379424D01*
X4092515Y-8379424D02*
X4102039Y-8341329D01*
X4102039Y-8341329D02*
X4111563Y-8322281D01*
X4111563Y-8322281D02*
X4121086Y-8312758D01*
X4121086Y-8312758D02*
X4140134Y-8303234D01*
X4292515Y-8484186D02*
X4302039Y-8493710D01*
X4302039Y-8493710D02*
X4292515Y-8503234D01*
X4292515Y-8503234D02*
X4282991Y-8493710D01*
X4282991Y-8493710D02*
X4292515Y-8484186D01*
X4292515Y-8484186D02*
X4292515Y-8503234D01*
X4425848Y-8303234D02*
X4444896Y-8303234D01*
X4444896Y-8303234D02*
X4463944Y-8312758D01*
X4463944Y-8312758D02*
X4473468Y-8322281D01*
X4473468Y-8322281D02*
X4482991Y-8341329D01*
X4482991Y-8341329D02*
X4492515Y-8379424D01*
X4492515Y-8379424D02*
X4492515Y-8427043D01*
X4492515Y-8427043D02*
X4482991Y-8465139D01*
X4482991Y-8465139D02*
X4473468Y-8484186D01*
X4473468Y-8484186D02*
X4463944Y-8493710D01*
X4463944Y-8493710D02*
X4444896Y-8503234D01*
X4444896Y-8503234D02*
X4425848Y-8503234D01*
X4425848Y-8503234D02*
X4406801Y-8493710D01*
X4406801Y-8493710D02*
X4397277Y-8484186D01*
X4397277Y-8484186D02*
X4387753Y-8465139D01*
X4387753Y-8465139D02*
X4378229Y-8427043D01*
X4378229Y-8427043D02*
X4378229Y-8379424D01*
X4378229Y-8379424D02*
X4387753Y-8341329D01*
X4387753Y-8341329D02*
X4397277Y-8322281D01*
X4397277Y-8322281D02*
X4406801Y-8312758D01*
X4406801Y-8312758D02*
X4425848Y-8303234D01*
X4682991Y-8503234D02*
X4568706Y-8503234D01*
X4625848Y-8503234D02*
X4625848Y-8303234D01*
X4625848Y-8303234D02*
X4606801Y-8331805D01*
X4606801Y-8331805D02*
X4587753Y-8350853D01*
X4587753Y-8350853D02*
X4568706Y-8360377D01*
X4778229Y-8503234D02*
X4816325Y-8503234D01*
X4816325Y-8503234D02*
X4835372Y-8493710D01*
X4835372Y-8493710D02*
X4844896Y-8484186D01*
X4844896Y-8484186D02*
X4863944Y-8455615D01*
X4863944Y-8455615D02*
X4873468Y-8417520D01*
X4873468Y-8417520D02*
X4873468Y-8341329D01*
X4873468Y-8341329D02*
X4863944Y-8322281D01*
X4863944Y-8322281D02*
X4854420Y-8312758D01*
X4854420Y-8312758D02*
X4835372Y-8303234D01*
X4835372Y-8303234D02*
X4797277Y-8303234D01*
X4797277Y-8303234D02*
X4778229Y-8312758D01*
X4778229Y-8312758D02*
X4768706Y-8322281D01*
X4768706Y-8322281D02*
X4759182Y-8341329D01*
X4759182Y-8341329D02*
X4759182Y-8388948D01*
X4759182Y-8388948D02*
X4768706Y-8407996D01*
X4768706Y-8407996D02*
X4778229Y-8417520D01*
X4778229Y-8417520D02*
X4797277Y-8427043D01*
X4797277Y-8427043D02*
X4835372Y-8427043D01*
X4835372Y-8427043D02*
X4854420Y-8417520D01*
X4854420Y-8417520D02*
X4863944Y-8407996D01*
X4863944Y-8407996D02*
X4873468Y-8388948D01*
X4940134Y-8303234D02*
X5073468Y-8303234D01*
X5073468Y-8303234D02*
X4987753Y-8503234D01*
X5140134Y-8303234D02*
X5140134Y-8341329D01*
X5216325Y-8303234D02*
X5216325Y-8341329D01*
X5511563Y-8579424D02*
X5502039Y-8569900D01*
X5502039Y-8569900D02*
X5482991Y-8541329D01*
X5482991Y-8541329D02*
X5473468Y-8522281D01*
X5473468Y-8522281D02*
X5463944Y-8493710D01*
X5463944Y-8493710D02*
X5454420Y-8446091D01*
X5454420Y-8446091D02*
X5454420Y-8407996D01*
X5454420Y-8407996D02*
X5463944Y-8360377D01*
X5463944Y-8360377D02*
X5473468Y-8331805D01*
X5473468Y-8331805D02*
X5482991Y-8312758D01*
X5482991Y-8312758D02*
X5502039Y-8284186D01*
X5502039Y-8284186D02*
X5511563Y-8274662D01*
X5692515Y-8503234D02*
X5578230Y-8503234D01*
X5635372Y-8503234D02*
X5635372Y-8303234D01*
X5635372Y-8303234D02*
X5616325Y-8331805D01*
X5616325Y-8331805D02*
X5597277Y-8350853D01*
X5597277Y-8350853D02*
X5578230Y-8360377D01*
X5930610Y-8503234D02*
X5930610Y-8303234D01*
X6016325Y-8503234D02*
X6016325Y-8398472D01*
X6016325Y-8398472D02*
X6006801Y-8379424D01*
X6006801Y-8379424D02*
X5987753Y-8369900D01*
X5987753Y-8369900D02*
X5959182Y-8369900D01*
X5959182Y-8369900D02*
X5940134Y-8379424D01*
X5940134Y-8379424D02*
X5930610Y-8388948D01*
X6140134Y-8503234D02*
X6121087Y-8493710D01*
X6121087Y-8493710D02*
X6111563Y-8484186D01*
X6111563Y-8484186D02*
X6102039Y-8465139D01*
X6102039Y-8465139D02*
X6102039Y-8407996D01*
X6102039Y-8407996D02*
X6111563Y-8388948D01*
X6111563Y-8388948D02*
X6121087Y-8379424D01*
X6121087Y-8379424D02*
X6140134Y-8369900D01*
X6140134Y-8369900D02*
X6168706Y-8369900D01*
X6168706Y-8369900D02*
X6187753Y-8379424D01*
X6187753Y-8379424D02*
X6197277Y-8388948D01*
X6197277Y-8388948D02*
X6206801Y-8407996D01*
X6206801Y-8407996D02*
X6206801Y-8465139D01*
X6206801Y-8465139D02*
X6197277Y-8484186D01*
X6197277Y-8484186D02*
X6187753Y-8493710D01*
X6187753Y-8493710D02*
X6168706Y-8503234D01*
X6168706Y-8503234D02*
X6140134Y-8503234D01*
X6321087Y-8503234D02*
X6302039Y-8493710D01*
X6302039Y-8493710D02*
X6292515Y-8474662D01*
X6292515Y-8474662D02*
X6292515Y-8303234D01*
X6473468Y-8493710D02*
X6454420Y-8503234D01*
X6454420Y-8503234D02*
X6416325Y-8503234D01*
X6416325Y-8503234D02*
X6397277Y-8493710D01*
X6397277Y-8493710D02*
X6387753Y-8474662D01*
X6387753Y-8474662D02*
X6387753Y-8398472D01*
X6387753Y-8398472D02*
X6397277Y-8379424D01*
X6397277Y-8379424D02*
X6416325Y-8369900D01*
X6416325Y-8369900D02*
X6454420Y-8369900D01*
X6454420Y-8369900D02*
X6473468Y-8379424D01*
X6473468Y-8379424D02*
X6482991Y-8398472D01*
X6482991Y-8398472D02*
X6482991Y-8417520D01*
X6482991Y-8417520D02*
X6387753Y-8436567D01*
X6549658Y-8579424D02*
X6559182Y-8569900D01*
X6559182Y-8569900D02*
X6578230Y-8541329D01*
X6578230Y-8541329D02*
X6587753Y-8522281D01*
X6587753Y-8522281D02*
X6597277Y-8493710D01*
X6597277Y-8493710D02*
X6606801Y-8446091D01*
X6606801Y-8446091D02*
X6606801Y-8407996D01*
X6606801Y-8407996D02*
X6597277Y-8360377D01*
X6597277Y-8360377D02*
X6587753Y-8331805D01*
X6587753Y-8331805D02*
X6578230Y-8312758D01*
X6578230Y-8312758D02*
X6559182Y-8284186D01*
X6559182Y-8284186D02*
X6549658Y-8274662D01*
D12*
X1936500Y-8675750D02*
G75*
G02*
X1876500Y-8675750I-30000J0D01*
G01*
X1876500Y-8675750D02*
G75*
G02*
X1936500Y-8675750I30000J0D01*
G01*
D11*
X2235372Y-8567234D02*
X2254420Y-8567234D01*
X2254420Y-8567234D02*
X2273467Y-8576758D01*
X2273467Y-8576758D02*
X2282991Y-8586281D01*
X2282991Y-8586281D02*
X2292515Y-8605329D01*
X2292515Y-8605329D02*
X2302039Y-8643424D01*
X2302039Y-8643424D02*
X2302039Y-8691043D01*
X2302039Y-8691043D02*
X2292515Y-8729139D01*
X2292515Y-8729139D02*
X2282991Y-8748186D01*
X2282991Y-8748186D02*
X2273467Y-8757710D01*
X2273467Y-8757710D02*
X2254420Y-8767234D01*
X2254420Y-8767234D02*
X2235372Y-8767234D01*
X2235372Y-8767234D02*
X2216324Y-8757710D01*
X2216324Y-8757710D02*
X2206801Y-8748186D01*
X2206801Y-8748186D02*
X2197277Y-8729139D01*
X2197277Y-8729139D02*
X2187753Y-8691043D01*
X2187753Y-8691043D02*
X2187753Y-8643424D01*
X2187753Y-8643424D02*
X2197277Y-8605329D01*
X2197277Y-8605329D02*
X2206801Y-8586281D01*
X2206801Y-8586281D02*
X2216324Y-8576758D01*
X2216324Y-8576758D02*
X2235372Y-8567234D01*
X2387753Y-8748186D02*
X2397277Y-8757710D01*
X2397277Y-8757710D02*
X2387753Y-8767234D01*
X2387753Y-8767234D02*
X2378229Y-8757710D01*
X2378229Y-8757710D02*
X2387753Y-8748186D01*
X2387753Y-8748186D02*
X2387753Y-8767234D01*
X2568705Y-8567234D02*
X2530610Y-8567234D01*
X2530610Y-8567234D02*
X2511563Y-8576758D01*
X2511563Y-8576758D02*
X2502039Y-8586281D01*
X2502039Y-8586281D02*
X2482991Y-8614853D01*
X2482991Y-8614853D02*
X2473467Y-8652948D01*
X2473467Y-8652948D02*
X2473467Y-8729139D01*
X2473467Y-8729139D02*
X2482991Y-8748186D01*
X2482991Y-8748186D02*
X2492515Y-8757710D01*
X2492515Y-8757710D02*
X2511563Y-8767234D01*
X2511563Y-8767234D02*
X2549658Y-8767234D01*
X2549658Y-8767234D02*
X2568705Y-8757710D01*
X2568705Y-8757710D02*
X2578229Y-8748186D01*
X2578229Y-8748186D02*
X2587753Y-8729139D01*
X2587753Y-8729139D02*
X2587753Y-8681520D01*
X2587753Y-8681520D02*
X2578229Y-8662472D01*
X2578229Y-8662472D02*
X2568705Y-8652948D01*
X2568705Y-8652948D02*
X2549658Y-8643424D01*
X2549658Y-8643424D02*
X2511563Y-8643424D01*
X2511563Y-8643424D02*
X2492515Y-8652948D01*
X2492515Y-8652948D02*
X2482991Y-8662472D01*
X2482991Y-8662472D02*
X2473467Y-8681520D01*
X2711563Y-8567234D02*
X2730610Y-8567234D01*
X2730610Y-8567234D02*
X2749658Y-8576758D01*
X2749658Y-8576758D02*
X2759182Y-8586281D01*
X2759182Y-8586281D02*
X2768705Y-8605329D01*
X2768705Y-8605329D02*
X2778229Y-8643424D01*
X2778229Y-8643424D02*
X2778229Y-8691043D01*
X2778229Y-8691043D02*
X2768705Y-8729139D01*
X2768705Y-8729139D02*
X2759182Y-8748186D01*
X2759182Y-8748186D02*
X2749658Y-8757710D01*
X2749658Y-8757710D02*
X2730610Y-8767234D01*
X2730610Y-8767234D02*
X2711563Y-8767234D01*
X2711563Y-8767234D02*
X2692515Y-8757710D01*
X2692515Y-8757710D02*
X2682991Y-8748186D01*
X2682991Y-8748186D02*
X2673467Y-8729139D01*
X2673467Y-8729139D02*
X2663944Y-8691043D01*
X2663944Y-8691043D02*
X2663944Y-8643424D01*
X2663944Y-8643424D02*
X2673467Y-8605329D01*
X2673467Y-8605329D02*
X2682991Y-8586281D01*
X2682991Y-8586281D02*
X2692515Y-8576758D01*
X2692515Y-8576758D02*
X2711563Y-8567234D01*
X2902039Y-8567234D02*
X2921086Y-8567234D01*
X2921086Y-8567234D02*
X2940134Y-8576758D01*
X2940134Y-8576758D02*
X2949658Y-8586281D01*
X2949658Y-8586281D02*
X2959182Y-8605329D01*
X2959182Y-8605329D02*
X2968705Y-8643424D01*
X2968705Y-8643424D02*
X2968705Y-8691043D01*
X2968705Y-8691043D02*
X2959182Y-8729139D01*
X2959182Y-8729139D02*
X2949658Y-8748186D01*
X2949658Y-8748186D02*
X2940134Y-8757710D01*
X2940134Y-8757710D02*
X2921086Y-8767234D01*
X2921086Y-8767234D02*
X2902039Y-8767234D01*
X2902039Y-8767234D02*
X2882991Y-8757710D01*
X2882991Y-8757710D02*
X2873467Y-8748186D01*
X2873467Y-8748186D02*
X2863943Y-8729139D01*
X2863943Y-8729139D02*
X2854420Y-8691043D01*
X2854420Y-8691043D02*
X2854420Y-8643424D01*
X2854420Y-8643424D02*
X2863943Y-8605329D01*
X2863943Y-8605329D02*
X2873467Y-8586281D01*
X2873467Y-8586281D02*
X2882991Y-8576758D01*
X2882991Y-8576758D02*
X2902039Y-8567234D01*
X3054420Y-8767234D02*
X3054420Y-8633900D01*
X3054420Y-8652948D02*
X3063943Y-8643424D01*
X3063943Y-8643424D02*
X3082991Y-8633900D01*
X3082991Y-8633900D02*
X3111563Y-8633900D01*
X3111563Y-8633900D02*
X3130610Y-8643424D01*
X3130610Y-8643424D02*
X3140134Y-8662472D01*
X3140134Y-8662472D02*
X3140134Y-8767234D01*
X3140134Y-8662472D02*
X3149658Y-8643424D01*
X3149658Y-8643424D02*
X3168705Y-8633900D01*
X3168705Y-8633900D02*
X3197277Y-8633900D01*
X3197277Y-8633900D02*
X3216324Y-8643424D01*
X3216324Y-8643424D02*
X3225848Y-8662472D01*
X3225848Y-8662472D02*
X3225848Y-8767234D01*
X3321086Y-8767234D02*
X3321086Y-8633900D01*
X3321086Y-8652948D02*
X3330610Y-8643424D01*
X3330610Y-8643424D02*
X3349658Y-8633900D01*
X3349658Y-8633900D02*
X3378229Y-8633900D01*
X3378229Y-8633900D02*
X3397277Y-8643424D01*
X3397277Y-8643424D02*
X3406801Y-8662472D01*
X3406801Y-8662472D02*
X3406801Y-8767234D01*
X3406801Y-8662472D02*
X3416324Y-8643424D01*
X3416324Y-8643424D02*
X3435372Y-8633900D01*
X3435372Y-8633900D02*
X3463943Y-8633900D01*
X3463943Y-8633900D02*
X3482991Y-8643424D01*
X3482991Y-8643424D02*
X3492515Y-8662472D01*
X3492515Y-8662472D02*
X3492515Y-8767234D01*
X3882991Y-8557710D02*
X3711563Y-8814853D01*
X4140134Y-8567234D02*
X4159182Y-8567234D01*
X4159182Y-8567234D02*
X4178229Y-8576758D01*
X4178229Y-8576758D02*
X4187753Y-8586281D01*
X4187753Y-8586281D02*
X4197277Y-8605329D01*
X4197277Y-8605329D02*
X4206801Y-8643424D01*
X4206801Y-8643424D02*
X4206801Y-8691043D01*
X4206801Y-8691043D02*
X4197277Y-8729139D01*
X4197277Y-8729139D02*
X4187753Y-8748186D01*
X4187753Y-8748186D02*
X4178229Y-8757710D01*
X4178229Y-8757710D02*
X4159182Y-8767234D01*
X4159182Y-8767234D02*
X4140134Y-8767234D01*
X4140134Y-8767234D02*
X4121086Y-8757710D01*
X4121086Y-8757710D02*
X4111563Y-8748186D01*
X4111563Y-8748186D02*
X4102039Y-8729139D01*
X4102039Y-8729139D02*
X4092515Y-8691043D01*
X4092515Y-8691043D02*
X4092515Y-8643424D01*
X4092515Y-8643424D02*
X4102039Y-8605329D01*
X4102039Y-8605329D02*
X4111563Y-8586281D01*
X4111563Y-8586281D02*
X4121086Y-8576758D01*
X4121086Y-8576758D02*
X4140134Y-8567234D01*
X4292515Y-8748186D02*
X4302039Y-8757710D01*
X4302039Y-8757710D02*
X4292515Y-8767234D01*
X4292515Y-8767234D02*
X4282991Y-8757710D01*
X4282991Y-8757710D02*
X4292515Y-8748186D01*
X4292515Y-8748186D02*
X4292515Y-8767234D01*
X4425848Y-8567234D02*
X4444896Y-8567234D01*
X4444896Y-8567234D02*
X4463944Y-8576758D01*
X4463944Y-8576758D02*
X4473468Y-8586281D01*
X4473468Y-8586281D02*
X4482991Y-8605329D01*
X4482991Y-8605329D02*
X4492515Y-8643424D01*
X4492515Y-8643424D02*
X4492515Y-8691043D01*
X4492515Y-8691043D02*
X4482991Y-8729139D01*
X4482991Y-8729139D02*
X4473468Y-8748186D01*
X4473468Y-8748186D02*
X4463944Y-8757710D01*
X4463944Y-8757710D02*
X4444896Y-8767234D01*
X4444896Y-8767234D02*
X4425848Y-8767234D01*
X4425848Y-8767234D02*
X4406801Y-8757710D01*
X4406801Y-8757710D02*
X4397277Y-8748186D01*
X4397277Y-8748186D02*
X4387753Y-8729139D01*
X4387753Y-8729139D02*
X4378229Y-8691043D01*
X4378229Y-8691043D02*
X4378229Y-8643424D01*
X4378229Y-8643424D02*
X4387753Y-8605329D01*
X4387753Y-8605329D02*
X4397277Y-8586281D01*
X4397277Y-8586281D02*
X4406801Y-8576758D01*
X4406801Y-8576758D02*
X4425848Y-8567234D01*
X4568706Y-8586281D02*
X4578229Y-8576758D01*
X4578229Y-8576758D02*
X4597277Y-8567234D01*
X4597277Y-8567234D02*
X4644896Y-8567234D01*
X4644896Y-8567234D02*
X4663944Y-8576758D01*
X4663944Y-8576758D02*
X4673468Y-8586281D01*
X4673468Y-8586281D02*
X4682991Y-8605329D01*
X4682991Y-8605329D02*
X4682991Y-8624377D01*
X4682991Y-8624377D02*
X4673468Y-8652948D01*
X4673468Y-8652948D02*
X4559182Y-8767234D01*
X4559182Y-8767234D02*
X4682991Y-8767234D01*
X4749658Y-8567234D02*
X4873468Y-8567234D01*
X4873468Y-8567234D02*
X4806801Y-8643424D01*
X4806801Y-8643424D02*
X4835372Y-8643424D01*
X4835372Y-8643424D02*
X4854420Y-8652948D01*
X4854420Y-8652948D02*
X4863944Y-8662472D01*
X4863944Y-8662472D02*
X4873468Y-8681520D01*
X4873468Y-8681520D02*
X4873468Y-8729139D01*
X4873468Y-8729139D02*
X4863944Y-8748186D01*
X4863944Y-8748186D02*
X4854420Y-8757710D01*
X4854420Y-8757710D02*
X4835372Y-8767234D01*
X4835372Y-8767234D02*
X4778229Y-8767234D01*
X4778229Y-8767234D02*
X4759182Y-8757710D01*
X4759182Y-8757710D02*
X4749658Y-8748186D01*
X5044896Y-8567234D02*
X5006801Y-8567234D01*
X5006801Y-8567234D02*
X4987753Y-8576758D01*
X4987753Y-8576758D02*
X4978229Y-8586281D01*
X4978229Y-8586281D02*
X4959182Y-8614853D01*
X4959182Y-8614853D02*
X4949658Y-8652948D01*
X4949658Y-8652948D02*
X4949658Y-8729139D01*
X4949658Y-8729139D02*
X4959182Y-8748186D01*
X4959182Y-8748186D02*
X4968706Y-8757710D01*
X4968706Y-8757710D02*
X4987753Y-8767234D01*
X4987753Y-8767234D02*
X5025849Y-8767234D01*
X5025849Y-8767234D02*
X5044896Y-8757710D01*
X5044896Y-8757710D02*
X5054420Y-8748186D01*
X5054420Y-8748186D02*
X5063944Y-8729139D01*
X5063944Y-8729139D02*
X5063944Y-8681520D01*
X5063944Y-8681520D02*
X5054420Y-8662472D01*
X5054420Y-8662472D02*
X5044896Y-8652948D01*
X5044896Y-8652948D02*
X5025849Y-8643424D01*
X5025849Y-8643424D02*
X4987753Y-8643424D01*
X4987753Y-8643424D02*
X4968706Y-8652948D01*
X4968706Y-8652948D02*
X4959182Y-8662472D01*
X4959182Y-8662472D02*
X4949658Y-8681520D01*
X5140134Y-8567234D02*
X5140134Y-8605329D01*
X5216325Y-8567234D02*
X5216325Y-8605329D01*
X5511563Y-8843424D02*
X5502039Y-8833900D01*
X5502039Y-8833900D02*
X5482991Y-8805329D01*
X5482991Y-8805329D02*
X5473468Y-8786281D01*
X5473468Y-8786281D02*
X5463944Y-8757710D01*
X5463944Y-8757710D02*
X5454420Y-8710091D01*
X5454420Y-8710091D02*
X5454420Y-8671996D01*
X5454420Y-8671996D02*
X5463944Y-8624377D01*
X5463944Y-8624377D02*
X5473468Y-8595805D01*
X5473468Y-8595805D02*
X5482991Y-8576758D01*
X5482991Y-8576758D02*
X5502039Y-8548186D01*
X5502039Y-8548186D02*
X5511563Y-8538662D01*
X5692515Y-8767234D02*
X5578230Y-8767234D01*
X5635372Y-8767234D02*
X5635372Y-8567234D01*
X5635372Y-8567234D02*
X5616325Y-8595805D01*
X5616325Y-8595805D02*
X5597277Y-8614853D01*
X5597277Y-8614853D02*
X5578230Y-8624377D01*
X5930610Y-8767234D02*
X5930610Y-8567234D01*
X6016325Y-8767234D02*
X6016325Y-8662472D01*
X6016325Y-8662472D02*
X6006801Y-8643424D01*
X6006801Y-8643424D02*
X5987753Y-8633900D01*
X5987753Y-8633900D02*
X5959182Y-8633900D01*
X5959182Y-8633900D02*
X5940134Y-8643424D01*
X5940134Y-8643424D02*
X5930610Y-8652948D01*
X6140134Y-8767234D02*
X6121087Y-8757710D01*
X6121087Y-8757710D02*
X6111563Y-8748186D01*
X6111563Y-8748186D02*
X6102039Y-8729139D01*
X6102039Y-8729139D02*
X6102039Y-8671996D01*
X6102039Y-8671996D02*
X6111563Y-8652948D01*
X6111563Y-8652948D02*
X6121087Y-8643424D01*
X6121087Y-8643424D02*
X6140134Y-8633900D01*
X6140134Y-8633900D02*
X6168706Y-8633900D01*
X6168706Y-8633900D02*
X6187753Y-8643424D01*
X6187753Y-8643424D02*
X6197277Y-8652948D01*
X6197277Y-8652948D02*
X6206801Y-8671996D01*
X6206801Y-8671996D02*
X6206801Y-8729139D01*
X6206801Y-8729139D02*
X6197277Y-8748186D01*
X6197277Y-8748186D02*
X6187753Y-8757710D01*
X6187753Y-8757710D02*
X6168706Y-8767234D01*
X6168706Y-8767234D02*
X6140134Y-8767234D01*
X6321087Y-8767234D02*
X6302039Y-8757710D01*
X6302039Y-8757710D02*
X6292515Y-8738662D01*
X6292515Y-8738662D02*
X6292515Y-8567234D01*
X6473468Y-8757710D02*
X6454420Y-8767234D01*
X6454420Y-8767234D02*
X6416325Y-8767234D01*
X6416325Y-8767234D02*
X6397277Y-8757710D01*
X6397277Y-8757710D02*
X6387753Y-8738662D01*
X6387753Y-8738662D02*
X6387753Y-8662472D01*
X6387753Y-8662472D02*
X6397277Y-8643424D01*
X6397277Y-8643424D02*
X6416325Y-8633900D01*
X6416325Y-8633900D02*
X6454420Y-8633900D01*
X6454420Y-8633900D02*
X6473468Y-8643424D01*
X6473468Y-8643424D02*
X6482991Y-8662472D01*
X6482991Y-8662472D02*
X6482991Y-8681520D01*
X6482991Y-8681520D02*
X6387753Y-8700567D01*
X6549658Y-8843424D02*
X6559182Y-8833900D01*
X6559182Y-8833900D02*
X6578230Y-8805329D01*
X6578230Y-8805329D02*
X6587753Y-8786281D01*
X6587753Y-8786281D02*
X6597277Y-8757710D01*
X6597277Y-8757710D02*
X6606801Y-8710091D01*
X6606801Y-8710091D02*
X6606801Y-8671996D01*
X6606801Y-8671996D02*
X6597277Y-8624377D01*
X6597277Y-8624377D02*
X6587753Y-8595805D01*
X6587753Y-8595805D02*
X6578230Y-8576758D01*
X6578230Y-8576758D02*
X6559182Y-8548186D01*
X6559182Y-8548186D02*
X6549658Y-8538662D01*
D12*
X1901500Y-8904750D02*
X1901500Y-8974750D01*
X1866500Y-8939750D02*
X1936500Y-8939750D01*
D11*
X2235372Y-8831234D02*
X2254420Y-8831234D01*
X2254420Y-8831234D02*
X2273467Y-8840758D01*
X2273467Y-8840758D02*
X2282991Y-8850281D01*
X2282991Y-8850281D02*
X2292515Y-8869329D01*
X2292515Y-8869329D02*
X2302039Y-8907424D01*
X2302039Y-8907424D02*
X2302039Y-8955043D01*
X2302039Y-8955043D02*
X2292515Y-8993139D01*
X2292515Y-8993139D02*
X2282991Y-9012186D01*
X2282991Y-9012186D02*
X2273467Y-9021710D01*
X2273467Y-9021710D02*
X2254420Y-9031234D01*
X2254420Y-9031234D02*
X2235372Y-9031234D01*
X2235372Y-9031234D02*
X2216324Y-9021710D01*
X2216324Y-9021710D02*
X2206801Y-9012186D01*
X2206801Y-9012186D02*
X2197277Y-8993139D01*
X2197277Y-8993139D02*
X2187753Y-8955043D01*
X2187753Y-8955043D02*
X2187753Y-8907424D01*
X2187753Y-8907424D02*
X2197277Y-8869329D01*
X2197277Y-8869329D02*
X2206801Y-8850281D01*
X2206801Y-8850281D02*
X2216324Y-8840758D01*
X2216324Y-8840758D02*
X2235372Y-8831234D01*
X2387753Y-9012186D02*
X2397277Y-9021710D01*
X2397277Y-9021710D02*
X2387753Y-9031234D01*
X2387753Y-9031234D02*
X2378229Y-9021710D01*
X2378229Y-9021710D02*
X2387753Y-9012186D01*
X2387753Y-9012186D02*
X2387753Y-9031234D01*
X2463944Y-8831234D02*
X2597277Y-8831234D01*
X2597277Y-8831234D02*
X2511563Y-9031234D01*
X2711563Y-8831234D02*
X2730610Y-8831234D01*
X2730610Y-8831234D02*
X2749658Y-8840758D01*
X2749658Y-8840758D02*
X2759182Y-8850281D01*
X2759182Y-8850281D02*
X2768705Y-8869329D01*
X2768705Y-8869329D02*
X2778229Y-8907424D01*
X2778229Y-8907424D02*
X2778229Y-8955043D01*
X2778229Y-8955043D02*
X2768705Y-8993139D01*
X2768705Y-8993139D02*
X2759182Y-9012186D01*
X2759182Y-9012186D02*
X2749658Y-9021710D01*
X2749658Y-9021710D02*
X2730610Y-9031234D01*
X2730610Y-9031234D02*
X2711563Y-9031234D01*
X2711563Y-9031234D02*
X2692515Y-9021710D01*
X2692515Y-9021710D02*
X2682991Y-9012186D01*
X2682991Y-9012186D02*
X2673467Y-8993139D01*
X2673467Y-8993139D02*
X2663944Y-8955043D01*
X2663944Y-8955043D02*
X2663944Y-8907424D01*
X2663944Y-8907424D02*
X2673467Y-8869329D01*
X2673467Y-8869329D02*
X2682991Y-8850281D01*
X2682991Y-8850281D02*
X2692515Y-8840758D01*
X2692515Y-8840758D02*
X2711563Y-8831234D01*
X2902039Y-8831234D02*
X2921086Y-8831234D01*
X2921086Y-8831234D02*
X2940134Y-8840758D01*
X2940134Y-8840758D02*
X2949658Y-8850281D01*
X2949658Y-8850281D02*
X2959182Y-8869329D01*
X2959182Y-8869329D02*
X2968705Y-8907424D01*
X2968705Y-8907424D02*
X2968705Y-8955043D01*
X2968705Y-8955043D02*
X2959182Y-8993139D01*
X2959182Y-8993139D02*
X2949658Y-9012186D01*
X2949658Y-9012186D02*
X2940134Y-9021710D01*
X2940134Y-9021710D02*
X2921086Y-9031234D01*
X2921086Y-9031234D02*
X2902039Y-9031234D01*
X2902039Y-9031234D02*
X2882991Y-9021710D01*
X2882991Y-9021710D02*
X2873467Y-9012186D01*
X2873467Y-9012186D02*
X2863943Y-8993139D01*
X2863943Y-8993139D02*
X2854420Y-8955043D01*
X2854420Y-8955043D02*
X2854420Y-8907424D01*
X2854420Y-8907424D02*
X2863943Y-8869329D01*
X2863943Y-8869329D02*
X2873467Y-8850281D01*
X2873467Y-8850281D02*
X2882991Y-8840758D01*
X2882991Y-8840758D02*
X2902039Y-8831234D01*
X3054420Y-9031234D02*
X3054420Y-8897900D01*
X3054420Y-8916948D02*
X3063943Y-8907424D01*
X3063943Y-8907424D02*
X3082991Y-8897900D01*
X3082991Y-8897900D02*
X3111563Y-8897900D01*
X3111563Y-8897900D02*
X3130610Y-8907424D01*
X3130610Y-8907424D02*
X3140134Y-8926472D01*
X3140134Y-8926472D02*
X3140134Y-9031234D01*
X3140134Y-8926472D02*
X3149658Y-8907424D01*
X3149658Y-8907424D02*
X3168705Y-8897900D01*
X3168705Y-8897900D02*
X3197277Y-8897900D01*
X3197277Y-8897900D02*
X3216324Y-8907424D01*
X3216324Y-8907424D02*
X3225848Y-8926472D01*
X3225848Y-8926472D02*
X3225848Y-9031234D01*
X3321086Y-9031234D02*
X3321086Y-8897900D01*
X3321086Y-8916948D02*
X3330610Y-8907424D01*
X3330610Y-8907424D02*
X3349658Y-8897900D01*
X3349658Y-8897900D02*
X3378229Y-8897900D01*
X3378229Y-8897900D02*
X3397277Y-8907424D01*
X3397277Y-8907424D02*
X3406801Y-8926472D01*
X3406801Y-8926472D02*
X3406801Y-9031234D01*
X3406801Y-8926472D02*
X3416324Y-8907424D01*
X3416324Y-8907424D02*
X3435372Y-8897900D01*
X3435372Y-8897900D02*
X3463943Y-8897900D01*
X3463943Y-8897900D02*
X3482991Y-8907424D01*
X3482991Y-8907424D02*
X3492515Y-8926472D01*
X3492515Y-8926472D02*
X3492515Y-9031234D01*
X3882991Y-8821710D02*
X3711563Y-9078853D01*
X4140134Y-8831234D02*
X4159182Y-8831234D01*
X4159182Y-8831234D02*
X4178229Y-8840758D01*
X4178229Y-8840758D02*
X4187753Y-8850281D01*
X4187753Y-8850281D02*
X4197277Y-8869329D01*
X4197277Y-8869329D02*
X4206801Y-8907424D01*
X4206801Y-8907424D02*
X4206801Y-8955043D01*
X4206801Y-8955043D02*
X4197277Y-8993139D01*
X4197277Y-8993139D02*
X4187753Y-9012186D01*
X4187753Y-9012186D02*
X4178229Y-9021710D01*
X4178229Y-9021710D02*
X4159182Y-9031234D01*
X4159182Y-9031234D02*
X4140134Y-9031234D01*
X4140134Y-9031234D02*
X4121086Y-9021710D01*
X4121086Y-9021710D02*
X4111563Y-9012186D01*
X4111563Y-9012186D02*
X4102039Y-8993139D01*
X4102039Y-8993139D02*
X4092515Y-8955043D01*
X4092515Y-8955043D02*
X4092515Y-8907424D01*
X4092515Y-8907424D02*
X4102039Y-8869329D01*
X4102039Y-8869329D02*
X4111563Y-8850281D01*
X4111563Y-8850281D02*
X4121086Y-8840758D01*
X4121086Y-8840758D02*
X4140134Y-8831234D01*
X4292515Y-9012186D02*
X4302039Y-9021710D01*
X4302039Y-9021710D02*
X4292515Y-9031234D01*
X4292515Y-9031234D02*
X4282991Y-9021710D01*
X4282991Y-9021710D02*
X4292515Y-9012186D01*
X4292515Y-9012186D02*
X4292515Y-9031234D01*
X4425848Y-8831234D02*
X4444896Y-8831234D01*
X4444896Y-8831234D02*
X4463944Y-8840758D01*
X4463944Y-8840758D02*
X4473468Y-8850281D01*
X4473468Y-8850281D02*
X4482991Y-8869329D01*
X4482991Y-8869329D02*
X4492515Y-8907424D01*
X4492515Y-8907424D02*
X4492515Y-8955043D01*
X4492515Y-8955043D02*
X4482991Y-8993139D01*
X4482991Y-8993139D02*
X4473468Y-9012186D01*
X4473468Y-9012186D02*
X4463944Y-9021710D01*
X4463944Y-9021710D02*
X4444896Y-9031234D01*
X4444896Y-9031234D02*
X4425848Y-9031234D01*
X4425848Y-9031234D02*
X4406801Y-9021710D01*
X4406801Y-9021710D02*
X4397277Y-9012186D01*
X4397277Y-9012186D02*
X4387753Y-8993139D01*
X4387753Y-8993139D02*
X4378229Y-8955043D01*
X4378229Y-8955043D02*
X4378229Y-8907424D01*
X4378229Y-8907424D02*
X4387753Y-8869329D01*
X4387753Y-8869329D02*
X4397277Y-8850281D01*
X4397277Y-8850281D02*
X4406801Y-8840758D01*
X4406801Y-8840758D02*
X4425848Y-8831234D01*
X4568706Y-8850281D02*
X4578229Y-8840758D01*
X4578229Y-8840758D02*
X4597277Y-8831234D01*
X4597277Y-8831234D02*
X4644896Y-8831234D01*
X4644896Y-8831234D02*
X4663944Y-8840758D01*
X4663944Y-8840758D02*
X4673468Y-8850281D01*
X4673468Y-8850281D02*
X4682991Y-8869329D01*
X4682991Y-8869329D02*
X4682991Y-8888377D01*
X4682991Y-8888377D02*
X4673468Y-8916948D01*
X4673468Y-8916948D02*
X4559182Y-9031234D01*
X4559182Y-9031234D02*
X4682991Y-9031234D01*
X4749658Y-8831234D02*
X4882991Y-8831234D01*
X4882991Y-8831234D02*
X4797277Y-9031234D01*
X5044896Y-8831234D02*
X5006801Y-8831234D01*
X5006801Y-8831234D02*
X4987753Y-8840758D01*
X4987753Y-8840758D02*
X4978229Y-8850281D01*
X4978229Y-8850281D02*
X4959182Y-8878853D01*
X4959182Y-8878853D02*
X4949658Y-8916948D01*
X4949658Y-8916948D02*
X4949658Y-8993139D01*
X4949658Y-8993139D02*
X4959182Y-9012186D01*
X4959182Y-9012186D02*
X4968706Y-9021710D01*
X4968706Y-9021710D02*
X4987753Y-9031234D01*
X4987753Y-9031234D02*
X5025849Y-9031234D01*
X5025849Y-9031234D02*
X5044896Y-9021710D01*
X5044896Y-9021710D02*
X5054420Y-9012186D01*
X5054420Y-9012186D02*
X5063944Y-8993139D01*
X5063944Y-8993139D02*
X5063944Y-8945520D01*
X5063944Y-8945520D02*
X5054420Y-8926472D01*
X5054420Y-8926472D02*
X5044896Y-8916948D01*
X5044896Y-8916948D02*
X5025849Y-8907424D01*
X5025849Y-8907424D02*
X4987753Y-8907424D01*
X4987753Y-8907424D02*
X4968706Y-8916948D01*
X4968706Y-8916948D02*
X4959182Y-8926472D01*
X4959182Y-8926472D02*
X4949658Y-8945520D01*
X5140134Y-8831234D02*
X5140134Y-8869329D01*
X5216325Y-8831234D02*
X5216325Y-8869329D01*
X5511563Y-9107424D02*
X5502039Y-9097900D01*
X5502039Y-9097900D02*
X5482991Y-9069329D01*
X5482991Y-9069329D02*
X5473468Y-9050281D01*
X5473468Y-9050281D02*
X5463944Y-9021710D01*
X5463944Y-9021710D02*
X5454420Y-8974091D01*
X5454420Y-8974091D02*
X5454420Y-8935996D01*
X5454420Y-8935996D02*
X5463944Y-8888377D01*
X5463944Y-8888377D02*
X5473468Y-8859805D01*
X5473468Y-8859805D02*
X5482991Y-8840758D01*
X5482991Y-8840758D02*
X5502039Y-8812186D01*
X5502039Y-8812186D02*
X5511563Y-8802662D01*
X5625848Y-8831234D02*
X5644896Y-8831234D01*
X5644896Y-8831234D02*
X5663944Y-8840758D01*
X5663944Y-8840758D02*
X5673468Y-8850281D01*
X5673468Y-8850281D02*
X5682991Y-8869329D01*
X5682991Y-8869329D02*
X5692515Y-8907424D01*
X5692515Y-8907424D02*
X5692515Y-8955043D01*
X5692515Y-8955043D02*
X5682991Y-8993139D01*
X5682991Y-8993139D02*
X5673468Y-9012186D01*
X5673468Y-9012186D02*
X5663944Y-9021710D01*
X5663944Y-9021710D02*
X5644896Y-9031234D01*
X5644896Y-9031234D02*
X5625848Y-9031234D01*
X5625848Y-9031234D02*
X5606801Y-9021710D01*
X5606801Y-9021710D02*
X5597277Y-9012186D01*
X5597277Y-9012186D02*
X5587753Y-8993139D01*
X5587753Y-8993139D02*
X5578230Y-8955043D01*
X5578230Y-8955043D02*
X5578230Y-8907424D01*
X5578230Y-8907424D02*
X5587753Y-8869329D01*
X5587753Y-8869329D02*
X5597277Y-8850281D01*
X5597277Y-8850281D02*
X5606801Y-8840758D01*
X5606801Y-8840758D02*
X5625848Y-8831234D01*
X5930610Y-9031234D02*
X5930610Y-8831234D01*
X6016325Y-9031234D02*
X6016325Y-8926472D01*
X6016325Y-8926472D02*
X6006801Y-8907424D01*
X6006801Y-8907424D02*
X5987753Y-8897900D01*
X5987753Y-8897900D02*
X5959182Y-8897900D01*
X5959182Y-8897900D02*
X5940134Y-8907424D01*
X5940134Y-8907424D02*
X5930610Y-8916948D01*
X6140134Y-9031234D02*
X6121087Y-9021710D01*
X6121087Y-9021710D02*
X6111563Y-9012186D01*
X6111563Y-9012186D02*
X6102039Y-8993139D01*
X6102039Y-8993139D02*
X6102039Y-8935996D01*
X6102039Y-8935996D02*
X6111563Y-8916948D01*
X6111563Y-8916948D02*
X6121087Y-8907424D01*
X6121087Y-8907424D02*
X6140134Y-8897900D01*
X6140134Y-8897900D02*
X6168706Y-8897900D01*
X6168706Y-8897900D02*
X6187753Y-8907424D01*
X6187753Y-8907424D02*
X6197277Y-8916948D01*
X6197277Y-8916948D02*
X6206801Y-8935996D01*
X6206801Y-8935996D02*
X6206801Y-8993139D01*
X6206801Y-8993139D02*
X6197277Y-9012186D01*
X6197277Y-9012186D02*
X6187753Y-9021710D01*
X6187753Y-9021710D02*
X6168706Y-9031234D01*
X6168706Y-9031234D02*
X6140134Y-9031234D01*
X6321087Y-9031234D02*
X6302039Y-9021710D01*
X6302039Y-9021710D02*
X6292515Y-9002662D01*
X6292515Y-9002662D02*
X6292515Y-8831234D01*
X6473468Y-9021710D02*
X6454420Y-9031234D01*
X6454420Y-9031234D02*
X6416325Y-9031234D01*
X6416325Y-9031234D02*
X6397277Y-9021710D01*
X6397277Y-9021710D02*
X6387753Y-9002662D01*
X6387753Y-9002662D02*
X6387753Y-8926472D01*
X6387753Y-8926472D02*
X6397277Y-8907424D01*
X6397277Y-8907424D02*
X6416325Y-8897900D01*
X6416325Y-8897900D02*
X6454420Y-8897900D01*
X6454420Y-8897900D02*
X6473468Y-8907424D01*
X6473468Y-8907424D02*
X6482991Y-8926472D01*
X6482991Y-8926472D02*
X6482991Y-8945520D01*
X6482991Y-8945520D02*
X6387753Y-8964567D01*
X6559182Y-9021710D02*
X6578230Y-9031234D01*
X6578230Y-9031234D02*
X6616325Y-9031234D01*
X6616325Y-9031234D02*
X6635372Y-9021710D01*
X6635372Y-9021710D02*
X6644896Y-9002662D01*
X6644896Y-9002662D02*
X6644896Y-8993139D01*
X6644896Y-8993139D02*
X6635372Y-8974091D01*
X6635372Y-8974091D02*
X6616325Y-8964567D01*
X6616325Y-8964567D02*
X6587753Y-8964567D01*
X6587753Y-8964567D02*
X6568706Y-8955043D01*
X6568706Y-8955043D02*
X6559182Y-8935996D01*
X6559182Y-8935996D02*
X6559182Y-8926472D01*
X6559182Y-8926472D02*
X6568706Y-8907424D01*
X6568706Y-8907424D02*
X6587753Y-8897900D01*
X6587753Y-8897900D02*
X6616325Y-8897900D01*
X6616325Y-8897900D02*
X6635372Y-8907424D01*
X6882992Y-8955043D02*
X7035373Y-8955043D01*
X6959182Y-9031234D02*
X6959182Y-8878853D01*
X7273468Y-8850281D02*
X7282992Y-8840758D01*
X7282992Y-8840758D02*
X7302039Y-8831234D01*
X7302039Y-8831234D02*
X7349658Y-8831234D01*
X7349658Y-8831234D02*
X7368706Y-8840758D01*
X7368706Y-8840758D02*
X7378230Y-8850281D01*
X7378230Y-8850281D02*
X7387753Y-8869329D01*
X7387753Y-8869329D02*
X7387753Y-8888377D01*
X7387753Y-8888377D02*
X7378230Y-8916948D01*
X7378230Y-8916948D02*
X7263944Y-9031234D01*
X7263944Y-9031234D02*
X7387753Y-9031234D01*
X7616325Y-9021710D02*
X7635373Y-9031234D01*
X7635373Y-9031234D02*
X7673468Y-9031234D01*
X7673468Y-9031234D02*
X7692515Y-9021710D01*
X7692515Y-9021710D02*
X7702039Y-9002662D01*
X7702039Y-9002662D02*
X7702039Y-8993139D01*
X7702039Y-8993139D02*
X7692515Y-8974091D01*
X7692515Y-8974091D02*
X7673468Y-8964567D01*
X7673468Y-8964567D02*
X7644896Y-8964567D01*
X7644896Y-8964567D02*
X7625849Y-8955043D01*
X7625849Y-8955043D02*
X7616325Y-8935996D01*
X7616325Y-8935996D02*
X7616325Y-8926472D01*
X7616325Y-8926472D02*
X7625849Y-8907424D01*
X7625849Y-8907424D02*
X7644896Y-8897900D01*
X7644896Y-8897900D02*
X7673468Y-8897900D01*
X7673468Y-8897900D02*
X7692515Y-8907424D01*
X7816325Y-9031234D02*
X7797277Y-9021710D01*
X7797277Y-9021710D02*
X7787754Y-9002662D01*
X7787754Y-9002662D02*
X7787754Y-8831234D01*
X7921087Y-9031234D02*
X7902039Y-9021710D01*
X7902039Y-9021710D02*
X7892515Y-9012186D01*
X7892515Y-9012186D02*
X7882992Y-8993139D01*
X7882992Y-8993139D02*
X7882992Y-8935996D01*
X7882992Y-8935996D02*
X7892515Y-8916948D01*
X7892515Y-8916948D02*
X7902039Y-8907424D01*
X7902039Y-8907424D02*
X7921087Y-8897900D01*
X7921087Y-8897900D02*
X7949658Y-8897900D01*
X7949658Y-8897900D02*
X7968706Y-8907424D01*
X7968706Y-8907424D02*
X7978230Y-8916948D01*
X7978230Y-8916948D02*
X7987754Y-8935996D01*
X7987754Y-8935996D02*
X7987754Y-8993139D01*
X7987754Y-8993139D02*
X7978230Y-9012186D01*
X7978230Y-9012186D02*
X7968706Y-9021710D01*
X7968706Y-9021710D02*
X7949658Y-9031234D01*
X7949658Y-9031234D02*
X7921087Y-9031234D01*
X8044896Y-8897900D02*
X8121087Y-8897900D01*
X8073468Y-8831234D02*
X8073468Y-9002662D01*
X8073468Y-9002662D02*
X8082992Y-9021710D01*
X8082992Y-9021710D02*
X8102039Y-9031234D01*
X8102039Y-9031234D02*
X8121087Y-9031234D01*
X8178230Y-9021710D02*
X8197277Y-9031234D01*
X8197277Y-9031234D02*
X8235373Y-9031234D01*
X8235373Y-9031234D02*
X8254420Y-9021710D01*
X8254420Y-9021710D02*
X8263944Y-9002662D01*
X8263944Y-9002662D02*
X8263944Y-8993139D01*
X8263944Y-8993139D02*
X8254420Y-8974091D01*
X8254420Y-8974091D02*
X8235373Y-8964567D01*
X8235373Y-8964567D02*
X8206801Y-8964567D01*
X8206801Y-8964567D02*
X8187754Y-8955043D01*
X8187754Y-8955043D02*
X8178230Y-8935996D01*
X8178230Y-8935996D02*
X8178230Y-8926472D01*
X8178230Y-8926472D02*
X8187754Y-8907424D01*
X8187754Y-8907424D02*
X8206801Y-8897900D01*
X8206801Y-8897900D02*
X8235373Y-8897900D01*
X8235373Y-8897900D02*
X8254420Y-8907424D01*
X8330611Y-9107424D02*
X8340135Y-9097900D01*
X8340135Y-9097900D02*
X8359182Y-9069329D01*
X8359182Y-9069329D02*
X8368706Y-9050281D01*
X8368706Y-9050281D02*
X8378230Y-9021710D01*
X8378230Y-9021710D02*
X8387754Y-8974091D01*
X8387754Y-8974091D02*
X8387754Y-8935996D01*
X8387754Y-8935996D02*
X8378230Y-8888377D01*
X8378230Y-8888377D02*
X8368706Y-8859805D01*
X8368706Y-8859805D02*
X8359182Y-8840758D01*
X8359182Y-8840758D02*
X8340135Y-8812186D01*
X8340135Y-8812186D02*
X8330611Y-8802662D01*
D12*
X1924784Y-9232035D02*
X1924784Y-9175466D01*
X1868215Y-9175466D01*
X1868215Y-9232035D01*
X1924784Y-9232035D01*
D11*
X2235372Y-9095234D02*
X2254420Y-9095234D01*
X2254420Y-9095234D02*
X2273467Y-9104758D01*
X2273467Y-9104758D02*
X2282991Y-9114281D01*
X2282991Y-9114281D02*
X2292515Y-9133329D01*
X2292515Y-9133329D02*
X2302039Y-9171424D01*
X2302039Y-9171424D02*
X2302039Y-9219043D01*
X2302039Y-9219043D02*
X2292515Y-9257139D01*
X2292515Y-9257139D02*
X2282991Y-9276186D01*
X2282991Y-9276186D02*
X2273467Y-9285710D01*
X2273467Y-9285710D02*
X2254420Y-9295234D01*
X2254420Y-9295234D02*
X2235372Y-9295234D01*
X2235372Y-9295234D02*
X2216324Y-9285710D01*
X2216324Y-9285710D02*
X2206801Y-9276186D01*
X2206801Y-9276186D02*
X2197277Y-9257139D01*
X2197277Y-9257139D02*
X2187753Y-9219043D01*
X2187753Y-9219043D02*
X2187753Y-9171424D01*
X2187753Y-9171424D02*
X2197277Y-9133329D01*
X2197277Y-9133329D02*
X2206801Y-9114281D01*
X2206801Y-9114281D02*
X2216324Y-9104758D01*
X2216324Y-9104758D02*
X2235372Y-9095234D01*
X2387753Y-9276186D02*
X2397277Y-9285710D01*
X2397277Y-9285710D02*
X2387753Y-9295234D01*
X2387753Y-9295234D02*
X2378229Y-9285710D01*
X2378229Y-9285710D02*
X2387753Y-9276186D01*
X2387753Y-9276186D02*
X2387753Y-9295234D01*
X2511563Y-9180948D02*
X2492515Y-9171424D01*
X2492515Y-9171424D02*
X2482991Y-9161900D01*
X2482991Y-9161900D02*
X2473467Y-9142853D01*
X2473467Y-9142853D02*
X2473467Y-9133329D01*
X2473467Y-9133329D02*
X2482991Y-9114281D01*
X2482991Y-9114281D02*
X2492515Y-9104758D01*
X2492515Y-9104758D02*
X2511563Y-9095234D01*
X2511563Y-9095234D02*
X2549658Y-9095234D01*
X2549658Y-9095234D02*
X2568705Y-9104758D01*
X2568705Y-9104758D02*
X2578229Y-9114281D01*
X2578229Y-9114281D02*
X2587753Y-9133329D01*
X2587753Y-9133329D02*
X2587753Y-9142853D01*
X2587753Y-9142853D02*
X2578229Y-9161900D01*
X2578229Y-9161900D02*
X2568705Y-9171424D01*
X2568705Y-9171424D02*
X2549658Y-9180948D01*
X2549658Y-9180948D02*
X2511563Y-9180948D01*
X2511563Y-9180948D02*
X2492515Y-9190472D01*
X2492515Y-9190472D02*
X2482991Y-9199996D01*
X2482991Y-9199996D02*
X2473467Y-9219043D01*
X2473467Y-9219043D02*
X2473467Y-9257139D01*
X2473467Y-9257139D02*
X2482991Y-9276186D01*
X2482991Y-9276186D02*
X2492515Y-9285710D01*
X2492515Y-9285710D02*
X2511563Y-9295234D01*
X2511563Y-9295234D02*
X2549658Y-9295234D01*
X2549658Y-9295234D02*
X2568705Y-9285710D01*
X2568705Y-9285710D02*
X2578229Y-9276186D01*
X2578229Y-9276186D02*
X2587753Y-9257139D01*
X2587753Y-9257139D02*
X2587753Y-9219043D01*
X2587753Y-9219043D02*
X2578229Y-9199996D01*
X2578229Y-9199996D02*
X2568705Y-9190472D01*
X2568705Y-9190472D02*
X2549658Y-9180948D01*
X2711563Y-9095234D02*
X2730610Y-9095234D01*
X2730610Y-9095234D02*
X2749658Y-9104758D01*
X2749658Y-9104758D02*
X2759182Y-9114281D01*
X2759182Y-9114281D02*
X2768705Y-9133329D01*
X2768705Y-9133329D02*
X2778229Y-9171424D01*
X2778229Y-9171424D02*
X2778229Y-9219043D01*
X2778229Y-9219043D02*
X2768705Y-9257139D01*
X2768705Y-9257139D02*
X2759182Y-9276186D01*
X2759182Y-9276186D02*
X2749658Y-9285710D01*
X2749658Y-9285710D02*
X2730610Y-9295234D01*
X2730610Y-9295234D02*
X2711563Y-9295234D01*
X2711563Y-9295234D02*
X2692515Y-9285710D01*
X2692515Y-9285710D02*
X2682991Y-9276186D01*
X2682991Y-9276186D02*
X2673467Y-9257139D01*
X2673467Y-9257139D02*
X2663944Y-9219043D01*
X2663944Y-9219043D02*
X2663944Y-9171424D01*
X2663944Y-9171424D02*
X2673467Y-9133329D01*
X2673467Y-9133329D02*
X2682991Y-9114281D01*
X2682991Y-9114281D02*
X2692515Y-9104758D01*
X2692515Y-9104758D02*
X2711563Y-9095234D01*
X2902039Y-9095234D02*
X2921086Y-9095234D01*
X2921086Y-9095234D02*
X2940134Y-9104758D01*
X2940134Y-9104758D02*
X2949658Y-9114281D01*
X2949658Y-9114281D02*
X2959182Y-9133329D01*
X2959182Y-9133329D02*
X2968705Y-9171424D01*
X2968705Y-9171424D02*
X2968705Y-9219043D01*
X2968705Y-9219043D02*
X2959182Y-9257139D01*
X2959182Y-9257139D02*
X2949658Y-9276186D01*
X2949658Y-9276186D02*
X2940134Y-9285710D01*
X2940134Y-9285710D02*
X2921086Y-9295234D01*
X2921086Y-9295234D02*
X2902039Y-9295234D01*
X2902039Y-9295234D02*
X2882991Y-9285710D01*
X2882991Y-9285710D02*
X2873467Y-9276186D01*
X2873467Y-9276186D02*
X2863943Y-9257139D01*
X2863943Y-9257139D02*
X2854420Y-9219043D01*
X2854420Y-9219043D02*
X2854420Y-9171424D01*
X2854420Y-9171424D02*
X2863943Y-9133329D01*
X2863943Y-9133329D02*
X2873467Y-9114281D01*
X2873467Y-9114281D02*
X2882991Y-9104758D01*
X2882991Y-9104758D02*
X2902039Y-9095234D01*
X3054420Y-9295234D02*
X3054420Y-9161900D01*
X3054420Y-9180948D02*
X3063943Y-9171424D01*
X3063943Y-9171424D02*
X3082991Y-9161900D01*
X3082991Y-9161900D02*
X3111563Y-9161900D01*
X3111563Y-9161900D02*
X3130610Y-9171424D01*
X3130610Y-9171424D02*
X3140134Y-9190472D01*
X3140134Y-9190472D02*
X3140134Y-9295234D01*
X3140134Y-9190472D02*
X3149658Y-9171424D01*
X3149658Y-9171424D02*
X3168705Y-9161900D01*
X3168705Y-9161900D02*
X3197277Y-9161900D01*
X3197277Y-9161900D02*
X3216324Y-9171424D01*
X3216324Y-9171424D02*
X3225848Y-9190472D01*
X3225848Y-9190472D02*
X3225848Y-9295234D01*
X3321086Y-9295234D02*
X3321086Y-9161900D01*
X3321086Y-9180948D02*
X3330610Y-9171424D01*
X3330610Y-9171424D02*
X3349658Y-9161900D01*
X3349658Y-9161900D02*
X3378229Y-9161900D01*
X3378229Y-9161900D02*
X3397277Y-9171424D01*
X3397277Y-9171424D02*
X3406801Y-9190472D01*
X3406801Y-9190472D02*
X3406801Y-9295234D01*
X3406801Y-9190472D02*
X3416324Y-9171424D01*
X3416324Y-9171424D02*
X3435372Y-9161900D01*
X3435372Y-9161900D02*
X3463943Y-9161900D01*
X3463943Y-9161900D02*
X3482991Y-9171424D01*
X3482991Y-9171424D02*
X3492515Y-9190472D01*
X3492515Y-9190472D02*
X3492515Y-9295234D01*
X3882991Y-9085710D02*
X3711563Y-9342853D01*
X4140134Y-9095234D02*
X4159182Y-9095234D01*
X4159182Y-9095234D02*
X4178229Y-9104758D01*
X4178229Y-9104758D02*
X4187753Y-9114281D01*
X4187753Y-9114281D02*
X4197277Y-9133329D01*
X4197277Y-9133329D02*
X4206801Y-9171424D01*
X4206801Y-9171424D02*
X4206801Y-9219043D01*
X4206801Y-9219043D02*
X4197277Y-9257139D01*
X4197277Y-9257139D02*
X4187753Y-9276186D01*
X4187753Y-9276186D02*
X4178229Y-9285710D01*
X4178229Y-9285710D02*
X4159182Y-9295234D01*
X4159182Y-9295234D02*
X4140134Y-9295234D01*
X4140134Y-9295234D02*
X4121086Y-9285710D01*
X4121086Y-9285710D02*
X4111563Y-9276186D01*
X4111563Y-9276186D02*
X4102039Y-9257139D01*
X4102039Y-9257139D02*
X4092515Y-9219043D01*
X4092515Y-9219043D02*
X4092515Y-9171424D01*
X4092515Y-9171424D02*
X4102039Y-9133329D01*
X4102039Y-9133329D02*
X4111563Y-9114281D01*
X4111563Y-9114281D02*
X4121086Y-9104758D01*
X4121086Y-9104758D02*
X4140134Y-9095234D01*
X4292515Y-9276186D02*
X4302039Y-9285710D01*
X4302039Y-9285710D02*
X4292515Y-9295234D01*
X4292515Y-9295234D02*
X4282991Y-9285710D01*
X4282991Y-9285710D02*
X4292515Y-9276186D01*
X4292515Y-9276186D02*
X4292515Y-9295234D01*
X4425848Y-9095234D02*
X4444896Y-9095234D01*
X4444896Y-9095234D02*
X4463944Y-9104758D01*
X4463944Y-9104758D02*
X4473468Y-9114281D01*
X4473468Y-9114281D02*
X4482991Y-9133329D01*
X4482991Y-9133329D02*
X4492515Y-9171424D01*
X4492515Y-9171424D02*
X4492515Y-9219043D01*
X4492515Y-9219043D02*
X4482991Y-9257139D01*
X4482991Y-9257139D02*
X4473468Y-9276186D01*
X4473468Y-9276186D02*
X4463944Y-9285710D01*
X4463944Y-9285710D02*
X4444896Y-9295234D01*
X4444896Y-9295234D02*
X4425848Y-9295234D01*
X4425848Y-9295234D02*
X4406801Y-9285710D01*
X4406801Y-9285710D02*
X4397277Y-9276186D01*
X4397277Y-9276186D02*
X4387753Y-9257139D01*
X4387753Y-9257139D02*
X4378229Y-9219043D01*
X4378229Y-9219043D02*
X4378229Y-9171424D01*
X4378229Y-9171424D02*
X4387753Y-9133329D01*
X4387753Y-9133329D02*
X4397277Y-9114281D01*
X4397277Y-9114281D02*
X4406801Y-9104758D01*
X4406801Y-9104758D02*
X4425848Y-9095234D01*
X4559182Y-9095234D02*
X4682991Y-9095234D01*
X4682991Y-9095234D02*
X4616325Y-9171424D01*
X4616325Y-9171424D02*
X4644896Y-9171424D01*
X4644896Y-9171424D02*
X4663944Y-9180948D01*
X4663944Y-9180948D02*
X4673468Y-9190472D01*
X4673468Y-9190472D02*
X4682991Y-9209520D01*
X4682991Y-9209520D02*
X4682991Y-9257139D01*
X4682991Y-9257139D02*
X4673468Y-9276186D01*
X4673468Y-9276186D02*
X4663944Y-9285710D01*
X4663944Y-9285710D02*
X4644896Y-9295234D01*
X4644896Y-9295234D02*
X4587753Y-9295234D01*
X4587753Y-9295234D02*
X4568706Y-9285710D01*
X4568706Y-9285710D02*
X4559182Y-9276186D01*
X4873468Y-9295234D02*
X4759182Y-9295234D01*
X4816325Y-9295234D02*
X4816325Y-9095234D01*
X4816325Y-9095234D02*
X4797277Y-9123805D01*
X4797277Y-9123805D02*
X4778229Y-9142853D01*
X4778229Y-9142853D02*
X4759182Y-9152377D01*
X5054420Y-9095234D02*
X4959182Y-9095234D01*
X4959182Y-9095234D02*
X4949658Y-9190472D01*
X4949658Y-9190472D02*
X4959182Y-9180948D01*
X4959182Y-9180948D02*
X4978229Y-9171424D01*
X4978229Y-9171424D02*
X5025849Y-9171424D01*
X5025849Y-9171424D02*
X5044896Y-9180948D01*
X5044896Y-9180948D02*
X5054420Y-9190472D01*
X5054420Y-9190472D02*
X5063944Y-9209520D01*
X5063944Y-9209520D02*
X5063944Y-9257139D01*
X5063944Y-9257139D02*
X5054420Y-9276186D01*
X5054420Y-9276186D02*
X5044896Y-9285710D01*
X5044896Y-9285710D02*
X5025849Y-9295234D01*
X5025849Y-9295234D02*
X4978229Y-9295234D01*
X4978229Y-9295234D02*
X4959182Y-9285710D01*
X4959182Y-9285710D02*
X4949658Y-9276186D01*
X5140134Y-9095234D02*
X5140134Y-9133329D01*
X5216325Y-9095234D02*
X5216325Y-9133329D01*
X5511563Y-9371424D02*
X5502039Y-9361900D01*
X5502039Y-9361900D02*
X5482991Y-9333329D01*
X5482991Y-9333329D02*
X5473468Y-9314281D01*
X5473468Y-9314281D02*
X5463944Y-9285710D01*
X5463944Y-9285710D02*
X5454420Y-9238091D01*
X5454420Y-9238091D02*
X5454420Y-9199996D01*
X5454420Y-9199996D02*
X5463944Y-9152377D01*
X5463944Y-9152377D02*
X5473468Y-9123805D01*
X5473468Y-9123805D02*
X5482991Y-9104758D01*
X5482991Y-9104758D02*
X5502039Y-9076186D01*
X5502039Y-9076186D02*
X5511563Y-9066662D01*
X5692515Y-9295234D02*
X5578230Y-9295234D01*
X5635372Y-9295234D02*
X5635372Y-9095234D01*
X5635372Y-9095234D02*
X5616325Y-9123805D01*
X5616325Y-9123805D02*
X5597277Y-9142853D01*
X5597277Y-9142853D02*
X5578230Y-9152377D01*
X5930610Y-9295234D02*
X5930610Y-9095234D01*
X6016325Y-9295234D02*
X6016325Y-9190472D01*
X6016325Y-9190472D02*
X6006801Y-9171424D01*
X6006801Y-9171424D02*
X5987753Y-9161900D01*
X5987753Y-9161900D02*
X5959182Y-9161900D01*
X5959182Y-9161900D02*
X5940134Y-9171424D01*
X5940134Y-9171424D02*
X5930610Y-9180948D01*
X6140134Y-9295234D02*
X6121087Y-9285710D01*
X6121087Y-9285710D02*
X6111563Y-9276186D01*
X6111563Y-9276186D02*
X6102039Y-9257139D01*
X6102039Y-9257139D02*
X6102039Y-9199996D01*
X6102039Y-9199996D02*
X6111563Y-9180948D01*
X6111563Y-9180948D02*
X6121087Y-9171424D01*
X6121087Y-9171424D02*
X6140134Y-9161900D01*
X6140134Y-9161900D02*
X6168706Y-9161900D01*
X6168706Y-9161900D02*
X6187753Y-9171424D01*
X6187753Y-9171424D02*
X6197277Y-9180948D01*
X6197277Y-9180948D02*
X6206801Y-9199996D01*
X6206801Y-9199996D02*
X6206801Y-9257139D01*
X6206801Y-9257139D02*
X6197277Y-9276186D01*
X6197277Y-9276186D02*
X6187753Y-9285710D01*
X6187753Y-9285710D02*
X6168706Y-9295234D01*
X6168706Y-9295234D02*
X6140134Y-9295234D01*
X6321087Y-9295234D02*
X6302039Y-9285710D01*
X6302039Y-9285710D02*
X6292515Y-9266662D01*
X6292515Y-9266662D02*
X6292515Y-9095234D01*
X6473468Y-9285710D02*
X6454420Y-9295234D01*
X6454420Y-9295234D02*
X6416325Y-9295234D01*
X6416325Y-9295234D02*
X6397277Y-9285710D01*
X6397277Y-9285710D02*
X6387753Y-9266662D01*
X6387753Y-9266662D02*
X6387753Y-9190472D01*
X6387753Y-9190472D02*
X6397277Y-9171424D01*
X6397277Y-9171424D02*
X6416325Y-9161900D01*
X6416325Y-9161900D02*
X6454420Y-9161900D01*
X6454420Y-9161900D02*
X6473468Y-9171424D01*
X6473468Y-9171424D02*
X6482991Y-9190472D01*
X6482991Y-9190472D02*
X6482991Y-9209520D01*
X6482991Y-9209520D02*
X6387753Y-9228567D01*
X6549658Y-9371424D02*
X6559182Y-9361900D01*
X6559182Y-9361900D02*
X6578230Y-9333329D01*
X6578230Y-9333329D02*
X6587753Y-9314281D01*
X6587753Y-9314281D02*
X6597277Y-9285710D01*
X6597277Y-9285710D02*
X6606801Y-9238091D01*
X6606801Y-9238091D02*
X6606801Y-9199996D01*
X6606801Y-9199996D02*
X6597277Y-9152377D01*
X6597277Y-9152377D02*
X6587753Y-9123805D01*
X6587753Y-9123805D02*
X6578230Y-9104758D01*
X6578230Y-9104758D02*
X6559182Y-9076186D01*
X6559182Y-9076186D02*
X6549658Y-9066662D01*
D12*
X1886500Y-9517750D02*
X1936500Y-9467750D01*
X1886500Y-9417750D01*
X1836500Y-9467750D01*
X1886500Y-9517750D01*
D11*
X2302039Y-9559234D02*
X2187753Y-9559234D01*
X2244896Y-9559234D02*
X2244896Y-9359234D01*
X2244896Y-9359234D02*
X2225848Y-9387805D01*
X2225848Y-9387805D02*
X2206801Y-9406853D01*
X2206801Y-9406853D02*
X2187753Y-9416377D01*
X2387753Y-9540186D02*
X2397277Y-9549710D01*
X2397277Y-9549710D02*
X2387753Y-9559234D01*
X2387753Y-9559234D02*
X2378229Y-9549710D01*
X2378229Y-9549710D02*
X2387753Y-9540186D01*
X2387753Y-9540186D02*
X2387753Y-9559234D01*
X2521086Y-9359234D02*
X2540134Y-9359234D01*
X2540134Y-9359234D02*
X2559182Y-9368758D01*
X2559182Y-9368758D02*
X2568705Y-9378281D01*
X2568705Y-9378281D02*
X2578229Y-9397329D01*
X2578229Y-9397329D02*
X2587753Y-9435424D01*
X2587753Y-9435424D02*
X2587753Y-9483043D01*
X2587753Y-9483043D02*
X2578229Y-9521139D01*
X2578229Y-9521139D02*
X2568705Y-9540186D01*
X2568705Y-9540186D02*
X2559182Y-9549710D01*
X2559182Y-9549710D02*
X2540134Y-9559234D01*
X2540134Y-9559234D02*
X2521086Y-9559234D01*
X2521086Y-9559234D02*
X2502039Y-9549710D01*
X2502039Y-9549710D02*
X2492515Y-9540186D01*
X2492515Y-9540186D02*
X2482991Y-9521139D01*
X2482991Y-9521139D02*
X2473467Y-9483043D01*
X2473467Y-9483043D02*
X2473467Y-9435424D01*
X2473467Y-9435424D02*
X2482991Y-9397329D01*
X2482991Y-9397329D02*
X2492515Y-9378281D01*
X2492515Y-9378281D02*
X2502039Y-9368758D01*
X2502039Y-9368758D02*
X2521086Y-9359234D01*
X2711563Y-9359234D02*
X2730610Y-9359234D01*
X2730610Y-9359234D02*
X2749658Y-9368758D01*
X2749658Y-9368758D02*
X2759182Y-9378281D01*
X2759182Y-9378281D02*
X2768705Y-9397329D01*
X2768705Y-9397329D02*
X2778229Y-9435424D01*
X2778229Y-9435424D02*
X2778229Y-9483043D01*
X2778229Y-9483043D02*
X2768705Y-9521139D01*
X2768705Y-9521139D02*
X2759182Y-9540186D01*
X2759182Y-9540186D02*
X2749658Y-9549710D01*
X2749658Y-9549710D02*
X2730610Y-9559234D01*
X2730610Y-9559234D02*
X2711563Y-9559234D01*
X2711563Y-9559234D02*
X2692515Y-9549710D01*
X2692515Y-9549710D02*
X2682991Y-9540186D01*
X2682991Y-9540186D02*
X2673467Y-9521139D01*
X2673467Y-9521139D02*
X2663944Y-9483043D01*
X2663944Y-9483043D02*
X2663944Y-9435424D01*
X2663944Y-9435424D02*
X2673467Y-9397329D01*
X2673467Y-9397329D02*
X2682991Y-9378281D01*
X2682991Y-9378281D02*
X2692515Y-9368758D01*
X2692515Y-9368758D02*
X2711563Y-9359234D01*
X2902039Y-9359234D02*
X2921086Y-9359234D01*
X2921086Y-9359234D02*
X2940134Y-9368758D01*
X2940134Y-9368758D02*
X2949658Y-9378281D01*
X2949658Y-9378281D02*
X2959182Y-9397329D01*
X2959182Y-9397329D02*
X2968705Y-9435424D01*
X2968705Y-9435424D02*
X2968705Y-9483043D01*
X2968705Y-9483043D02*
X2959182Y-9521139D01*
X2959182Y-9521139D02*
X2949658Y-9540186D01*
X2949658Y-9540186D02*
X2940134Y-9549710D01*
X2940134Y-9549710D02*
X2921086Y-9559234D01*
X2921086Y-9559234D02*
X2902039Y-9559234D01*
X2902039Y-9559234D02*
X2882991Y-9549710D01*
X2882991Y-9549710D02*
X2873467Y-9540186D01*
X2873467Y-9540186D02*
X2863943Y-9521139D01*
X2863943Y-9521139D02*
X2854420Y-9483043D01*
X2854420Y-9483043D02*
X2854420Y-9435424D01*
X2854420Y-9435424D02*
X2863943Y-9397329D01*
X2863943Y-9397329D02*
X2873467Y-9378281D01*
X2873467Y-9378281D02*
X2882991Y-9368758D01*
X2882991Y-9368758D02*
X2902039Y-9359234D01*
X3054420Y-9559234D02*
X3054420Y-9425900D01*
X3054420Y-9444948D02*
X3063943Y-9435424D01*
X3063943Y-9435424D02*
X3082991Y-9425900D01*
X3082991Y-9425900D02*
X3111563Y-9425900D01*
X3111563Y-9425900D02*
X3130610Y-9435424D01*
X3130610Y-9435424D02*
X3140134Y-9454472D01*
X3140134Y-9454472D02*
X3140134Y-9559234D01*
X3140134Y-9454472D02*
X3149658Y-9435424D01*
X3149658Y-9435424D02*
X3168705Y-9425900D01*
X3168705Y-9425900D02*
X3197277Y-9425900D01*
X3197277Y-9425900D02*
X3216324Y-9435424D01*
X3216324Y-9435424D02*
X3225848Y-9454472D01*
X3225848Y-9454472D02*
X3225848Y-9559234D01*
X3321086Y-9559234D02*
X3321086Y-9425900D01*
X3321086Y-9444948D02*
X3330610Y-9435424D01*
X3330610Y-9435424D02*
X3349658Y-9425900D01*
X3349658Y-9425900D02*
X3378229Y-9425900D01*
X3378229Y-9425900D02*
X3397277Y-9435424D01*
X3397277Y-9435424D02*
X3406801Y-9454472D01*
X3406801Y-9454472D02*
X3406801Y-9559234D01*
X3406801Y-9454472D02*
X3416324Y-9435424D01*
X3416324Y-9435424D02*
X3435372Y-9425900D01*
X3435372Y-9425900D02*
X3463943Y-9425900D01*
X3463943Y-9425900D02*
X3482991Y-9435424D01*
X3482991Y-9435424D02*
X3492515Y-9454472D01*
X3492515Y-9454472D02*
X3492515Y-9559234D01*
X3882991Y-9349710D02*
X3711563Y-9606853D01*
X4140134Y-9359234D02*
X4159182Y-9359234D01*
X4159182Y-9359234D02*
X4178229Y-9368758D01*
X4178229Y-9368758D02*
X4187753Y-9378281D01*
X4187753Y-9378281D02*
X4197277Y-9397329D01*
X4197277Y-9397329D02*
X4206801Y-9435424D01*
X4206801Y-9435424D02*
X4206801Y-9483043D01*
X4206801Y-9483043D02*
X4197277Y-9521139D01*
X4197277Y-9521139D02*
X4187753Y-9540186D01*
X4187753Y-9540186D02*
X4178229Y-9549710D01*
X4178229Y-9549710D02*
X4159182Y-9559234D01*
X4159182Y-9559234D02*
X4140134Y-9559234D01*
X4140134Y-9559234D02*
X4121086Y-9549710D01*
X4121086Y-9549710D02*
X4111563Y-9540186D01*
X4111563Y-9540186D02*
X4102039Y-9521139D01*
X4102039Y-9521139D02*
X4092515Y-9483043D01*
X4092515Y-9483043D02*
X4092515Y-9435424D01*
X4092515Y-9435424D02*
X4102039Y-9397329D01*
X4102039Y-9397329D02*
X4111563Y-9378281D01*
X4111563Y-9378281D02*
X4121086Y-9368758D01*
X4121086Y-9368758D02*
X4140134Y-9359234D01*
X4292515Y-9540186D02*
X4302039Y-9549710D01*
X4302039Y-9549710D02*
X4292515Y-9559234D01*
X4292515Y-9559234D02*
X4282991Y-9549710D01*
X4282991Y-9549710D02*
X4292515Y-9540186D01*
X4292515Y-9540186D02*
X4292515Y-9559234D01*
X4425848Y-9359234D02*
X4444896Y-9359234D01*
X4444896Y-9359234D02*
X4463944Y-9368758D01*
X4463944Y-9368758D02*
X4473468Y-9378281D01*
X4473468Y-9378281D02*
X4482991Y-9397329D01*
X4482991Y-9397329D02*
X4492515Y-9435424D01*
X4492515Y-9435424D02*
X4492515Y-9483043D01*
X4492515Y-9483043D02*
X4482991Y-9521139D01*
X4482991Y-9521139D02*
X4473468Y-9540186D01*
X4473468Y-9540186D02*
X4463944Y-9549710D01*
X4463944Y-9549710D02*
X4444896Y-9559234D01*
X4444896Y-9559234D02*
X4425848Y-9559234D01*
X4425848Y-9559234D02*
X4406801Y-9549710D01*
X4406801Y-9549710D02*
X4397277Y-9540186D01*
X4397277Y-9540186D02*
X4387753Y-9521139D01*
X4387753Y-9521139D02*
X4378229Y-9483043D01*
X4378229Y-9483043D02*
X4378229Y-9435424D01*
X4378229Y-9435424D02*
X4387753Y-9397329D01*
X4387753Y-9397329D02*
X4397277Y-9378281D01*
X4397277Y-9378281D02*
X4406801Y-9368758D01*
X4406801Y-9368758D02*
X4425848Y-9359234D01*
X4559182Y-9359234D02*
X4682991Y-9359234D01*
X4682991Y-9359234D02*
X4616325Y-9435424D01*
X4616325Y-9435424D02*
X4644896Y-9435424D01*
X4644896Y-9435424D02*
X4663944Y-9444948D01*
X4663944Y-9444948D02*
X4673468Y-9454472D01*
X4673468Y-9454472D02*
X4682991Y-9473520D01*
X4682991Y-9473520D02*
X4682991Y-9521139D01*
X4682991Y-9521139D02*
X4673468Y-9540186D01*
X4673468Y-9540186D02*
X4663944Y-9549710D01*
X4663944Y-9549710D02*
X4644896Y-9559234D01*
X4644896Y-9559234D02*
X4587753Y-9559234D01*
X4587753Y-9559234D02*
X4568706Y-9549710D01*
X4568706Y-9549710D02*
X4559182Y-9540186D01*
X4778229Y-9559234D02*
X4816325Y-9559234D01*
X4816325Y-9559234D02*
X4835372Y-9549710D01*
X4835372Y-9549710D02*
X4844896Y-9540186D01*
X4844896Y-9540186D02*
X4863944Y-9511615D01*
X4863944Y-9511615D02*
X4873468Y-9473520D01*
X4873468Y-9473520D02*
X4873468Y-9397329D01*
X4873468Y-9397329D02*
X4863944Y-9378281D01*
X4863944Y-9378281D02*
X4854420Y-9368758D01*
X4854420Y-9368758D02*
X4835372Y-9359234D01*
X4835372Y-9359234D02*
X4797277Y-9359234D01*
X4797277Y-9359234D02*
X4778229Y-9368758D01*
X4778229Y-9368758D02*
X4768706Y-9378281D01*
X4768706Y-9378281D02*
X4759182Y-9397329D01*
X4759182Y-9397329D02*
X4759182Y-9444948D01*
X4759182Y-9444948D02*
X4768706Y-9463996D01*
X4768706Y-9463996D02*
X4778229Y-9473520D01*
X4778229Y-9473520D02*
X4797277Y-9483043D01*
X4797277Y-9483043D02*
X4835372Y-9483043D01*
X4835372Y-9483043D02*
X4854420Y-9473520D01*
X4854420Y-9473520D02*
X4863944Y-9463996D01*
X4863944Y-9463996D02*
X4873468Y-9444948D01*
X5044896Y-9425900D02*
X5044896Y-9559234D01*
X4997277Y-9349710D02*
X4949658Y-9492567D01*
X4949658Y-9492567D02*
X5073468Y-9492567D01*
X5140134Y-9359234D02*
X5140134Y-9397329D01*
X5216325Y-9359234D02*
X5216325Y-9397329D01*
X5511563Y-9635424D02*
X5502039Y-9625900D01*
X5502039Y-9625900D02*
X5482991Y-9597329D01*
X5482991Y-9597329D02*
X5473468Y-9578281D01*
X5473468Y-9578281D02*
X5463944Y-9549710D01*
X5463944Y-9549710D02*
X5454420Y-9502091D01*
X5454420Y-9502091D02*
X5454420Y-9463996D01*
X5454420Y-9463996D02*
X5463944Y-9416377D01*
X5463944Y-9416377D02*
X5473468Y-9387805D01*
X5473468Y-9387805D02*
X5482991Y-9368758D01*
X5482991Y-9368758D02*
X5502039Y-9340186D01*
X5502039Y-9340186D02*
X5511563Y-9330662D01*
X5692515Y-9559234D02*
X5578230Y-9559234D01*
X5635372Y-9559234D02*
X5635372Y-9359234D01*
X5635372Y-9359234D02*
X5616325Y-9387805D01*
X5616325Y-9387805D02*
X5597277Y-9406853D01*
X5597277Y-9406853D02*
X5578230Y-9416377D01*
X5930610Y-9559234D02*
X5930610Y-9359234D01*
X6016325Y-9559234D02*
X6016325Y-9454472D01*
X6016325Y-9454472D02*
X6006801Y-9435424D01*
X6006801Y-9435424D02*
X5987753Y-9425900D01*
X5987753Y-9425900D02*
X5959182Y-9425900D01*
X5959182Y-9425900D02*
X5940134Y-9435424D01*
X5940134Y-9435424D02*
X5930610Y-9444948D01*
X6140134Y-9559234D02*
X6121087Y-9549710D01*
X6121087Y-9549710D02*
X6111563Y-9540186D01*
X6111563Y-9540186D02*
X6102039Y-9521139D01*
X6102039Y-9521139D02*
X6102039Y-9463996D01*
X6102039Y-9463996D02*
X6111563Y-9444948D01*
X6111563Y-9444948D02*
X6121087Y-9435424D01*
X6121087Y-9435424D02*
X6140134Y-9425900D01*
X6140134Y-9425900D02*
X6168706Y-9425900D01*
X6168706Y-9425900D02*
X6187753Y-9435424D01*
X6187753Y-9435424D02*
X6197277Y-9444948D01*
X6197277Y-9444948D02*
X6206801Y-9463996D01*
X6206801Y-9463996D02*
X6206801Y-9521139D01*
X6206801Y-9521139D02*
X6197277Y-9540186D01*
X6197277Y-9540186D02*
X6187753Y-9549710D01*
X6187753Y-9549710D02*
X6168706Y-9559234D01*
X6168706Y-9559234D02*
X6140134Y-9559234D01*
X6321087Y-9559234D02*
X6302039Y-9549710D01*
X6302039Y-9549710D02*
X6292515Y-9530662D01*
X6292515Y-9530662D02*
X6292515Y-9359234D01*
X6473468Y-9549710D02*
X6454420Y-9559234D01*
X6454420Y-9559234D02*
X6416325Y-9559234D01*
X6416325Y-9559234D02*
X6397277Y-9549710D01*
X6397277Y-9549710D02*
X6387753Y-9530662D01*
X6387753Y-9530662D02*
X6387753Y-9454472D01*
X6387753Y-9454472D02*
X6397277Y-9435424D01*
X6397277Y-9435424D02*
X6416325Y-9425900D01*
X6416325Y-9425900D02*
X6454420Y-9425900D01*
X6454420Y-9425900D02*
X6473468Y-9435424D01*
X6473468Y-9435424D02*
X6482991Y-9454472D01*
X6482991Y-9454472D02*
X6482991Y-9473520D01*
X6482991Y-9473520D02*
X6387753Y-9492567D01*
X6549658Y-9635424D02*
X6559182Y-9625900D01*
X6559182Y-9625900D02*
X6578230Y-9597329D01*
X6578230Y-9597329D02*
X6587753Y-9578281D01*
X6587753Y-9578281D02*
X6597277Y-9549710D01*
X6597277Y-9549710D02*
X6606801Y-9502091D01*
X6606801Y-9502091D02*
X6606801Y-9463996D01*
X6606801Y-9463996D02*
X6597277Y-9416377D01*
X6597277Y-9416377D02*
X6587753Y-9387805D01*
X6587753Y-9387805D02*
X6578230Y-9368758D01*
X6578230Y-9368758D02*
X6559182Y-9340186D01*
X6559182Y-9340186D02*
X6549658Y-9330662D01*
D13*
X1816500Y-9671750D02*
X1936500Y-9791750D01*
X1936500Y-9671750D02*
X1816500Y-9791750D01*
X1936500Y-9731750D02*
G75*
G02*
X1816500Y-9731750I-60000J0D01*
G01*
X1816500Y-9731750D02*
G75*
G02*
X1936500Y-9731750I60000J0D01*
G01*
D11*
X2302039Y-9823234D02*
X2187753Y-9823234D01*
X2244896Y-9823234D02*
X2244896Y-9623234D01*
X2244896Y-9623234D02*
X2225848Y-9651805D01*
X2225848Y-9651805D02*
X2206801Y-9670853D01*
X2206801Y-9670853D02*
X2187753Y-9680377D01*
X2387753Y-9804186D02*
X2397277Y-9813710D01*
X2397277Y-9813710D02*
X2387753Y-9823234D01*
X2387753Y-9823234D02*
X2378229Y-9813710D01*
X2378229Y-9813710D02*
X2387753Y-9804186D01*
X2387753Y-9804186D02*
X2387753Y-9823234D01*
X2473467Y-9642281D02*
X2482991Y-9632758D01*
X2482991Y-9632758D02*
X2502039Y-9623234D01*
X2502039Y-9623234D02*
X2549658Y-9623234D01*
X2549658Y-9623234D02*
X2568705Y-9632758D01*
X2568705Y-9632758D02*
X2578229Y-9642281D01*
X2578229Y-9642281D02*
X2587753Y-9661329D01*
X2587753Y-9661329D02*
X2587753Y-9680377D01*
X2587753Y-9680377D02*
X2578229Y-9708948D01*
X2578229Y-9708948D02*
X2463944Y-9823234D01*
X2463944Y-9823234D02*
X2587753Y-9823234D01*
X2711563Y-9623234D02*
X2730610Y-9623234D01*
X2730610Y-9623234D02*
X2749658Y-9632758D01*
X2749658Y-9632758D02*
X2759182Y-9642281D01*
X2759182Y-9642281D02*
X2768705Y-9661329D01*
X2768705Y-9661329D02*
X2778229Y-9699424D01*
X2778229Y-9699424D02*
X2778229Y-9747043D01*
X2778229Y-9747043D02*
X2768705Y-9785139D01*
X2768705Y-9785139D02*
X2759182Y-9804186D01*
X2759182Y-9804186D02*
X2749658Y-9813710D01*
X2749658Y-9813710D02*
X2730610Y-9823234D01*
X2730610Y-9823234D02*
X2711563Y-9823234D01*
X2711563Y-9823234D02*
X2692515Y-9813710D01*
X2692515Y-9813710D02*
X2682991Y-9804186D01*
X2682991Y-9804186D02*
X2673467Y-9785139D01*
X2673467Y-9785139D02*
X2663944Y-9747043D01*
X2663944Y-9747043D02*
X2663944Y-9699424D01*
X2663944Y-9699424D02*
X2673467Y-9661329D01*
X2673467Y-9661329D02*
X2682991Y-9642281D01*
X2682991Y-9642281D02*
X2692515Y-9632758D01*
X2692515Y-9632758D02*
X2711563Y-9623234D01*
X2902039Y-9623234D02*
X2921086Y-9623234D01*
X2921086Y-9623234D02*
X2940134Y-9632758D01*
X2940134Y-9632758D02*
X2949658Y-9642281D01*
X2949658Y-9642281D02*
X2959182Y-9661329D01*
X2959182Y-9661329D02*
X2968705Y-9699424D01*
X2968705Y-9699424D02*
X2968705Y-9747043D01*
X2968705Y-9747043D02*
X2959182Y-9785139D01*
X2959182Y-9785139D02*
X2949658Y-9804186D01*
X2949658Y-9804186D02*
X2940134Y-9813710D01*
X2940134Y-9813710D02*
X2921086Y-9823234D01*
X2921086Y-9823234D02*
X2902039Y-9823234D01*
X2902039Y-9823234D02*
X2882991Y-9813710D01*
X2882991Y-9813710D02*
X2873467Y-9804186D01*
X2873467Y-9804186D02*
X2863943Y-9785139D01*
X2863943Y-9785139D02*
X2854420Y-9747043D01*
X2854420Y-9747043D02*
X2854420Y-9699424D01*
X2854420Y-9699424D02*
X2863943Y-9661329D01*
X2863943Y-9661329D02*
X2873467Y-9642281D01*
X2873467Y-9642281D02*
X2882991Y-9632758D01*
X2882991Y-9632758D02*
X2902039Y-9623234D01*
X3054420Y-9823234D02*
X3054420Y-9689900D01*
X3054420Y-9708948D02*
X3063943Y-9699424D01*
X3063943Y-9699424D02*
X3082991Y-9689900D01*
X3082991Y-9689900D02*
X3111563Y-9689900D01*
X3111563Y-9689900D02*
X3130610Y-9699424D01*
X3130610Y-9699424D02*
X3140134Y-9718472D01*
X3140134Y-9718472D02*
X3140134Y-9823234D01*
X3140134Y-9718472D02*
X3149658Y-9699424D01*
X3149658Y-9699424D02*
X3168705Y-9689900D01*
X3168705Y-9689900D02*
X3197277Y-9689900D01*
X3197277Y-9689900D02*
X3216324Y-9699424D01*
X3216324Y-9699424D02*
X3225848Y-9718472D01*
X3225848Y-9718472D02*
X3225848Y-9823234D01*
X3321086Y-9823234D02*
X3321086Y-9689900D01*
X3321086Y-9708948D02*
X3330610Y-9699424D01*
X3330610Y-9699424D02*
X3349658Y-9689900D01*
X3349658Y-9689900D02*
X3378229Y-9689900D01*
X3378229Y-9689900D02*
X3397277Y-9699424D01*
X3397277Y-9699424D02*
X3406801Y-9718472D01*
X3406801Y-9718472D02*
X3406801Y-9823234D01*
X3406801Y-9718472D02*
X3416324Y-9699424D01*
X3416324Y-9699424D02*
X3435372Y-9689900D01*
X3435372Y-9689900D02*
X3463943Y-9689900D01*
X3463943Y-9689900D02*
X3482991Y-9699424D01*
X3482991Y-9699424D02*
X3492515Y-9718472D01*
X3492515Y-9718472D02*
X3492515Y-9823234D01*
X3882991Y-9613710D02*
X3711563Y-9870853D01*
X4140134Y-9623234D02*
X4159182Y-9623234D01*
X4159182Y-9623234D02*
X4178229Y-9632758D01*
X4178229Y-9632758D02*
X4187753Y-9642281D01*
X4187753Y-9642281D02*
X4197277Y-9661329D01*
X4197277Y-9661329D02*
X4206801Y-9699424D01*
X4206801Y-9699424D02*
X4206801Y-9747043D01*
X4206801Y-9747043D02*
X4197277Y-9785139D01*
X4197277Y-9785139D02*
X4187753Y-9804186D01*
X4187753Y-9804186D02*
X4178229Y-9813710D01*
X4178229Y-9813710D02*
X4159182Y-9823234D01*
X4159182Y-9823234D02*
X4140134Y-9823234D01*
X4140134Y-9823234D02*
X4121086Y-9813710D01*
X4121086Y-9813710D02*
X4111563Y-9804186D01*
X4111563Y-9804186D02*
X4102039Y-9785139D01*
X4102039Y-9785139D02*
X4092515Y-9747043D01*
X4092515Y-9747043D02*
X4092515Y-9699424D01*
X4092515Y-9699424D02*
X4102039Y-9661329D01*
X4102039Y-9661329D02*
X4111563Y-9642281D01*
X4111563Y-9642281D02*
X4121086Y-9632758D01*
X4121086Y-9632758D02*
X4140134Y-9623234D01*
X4292515Y-9804186D02*
X4302039Y-9813710D01*
X4302039Y-9813710D02*
X4292515Y-9823234D01*
X4292515Y-9823234D02*
X4282991Y-9813710D01*
X4282991Y-9813710D02*
X4292515Y-9804186D01*
X4292515Y-9804186D02*
X4292515Y-9823234D01*
X4425848Y-9623234D02*
X4444896Y-9623234D01*
X4444896Y-9623234D02*
X4463944Y-9632758D01*
X4463944Y-9632758D02*
X4473468Y-9642281D01*
X4473468Y-9642281D02*
X4482991Y-9661329D01*
X4482991Y-9661329D02*
X4492515Y-9699424D01*
X4492515Y-9699424D02*
X4492515Y-9747043D01*
X4492515Y-9747043D02*
X4482991Y-9785139D01*
X4482991Y-9785139D02*
X4473468Y-9804186D01*
X4473468Y-9804186D02*
X4463944Y-9813710D01*
X4463944Y-9813710D02*
X4444896Y-9823234D01*
X4444896Y-9823234D02*
X4425848Y-9823234D01*
X4425848Y-9823234D02*
X4406801Y-9813710D01*
X4406801Y-9813710D02*
X4397277Y-9804186D01*
X4397277Y-9804186D02*
X4387753Y-9785139D01*
X4387753Y-9785139D02*
X4378229Y-9747043D01*
X4378229Y-9747043D02*
X4378229Y-9699424D01*
X4378229Y-9699424D02*
X4387753Y-9661329D01*
X4387753Y-9661329D02*
X4397277Y-9642281D01*
X4397277Y-9642281D02*
X4406801Y-9632758D01*
X4406801Y-9632758D02*
X4425848Y-9623234D01*
X4663944Y-9689900D02*
X4663944Y-9823234D01*
X4616325Y-9613710D02*
X4568706Y-9756567D01*
X4568706Y-9756567D02*
X4692515Y-9756567D01*
X4749658Y-9623234D02*
X4882991Y-9623234D01*
X4882991Y-9623234D02*
X4797277Y-9823234D01*
X4949658Y-9642281D02*
X4959182Y-9632758D01*
X4959182Y-9632758D02*
X4978229Y-9623234D01*
X4978229Y-9623234D02*
X5025849Y-9623234D01*
X5025849Y-9623234D02*
X5044896Y-9632758D01*
X5044896Y-9632758D02*
X5054420Y-9642281D01*
X5054420Y-9642281D02*
X5063944Y-9661329D01*
X5063944Y-9661329D02*
X5063944Y-9680377D01*
X5063944Y-9680377D02*
X5054420Y-9708948D01*
X5054420Y-9708948D02*
X4940134Y-9823234D01*
X4940134Y-9823234D02*
X5063944Y-9823234D01*
X5140134Y-9623234D02*
X5140134Y-9661329D01*
X5216325Y-9623234D02*
X5216325Y-9661329D01*
X5511563Y-9899424D02*
X5502039Y-9889900D01*
X5502039Y-9889900D02*
X5482991Y-9861329D01*
X5482991Y-9861329D02*
X5473468Y-9842281D01*
X5473468Y-9842281D02*
X5463944Y-9813710D01*
X5463944Y-9813710D02*
X5454420Y-9766091D01*
X5454420Y-9766091D02*
X5454420Y-9727996D01*
X5454420Y-9727996D02*
X5463944Y-9680377D01*
X5463944Y-9680377D02*
X5473468Y-9651805D01*
X5473468Y-9651805D02*
X5482991Y-9632758D01*
X5482991Y-9632758D02*
X5502039Y-9604186D01*
X5502039Y-9604186D02*
X5511563Y-9594662D01*
X5692515Y-9823234D02*
X5578230Y-9823234D01*
X5635372Y-9823234D02*
X5635372Y-9623234D01*
X5635372Y-9623234D02*
X5616325Y-9651805D01*
X5616325Y-9651805D02*
X5597277Y-9670853D01*
X5597277Y-9670853D02*
X5578230Y-9680377D01*
X5930610Y-9823234D02*
X5930610Y-9623234D01*
X6016325Y-9823234D02*
X6016325Y-9718472D01*
X6016325Y-9718472D02*
X6006801Y-9699424D01*
X6006801Y-9699424D02*
X5987753Y-9689900D01*
X5987753Y-9689900D02*
X5959182Y-9689900D01*
X5959182Y-9689900D02*
X5940134Y-9699424D01*
X5940134Y-9699424D02*
X5930610Y-9708948D01*
X6140134Y-9823234D02*
X6121087Y-9813710D01*
X6121087Y-9813710D02*
X6111563Y-9804186D01*
X6111563Y-9804186D02*
X6102039Y-9785139D01*
X6102039Y-9785139D02*
X6102039Y-9727996D01*
X6102039Y-9727996D02*
X6111563Y-9708948D01*
X6111563Y-9708948D02*
X6121087Y-9699424D01*
X6121087Y-9699424D02*
X6140134Y-9689900D01*
X6140134Y-9689900D02*
X6168706Y-9689900D01*
X6168706Y-9689900D02*
X6187753Y-9699424D01*
X6187753Y-9699424D02*
X6197277Y-9708948D01*
X6197277Y-9708948D02*
X6206801Y-9727996D01*
X6206801Y-9727996D02*
X6206801Y-9785139D01*
X6206801Y-9785139D02*
X6197277Y-9804186D01*
X6197277Y-9804186D02*
X6187753Y-9813710D01*
X6187753Y-9813710D02*
X6168706Y-9823234D01*
X6168706Y-9823234D02*
X6140134Y-9823234D01*
X6321087Y-9823234D02*
X6302039Y-9813710D01*
X6302039Y-9813710D02*
X6292515Y-9794662D01*
X6292515Y-9794662D02*
X6292515Y-9623234D01*
X6473468Y-9813710D02*
X6454420Y-9823234D01*
X6454420Y-9823234D02*
X6416325Y-9823234D01*
X6416325Y-9823234D02*
X6397277Y-9813710D01*
X6397277Y-9813710D02*
X6387753Y-9794662D01*
X6387753Y-9794662D02*
X6387753Y-9718472D01*
X6387753Y-9718472D02*
X6397277Y-9699424D01*
X6397277Y-9699424D02*
X6416325Y-9689900D01*
X6416325Y-9689900D02*
X6454420Y-9689900D01*
X6454420Y-9689900D02*
X6473468Y-9699424D01*
X6473468Y-9699424D02*
X6482991Y-9718472D01*
X6482991Y-9718472D02*
X6482991Y-9737520D01*
X6482991Y-9737520D02*
X6387753Y-9756567D01*
X6549658Y-9899424D02*
X6559182Y-9889900D01*
X6559182Y-9889900D02*
X6578230Y-9861329D01*
X6578230Y-9861329D02*
X6587753Y-9842281D01*
X6587753Y-9842281D02*
X6597277Y-9813710D01*
X6597277Y-9813710D02*
X6606801Y-9766091D01*
X6606801Y-9766091D02*
X6606801Y-9727996D01*
X6606801Y-9727996D02*
X6597277Y-9680377D01*
X6597277Y-9680377D02*
X6587753Y-9651805D01*
X6587753Y-9651805D02*
X6578230Y-9632758D01*
X6578230Y-9632758D02*
X6559182Y-9604186D01*
X6559182Y-9604186D02*
X6549658Y-9594662D01*
D14*
X1796500Y-9925750D02*
X1936500Y-10065750D01*
X1936500Y-9925750D02*
X1796500Y-10065750D01*
X1866500Y-9925750D02*
X1866500Y-10065750D01*
X1796500Y-9995750D02*
X1936500Y-9995750D01*
D11*
X2302039Y-10087234D02*
X2187753Y-10087234D01*
X2244896Y-10087234D02*
X2244896Y-9887234D01*
X2244896Y-9887234D02*
X2225848Y-9915805D01*
X2225848Y-9915805D02*
X2206801Y-9934853D01*
X2206801Y-9934853D02*
X2187753Y-9944377D01*
X2387753Y-10068186D02*
X2397277Y-10077710D01*
X2397277Y-10077710D02*
X2387753Y-10087234D01*
X2387753Y-10087234D02*
X2378229Y-10077710D01*
X2378229Y-10077710D02*
X2387753Y-10068186D01*
X2387753Y-10068186D02*
X2387753Y-10087234D01*
X2568705Y-9953900D02*
X2568705Y-10087234D01*
X2521086Y-9877710D02*
X2473467Y-10020567D01*
X2473467Y-10020567D02*
X2597277Y-10020567D01*
X2711563Y-9887234D02*
X2730610Y-9887234D01*
X2730610Y-9887234D02*
X2749658Y-9896758D01*
X2749658Y-9896758D02*
X2759182Y-9906281D01*
X2759182Y-9906281D02*
X2768705Y-9925329D01*
X2768705Y-9925329D02*
X2778229Y-9963424D01*
X2778229Y-9963424D02*
X2778229Y-10011043D01*
X2778229Y-10011043D02*
X2768705Y-10049139D01*
X2768705Y-10049139D02*
X2759182Y-10068186D01*
X2759182Y-10068186D02*
X2749658Y-10077710D01*
X2749658Y-10077710D02*
X2730610Y-10087234D01*
X2730610Y-10087234D02*
X2711563Y-10087234D01*
X2711563Y-10087234D02*
X2692515Y-10077710D01*
X2692515Y-10077710D02*
X2682991Y-10068186D01*
X2682991Y-10068186D02*
X2673467Y-10049139D01*
X2673467Y-10049139D02*
X2663944Y-10011043D01*
X2663944Y-10011043D02*
X2663944Y-9963424D01*
X2663944Y-9963424D02*
X2673467Y-9925329D01*
X2673467Y-9925329D02*
X2682991Y-9906281D01*
X2682991Y-9906281D02*
X2692515Y-9896758D01*
X2692515Y-9896758D02*
X2711563Y-9887234D01*
X2902039Y-9887234D02*
X2921086Y-9887234D01*
X2921086Y-9887234D02*
X2940134Y-9896758D01*
X2940134Y-9896758D02*
X2949658Y-9906281D01*
X2949658Y-9906281D02*
X2959182Y-9925329D01*
X2959182Y-9925329D02*
X2968705Y-9963424D01*
X2968705Y-9963424D02*
X2968705Y-10011043D01*
X2968705Y-10011043D02*
X2959182Y-10049139D01*
X2959182Y-10049139D02*
X2949658Y-10068186D01*
X2949658Y-10068186D02*
X2940134Y-10077710D01*
X2940134Y-10077710D02*
X2921086Y-10087234D01*
X2921086Y-10087234D02*
X2902039Y-10087234D01*
X2902039Y-10087234D02*
X2882991Y-10077710D01*
X2882991Y-10077710D02*
X2873467Y-10068186D01*
X2873467Y-10068186D02*
X2863943Y-10049139D01*
X2863943Y-10049139D02*
X2854420Y-10011043D01*
X2854420Y-10011043D02*
X2854420Y-9963424D01*
X2854420Y-9963424D02*
X2863943Y-9925329D01*
X2863943Y-9925329D02*
X2873467Y-9906281D01*
X2873467Y-9906281D02*
X2882991Y-9896758D01*
X2882991Y-9896758D02*
X2902039Y-9887234D01*
X3054420Y-10087234D02*
X3054420Y-9953900D01*
X3054420Y-9972948D02*
X3063943Y-9963424D01*
X3063943Y-9963424D02*
X3082991Y-9953900D01*
X3082991Y-9953900D02*
X3111563Y-9953900D01*
X3111563Y-9953900D02*
X3130610Y-9963424D01*
X3130610Y-9963424D02*
X3140134Y-9982472D01*
X3140134Y-9982472D02*
X3140134Y-10087234D01*
X3140134Y-9982472D02*
X3149658Y-9963424D01*
X3149658Y-9963424D02*
X3168705Y-9953900D01*
X3168705Y-9953900D02*
X3197277Y-9953900D01*
X3197277Y-9953900D02*
X3216324Y-9963424D01*
X3216324Y-9963424D02*
X3225848Y-9982472D01*
X3225848Y-9982472D02*
X3225848Y-10087234D01*
X3321086Y-10087234D02*
X3321086Y-9953900D01*
X3321086Y-9972948D02*
X3330610Y-9963424D01*
X3330610Y-9963424D02*
X3349658Y-9953900D01*
X3349658Y-9953900D02*
X3378229Y-9953900D01*
X3378229Y-9953900D02*
X3397277Y-9963424D01*
X3397277Y-9963424D02*
X3406801Y-9982472D01*
X3406801Y-9982472D02*
X3406801Y-10087234D01*
X3406801Y-9982472D02*
X3416324Y-9963424D01*
X3416324Y-9963424D02*
X3435372Y-9953900D01*
X3435372Y-9953900D02*
X3463943Y-9953900D01*
X3463943Y-9953900D02*
X3482991Y-9963424D01*
X3482991Y-9963424D02*
X3492515Y-9982472D01*
X3492515Y-9982472D02*
X3492515Y-10087234D01*
X3882991Y-9877710D02*
X3711563Y-10134853D01*
X4140134Y-9887234D02*
X4159182Y-9887234D01*
X4159182Y-9887234D02*
X4178229Y-9896758D01*
X4178229Y-9896758D02*
X4187753Y-9906281D01*
X4187753Y-9906281D02*
X4197277Y-9925329D01*
X4197277Y-9925329D02*
X4206801Y-9963424D01*
X4206801Y-9963424D02*
X4206801Y-10011043D01*
X4206801Y-10011043D02*
X4197277Y-10049139D01*
X4197277Y-10049139D02*
X4187753Y-10068186D01*
X4187753Y-10068186D02*
X4178229Y-10077710D01*
X4178229Y-10077710D02*
X4159182Y-10087234D01*
X4159182Y-10087234D02*
X4140134Y-10087234D01*
X4140134Y-10087234D02*
X4121086Y-10077710D01*
X4121086Y-10077710D02*
X4111563Y-10068186D01*
X4111563Y-10068186D02*
X4102039Y-10049139D01*
X4102039Y-10049139D02*
X4092515Y-10011043D01*
X4092515Y-10011043D02*
X4092515Y-9963424D01*
X4092515Y-9963424D02*
X4102039Y-9925329D01*
X4102039Y-9925329D02*
X4111563Y-9906281D01*
X4111563Y-9906281D02*
X4121086Y-9896758D01*
X4121086Y-9896758D02*
X4140134Y-9887234D01*
X4292515Y-10068186D02*
X4302039Y-10077710D01*
X4302039Y-10077710D02*
X4292515Y-10087234D01*
X4292515Y-10087234D02*
X4282991Y-10077710D01*
X4282991Y-10077710D02*
X4292515Y-10068186D01*
X4292515Y-10068186D02*
X4292515Y-10087234D01*
X4425848Y-9887234D02*
X4444896Y-9887234D01*
X4444896Y-9887234D02*
X4463944Y-9896758D01*
X4463944Y-9896758D02*
X4473468Y-9906281D01*
X4473468Y-9906281D02*
X4482991Y-9925329D01*
X4482991Y-9925329D02*
X4492515Y-9963424D01*
X4492515Y-9963424D02*
X4492515Y-10011043D01*
X4492515Y-10011043D02*
X4482991Y-10049139D01*
X4482991Y-10049139D02*
X4473468Y-10068186D01*
X4473468Y-10068186D02*
X4463944Y-10077710D01*
X4463944Y-10077710D02*
X4444896Y-10087234D01*
X4444896Y-10087234D02*
X4425848Y-10087234D01*
X4425848Y-10087234D02*
X4406801Y-10077710D01*
X4406801Y-10077710D02*
X4397277Y-10068186D01*
X4397277Y-10068186D02*
X4387753Y-10049139D01*
X4387753Y-10049139D02*
X4378229Y-10011043D01*
X4378229Y-10011043D02*
X4378229Y-9963424D01*
X4378229Y-9963424D02*
X4387753Y-9925329D01*
X4387753Y-9925329D02*
X4397277Y-9906281D01*
X4397277Y-9906281D02*
X4406801Y-9896758D01*
X4406801Y-9896758D02*
X4425848Y-9887234D01*
X4673468Y-9887234D02*
X4578229Y-9887234D01*
X4578229Y-9887234D02*
X4568706Y-9982472D01*
X4568706Y-9982472D02*
X4578229Y-9972948D01*
X4578229Y-9972948D02*
X4597277Y-9963424D01*
X4597277Y-9963424D02*
X4644896Y-9963424D01*
X4644896Y-9963424D02*
X4663944Y-9972948D01*
X4663944Y-9972948D02*
X4673468Y-9982472D01*
X4673468Y-9982472D02*
X4682991Y-10001520D01*
X4682991Y-10001520D02*
X4682991Y-10049139D01*
X4682991Y-10049139D02*
X4673468Y-10068186D01*
X4673468Y-10068186D02*
X4663944Y-10077710D01*
X4663944Y-10077710D02*
X4644896Y-10087234D01*
X4644896Y-10087234D02*
X4597277Y-10087234D01*
X4597277Y-10087234D02*
X4578229Y-10077710D01*
X4578229Y-10077710D02*
X4568706Y-10068186D01*
X4863944Y-9887234D02*
X4768706Y-9887234D01*
X4768706Y-9887234D02*
X4759182Y-9982472D01*
X4759182Y-9982472D02*
X4768706Y-9972948D01*
X4768706Y-9972948D02*
X4787753Y-9963424D01*
X4787753Y-9963424D02*
X4835372Y-9963424D01*
X4835372Y-9963424D02*
X4854420Y-9972948D01*
X4854420Y-9972948D02*
X4863944Y-9982472D01*
X4863944Y-9982472D02*
X4873468Y-10001520D01*
X4873468Y-10001520D02*
X4873468Y-10049139D01*
X4873468Y-10049139D02*
X4863944Y-10068186D01*
X4863944Y-10068186D02*
X4854420Y-10077710D01*
X4854420Y-10077710D02*
X4835372Y-10087234D01*
X4835372Y-10087234D02*
X4787753Y-10087234D01*
X4787753Y-10087234D02*
X4768706Y-10077710D01*
X4768706Y-10077710D02*
X4759182Y-10068186D01*
X5063944Y-10087234D02*
X4949658Y-10087234D01*
X5006801Y-10087234D02*
X5006801Y-9887234D01*
X5006801Y-9887234D02*
X4987753Y-9915805D01*
X4987753Y-9915805D02*
X4968706Y-9934853D01*
X4968706Y-9934853D02*
X4949658Y-9944377D01*
X5140134Y-9887234D02*
X5140134Y-9925329D01*
X5216325Y-9887234D02*
X5216325Y-9925329D01*
X5511563Y-10163424D02*
X5502039Y-10153900D01*
X5502039Y-10153900D02*
X5482991Y-10125329D01*
X5482991Y-10125329D02*
X5473468Y-10106281D01*
X5473468Y-10106281D02*
X5463944Y-10077710D01*
X5463944Y-10077710D02*
X5454420Y-10030091D01*
X5454420Y-10030091D02*
X5454420Y-9991996D01*
X5454420Y-9991996D02*
X5463944Y-9944377D01*
X5463944Y-9944377D02*
X5473468Y-9915805D01*
X5473468Y-9915805D02*
X5482991Y-9896758D01*
X5482991Y-9896758D02*
X5502039Y-9868186D01*
X5502039Y-9868186D02*
X5511563Y-9858662D01*
X5692515Y-10087234D02*
X5578230Y-10087234D01*
X5635372Y-10087234D02*
X5635372Y-9887234D01*
X5635372Y-9887234D02*
X5616325Y-9915805D01*
X5616325Y-9915805D02*
X5597277Y-9934853D01*
X5597277Y-9934853D02*
X5578230Y-9944377D01*
X5930610Y-10087234D02*
X5930610Y-9887234D01*
X6016325Y-10087234D02*
X6016325Y-9982472D01*
X6016325Y-9982472D02*
X6006801Y-9963424D01*
X6006801Y-9963424D02*
X5987753Y-9953900D01*
X5987753Y-9953900D02*
X5959182Y-9953900D01*
X5959182Y-9953900D02*
X5940134Y-9963424D01*
X5940134Y-9963424D02*
X5930610Y-9972948D01*
X6140134Y-10087234D02*
X6121087Y-10077710D01*
X6121087Y-10077710D02*
X6111563Y-10068186D01*
X6111563Y-10068186D02*
X6102039Y-10049139D01*
X6102039Y-10049139D02*
X6102039Y-9991996D01*
X6102039Y-9991996D02*
X6111563Y-9972948D01*
X6111563Y-9972948D02*
X6121087Y-9963424D01*
X6121087Y-9963424D02*
X6140134Y-9953900D01*
X6140134Y-9953900D02*
X6168706Y-9953900D01*
X6168706Y-9953900D02*
X6187753Y-9963424D01*
X6187753Y-9963424D02*
X6197277Y-9972948D01*
X6197277Y-9972948D02*
X6206801Y-9991996D01*
X6206801Y-9991996D02*
X6206801Y-10049139D01*
X6206801Y-10049139D02*
X6197277Y-10068186D01*
X6197277Y-10068186D02*
X6187753Y-10077710D01*
X6187753Y-10077710D02*
X6168706Y-10087234D01*
X6168706Y-10087234D02*
X6140134Y-10087234D01*
X6321087Y-10087234D02*
X6302039Y-10077710D01*
X6302039Y-10077710D02*
X6292515Y-10058662D01*
X6292515Y-10058662D02*
X6292515Y-9887234D01*
X6473468Y-10077710D02*
X6454420Y-10087234D01*
X6454420Y-10087234D02*
X6416325Y-10087234D01*
X6416325Y-10087234D02*
X6397277Y-10077710D01*
X6397277Y-10077710D02*
X6387753Y-10058662D01*
X6387753Y-10058662D02*
X6387753Y-9982472D01*
X6387753Y-9982472D02*
X6397277Y-9963424D01*
X6397277Y-9963424D02*
X6416325Y-9953900D01*
X6416325Y-9953900D02*
X6454420Y-9953900D01*
X6454420Y-9953900D02*
X6473468Y-9963424D01*
X6473468Y-9963424D02*
X6482991Y-9982472D01*
X6482991Y-9982472D02*
X6482991Y-10001520D01*
X6482991Y-10001520D02*
X6387753Y-10020567D01*
X6549658Y-10163424D02*
X6559182Y-10153900D01*
X6559182Y-10153900D02*
X6578230Y-10125329D01*
X6578230Y-10125329D02*
X6587753Y-10106281D01*
X6587753Y-10106281D02*
X6597277Y-10077710D01*
X6597277Y-10077710D02*
X6606801Y-10030091D01*
X6606801Y-10030091D02*
X6606801Y-9991996D01*
X6606801Y-9991996D02*
X6597277Y-9944377D01*
X6597277Y-9944377D02*
X6587753Y-9915805D01*
X6587753Y-9915805D02*
X6578230Y-9896758D01*
X6578230Y-9896758D02*
X6559182Y-9868186D01*
X6559182Y-9868186D02*
X6549658Y-9858662D01*
D15*
X1776500Y-10179750D02*
X1936500Y-10339750D01*
X1936500Y-10179750D02*
X1776500Y-10339750D01*
X1913069Y-10316319D02*
X1913069Y-10203181D01*
X1799931Y-10203181D01*
X1799931Y-10316319D01*
X1913069Y-10316319D01*
D11*
X2302039Y-10351234D02*
X2187753Y-10351234D01*
X2244896Y-10351234D02*
X2244896Y-10151234D01*
X2244896Y-10151234D02*
X2225848Y-10179805D01*
X2225848Y-10179805D02*
X2206801Y-10198853D01*
X2206801Y-10198853D02*
X2187753Y-10208377D01*
X2387753Y-10332186D02*
X2397277Y-10341710D01*
X2397277Y-10341710D02*
X2387753Y-10351234D01*
X2387753Y-10351234D02*
X2378229Y-10341710D01*
X2378229Y-10341710D02*
X2387753Y-10332186D01*
X2387753Y-10332186D02*
X2387753Y-10351234D01*
X2568705Y-10151234D02*
X2530610Y-10151234D01*
X2530610Y-10151234D02*
X2511563Y-10160758D01*
X2511563Y-10160758D02*
X2502039Y-10170281D01*
X2502039Y-10170281D02*
X2482991Y-10198853D01*
X2482991Y-10198853D02*
X2473467Y-10236948D01*
X2473467Y-10236948D02*
X2473467Y-10313139D01*
X2473467Y-10313139D02*
X2482991Y-10332186D01*
X2482991Y-10332186D02*
X2492515Y-10341710D01*
X2492515Y-10341710D02*
X2511563Y-10351234D01*
X2511563Y-10351234D02*
X2549658Y-10351234D01*
X2549658Y-10351234D02*
X2568705Y-10341710D01*
X2568705Y-10341710D02*
X2578229Y-10332186D01*
X2578229Y-10332186D02*
X2587753Y-10313139D01*
X2587753Y-10313139D02*
X2587753Y-10265520D01*
X2587753Y-10265520D02*
X2578229Y-10246472D01*
X2578229Y-10246472D02*
X2568705Y-10236948D01*
X2568705Y-10236948D02*
X2549658Y-10227424D01*
X2549658Y-10227424D02*
X2511563Y-10227424D01*
X2511563Y-10227424D02*
X2492515Y-10236948D01*
X2492515Y-10236948D02*
X2482991Y-10246472D01*
X2482991Y-10246472D02*
X2473467Y-10265520D01*
X2711563Y-10151234D02*
X2730610Y-10151234D01*
X2730610Y-10151234D02*
X2749658Y-10160758D01*
X2749658Y-10160758D02*
X2759182Y-10170281D01*
X2759182Y-10170281D02*
X2768705Y-10189329D01*
X2768705Y-10189329D02*
X2778229Y-10227424D01*
X2778229Y-10227424D02*
X2778229Y-10275043D01*
X2778229Y-10275043D02*
X2768705Y-10313139D01*
X2768705Y-10313139D02*
X2759182Y-10332186D01*
X2759182Y-10332186D02*
X2749658Y-10341710D01*
X2749658Y-10341710D02*
X2730610Y-10351234D01*
X2730610Y-10351234D02*
X2711563Y-10351234D01*
X2711563Y-10351234D02*
X2692515Y-10341710D01*
X2692515Y-10341710D02*
X2682991Y-10332186D01*
X2682991Y-10332186D02*
X2673467Y-10313139D01*
X2673467Y-10313139D02*
X2663944Y-10275043D01*
X2663944Y-10275043D02*
X2663944Y-10227424D01*
X2663944Y-10227424D02*
X2673467Y-10189329D01*
X2673467Y-10189329D02*
X2682991Y-10170281D01*
X2682991Y-10170281D02*
X2692515Y-10160758D01*
X2692515Y-10160758D02*
X2711563Y-10151234D01*
X2902039Y-10151234D02*
X2921086Y-10151234D01*
X2921086Y-10151234D02*
X2940134Y-10160758D01*
X2940134Y-10160758D02*
X2949658Y-10170281D01*
X2949658Y-10170281D02*
X2959182Y-10189329D01*
X2959182Y-10189329D02*
X2968705Y-10227424D01*
X2968705Y-10227424D02*
X2968705Y-10275043D01*
X2968705Y-10275043D02*
X2959182Y-10313139D01*
X2959182Y-10313139D02*
X2949658Y-10332186D01*
X2949658Y-10332186D02*
X2940134Y-10341710D01*
X2940134Y-10341710D02*
X2921086Y-10351234D01*
X2921086Y-10351234D02*
X2902039Y-10351234D01*
X2902039Y-10351234D02*
X2882991Y-10341710D01*
X2882991Y-10341710D02*
X2873467Y-10332186D01*
X2873467Y-10332186D02*
X2863943Y-10313139D01*
X2863943Y-10313139D02*
X2854420Y-10275043D01*
X2854420Y-10275043D02*
X2854420Y-10227424D01*
X2854420Y-10227424D02*
X2863943Y-10189329D01*
X2863943Y-10189329D02*
X2873467Y-10170281D01*
X2873467Y-10170281D02*
X2882991Y-10160758D01*
X2882991Y-10160758D02*
X2902039Y-10151234D01*
X3054420Y-10351234D02*
X3054420Y-10217900D01*
X3054420Y-10236948D02*
X3063943Y-10227424D01*
X3063943Y-10227424D02*
X3082991Y-10217900D01*
X3082991Y-10217900D02*
X3111563Y-10217900D01*
X3111563Y-10217900D02*
X3130610Y-10227424D01*
X3130610Y-10227424D02*
X3140134Y-10246472D01*
X3140134Y-10246472D02*
X3140134Y-10351234D01*
X3140134Y-10246472D02*
X3149658Y-10227424D01*
X3149658Y-10227424D02*
X3168705Y-10217900D01*
X3168705Y-10217900D02*
X3197277Y-10217900D01*
X3197277Y-10217900D02*
X3216324Y-10227424D01*
X3216324Y-10227424D02*
X3225848Y-10246472D01*
X3225848Y-10246472D02*
X3225848Y-10351234D01*
X3321086Y-10351234D02*
X3321086Y-10217900D01*
X3321086Y-10236948D02*
X3330610Y-10227424D01*
X3330610Y-10227424D02*
X3349658Y-10217900D01*
X3349658Y-10217900D02*
X3378229Y-10217900D01*
X3378229Y-10217900D02*
X3397277Y-10227424D01*
X3397277Y-10227424D02*
X3406801Y-10246472D01*
X3406801Y-10246472D02*
X3406801Y-10351234D01*
X3406801Y-10246472D02*
X3416324Y-10227424D01*
X3416324Y-10227424D02*
X3435372Y-10217900D01*
X3435372Y-10217900D02*
X3463943Y-10217900D01*
X3463943Y-10217900D02*
X3482991Y-10227424D01*
X3482991Y-10227424D02*
X3492515Y-10246472D01*
X3492515Y-10246472D02*
X3492515Y-10351234D01*
X3882991Y-10141710D02*
X3711563Y-10398853D01*
X4140134Y-10151234D02*
X4159182Y-10151234D01*
X4159182Y-10151234D02*
X4178229Y-10160758D01*
X4178229Y-10160758D02*
X4187753Y-10170281D01*
X4187753Y-10170281D02*
X4197277Y-10189329D01*
X4197277Y-10189329D02*
X4206801Y-10227424D01*
X4206801Y-10227424D02*
X4206801Y-10275043D01*
X4206801Y-10275043D02*
X4197277Y-10313139D01*
X4197277Y-10313139D02*
X4187753Y-10332186D01*
X4187753Y-10332186D02*
X4178229Y-10341710D01*
X4178229Y-10341710D02*
X4159182Y-10351234D01*
X4159182Y-10351234D02*
X4140134Y-10351234D01*
X4140134Y-10351234D02*
X4121086Y-10341710D01*
X4121086Y-10341710D02*
X4111563Y-10332186D01*
X4111563Y-10332186D02*
X4102039Y-10313139D01*
X4102039Y-10313139D02*
X4092515Y-10275043D01*
X4092515Y-10275043D02*
X4092515Y-10227424D01*
X4092515Y-10227424D02*
X4102039Y-10189329D01*
X4102039Y-10189329D02*
X4111563Y-10170281D01*
X4111563Y-10170281D02*
X4121086Y-10160758D01*
X4121086Y-10160758D02*
X4140134Y-10151234D01*
X4292515Y-10332186D02*
X4302039Y-10341710D01*
X4302039Y-10341710D02*
X4292515Y-10351234D01*
X4292515Y-10351234D02*
X4282991Y-10341710D01*
X4282991Y-10341710D02*
X4292515Y-10332186D01*
X4292515Y-10332186D02*
X4292515Y-10351234D01*
X4425848Y-10151234D02*
X4444896Y-10151234D01*
X4444896Y-10151234D02*
X4463944Y-10160758D01*
X4463944Y-10160758D02*
X4473468Y-10170281D01*
X4473468Y-10170281D02*
X4482991Y-10189329D01*
X4482991Y-10189329D02*
X4492515Y-10227424D01*
X4492515Y-10227424D02*
X4492515Y-10275043D01*
X4492515Y-10275043D02*
X4482991Y-10313139D01*
X4482991Y-10313139D02*
X4473468Y-10332186D01*
X4473468Y-10332186D02*
X4463944Y-10341710D01*
X4463944Y-10341710D02*
X4444896Y-10351234D01*
X4444896Y-10351234D02*
X4425848Y-10351234D01*
X4425848Y-10351234D02*
X4406801Y-10341710D01*
X4406801Y-10341710D02*
X4397277Y-10332186D01*
X4397277Y-10332186D02*
X4387753Y-10313139D01*
X4387753Y-10313139D02*
X4378229Y-10275043D01*
X4378229Y-10275043D02*
X4378229Y-10227424D01*
X4378229Y-10227424D02*
X4387753Y-10189329D01*
X4387753Y-10189329D02*
X4397277Y-10170281D01*
X4397277Y-10170281D02*
X4406801Y-10160758D01*
X4406801Y-10160758D02*
X4425848Y-10151234D01*
X4663944Y-10151234D02*
X4625848Y-10151234D01*
X4625848Y-10151234D02*
X4606801Y-10160758D01*
X4606801Y-10160758D02*
X4597277Y-10170281D01*
X4597277Y-10170281D02*
X4578229Y-10198853D01*
X4578229Y-10198853D02*
X4568706Y-10236948D01*
X4568706Y-10236948D02*
X4568706Y-10313139D01*
X4568706Y-10313139D02*
X4578229Y-10332186D01*
X4578229Y-10332186D02*
X4587753Y-10341710D01*
X4587753Y-10341710D02*
X4606801Y-10351234D01*
X4606801Y-10351234D02*
X4644896Y-10351234D01*
X4644896Y-10351234D02*
X4663944Y-10341710D01*
X4663944Y-10341710D02*
X4673468Y-10332186D01*
X4673468Y-10332186D02*
X4682991Y-10313139D01*
X4682991Y-10313139D02*
X4682991Y-10265520D01*
X4682991Y-10265520D02*
X4673468Y-10246472D01*
X4673468Y-10246472D02*
X4663944Y-10236948D01*
X4663944Y-10236948D02*
X4644896Y-10227424D01*
X4644896Y-10227424D02*
X4606801Y-10227424D01*
X4606801Y-10227424D02*
X4587753Y-10236948D01*
X4587753Y-10236948D02*
X4578229Y-10246472D01*
X4578229Y-10246472D02*
X4568706Y-10265520D01*
X4749658Y-10151234D02*
X4873468Y-10151234D01*
X4873468Y-10151234D02*
X4806801Y-10227424D01*
X4806801Y-10227424D02*
X4835372Y-10227424D01*
X4835372Y-10227424D02*
X4854420Y-10236948D01*
X4854420Y-10236948D02*
X4863944Y-10246472D01*
X4863944Y-10246472D02*
X4873468Y-10265520D01*
X4873468Y-10265520D02*
X4873468Y-10313139D01*
X4873468Y-10313139D02*
X4863944Y-10332186D01*
X4863944Y-10332186D02*
X4854420Y-10341710D01*
X4854420Y-10341710D02*
X4835372Y-10351234D01*
X4835372Y-10351234D02*
X4778229Y-10351234D01*
X4778229Y-10351234D02*
X4759182Y-10341710D01*
X4759182Y-10341710D02*
X4749658Y-10332186D01*
X4997277Y-10151234D02*
X5016325Y-10151234D01*
X5016325Y-10151234D02*
X5035372Y-10160758D01*
X5035372Y-10160758D02*
X5044896Y-10170281D01*
X5044896Y-10170281D02*
X5054420Y-10189329D01*
X5054420Y-10189329D02*
X5063944Y-10227424D01*
X5063944Y-10227424D02*
X5063944Y-10275043D01*
X5063944Y-10275043D02*
X5054420Y-10313139D01*
X5054420Y-10313139D02*
X5044896Y-10332186D01*
X5044896Y-10332186D02*
X5035372Y-10341710D01*
X5035372Y-10341710D02*
X5016325Y-10351234D01*
X5016325Y-10351234D02*
X4997277Y-10351234D01*
X4997277Y-10351234D02*
X4978229Y-10341710D01*
X4978229Y-10341710D02*
X4968706Y-10332186D01*
X4968706Y-10332186D02*
X4959182Y-10313139D01*
X4959182Y-10313139D02*
X4949658Y-10275043D01*
X4949658Y-10275043D02*
X4949658Y-10227424D01*
X4949658Y-10227424D02*
X4959182Y-10189329D01*
X4959182Y-10189329D02*
X4968706Y-10170281D01*
X4968706Y-10170281D02*
X4978229Y-10160758D01*
X4978229Y-10160758D02*
X4997277Y-10151234D01*
X5140134Y-10151234D02*
X5140134Y-10189329D01*
X5216325Y-10151234D02*
X5216325Y-10189329D01*
X5511563Y-10427424D02*
X5502039Y-10417900D01*
X5502039Y-10417900D02*
X5482991Y-10389329D01*
X5482991Y-10389329D02*
X5473468Y-10370281D01*
X5473468Y-10370281D02*
X5463944Y-10341710D01*
X5463944Y-10341710D02*
X5454420Y-10294091D01*
X5454420Y-10294091D02*
X5454420Y-10255996D01*
X5454420Y-10255996D02*
X5463944Y-10208377D01*
X5463944Y-10208377D02*
X5473468Y-10179805D01*
X5473468Y-10179805D02*
X5482991Y-10160758D01*
X5482991Y-10160758D02*
X5502039Y-10132186D01*
X5502039Y-10132186D02*
X5511563Y-10122662D01*
X5692515Y-10351234D02*
X5578230Y-10351234D01*
X5635372Y-10351234D02*
X5635372Y-10151234D01*
X5635372Y-10151234D02*
X5616325Y-10179805D01*
X5616325Y-10179805D02*
X5597277Y-10198853D01*
X5597277Y-10198853D02*
X5578230Y-10208377D01*
X5930610Y-10351234D02*
X5930610Y-10151234D01*
X6016325Y-10351234D02*
X6016325Y-10246472D01*
X6016325Y-10246472D02*
X6006801Y-10227424D01*
X6006801Y-10227424D02*
X5987753Y-10217900D01*
X5987753Y-10217900D02*
X5959182Y-10217900D01*
X5959182Y-10217900D02*
X5940134Y-10227424D01*
X5940134Y-10227424D02*
X5930610Y-10236948D01*
X6140134Y-10351234D02*
X6121087Y-10341710D01*
X6121087Y-10341710D02*
X6111563Y-10332186D01*
X6111563Y-10332186D02*
X6102039Y-10313139D01*
X6102039Y-10313139D02*
X6102039Y-10255996D01*
X6102039Y-10255996D02*
X6111563Y-10236948D01*
X6111563Y-10236948D02*
X6121087Y-10227424D01*
X6121087Y-10227424D02*
X6140134Y-10217900D01*
X6140134Y-10217900D02*
X6168706Y-10217900D01*
X6168706Y-10217900D02*
X6187753Y-10227424D01*
X6187753Y-10227424D02*
X6197277Y-10236948D01*
X6197277Y-10236948D02*
X6206801Y-10255996D01*
X6206801Y-10255996D02*
X6206801Y-10313139D01*
X6206801Y-10313139D02*
X6197277Y-10332186D01*
X6197277Y-10332186D02*
X6187753Y-10341710D01*
X6187753Y-10341710D02*
X6168706Y-10351234D01*
X6168706Y-10351234D02*
X6140134Y-10351234D01*
X6321087Y-10351234D02*
X6302039Y-10341710D01*
X6302039Y-10341710D02*
X6292515Y-10322662D01*
X6292515Y-10322662D02*
X6292515Y-10151234D01*
X6473468Y-10341710D02*
X6454420Y-10351234D01*
X6454420Y-10351234D02*
X6416325Y-10351234D01*
X6416325Y-10351234D02*
X6397277Y-10341710D01*
X6397277Y-10341710D02*
X6387753Y-10322662D01*
X6387753Y-10322662D02*
X6387753Y-10246472D01*
X6387753Y-10246472D02*
X6397277Y-10227424D01*
X6397277Y-10227424D02*
X6416325Y-10217900D01*
X6416325Y-10217900D02*
X6454420Y-10217900D01*
X6454420Y-10217900D02*
X6473468Y-10227424D01*
X6473468Y-10227424D02*
X6482991Y-10246472D01*
X6482991Y-10246472D02*
X6482991Y-10265520D01*
X6482991Y-10265520D02*
X6387753Y-10284567D01*
X6549658Y-10427424D02*
X6559182Y-10417900D01*
X6559182Y-10417900D02*
X6578230Y-10389329D01*
X6578230Y-10389329D02*
X6587753Y-10370281D01*
X6587753Y-10370281D02*
X6597277Y-10341710D01*
X6597277Y-10341710D02*
X6606801Y-10294091D01*
X6606801Y-10294091D02*
X6606801Y-10255996D01*
X6606801Y-10255996D02*
X6597277Y-10208377D01*
X6597277Y-10208377D02*
X6587753Y-10179805D01*
X6587753Y-10179805D02*
X6578230Y-10160758D01*
X6578230Y-10160758D02*
X6559182Y-10132186D01*
X6559182Y-10132186D02*
X6549658Y-10122662D01*
X1736500Y-10439750D02*
X1936500Y-10639750D01*
X1936500Y-10439750D02*
X1736500Y-10639750D01*
X1836500Y-10639750D02*
X1936500Y-10539750D01*
X1836500Y-10439750D01*
X1736500Y-10539750D01*
X1836500Y-10639750D01*
X2187753Y-10450281D02*
X2197277Y-10440758D01*
X2197277Y-10440758D02*
X2216324Y-10431234D01*
X2216324Y-10431234D02*
X2263944Y-10431234D01*
X2263944Y-10431234D02*
X2282991Y-10440758D01*
X2282991Y-10440758D02*
X2292515Y-10450281D01*
X2292515Y-10450281D02*
X2302039Y-10469329D01*
X2302039Y-10469329D02*
X2302039Y-10488377D01*
X2302039Y-10488377D02*
X2292515Y-10516948D01*
X2292515Y-10516948D02*
X2178229Y-10631234D01*
X2178229Y-10631234D02*
X2302039Y-10631234D01*
X2387753Y-10612186D02*
X2397277Y-10621710D01*
X2397277Y-10621710D02*
X2387753Y-10631234D01*
X2387753Y-10631234D02*
X2378229Y-10621710D01*
X2378229Y-10621710D02*
X2387753Y-10612186D01*
X2387753Y-10612186D02*
X2387753Y-10631234D01*
X2473467Y-10450281D02*
X2482991Y-10440758D01*
X2482991Y-10440758D02*
X2502039Y-10431234D01*
X2502039Y-10431234D02*
X2549658Y-10431234D01*
X2549658Y-10431234D02*
X2568705Y-10440758D01*
X2568705Y-10440758D02*
X2578229Y-10450281D01*
X2578229Y-10450281D02*
X2587753Y-10469329D01*
X2587753Y-10469329D02*
X2587753Y-10488377D01*
X2587753Y-10488377D02*
X2578229Y-10516948D01*
X2578229Y-10516948D02*
X2463944Y-10631234D01*
X2463944Y-10631234D02*
X2587753Y-10631234D01*
X2711563Y-10431234D02*
X2730610Y-10431234D01*
X2730610Y-10431234D02*
X2749658Y-10440758D01*
X2749658Y-10440758D02*
X2759182Y-10450281D01*
X2759182Y-10450281D02*
X2768705Y-10469329D01*
X2768705Y-10469329D02*
X2778229Y-10507424D01*
X2778229Y-10507424D02*
X2778229Y-10555043D01*
X2778229Y-10555043D02*
X2768705Y-10593139D01*
X2768705Y-10593139D02*
X2759182Y-10612186D01*
X2759182Y-10612186D02*
X2749658Y-10621710D01*
X2749658Y-10621710D02*
X2730610Y-10631234D01*
X2730610Y-10631234D02*
X2711563Y-10631234D01*
X2711563Y-10631234D02*
X2692515Y-10621710D01*
X2692515Y-10621710D02*
X2682991Y-10612186D01*
X2682991Y-10612186D02*
X2673467Y-10593139D01*
X2673467Y-10593139D02*
X2663944Y-10555043D01*
X2663944Y-10555043D02*
X2663944Y-10507424D01*
X2663944Y-10507424D02*
X2673467Y-10469329D01*
X2673467Y-10469329D02*
X2682991Y-10450281D01*
X2682991Y-10450281D02*
X2692515Y-10440758D01*
X2692515Y-10440758D02*
X2711563Y-10431234D01*
X2902039Y-10431234D02*
X2921086Y-10431234D01*
X2921086Y-10431234D02*
X2940134Y-10440758D01*
X2940134Y-10440758D02*
X2949658Y-10450281D01*
X2949658Y-10450281D02*
X2959182Y-10469329D01*
X2959182Y-10469329D02*
X2968705Y-10507424D01*
X2968705Y-10507424D02*
X2968705Y-10555043D01*
X2968705Y-10555043D02*
X2959182Y-10593139D01*
X2959182Y-10593139D02*
X2949658Y-10612186D01*
X2949658Y-10612186D02*
X2940134Y-10621710D01*
X2940134Y-10621710D02*
X2921086Y-10631234D01*
X2921086Y-10631234D02*
X2902039Y-10631234D01*
X2902039Y-10631234D02*
X2882991Y-10621710D01*
X2882991Y-10621710D02*
X2873467Y-10612186D01*
X2873467Y-10612186D02*
X2863943Y-10593139D01*
X2863943Y-10593139D02*
X2854420Y-10555043D01*
X2854420Y-10555043D02*
X2854420Y-10507424D01*
X2854420Y-10507424D02*
X2863943Y-10469329D01*
X2863943Y-10469329D02*
X2873467Y-10450281D01*
X2873467Y-10450281D02*
X2882991Y-10440758D01*
X2882991Y-10440758D02*
X2902039Y-10431234D01*
X3054420Y-10631234D02*
X3054420Y-10497900D01*
X3054420Y-10516948D02*
X3063943Y-10507424D01*
X3063943Y-10507424D02*
X3082991Y-10497900D01*
X3082991Y-10497900D02*
X3111563Y-10497900D01*
X3111563Y-10497900D02*
X3130610Y-10507424D01*
X3130610Y-10507424D02*
X3140134Y-10526472D01*
X3140134Y-10526472D02*
X3140134Y-10631234D01*
X3140134Y-10526472D02*
X3149658Y-10507424D01*
X3149658Y-10507424D02*
X3168705Y-10497900D01*
X3168705Y-10497900D02*
X3197277Y-10497900D01*
X3197277Y-10497900D02*
X3216324Y-10507424D01*
X3216324Y-10507424D02*
X3225848Y-10526472D01*
X3225848Y-10526472D02*
X3225848Y-10631234D01*
X3321086Y-10631234D02*
X3321086Y-10497900D01*
X3321086Y-10516948D02*
X3330610Y-10507424D01*
X3330610Y-10507424D02*
X3349658Y-10497900D01*
X3349658Y-10497900D02*
X3378229Y-10497900D01*
X3378229Y-10497900D02*
X3397277Y-10507424D01*
X3397277Y-10507424D02*
X3406801Y-10526472D01*
X3406801Y-10526472D02*
X3406801Y-10631234D01*
X3406801Y-10526472D02*
X3416324Y-10507424D01*
X3416324Y-10507424D02*
X3435372Y-10497900D01*
X3435372Y-10497900D02*
X3463943Y-10497900D01*
X3463943Y-10497900D02*
X3482991Y-10507424D01*
X3482991Y-10507424D02*
X3492515Y-10526472D01*
X3492515Y-10526472D02*
X3492515Y-10631234D01*
X3882991Y-10421710D02*
X3711563Y-10678853D01*
X4140134Y-10431234D02*
X4159182Y-10431234D01*
X4159182Y-10431234D02*
X4178229Y-10440758D01*
X4178229Y-10440758D02*
X4187753Y-10450281D01*
X4187753Y-10450281D02*
X4197277Y-10469329D01*
X4197277Y-10469329D02*
X4206801Y-10507424D01*
X4206801Y-10507424D02*
X4206801Y-10555043D01*
X4206801Y-10555043D02*
X4197277Y-10593139D01*
X4197277Y-10593139D02*
X4187753Y-10612186D01*
X4187753Y-10612186D02*
X4178229Y-10621710D01*
X4178229Y-10621710D02*
X4159182Y-10631234D01*
X4159182Y-10631234D02*
X4140134Y-10631234D01*
X4140134Y-10631234D02*
X4121086Y-10621710D01*
X4121086Y-10621710D02*
X4111563Y-10612186D01*
X4111563Y-10612186D02*
X4102039Y-10593139D01*
X4102039Y-10593139D02*
X4092515Y-10555043D01*
X4092515Y-10555043D02*
X4092515Y-10507424D01*
X4092515Y-10507424D02*
X4102039Y-10469329D01*
X4102039Y-10469329D02*
X4111563Y-10450281D01*
X4111563Y-10450281D02*
X4121086Y-10440758D01*
X4121086Y-10440758D02*
X4140134Y-10431234D01*
X4292515Y-10612186D02*
X4302039Y-10621710D01*
X4302039Y-10621710D02*
X4292515Y-10631234D01*
X4292515Y-10631234D02*
X4282991Y-10621710D01*
X4282991Y-10621710D02*
X4292515Y-10612186D01*
X4292515Y-10612186D02*
X4292515Y-10631234D01*
X4425848Y-10431234D02*
X4444896Y-10431234D01*
X4444896Y-10431234D02*
X4463944Y-10440758D01*
X4463944Y-10440758D02*
X4473468Y-10450281D01*
X4473468Y-10450281D02*
X4482991Y-10469329D01*
X4482991Y-10469329D02*
X4492515Y-10507424D01*
X4492515Y-10507424D02*
X4492515Y-10555043D01*
X4492515Y-10555043D02*
X4482991Y-10593139D01*
X4482991Y-10593139D02*
X4473468Y-10612186D01*
X4473468Y-10612186D02*
X4463944Y-10621710D01*
X4463944Y-10621710D02*
X4444896Y-10631234D01*
X4444896Y-10631234D02*
X4425848Y-10631234D01*
X4425848Y-10631234D02*
X4406801Y-10621710D01*
X4406801Y-10621710D02*
X4397277Y-10612186D01*
X4397277Y-10612186D02*
X4387753Y-10593139D01*
X4387753Y-10593139D02*
X4378229Y-10555043D01*
X4378229Y-10555043D02*
X4378229Y-10507424D01*
X4378229Y-10507424D02*
X4387753Y-10469329D01*
X4387753Y-10469329D02*
X4397277Y-10450281D01*
X4397277Y-10450281D02*
X4406801Y-10440758D01*
X4406801Y-10440758D02*
X4425848Y-10431234D01*
X4606801Y-10516948D02*
X4587753Y-10507424D01*
X4587753Y-10507424D02*
X4578229Y-10497900D01*
X4578229Y-10497900D02*
X4568706Y-10478853D01*
X4568706Y-10478853D02*
X4568706Y-10469329D01*
X4568706Y-10469329D02*
X4578229Y-10450281D01*
X4578229Y-10450281D02*
X4587753Y-10440758D01*
X4587753Y-10440758D02*
X4606801Y-10431234D01*
X4606801Y-10431234D02*
X4644896Y-10431234D01*
X4644896Y-10431234D02*
X4663944Y-10440758D01*
X4663944Y-10440758D02*
X4673468Y-10450281D01*
X4673468Y-10450281D02*
X4682991Y-10469329D01*
X4682991Y-10469329D02*
X4682991Y-10478853D01*
X4682991Y-10478853D02*
X4673468Y-10497900D01*
X4673468Y-10497900D02*
X4663944Y-10507424D01*
X4663944Y-10507424D02*
X4644896Y-10516948D01*
X4644896Y-10516948D02*
X4606801Y-10516948D01*
X4606801Y-10516948D02*
X4587753Y-10526472D01*
X4587753Y-10526472D02*
X4578229Y-10535996D01*
X4578229Y-10535996D02*
X4568706Y-10555043D01*
X4568706Y-10555043D02*
X4568706Y-10593139D01*
X4568706Y-10593139D02*
X4578229Y-10612186D01*
X4578229Y-10612186D02*
X4587753Y-10621710D01*
X4587753Y-10621710D02*
X4606801Y-10631234D01*
X4606801Y-10631234D02*
X4644896Y-10631234D01*
X4644896Y-10631234D02*
X4663944Y-10621710D01*
X4663944Y-10621710D02*
X4673468Y-10612186D01*
X4673468Y-10612186D02*
X4682991Y-10593139D01*
X4682991Y-10593139D02*
X4682991Y-10555043D01*
X4682991Y-10555043D02*
X4673468Y-10535996D01*
X4673468Y-10535996D02*
X4663944Y-10526472D01*
X4663944Y-10526472D02*
X4644896Y-10516948D01*
X4854420Y-10431234D02*
X4816325Y-10431234D01*
X4816325Y-10431234D02*
X4797277Y-10440758D01*
X4797277Y-10440758D02*
X4787753Y-10450281D01*
X4787753Y-10450281D02*
X4768706Y-10478853D01*
X4768706Y-10478853D02*
X4759182Y-10516948D01*
X4759182Y-10516948D02*
X4759182Y-10593139D01*
X4759182Y-10593139D02*
X4768706Y-10612186D01*
X4768706Y-10612186D02*
X4778229Y-10621710D01*
X4778229Y-10621710D02*
X4797277Y-10631234D01*
X4797277Y-10631234D02*
X4835372Y-10631234D01*
X4835372Y-10631234D02*
X4854420Y-10621710D01*
X4854420Y-10621710D02*
X4863944Y-10612186D01*
X4863944Y-10612186D02*
X4873468Y-10593139D01*
X4873468Y-10593139D02*
X4873468Y-10545520D01*
X4873468Y-10545520D02*
X4863944Y-10526472D01*
X4863944Y-10526472D02*
X4854420Y-10516948D01*
X4854420Y-10516948D02*
X4835372Y-10507424D01*
X4835372Y-10507424D02*
X4797277Y-10507424D01*
X4797277Y-10507424D02*
X4778229Y-10516948D01*
X4778229Y-10516948D02*
X4768706Y-10526472D01*
X4768706Y-10526472D02*
X4759182Y-10545520D01*
X5044896Y-10431234D02*
X5006801Y-10431234D01*
X5006801Y-10431234D02*
X4987753Y-10440758D01*
X4987753Y-10440758D02*
X4978229Y-10450281D01*
X4978229Y-10450281D02*
X4959182Y-10478853D01*
X4959182Y-10478853D02*
X4949658Y-10516948D01*
X4949658Y-10516948D02*
X4949658Y-10593139D01*
X4949658Y-10593139D02*
X4959182Y-10612186D01*
X4959182Y-10612186D02*
X4968706Y-10621710D01*
X4968706Y-10621710D02*
X4987753Y-10631234D01*
X4987753Y-10631234D02*
X5025849Y-10631234D01*
X5025849Y-10631234D02*
X5044896Y-10621710D01*
X5044896Y-10621710D02*
X5054420Y-10612186D01*
X5054420Y-10612186D02*
X5063944Y-10593139D01*
X5063944Y-10593139D02*
X5063944Y-10545520D01*
X5063944Y-10545520D02*
X5054420Y-10526472D01*
X5054420Y-10526472D02*
X5044896Y-10516948D01*
X5044896Y-10516948D02*
X5025849Y-10507424D01*
X5025849Y-10507424D02*
X4987753Y-10507424D01*
X4987753Y-10507424D02*
X4968706Y-10516948D01*
X4968706Y-10516948D02*
X4959182Y-10526472D01*
X4959182Y-10526472D02*
X4949658Y-10545520D01*
X5140134Y-10431234D02*
X5140134Y-10469329D01*
X5216325Y-10431234D02*
X5216325Y-10469329D01*
X5511563Y-10707424D02*
X5502039Y-10697900D01*
X5502039Y-10697900D02*
X5482991Y-10669329D01*
X5482991Y-10669329D02*
X5473468Y-10650281D01*
X5473468Y-10650281D02*
X5463944Y-10621710D01*
X5463944Y-10621710D02*
X5454420Y-10574091D01*
X5454420Y-10574091D02*
X5454420Y-10535996D01*
X5454420Y-10535996D02*
X5463944Y-10488377D01*
X5463944Y-10488377D02*
X5473468Y-10459805D01*
X5473468Y-10459805D02*
X5482991Y-10440758D01*
X5482991Y-10440758D02*
X5502039Y-10412186D01*
X5502039Y-10412186D02*
X5511563Y-10402662D01*
X5692515Y-10631234D02*
X5578230Y-10631234D01*
X5635372Y-10631234D02*
X5635372Y-10431234D01*
X5635372Y-10431234D02*
X5616325Y-10459805D01*
X5616325Y-10459805D02*
X5597277Y-10478853D01*
X5597277Y-10478853D02*
X5578230Y-10488377D01*
X5930610Y-10631234D02*
X5930610Y-10431234D01*
X6016325Y-10631234D02*
X6016325Y-10526472D01*
X6016325Y-10526472D02*
X6006801Y-10507424D01*
X6006801Y-10507424D02*
X5987753Y-10497900D01*
X5987753Y-10497900D02*
X5959182Y-10497900D01*
X5959182Y-10497900D02*
X5940134Y-10507424D01*
X5940134Y-10507424D02*
X5930610Y-10516948D01*
X6140134Y-10631234D02*
X6121087Y-10621710D01*
X6121087Y-10621710D02*
X6111563Y-10612186D01*
X6111563Y-10612186D02*
X6102039Y-10593139D01*
X6102039Y-10593139D02*
X6102039Y-10535996D01*
X6102039Y-10535996D02*
X6111563Y-10516948D01*
X6111563Y-10516948D02*
X6121087Y-10507424D01*
X6121087Y-10507424D02*
X6140134Y-10497900D01*
X6140134Y-10497900D02*
X6168706Y-10497900D01*
X6168706Y-10497900D02*
X6187753Y-10507424D01*
X6187753Y-10507424D02*
X6197277Y-10516948D01*
X6197277Y-10516948D02*
X6206801Y-10535996D01*
X6206801Y-10535996D02*
X6206801Y-10593139D01*
X6206801Y-10593139D02*
X6197277Y-10612186D01*
X6197277Y-10612186D02*
X6187753Y-10621710D01*
X6187753Y-10621710D02*
X6168706Y-10631234D01*
X6168706Y-10631234D02*
X6140134Y-10631234D01*
X6321087Y-10631234D02*
X6302039Y-10621710D01*
X6302039Y-10621710D02*
X6292515Y-10602662D01*
X6292515Y-10602662D02*
X6292515Y-10431234D01*
X6473468Y-10621710D02*
X6454420Y-10631234D01*
X6454420Y-10631234D02*
X6416325Y-10631234D01*
X6416325Y-10631234D02*
X6397277Y-10621710D01*
X6397277Y-10621710D02*
X6387753Y-10602662D01*
X6387753Y-10602662D02*
X6387753Y-10526472D01*
X6387753Y-10526472D02*
X6397277Y-10507424D01*
X6397277Y-10507424D02*
X6416325Y-10497900D01*
X6416325Y-10497900D02*
X6454420Y-10497900D01*
X6454420Y-10497900D02*
X6473468Y-10507424D01*
X6473468Y-10507424D02*
X6482991Y-10526472D01*
X6482991Y-10526472D02*
X6482991Y-10545520D01*
X6482991Y-10545520D02*
X6387753Y-10564567D01*
X6549658Y-10707424D02*
X6559182Y-10697900D01*
X6559182Y-10697900D02*
X6578230Y-10669329D01*
X6578230Y-10669329D02*
X6587753Y-10650281D01*
X6587753Y-10650281D02*
X6597277Y-10621710D01*
X6597277Y-10621710D02*
X6606801Y-10574091D01*
X6606801Y-10574091D02*
X6606801Y-10535996D01*
X6606801Y-10535996D02*
X6597277Y-10488377D01*
X6597277Y-10488377D02*
X6587753Y-10459805D01*
X6587753Y-10459805D02*
X6578230Y-10440758D01*
X6578230Y-10440758D02*
X6559182Y-10412186D01*
X6559182Y-10412186D02*
X6549658Y-10402662D01*
X1836500Y-10759750D02*
X1836500Y-10959750D01*
X1736500Y-10859750D02*
X1936500Y-10859750D01*
X1936500Y-10859750D02*
G75*
G02*
X1736500Y-10859750I-100000J0D01*
G01*
X1736500Y-10859750D02*
G75*
G02*
X1936500Y-10859750I100000J0D01*
G01*
X2187753Y-10770281D02*
X2197277Y-10760758D01*
X2197277Y-10760758D02*
X2216324Y-10751234D01*
X2216324Y-10751234D02*
X2263944Y-10751234D01*
X2263944Y-10751234D02*
X2282991Y-10760758D01*
X2282991Y-10760758D02*
X2292515Y-10770281D01*
X2292515Y-10770281D02*
X2302039Y-10789329D01*
X2302039Y-10789329D02*
X2302039Y-10808377D01*
X2302039Y-10808377D02*
X2292515Y-10836948D01*
X2292515Y-10836948D02*
X2178229Y-10951234D01*
X2178229Y-10951234D02*
X2302039Y-10951234D01*
X2387753Y-10932186D02*
X2397277Y-10941710D01*
X2397277Y-10941710D02*
X2387753Y-10951234D01*
X2387753Y-10951234D02*
X2378229Y-10941710D01*
X2378229Y-10941710D02*
X2387753Y-10932186D01*
X2387753Y-10932186D02*
X2387753Y-10951234D01*
X2511563Y-10836948D02*
X2492515Y-10827424D01*
X2492515Y-10827424D02*
X2482991Y-10817900D01*
X2482991Y-10817900D02*
X2473467Y-10798853D01*
X2473467Y-10798853D02*
X2473467Y-10789329D01*
X2473467Y-10789329D02*
X2482991Y-10770281D01*
X2482991Y-10770281D02*
X2492515Y-10760758D01*
X2492515Y-10760758D02*
X2511563Y-10751234D01*
X2511563Y-10751234D02*
X2549658Y-10751234D01*
X2549658Y-10751234D02*
X2568705Y-10760758D01*
X2568705Y-10760758D02*
X2578229Y-10770281D01*
X2578229Y-10770281D02*
X2587753Y-10789329D01*
X2587753Y-10789329D02*
X2587753Y-10798853D01*
X2587753Y-10798853D02*
X2578229Y-10817900D01*
X2578229Y-10817900D02*
X2568705Y-10827424D01*
X2568705Y-10827424D02*
X2549658Y-10836948D01*
X2549658Y-10836948D02*
X2511563Y-10836948D01*
X2511563Y-10836948D02*
X2492515Y-10846472D01*
X2492515Y-10846472D02*
X2482991Y-10855996D01*
X2482991Y-10855996D02*
X2473467Y-10875043D01*
X2473467Y-10875043D02*
X2473467Y-10913139D01*
X2473467Y-10913139D02*
X2482991Y-10932186D01*
X2482991Y-10932186D02*
X2492515Y-10941710D01*
X2492515Y-10941710D02*
X2511563Y-10951234D01*
X2511563Y-10951234D02*
X2549658Y-10951234D01*
X2549658Y-10951234D02*
X2568705Y-10941710D01*
X2568705Y-10941710D02*
X2578229Y-10932186D01*
X2578229Y-10932186D02*
X2587753Y-10913139D01*
X2587753Y-10913139D02*
X2587753Y-10875043D01*
X2587753Y-10875043D02*
X2578229Y-10855996D01*
X2578229Y-10855996D02*
X2568705Y-10846472D01*
X2568705Y-10846472D02*
X2549658Y-10836948D01*
X2711563Y-10751234D02*
X2730610Y-10751234D01*
X2730610Y-10751234D02*
X2749658Y-10760758D01*
X2749658Y-10760758D02*
X2759182Y-10770281D01*
X2759182Y-10770281D02*
X2768705Y-10789329D01*
X2768705Y-10789329D02*
X2778229Y-10827424D01*
X2778229Y-10827424D02*
X2778229Y-10875043D01*
X2778229Y-10875043D02*
X2768705Y-10913139D01*
X2768705Y-10913139D02*
X2759182Y-10932186D01*
X2759182Y-10932186D02*
X2749658Y-10941710D01*
X2749658Y-10941710D02*
X2730610Y-10951234D01*
X2730610Y-10951234D02*
X2711563Y-10951234D01*
X2711563Y-10951234D02*
X2692515Y-10941710D01*
X2692515Y-10941710D02*
X2682991Y-10932186D01*
X2682991Y-10932186D02*
X2673467Y-10913139D01*
X2673467Y-10913139D02*
X2663944Y-10875043D01*
X2663944Y-10875043D02*
X2663944Y-10827424D01*
X2663944Y-10827424D02*
X2673467Y-10789329D01*
X2673467Y-10789329D02*
X2682991Y-10770281D01*
X2682991Y-10770281D02*
X2692515Y-10760758D01*
X2692515Y-10760758D02*
X2711563Y-10751234D01*
X2902039Y-10751234D02*
X2921086Y-10751234D01*
X2921086Y-10751234D02*
X2940134Y-10760758D01*
X2940134Y-10760758D02*
X2949658Y-10770281D01*
X2949658Y-10770281D02*
X2959182Y-10789329D01*
X2959182Y-10789329D02*
X2968705Y-10827424D01*
X2968705Y-10827424D02*
X2968705Y-10875043D01*
X2968705Y-10875043D02*
X2959182Y-10913139D01*
X2959182Y-10913139D02*
X2949658Y-10932186D01*
X2949658Y-10932186D02*
X2940134Y-10941710D01*
X2940134Y-10941710D02*
X2921086Y-10951234D01*
X2921086Y-10951234D02*
X2902039Y-10951234D01*
X2902039Y-10951234D02*
X2882991Y-10941710D01*
X2882991Y-10941710D02*
X2873467Y-10932186D01*
X2873467Y-10932186D02*
X2863943Y-10913139D01*
X2863943Y-10913139D02*
X2854420Y-10875043D01*
X2854420Y-10875043D02*
X2854420Y-10827424D01*
X2854420Y-10827424D02*
X2863943Y-10789329D01*
X2863943Y-10789329D02*
X2873467Y-10770281D01*
X2873467Y-10770281D02*
X2882991Y-10760758D01*
X2882991Y-10760758D02*
X2902039Y-10751234D01*
X3054420Y-10951234D02*
X3054420Y-10817900D01*
X3054420Y-10836948D02*
X3063943Y-10827424D01*
X3063943Y-10827424D02*
X3082991Y-10817900D01*
X3082991Y-10817900D02*
X3111563Y-10817900D01*
X3111563Y-10817900D02*
X3130610Y-10827424D01*
X3130610Y-10827424D02*
X3140134Y-10846472D01*
X3140134Y-10846472D02*
X3140134Y-10951234D01*
X3140134Y-10846472D02*
X3149658Y-10827424D01*
X3149658Y-10827424D02*
X3168705Y-10817900D01*
X3168705Y-10817900D02*
X3197277Y-10817900D01*
X3197277Y-10817900D02*
X3216324Y-10827424D01*
X3216324Y-10827424D02*
X3225848Y-10846472D01*
X3225848Y-10846472D02*
X3225848Y-10951234D01*
X3321086Y-10951234D02*
X3321086Y-10817900D01*
X3321086Y-10836948D02*
X3330610Y-10827424D01*
X3330610Y-10827424D02*
X3349658Y-10817900D01*
X3349658Y-10817900D02*
X3378229Y-10817900D01*
X3378229Y-10817900D02*
X3397277Y-10827424D01*
X3397277Y-10827424D02*
X3406801Y-10846472D01*
X3406801Y-10846472D02*
X3406801Y-10951234D01*
X3406801Y-10846472D02*
X3416324Y-10827424D01*
X3416324Y-10827424D02*
X3435372Y-10817900D01*
X3435372Y-10817900D02*
X3463943Y-10817900D01*
X3463943Y-10817900D02*
X3482991Y-10827424D01*
X3482991Y-10827424D02*
X3492515Y-10846472D01*
X3492515Y-10846472D02*
X3492515Y-10951234D01*
X3882991Y-10741710D02*
X3711563Y-10998853D01*
X4140134Y-10751234D02*
X4159182Y-10751234D01*
X4159182Y-10751234D02*
X4178229Y-10760758D01*
X4178229Y-10760758D02*
X4187753Y-10770281D01*
X4187753Y-10770281D02*
X4197277Y-10789329D01*
X4197277Y-10789329D02*
X4206801Y-10827424D01*
X4206801Y-10827424D02*
X4206801Y-10875043D01*
X4206801Y-10875043D02*
X4197277Y-10913139D01*
X4197277Y-10913139D02*
X4187753Y-10932186D01*
X4187753Y-10932186D02*
X4178229Y-10941710D01*
X4178229Y-10941710D02*
X4159182Y-10951234D01*
X4159182Y-10951234D02*
X4140134Y-10951234D01*
X4140134Y-10951234D02*
X4121086Y-10941710D01*
X4121086Y-10941710D02*
X4111563Y-10932186D01*
X4111563Y-10932186D02*
X4102039Y-10913139D01*
X4102039Y-10913139D02*
X4092515Y-10875043D01*
X4092515Y-10875043D02*
X4092515Y-10827424D01*
X4092515Y-10827424D02*
X4102039Y-10789329D01*
X4102039Y-10789329D02*
X4111563Y-10770281D01*
X4111563Y-10770281D02*
X4121086Y-10760758D01*
X4121086Y-10760758D02*
X4140134Y-10751234D01*
X4292515Y-10932186D02*
X4302039Y-10941710D01*
X4302039Y-10941710D02*
X4292515Y-10951234D01*
X4292515Y-10951234D02*
X4282991Y-10941710D01*
X4282991Y-10941710D02*
X4292515Y-10932186D01*
X4292515Y-10932186D02*
X4292515Y-10951234D01*
X4492515Y-10951234D02*
X4378229Y-10951234D01*
X4435372Y-10951234D02*
X4435372Y-10751234D01*
X4435372Y-10751234D02*
X4416325Y-10779805D01*
X4416325Y-10779805D02*
X4397277Y-10798853D01*
X4397277Y-10798853D02*
X4378229Y-10808377D01*
X4682991Y-10951234D02*
X4568706Y-10951234D01*
X4625848Y-10951234D02*
X4625848Y-10751234D01*
X4625848Y-10751234D02*
X4606801Y-10779805D01*
X4606801Y-10779805D02*
X4587753Y-10798853D01*
X4587753Y-10798853D02*
X4568706Y-10808377D01*
X4806801Y-10751234D02*
X4825849Y-10751234D01*
X4825849Y-10751234D02*
X4844896Y-10760758D01*
X4844896Y-10760758D02*
X4854420Y-10770281D01*
X4854420Y-10770281D02*
X4863944Y-10789329D01*
X4863944Y-10789329D02*
X4873468Y-10827424D01*
X4873468Y-10827424D02*
X4873468Y-10875043D01*
X4873468Y-10875043D02*
X4863944Y-10913139D01*
X4863944Y-10913139D02*
X4854420Y-10932186D01*
X4854420Y-10932186D02*
X4844896Y-10941710D01*
X4844896Y-10941710D02*
X4825849Y-10951234D01*
X4825849Y-10951234D02*
X4806801Y-10951234D01*
X4806801Y-10951234D02*
X4787753Y-10941710D01*
X4787753Y-10941710D02*
X4778229Y-10932186D01*
X4778229Y-10932186D02*
X4768706Y-10913139D01*
X4768706Y-10913139D02*
X4759182Y-10875043D01*
X4759182Y-10875043D02*
X4759182Y-10827424D01*
X4759182Y-10827424D02*
X4768706Y-10789329D01*
X4768706Y-10789329D02*
X4778229Y-10770281D01*
X4778229Y-10770281D02*
X4787753Y-10760758D01*
X4787753Y-10760758D02*
X4806801Y-10751234D01*
X4949658Y-10770281D02*
X4959182Y-10760758D01*
X4959182Y-10760758D02*
X4978229Y-10751234D01*
X4978229Y-10751234D02*
X5025849Y-10751234D01*
X5025849Y-10751234D02*
X5044896Y-10760758D01*
X5044896Y-10760758D02*
X5054420Y-10770281D01*
X5054420Y-10770281D02*
X5063944Y-10789329D01*
X5063944Y-10789329D02*
X5063944Y-10808377D01*
X5063944Y-10808377D02*
X5054420Y-10836948D01*
X5054420Y-10836948D02*
X4940134Y-10951234D01*
X4940134Y-10951234D02*
X5063944Y-10951234D01*
X5140134Y-10751234D02*
X5140134Y-10789329D01*
X5216325Y-10751234D02*
X5216325Y-10789329D01*
X5511563Y-11027424D02*
X5502039Y-11017900D01*
X5502039Y-11017900D02*
X5482991Y-10989329D01*
X5482991Y-10989329D02*
X5473468Y-10970281D01*
X5473468Y-10970281D02*
X5463944Y-10941710D01*
X5463944Y-10941710D02*
X5454420Y-10894091D01*
X5454420Y-10894091D02*
X5454420Y-10855996D01*
X5454420Y-10855996D02*
X5463944Y-10808377D01*
X5463944Y-10808377D02*
X5473468Y-10779805D01*
X5473468Y-10779805D02*
X5482991Y-10760758D01*
X5482991Y-10760758D02*
X5502039Y-10732186D01*
X5502039Y-10732186D02*
X5511563Y-10722662D01*
X5692515Y-10951234D02*
X5578230Y-10951234D01*
X5635372Y-10951234D02*
X5635372Y-10751234D01*
X5635372Y-10751234D02*
X5616325Y-10779805D01*
X5616325Y-10779805D02*
X5597277Y-10798853D01*
X5597277Y-10798853D02*
X5578230Y-10808377D01*
X5930610Y-10951234D02*
X5930610Y-10751234D01*
X6016325Y-10951234D02*
X6016325Y-10846472D01*
X6016325Y-10846472D02*
X6006801Y-10827424D01*
X6006801Y-10827424D02*
X5987753Y-10817900D01*
X5987753Y-10817900D02*
X5959182Y-10817900D01*
X5959182Y-10817900D02*
X5940134Y-10827424D01*
X5940134Y-10827424D02*
X5930610Y-10836948D01*
X6140134Y-10951234D02*
X6121087Y-10941710D01*
X6121087Y-10941710D02*
X6111563Y-10932186D01*
X6111563Y-10932186D02*
X6102039Y-10913139D01*
X6102039Y-10913139D02*
X6102039Y-10855996D01*
X6102039Y-10855996D02*
X6111563Y-10836948D01*
X6111563Y-10836948D02*
X6121087Y-10827424D01*
X6121087Y-10827424D02*
X6140134Y-10817900D01*
X6140134Y-10817900D02*
X6168706Y-10817900D01*
X6168706Y-10817900D02*
X6187753Y-10827424D01*
X6187753Y-10827424D02*
X6197277Y-10836948D01*
X6197277Y-10836948D02*
X6206801Y-10855996D01*
X6206801Y-10855996D02*
X6206801Y-10913139D01*
X6206801Y-10913139D02*
X6197277Y-10932186D01*
X6197277Y-10932186D02*
X6187753Y-10941710D01*
X6187753Y-10941710D02*
X6168706Y-10951234D01*
X6168706Y-10951234D02*
X6140134Y-10951234D01*
X6321087Y-10951234D02*
X6302039Y-10941710D01*
X6302039Y-10941710D02*
X6292515Y-10922662D01*
X6292515Y-10922662D02*
X6292515Y-10751234D01*
X6473468Y-10941710D02*
X6454420Y-10951234D01*
X6454420Y-10951234D02*
X6416325Y-10951234D01*
X6416325Y-10951234D02*
X6397277Y-10941710D01*
X6397277Y-10941710D02*
X6387753Y-10922662D01*
X6387753Y-10922662D02*
X6387753Y-10846472D01*
X6387753Y-10846472D02*
X6397277Y-10827424D01*
X6397277Y-10827424D02*
X6416325Y-10817900D01*
X6416325Y-10817900D02*
X6454420Y-10817900D01*
X6454420Y-10817900D02*
X6473468Y-10827424D01*
X6473468Y-10827424D02*
X6482991Y-10846472D01*
X6482991Y-10846472D02*
X6482991Y-10865520D01*
X6482991Y-10865520D02*
X6387753Y-10884567D01*
X6549658Y-11027424D02*
X6559182Y-11017900D01*
X6559182Y-11017900D02*
X6578230Y-10989329D01*
X6578230Y-10989329D02*
X6587753Y-10970281D01*
X6587753Y-10970281D02*
X6597277Y-10941710D01*
X6597277Y-10941710D02*
X6606801Y-10894091D01*
X6606801Y-10894091D02*
X6606801Y-10855996D01*
X6606801Y-10855996D02*
X6597277Y-10808377D01*
X6597277Y-10808377D02*
X6587753Y-10779805D01*
X6587753Y-10779805D02*
X6578230Y-10760758D01*
X6578230Y-10760758D02*
X6559182Y-10732186D01*
X6559182Y-10732186D02*
X6549658Y-10722662D01*
X1907211Y-11250461D02*
X1907211Y-11109039D01*
X1765789Y-11109039D01*
X1765789Y-11250461D01*
X1907211Y-11250461D01*
X1936500Y-11179750D02*
G75*
G02*
X1736500Y-11179750I-100000J0D01*
G01*
X1736500Y-11179750D02*
G75*
G02*
X1936500Y-11179750I100000J0D01*
G01*
X2178229Y-11071234D02*
X2302039Y-11071234D01*
X2302039Y-11071234D02*
X2235372Y-11147424D01*
X2235372Y-11147424D02*
X2263944Y-11147424D01*
X2263944Y-11147424D02*
X2282991Y-11156948D01*
X2282991Y-11156948D02*
X2292515Y-11166472D01*
X2292515Y-11166472D02*
X2302039Y-11185519D01*
X2302039Y-11185519D02*
X2302039Y-11233138D01*
X2302039Y-11233138D02*
X2292515Y-11252186D01*
X2292515Y-11252186D02*
X2282991Y-11261710D01*
X2282991Y-11261710D02*
X2263944Y-11271234D01*
X2263944Y-11271234D02*
X2206801Y-11271234D01*
X2206801Y-11271234D02*
X2187753Y-11261710D01*
X2187753Y-11261710D02*
X2178229Y-11252186D01*
X2387753Y-11252186D02*
X2397277Y-11261710D01*
X2397277Y-11261710D02*
X2387753Y-11271234D01*
X2387753Y-11271234D02*
X2378229Y-11261710D01*
X2378229Y-11261710D02*
X2387753Y-11252186D01*
X2387753Y-11252186D02*
X2387753Y-11271234D01*
X2473467Y-11090281D02*
X2482991Y-11080758D01*
X2482991Y-11080758D02*
X2502039Y-11071234D01*
X2502039Y-11071234D02*
X2549658Y-11071234D01*
X2549658Y-11071234D02*
X2568705Y-11080758D01*
X2568705Y-11080758D02*
X2578229Y-11090281D01*
X2578229Y-11090281D02*
X2587753Y-11109329D01*
X2587753Y-11109329D02*
X2587753Y-11128377D01*
X2587753Y-11128377D02*
X2578229Y-11156948D01*
X2578229Y-11156948D02*
X2463944Y-11271234D01*
X2463944Y-11271234D02*
X2587753Y-11271234D01*
X2711563Y-11071234D02*
X2730610Y-11071234D01*
X2730610Y-11071234D02*
X2749658Y-11080758D01*
X2749658Y-11080758D02*
X2759182Y-11090281D01*
X2759182Y-11090281D02*
X2768705Y-11109329D01*
X2768705Y-11109329D02*
X2778229Y-11147424D01*
X2778229Y-11147424D02*
X2778229Y-11195043D01*
X2778229Y-11195043D02*
X2768705Y-11233138D01*
X2768705Y-11233138D02*
X2759182Y-11252186D01*
X2759182Y-11252186D02*
X2749658Y-11261710D01*
X2749658Y-11261710D02*
X2730610Y-11271234D01*
X2730610Y-11271234D02*
X2711563Y-11271234D01*
X2711563Y-11271234D02*
X2692515Y-11261710D01*
X2692515Y-11261710D02*
X2682991Y-11252186D01*
X2682991Y-11252186D02*
X2673467Y-11233138D01*
X2673467Y-11233138D02*
X2663944Y-11195043D01*
X2663944Y-11195043D02*
X2663944Y-11147424D01*
X2663944Y-11147424D02*
X2673467Y-11109329D01*
X2673467Y-11109329D02*
X2682991Y-11090281D01*
X2682991Y-11090281D02*
X2692515Y-11080758D01*
X2692515Y-11080758D02*
X2711563Y-11071234D01*
X2902039Y-11071234D02*
X2921086Y-11071234D01*
X2921086Y-11071234D02*
X2940134Y-11080758D01*
X2940134Y-11080758D02*
X2949658Y-11090281D01*
X2949658Y-11090281D02*
X2959182Y-11109329D01*
X2959182Y-11109329D02*
X2968705Y-11147424D01*
X2968705Y-11147424D02*
X2968705Y-11195043D01*
X2968705Y-11195043D02*
X2959182Y-11233138D01*
X2959182Y-11233138D02*
X2949658Y-11252186D01*
X2949658Y-11252186D02*
X2940134Y-11261710D01*
X2940134Y-11261710D02*
X2921086Y-11271234D01*
X2921086Y-11271234D02*
X2902039Y-11271234D01*
X2902039Y-11271234D02*
X2882991Y-11261710D01*
X2882991Y-11261710D02*
X2873467Y-11252186D01*
X2873467Y-11252186D02*
X2863943Y-11233138D01*
X2863943Y-11233138D02*
X2854420Y-11195043D01*
X2854420Y-11195043D02*
X2854420Y-11147424D01*
X2854420Y-11147424D02*
X2863943Y-11109329D01*
X2863943Y-11109329D02*
X2873467Y-11090281D01*
X2873467Y-11090281D02*
X2882991Y-11080758D01*
X2882991Y-11080758D02*
X2902039Y-11071234D01*
X3054420Y-11271234D02*
X3054420Y-11137900D01*
X3054420Y-11156948D02*
X3063943Y-11147424D01*
X3063943Y-11147424D02*
X3082991Y-11137900D01*
X3082991Y-11137900D02*
X3111563Y-11137900D01*
X3111563Y-11137900D02*
X3130610Y-11147424D01*
X3130610Y-11147424D02*
X3140134Y-11166472D01*
X3140134Y-11166472D02*
X3140134Y-11271234D01*
X3140134Y-11166472D02*
X3149658Y-11147424D01*
X3149658Y-11147424D02*
X3168705Y-11137900D01*
X3168705Y-11137900D02*
X3197277Y-11137900D01*
X3197277Y-11137900D02*
X3216324Y-11147424D01*
X3216324Y-11147424D02*
X3225848Y-11166472D01*
X3225848Y-11166472D02*
X3225848Y-11271234D01*
X3321086Y-11271234D02*
X3321086Y-11137900D01*
X3321086Y-11156948D02*
X3330610Y-11147424D01*
X3330610Y-11147424D02*
X3349658Y-11137900D01*
X3349658Y-11137900D02*
X3378229Y-11137900D01*
X3378229Y-11137900D02*
X3397277Y-11147424D01*
X3397277Y-11147424D02*
X3406801Y-11166472D01*
X3406801Y-11166472D02*
X3406801Y-11271234D01*
X3406801Y-11166472D02*
X3416324Y-11147424D01*
X3416324Y-11147424D02*
X3435372Y-11137900D01*
X3435372Y-11137900D02*
X3463943Y-11137900D01*
X3463943Y-11137900D02*
X3482991Y-11147424D01*
X3482991Y-11147424D02*
X3492515Y-11166472D01*
X3492515Y-11166472D02*
X3492515Y-11271234D01*
X3882991Y-11061710D02*
X3711563Y-11318853D01*
X4140134Y-11071234D02*
X4159182Y-11071234D01*
X4159182Y-11071234D02*
X4178229Y-11080758D01*
X4178229Y-11080758D02*
X4187753Y-11090281D01*
X4187753Y-11090281D02*
X4197277Y-11109329D01*
X4197277Y-11109329D02*
X4206801Y-11147424D01*
X4206801Y-11147424D02*
X4206801Y-11195043D01*
X4206801Y-11195043D02*
X4197277Y-11233138D01*
X4197277Y-11233138D02*
X4187753Y-11252186D01*
X4187753Y-11252186D02*
X4178229Y-11261710D01*
X4178229Y-11261710D02*
X4159182Y-11271234D01*
X4159182Y-11271234D02*
X4140134Y-11271234D01*
X4140134Y-11271234D02*
X4121086Y-11261710D01*
X4121086Y-11261710D02*
X4111563Y-11252186D01*
X4111563Y-11252186D02*
X4102039Y-11233138D01*
X4102039Y-11233138D02*
X4092515Y-11195043D01*
X4092515Y-11195043D02*
X4092515Y-11147424D01*
X4092515Y-11147424D02*
X4102039Y-11109329D01*
X4102039Y-11109329D02*
X4111563Y-11090281D01*
X4111563Y-11090281D02*
X4121086Y-11080758D01*
X4121086Y-11080758D02*
X4140134Y-11071234D01*
X4292515Y-11252186D02*
X4302039Y-11261710D01*
X4302039Y-11261710D02*
X4292515Y-11271234D01*
X4292515Y-11271234D02*
X4282991Y-11261710D01*
X4282991Y-11261710D02*
X4292515Y-11252186D01*
X4292515Y-11252186D02*
X4292515Y-11271234D01*
X4492515Y-11271234D02*
X4378229Y-11271234D01*
X4435372Y-11271234D02*
X4435372Y-11071234D01*
X4435372Y-11071234D02*
X4416325Y-11099805D01*
X4416325Y-11099805D02*
X4397277Y-11118853D01*
X4397277Y-11118853D02*
X4378229Y-11128377D01*
X4568706Y-11090281D02*
X4578229Y-11080758D01*
X4578229Y-11080758D02*
X4597277Y-11071234D01*
X4597277Y-11071234D02*
X4644896Y-11071234D01*
X4644896Y-11071234D02*
X4663944Y-11080758D01*
X4663944Y-11080758D02*
X4673468Y-11090281D01*
X4673468Y-11090281D02*
X4682991Y-11109329D01*
X4682991Y-11109329D02*
X4682991Y-11128377D01*
X4682991Y-11128377D02*
X4673468Y-11156948D01*
X4673468Y-11156948D02*
X4559182Y-11271234D01*
X4559182Y-11271234D02*
X4682991Y-11271234D01*
X4854420Y-11071234D02*
X4816325Y-11071234D01*
X4816325Y-11071234D02*
X4797277Y-11080758D01*
X4797277Y-11080758D02*
X4787753Y-11090281D01*
X4787753Y-11090281D02*
X4768706Y-11118853D01*
X4768706Y-11118853D02*
X4759182Y-11156948D01*
X4759182Y-11156948D02*
X4759182Y-11233138D01*
X4759182Y-11233138D02*
X4768706Y-11252186D01*
X4768706Y-11252186D02*
X4778229Y-11261710D01*
X4778229Y-11261710D02*
X4797277Y-11271234D01*
X4797277Y-11271234D02*
X4835372Y-11271234D01*
X4835372Y-11271234D02*
X4854420Y-11261710D01*
X4854420Y-11261710D02*
X4863944Y-11252186D01*
X4863944Y-11252186D02*
X4873468Y-11233138D01*
X4873468Y-11233138D02*
X4873468Y-11185519D01*
X4873468Y-11185519D02*
X4863944Y-11166472D01*
X4863944Y-11166472D02*
X4854420Y-11156948D01*
X4854420Y-11156948D02*
X4835372Y-11147424D01*
X4835372Y-11147424D02*
X4797277Y-11147424D01*
X4797277Y-11147424D02*
X4778229Y-11156948D01*
X4778229Y-11156948D02*
X4768706Y-11166472D01*
X4768706Y-11166472D02*
X4759182Y-11185519D01*
X4997277Y-11071234D02*
X5016325Y-11071234D01*
X5016325Y-11071234D02*
X5035372Y-11080758D01*
X5035372Y-11080758D02*
X5044896Y-11090281D01*
X5044896Y-11090281D02*
X5054420Y-11109329D01*
X5054420Y-11109329D02*
X5063944Y-11147424D01*
X5063944Y-11147424D02*
X5063944Y-11195043D01*
X5063944Y-11195043D02*
X5054420Y-11233138D01*
X5054420Y-11233138D02*
X5044896Y-11252186D01*
X5044896Y-11252186D02*
X5035372Y-11261710D01*
X5035372Y-11261710D02*
X5016325Y-11271234D01*
X5016325Y-11271234D02*
X4997277Y-11271234D01*
X4997277Y-11271234D02*
X4978229Y-11261710D01*
X4978229Y-11261710D02*
X4968706Y-11252186D01*
X4968706Y-11252186D02*
X4959182Y-11233138D01*
X4959182Y-11233138D02*
X4949658Y-11195043D01*
X4949658Y-11195043D02*
X4949658Y-11147424D01*
X4949658Y-11147424D02*
X4959182Y-11109329D01*
X4959182Y-11109329D02*
X4968706Y-11090281D01*
X4968706Y-11090281D02*
X4978229Y-11080758D01*
X4978229Y-11080758D02*
X4997277Y-11071234D01*
X5140134Y-11071234D02*
X5140134Y-11109329D01*
X5216325Y-11071234D02*
X5216325Y-11109329D01*
X5511563Y-11347424D02*
X5502039Y-11337900D01*
X5502039Y-11337900D02*
X5482991Y-11309329D01*
X5482991Y-11309329D02*
X5473468Y-11290281D01*
X5473468Y-11290281D02*
X5463944Y-11261710D01*
X5463944Y-11261710D02*
X5454420Y-11214091D01*
X5454420Y-11214091D02*
X5454420Y-11175996D01*
X5454420Y-11175996D02*
X5463944Y-11128377D01*
X5463944Y-11128377D02*
X5473468Y-11099805D01*
X5473468Y-11099805D02*
X5482991Y-11080758D01*
X5482991Y-11080758D02*
X5502039Y-11052186D01*
X5502039Y-11052186D02*
X5511563Y-11042662D01*
X5692515Y-11271234D02*
X5578230Y-11271234D01*
X5635372Y-11271234D02*
X5635372Y-11071234D01*
X5635372Y-11071234D02*
X5616325Y-11099805D01*
X5616325Y-11099805D02*
X5597277Y-11118853D01*
X5597277Y-11118853D02*
X5578230Y-11128377D01*
X5930610Y-11271234D02*
X5930610Y-11071234D01*
X6016325Y-11271234D02*
X6016325Y-11166472D01*
X6016325Y-11166472D02*
X6006801Y-11147424D01*
X6006801Y-11147424D02*
X5987753Y-11137900D01*
X5987753Y-11137900D02*
X5959182Y-11137900D01*
X5959182Y-11137900D02*
X5940134Y-11147424D01*
X5940134Y-11147424D02*
X5930610Y-11156948D01*
X6140134Y-11271234D02*
X6121087Y-11261710D01*
X6121087Y-11261710D02*
X6111563Y-11252186D01*
X6111563Y-11252186D02*
X6102039Y-11233138D01*
X6102039Y-11233138D02*
X6102039Y-11175996D01*
X6102039Y-11175996D02*
X6111563Y-11156948D01*
X6111563Y-11156948D02*
X6121087Y-11147424D01*
X6121087Y-11147424D02*
X6140134Y-11137900D01*
X6140134Y-11137900D02*
X6168706Y-11137900D01*
X6168706Y-11137900D02*
X6187753Y-11147424D01*
X6187753Y-11147424D02*
X6197277Y-11156948D01*
X6197277Y-11156948D02*
X6206801Y-11175996D01*
X6206801Y-11175996D02*
X6206801Y-11233138D01*
X6206801Y-11233138D02*
X6197277Y-11252186D01*
X6197277Y-11252186D02*
X6187753Y-11261710D01*
X6187753Y-11261710D02*
X6168706Y-11271234D01*
X6168706Y-11271234D02*
X6140134Y-11271234D01*
X6321087Y-11271234D02*
X6302039Y-11261710D01*
X6302039Y-11261710D02*
X6292515Y-11242662D01*
X6292515Y-11242662D02*
X6292515Y-11071234D01*
X6473468Y-11261710D02*
X6454420Y-11271234D01*
X6454420Y-11271234D02*
X6416325Y-11271234D01*
X6416325Y-11271234D02*
X6397277Y-11261710D01*
X6397277Y-11261710D02*
X6387753Y-11242662D01*
X6387753Y-11242662D02*
X6387753Y-11166472D01*
X6387753Y-11166472D02*
X6397277Y-11147424D01*
X6397277Y-11147424D02*
X6416325Y-11137900D01*
X6416325Y-11137900D02*
X6454420Y-11137900D01*
X6454420Y-11137900D02*
X6473468Y-11147424D01*
X6473468Y-11147424D02*
X6482991Y-11166472D01*
X6482991Y-11166472D02*
X6482991Y-11185519D01*
X6482991Y-11185519D02*
X6387753Y-11204567D01*
X6549658Y-11347424D02*
X6559182Y-11337900D01*
X6559182Y-11337900D02*
X6578230Y-11309329D01*
X6578230Y-11309329D02*
X6587753Y-11290281D01*
X6587753Y-11290281D02*
X6597277Y-11261710D01*
X6597277Y-11261710D02*
X6606801Y-11214091D01*
X6606801Y-11214091D02*
X6606801Y-11175996D01*
X6606801Y-11175996D02*
X6597277Y-11128377D01*
X6597277Y-11128377D02*
X6587753Y-11099805D01*
X6587753Y-11099805D02*
X6578230Y-11080758D01*
X6578230Y-11080758D02*
X6559182Y-11052186D01*
X6559182Y-11052186D02*
X6549658Y-11042662D01*
X1836500Y-11599750D02*
X1936500Y-11499750D01*
X1836500Y-11399750D01*
X1736500Y-11499750D01*
X1836500Y-11599750D01*
X1936500Y-11499750D02*
G75*
G02*
X1736500Y-11499750I-100000J0D01*
G01*
X1736500Y-11499750D02*
G75*
G02*
X1936500Y-11499750I100000J0D01*
G01*
X2282991Y-11457900D02*
X2282991Y-11591234D01*
X2235372Y-11381710D02*
X2187753Y-11524567D01*
X2187753Y-11524567D02*
X2311563Y-11524567D01*
X2387753Y-11572186D02*
X2397277Y-11581710D01*
X2397277Y-11581710D02*
X2387753Y-11591234D01*
X2387753Y-11591234D02*
X2378229Y-11581710D01*
X2378229Y-11581710D02*
X2387753Y-11572186D01*
X2387753Y-11572186D02*
X2387753Y-11591234D01*
X2521086Y-11391234D02*
X2540134Y-11391234D01*
X2540134Y-11391234D02*
X2559182Y-11400758D01*
X2559182Y-11400758D02*
X2568705Y-11410281D01*
X2568705Y-11410281D02*
X2578229Y-11429329D01*
X2578229Y-11429329D02*
X2587753Y-11467424D01*
X2587753Y-11467424D02*
X2587753Y-11515043D01*
X2587753Y-11515043D02*
X2578229Y-11553138D01*
X2578229Y-11553138D02*
X2568705Y-11572186D01*
X2568705Y-11572186D02*
X2559182Y-11581710D01*
X2559182Y-11581710D02*
X2540134Y-11591234D01*
X2540134Y-11591234D02*
X2521086Y-11591234D01*
X2521086Y-11591234D02*
X2502039Y-11581710D01*
X2502039Y-11581710D02*
X2492515Y-11572186D01*
X2492515Y-11572186D02*
X2482991Y-11553138D01*
X2482991Y-11553138D02*
X2473467Y-11515043D01*
X2473467Y-11515043D02*
X2473467Y-11467424D01*
X2473467Y-11467424D02*
X2482991Y-11429329D01*
X2482991Y-11429329D02*
X2492515Y-11410281D01*
X2492515Y-11410281D02*
X2502039Y-11400758D01*
X2502039Y-11400758D02*
X2521086Y-11391234D01*
X2711563Y-11391234D02*
X2730610Y-11391234D01*
X2730610Y-11391234D02*
X2749658Y-11400758D01*
X2749658Y-11400758D02*
X2759182Y-11410281D01*
X2759182Y-11410281D02*
X2768705Y-11429329D01*
X2768705Y-11429329D02*
X2778229Y-11467424D01*
X2778229Y-11467424D02*
X2778229Y-11515043D01*
X2778229Y-11515043D02*
X2768705Y-11553138D01*
X2768705Y-11553138D02*
X2759182Y-11572186D01*
X2759182Y-11572186D02*
X2749658Y-11581710D01*
X2749658Y-11581710D02*
X2730610Y-11591234D01*
X2730610Y-11591234D02*
X2711563Y-11591234D01*
X2711563Y-11591234D02*
X2692515Y-11581710D01*
X2692515Y-11581710D02*
X2682991Y-11572186D01*
X2682991Y-11572186D02*
X2673467Y-11553138D01*
X2673467Y-11553138D02*
X2663944Y-11515043D01*
X2663944Y-11515043D02*
X2663944Y-11467424D01*
X2663944Y-11467424D02*
X2673467Y-11429329D01*
X2673467Y-11429329D02*
X2682991Y-11410281D01*
X2682991Y-11410281D02*
X2692515Y-11400758D01*
X2692515Y-11400758D02*
X2711563Y-11391234D01*
X2902039Y-11391234D02*
X2921086Y-11391234D01*
X2921086Y-11391234D02*
X2940134Y-11400758D01*
X2940134Y-11400758D02*
X2949658Y-11410281D01*
X2949658Y-11410281D02*
X2959182Y-11429329D01*
X2959182Y-11429329D02*
X2968705Y-11467424D01*
X2968705Y-11467424D02*
X2968705Y-11515043D01*
X2968705Y-11515043D02*
X2959182Y-11553138D01*
X2959182Y-11553138D02*
X2949658Y-11572186D01*
X2949658Y-11572186D02*
X2940134Y-11581710D01*
X2940134Y-11581710D02*
X2921086Y-11591234D01*
X2921086Y-11591234D02*
X2902039Y-11591234D01*
X2902039Y-11591234D02*
X2882991Y-11581710D01*
X2882991Y-11581710D02*
X2873467Y-11572186D01*
X2873467Y-11572186D02*
X2863943Y-11553138D01*
X2863943Y-11553138D02*
X2854420Y-11515043D01*
X2854420Y-11515043D02*
X2854420Y-11467424D01*
X2854420Y-11467424D02*
X2863943Y-11429329D01*
X2863943Y-11429329D02*
X2873467Y-11410281D01*
X2873467Y-11410281D02*
X2882991Y-11400758D01*
X2882991Y-11400758D02*
X2902039Y-11391234D01*
X3054420Y-11591234D02*
X3054420Y-11457900D01*
X3054420Y-11476948D02*
X3063943Y-11467424D01*
X3063943Y-11467424D02*
X3082991Y-11457900D01*
X3082991Y-11457900D02*
X3111563Y-11457900D01*
X3111563Y-11457900D02*
X3130610Y-11467424D01*
X3130610Y-11467424D02*
X3140134Y-11486472D01*
X3140134Y-11486472D02*
X3140134Y-11591234D01*
X3140134Y-11486472D02*
X3149658Y-11467424D01*
X3149658Y-11467424D02*
X3168705Y-11457900D01*
X3168705Y-11457900D02*
X3197277Y-11457900D01*
X3197277Y-11457900D02*
X3216324Y-11467424D01*
X3216324Y-11467424D02*
X3225848Y-11486472D01*
X3225848Y-11486472D02*
X3225848Y-11591234D01*
X3321086Y-11591234D02*
X3321086Y-11457900D01*
X3321086Y-11476948D02*
X3330610Y-11467424D01*
X3330610Y-11467424D02*
X3349658Y-11457900D01*
X3349658Y-11457900D02*
X3378229Y-11457900D01*
X3378229Y-11457900D02*
X3397277Y-11467424D01*
X3397277Y-11467424D02*
X3406801Y-11486472D01*
X3406801Y-11486472D02*
X3406801Y-11591234D01*
X3406801Y-11486472D02*
X3416324Y-11467424D01*
X3416324Y-11467424D02*
X3435372Y-11457900D01*
X3435372Y-11457900D02*
X3463943Y-11457900D01*
X3463943Y-11457900D02*
X3482991Y-11467424D01*
X3482991Y-11467424D02*
X3492515Y-11486472D01*
X3492515Y-11486472D02*
X3492515Y-11591234D01*
X3882991Y-11381710D02*
X3711563Y-11638853D01*
X4140134Y-11391234D02*
X4159182Y-11391234D01*
X4159182Y-11391234D02*
X4178229Y-11400758D01*
X4178229Y-11400758D02*
X4187753Y-11410281D01*
X4187753Y-11410281D02*
X4197277Y-11429329D01*
X4197277Y-11429329D02*
X4206801Y-11467424D01*
X4206801Y-11467424D02*
X4206801Y-11515043D01*
X4206801Y-11515043D02*
X4197277Y-11553138D01*
X4197277Y-11553138D02*
X4187753Y-11572186D01*
X4187753Y-11572186D02*
X4178229Y-11581710D01*
X4178229Y-11581710D02*
X4159182Y-11591234D01*
X4159182Y-11591234D02*
X4140134Y-11591234D01*
X4140134Y-11591234D02*
X4121086Y-11581710D01*
X4121086Y-11581710D02*
X4111563Y-11572186D01*
X4111563Y-11572186D02*
X4102039Y-11553138D01*
X4102039Y-11553138D02*
X4092515Y-11515043D01*
X4092515Y-11515043D02*
X4092515Y-11467424D01*
X4092515Y-11467424D02*
X4102039Y-11429329D01*
X4102039Y-11429329D02*
X4111563Y-11410281D01*
X4111563Y-11410281D02*
X4121086Y-11400758D01*
X4121086Y-11400758D02*
X4140134Y-11391234D01*
X4292515Y-11572186D02*
X4302039Y-11581710D01*
X4302039Y-11581710D02*
X4292515Y-11591234D01*
X4292515Y-11591234D02*
X4282991Y-11581710D01*
X4282991Y-11581710D02*
X4292515Y-11572186D01*
X4292515Y-11572186D02*
X4292515Y-11591234D01*
X4492515Y-11591234D02*
X4378229Y-11591234D01*
X4435372Y-11591234D02*
X4435372Y-11391234D01*
X4435372Y-11391234D02*
X4416325Y-11419805D01*
X4416325Y-11419805D02*
X4397277Y-11438853D01*
X4397277Y-11438853D02*
X4378229Y-11448377D01*
X4673468Y-11391234D02*
X4578229Y-11391234D01*
X4578229Y-11391234D02*
X4568706Y-11486472D01*
X4568706Y-11486472D02*
X4578229Y-11476948D01*
X4578229Y-11476948D02*
X4597277Y-11467424D01*
X4597277Y-11467424D02*
X4644896Y-11467424D01*
X4644896Y-11467424D02*
X4663944Y-11476948D01*
X4663944Y-11476948D02*
X4673468Y-11486472D01*
X4673468Y-11486472D02*
X4682991Y-11505519D01*
X4682991Y-11505519D02*
X4682991Y-11553138D01*
X4682991Y-11553138D02*
X4673468Y-11572186D01*
X4673468Y-11572186D02*
X4663944Y-11581710D01*
X4663944Y-11581710D02*
X4644896Y-11591234D01*
X4644896Y-11591234D02*
X4597277Y-11591234D01*
X4597277Y-11591234D02*
X4578229Y-11581710D01*
X4578229Y-11581710D02*
X4568706Y-11572186D01*
X4749658Y-11391234D02*
X4882991Y-11391234D01*
X4882991Y-11391234D02*
X4797277Y-11591234D01*
X5054420Y-11391234D02*
X4959182Y-11391234D01*
X4959182Y-11391234D02*
X4949658Y-11486472D01*
X4949658Y-11486472D02*
X4959182Y-11476948D01*
X4959182Y-11476948D02*
X4978229Y-11467424D01*
X4978229Y-11467424D02*
X5025849Y-11467424D01*
X5025849Y-11467424D02*
X5044896Y-11476948D01*
X5044896Y-11476948D02*
X5054420Y-11486472D01*
X5054420Y-11486472D02*
X5063944Y-11505519D01*
X5063944Y-11505519D02*
X5063944Y-11553138D01*
X5063944Y-11553138D02*
X5054420Y-11572186D01*
X5054420Y-11572186D02*
X5044896Y-11581710D01*
X5044896Y-11581710D02*
X5025849Y-11591234D01*
X5025849Y-11591234D02*
X4978229Y-11591234D01*
X4978229Y-11591234D02*
X4959182Y-11581710D01*
X4959182Y-11581710D02*
X4949658Y-11572186D01*
X5140134Y-11391234D02*
X5140134Y-11429329D01*
X5216325Y-11391234D02*
X5216325Y-11429329D01*
X5511563Y-11667424D02*
X5502039Y-11657900D01*
X5502039Y-11657900D02*
X5482991Y-11629329D01*
X5482991Y-11629329D02*
X5473468Y-11610281D01*
X5473468Y-11610281D02*
X5463944Y-11581710D01*
X5463944Y-11581710D02*
X5454420Y-11534091D01*
X5454420Y-11534091D02*
X5454420Y-11495996D01*
X5454420Y-11495996D02*
X5463944Y-11448377D01*
X5463944Y-11448377D02*
X5473468Y-11419805D01*
X5473468Y-11419805D02*
X5482991Y-11400758D01*
X5482991Y-11400758D02*
X5502039Y-11372186D01*
X5502039Y-11372186D02*
X5511563Y-11362662D01*
X5692515Y-11591234D02*
X5578230Y-11591234D01*
X5635372Y-11591234D02*
X5635372Y-11391234D01*
X5635372Y-11391234D02*
X5616325Y-11419805D01*
X5616325Y-11419805D02*
X5597277Y-11438853D01*
X5597277Y-11438853D02*
X5578230Y-11448377D01*
X5930610Y-11591234D02*
X5930610Y-11391234D01*
X6016325Y-11591234D02*
X6016325Y-11486472D01*
X6016325Y-11486472D02*
X6006801Y-11467424D01*
X6006801Y-11467424D02*
X5987753Y-11457900D01*
X5987753Y-11457900D02*
X5959182Y-11457900D01*
X5959182Y-11457900D02*
X5940134Y-11467424D01*
X5940134Y-11467424D02*
X5930610Y-11476948D01*
X6140134Y-11591234D02*
X6121087Y-11581710D01*
X6121087Y-11581710D02*
X6111563Y-11572186D01*
X6111563Y-11572186D02*
X6102039Y-11553138D01*
X6102039Y-11553138D02*
X6102039Y-11495996D01*
X6102039Y-11495996D02*
X6111563Y-11476948D01*
X6111563Y-11476948D02*
X6121087Y-11467424D01*
X6121087Y-11467424D02*
X6140134Y-11457900D01*
X6140134Y-11457900D02*
X6168706Y-11457900D01*
X6168706Y-11457900D02*
X6187753Y-11467424D01*
X6187753Y-11467424D02*
X6197277Y-11476948D01*
X6197277Y-11476948D02*
X6206801Y-11495996D01*
X6206801Y-11495996D02*
X6206801Y-11553138D01*
X6206801Y-11553138D02*
X6197277Y-11572186D01*
X6197277Y-11572186D02*
X6187753Y-11581710D01*
X6187753Y-11581710D02*
X6168706Y-11591234D01*
X6168706Y-11591234D02*
X6140134Y-11591234D01*
X6321087Y-11591234D02*
X6302039Y-11581710D01*
X6302039Y-11581710D02*
X6292515Y-11562662D01*
X6292515Y-11562662D02*
X6292515Y-11391234D01*
X6473468Y-11581710D02*
X6454420Y-11591234D01*
X6454420Y-11591234D02*
X6416325Y-11591234D01*
X6416325Y-11591234D02*
X6397277Y-11581710D01*
X6397277Y-11581710D02*
X6387753Y-11562662D01*
X6387753Y-11562662D02*
X6387753Y-11486472D01*
X6387753Y-11486472D02*
X6397277Y-11467424D01*
X6397277Y-11467424D02*
X6416325Y-11457900D01*
X6416325Y-11457900D02*
X6454420Y-11457900D01*
X6454420Y-11457900D02*
X6473468Y-11467424D01*
X6473468Y-11467424D02*
X6482991Y-11486472D01*
X6482991Y-11486472D02*
X6482991Y-11505519D01*
X6482991Y-11505519D02*
X6387753Y-11524567D01*
X6549658Y-11667424D02*
X6559182Y-11657900D01*
X6559182Y-11657900D02*
X6578230Y-11629329D01*
X6578230Y-11629329D02*
X6587753Y-11610281D01*
X6587753Y-11610281D02*
X6597277Y-11581710D01*
X6597277Y-11581710D02*
X6606801Y-11534091D01*
X6606801Y-11534091D02*
X6606801Y-11495996D01*
X6606801Y-11495996D02*
X6597277Y-11448377D01*
X6597277Y-11448377D02*
X6587753Y-11419805D01*
X6587753Y-11419805D02*
X6578230Y-11400758D01*
X6578230Y-11400758D02*
X6559182Y-11372186D01*
X6559182Y-11372186D02*
X6549658Y-11362662D01*
M02*
