%TF.GenerationSoftware,KiCad,Pcbnew,9.0.3*%
%TF.CreationDate,2025-10-17T11:28:34-04:00*%
%TF.ProjectId,smt_training,736d745f-7472-4616-996e-696e672e6b69,1*%
%TF.SameCoordinates,Original*%
%TF.FileFunction,Drillmap*%
%TF.FilePolarity,Positive*%
%FSLAX45Y45*%
G04 Gerber Fmt 4.5, Leading zero omitted, Abs format (unit mm)*
G04 Created by KiCad (PCBNEW 9.0.3) date 2025-10-17 11:28:34*
%MOMM*%
%LPD*%
G01*
G04 APERTURE LIST*
%ADD10C,0.050000*%
%ADD11C,0.200000*%
%ADD12C,0.110000*%
G04 APERTURE END LIST*
D10*
X1939000Y-3769250D02*
X11939000Y-3769250D01*
X1939000Y-7769250D02*
X1939000Y-3769250D01*
X11939000Y-3769250D02*
X11939000Y-7769250D01*
X11939000Y-7769250D02*
X1939000Y-7769250D01*
D11*
D12*
X2159000Y-5489250D02*
X2269000Y-5599250D01*
X2269000Y-5489250D02*
X2159000Y-5599250D01*
X2159000Y-5939250D02*
X2269000Y-6049250D01*
X2269000Y-5939250D02*
X2159000Y-6049250D01*
D11*
X2197277Y-8083234D02*
X2197277Y-7883234D01*
X2197277Y-7883234D02*
X2244896Y-7883234D01*
X2244896Y-7883234D02*
X2273467Y-7892758D01*
X2273467Y-7892758D02*
X2292515Y-7911805D01*
X2292515Y-7911805D02*
X2302039Y-7930853D01*
X2302039Y-7930853D02*
X2311563Y-7968948D01*
X2311563Y-7968948D02*
X2311563Y-7997519D01*
X2311563Y-7997519D02*
X2302039Y-8035615D01*
X2302039Y-8035615D02*
X2292515Y-8054662D01*
X2292515Y-8054662D02*
X2273467Y-8073710D01*
X2273467Y-8073710D02*
X2244896Y-8083234D01*
X2244896Y-8083234D02*
X2197277Y-8083234D01*
X2397277Y-8083234D02*
X2397277Y-7949900D01*
X2397277Y-7987996D02*
X2406801Y-7968948D01*
X2406801Y-7968948D02*
X2416324Y-7959424D01*
X2416324Y-7959424D02*
X2435372Y-7949900D01*
X2435372Y-7949900D02*
X2454420Y-7949900D01*
X2521086Y-8083234D02*
X2521086Y-7949900D01*
X2521086Y-7883234D02*
X2511563Y-7892758D01*
X2511563Y-7892758D02*
X2521086Y-7902281D01*
X2521086Y-7902281D02*
X2530610Y-7892758D01*
X2530610Y-7892758D02*
X2521086Y-7883234D01*
X2521086Y-7883234D02*
X2521086Y-7902281D01*
X2644896Y-8083234D02*
X2625848Y-8073710D01*
X2625848Y-8073710D02*
X2616324Y-8054662D01*
X2616324Y-8054662D02*
X2616324Y-7883234D01*
X2749658Y-8083234D02*
X2730610Y-8073710D01*
X2730610Y-8073710D02*
X2721086Y-8054662D01*
X2721086Y-8054662D02*
X2721086Y-7883234D01*
X2978229Y-8083234D02*
X2978229Y-7883234D01*
X2978229Y-7883234D02*
X3044896Y-8026091D01*
X3044896Y-8026091D02*
X3111562Y-7883234D01*
X3111562Y-7883234D02*
X3111562Y-8083234D01*
X3292515Y-8083234D02*
X3292515Y-7978472D01*
X3292515Y-7978472D02*
X3282991Y-7959424D01*
X3282991Y-7959424D02*
X3263943Y-7949900D01*
X3263943Y-7949900D02*
X3225848Y-7949900D01*
X3225848Y-7949900D02*
X3206801Y-7959424D01*
X3292515Y-8073710D02*
X3273467Y-8083234D01*
X3273467Y-8083234D02*
X3225848Y-8083234D01*
X3225848Y-8083234D02*
X3206801Y-8073710D01*
X3206801Y-8073710D02*
X3197277Y-8054662D01*
X3197277Y-8054662D02*
X3197277Y-8035615D01*
X3197277Y-8035615D02*
X3206801Y-8016567D01*
X3206801Y-8016567D02*
X3225848Y-8007043D01*
X3225848Y-8007043D02*
X3273467Y-8007043D01*
X3273467Y-8007043D02*
X3292515Y-7997519D01*
X3387753Y-7949900D02*
X3387753Y-8149900D01*
X3387753Y-7959424D02*
X3406801Y-7949900D01*
X3406801Y-7949900D02*
X3444896Y-7949900D01*
X3444896Y-7949900D02*
X3463943Y-7959424D01*
X3463943Y-7959424D02*
X3473467Y-7968948D01*
X3473467Y-7968948D02*
X3482991Y-7987996D01*
X3482991Y-7987996D02*
X3482991Y-8045138D01*
X3482991Y-8045138D02*
X3473467Y-8064186D01*
X3473467Y-8064186D02*
X3463943Y-8073710D01*
X3463943Y-8073710D02*
X3444896Y-8083234D01*
X3444896Y-8083234D02*
X3406801Y-8083234D01*
X3406801Y-8083234D02*
X3387753Y-8073710D01*
X3568705Y-8064186D02*
X3578229Y-8073710D01*
X3578229Y-8073710D02*
X3568705Y-8083234D01*
X3568705Y-8083234D02*
X3559182Y-8073710D01*
X3559182Y-8073710D02*
X3568705Y-8064186D01*
X3568705Y-8064186D02*
X3568705Y-8083234D01*
X3568705Y-7959424D02*
X3578229Y-7968948D01*
X3578229Y-7968948D02*
X3568705Y-7978472D01*
X3568705Y-7978472D02*
X3559182Y-7968948D01*
X3559182Y-7968948D02*
X3568705Y-7959424D01*
X3568705Y-7959424D02*
X3568705Y-7978472D01*
D12*
X1826500Y-8356750D02*
X1936500Y-8466750D01*
X1936500Y-8356750D02*
X1826500Y-8466750D01*
D11*
X2302039Y-8503234D02*
X2187753Y-8503234D01*
X2244896Y-8503234D02*
X2244896Y-8303234D01*
X2244896Y-8303234D02*
X2225848Y-8331805D01*
X2225848Y-8331805D02*
X2206801Y-8350853D01*
X2206801Y-8350853D02*
X2187753Y-8360377D01*
X2387753Y-8484186D02*
X2397277Y-8493710D01*
X2397277Y-8493710D02*
X2387753Y-8503234D01*
X2387753Y-8503234D02*
X2378229Y-8493710D01*
X2378229Y-8493710D02*
X2387753Y-8484186D01*
X2387753Y-8484186D02*
X2387753Y-8503234D01*
X2587753Y-8503234D02*
X2473467Y-8503234D01*
X2530610Y-8503234D02*
X2530610Y-8303234D01*
X2530610Y-8303234D02*
X2511563Y-8331805D01*
X2511563Y-8331805D02*
X2492515Y-8350853D01*
X2492515Y-8350853D02*
X2473467Y-8360377D01*
X2711563Y-8303234D02*
X2730610Y-8303234D01*
X2730610Y-8303234D02*
X2749658Y-8312758D01*
X2749658Y-8312758D02*
X2759182Y-8322281D01*
X2759182Y-8322281D02*
X2768705Y-8341329D01*
X2768705Y-8341329D02*
X2778229Y-8379424D01*
X2778229Y-8379424D02*
X2778229Y-8427043D01*
X2778229Y-8427043D02*
X2768705Y-8465139D01*
X2768705Y-8465139D02*
X2759182Y-8484186D01*
X2759182Y-8484186D02*
X2749658Y-8493710D01*
X2749658Y-8493710D02*
X2730610Y-8503234D01*
X2730610Y-8503234D02*
X2711563Y-8503234D01*
X2711563Y-8503234D02*
X2692515Y-8493710D01*
X2692515Y-8493710D02*
X2682991Y-8484186D01*
X2682991Y-8484186D02*
X2673467Y-8465139D01*
X2673467Y-8465139D02*
X2663944Y-8427043D01*
X2663944Y-8427043D02*
X2663944Y-8379424D01*
X2663944Y-8379424D02*
X2673467Y-8341329D01*
X2673467Y-8341329D02*
X2682991Y-8322281D01*
X2682991Y-8322281D02*
X2692515Y-8312758D01*
X2692515Y-8312758D02*
X2711563Y-8303234D01*
X2902039Y-8303234D02*
X2921086Y-8303234D01*
X2921086Y-8303234D02*
X2940134Y-8312758D01*
X2940134Y-8312758D02*
X2949658Y-8322281D01*
X2949658Y-8322281D02*
X2959182Y-8341329D01*
X2959182Y-8341329D02*
X2968705Y-8379424D01*
X2968705Y-8379424D02*
X2968705Y-8427043D01*
X2968705Y-8427043D02*
X2959182Y-8465139D01*
X2959182Y-8465139D02*
X2949658Y-8484186D01*
X2949658Y-8484186D02*
X2940134Y-8493710D01*
X2940134Y-8493710D02*
X2921086Y-8503234D01*
X2921086Y-8503234D02*
X2902039Y-8503234D01*
X2902039Y-8503234D02*
X2882991Y-8493710D01*
X2882991Y-8493710D02*
X2873467Y-8484186D01*
X2873467Y-8484186D02*
X2863943Y-8465139D01*
X2863943Y-8465139D02*
X2854420Y-8427043D01*
X2854420Y-8427043D02*
X2854420Y-8379424D01*
X2854420Y-8379424D02*
X2863943Y-8341329D01*
X2863943Y-8341329D02*
X2873467Y-8322281D01*
X2873467Y-8322281D02*
X2882991Y-8312758D01*
X2882991Y-8312758D02*
X2902039Y-8303234D01*
X3054420Y-8503234D02*
X3054420Y-8369900D01*
X3054420Y-8388948D02*
X3063943Y-8379424D01*
X3063943Y-8379424D02*
X3082991Y-8369900D01*
X3082991Y-8369900D02*
X3111563Y-8369900D01*
X3111563Y-8369900D02*
X3130610Y-8379424D01*
X3130610Y-8379424D02*
X3140134Y-8398472D01*
X3140134Y-8398472D02*
X3140134Y-8503234D01*
X3140134Y-8398472D02*
X3149658Y-8379424D01*
X3149658Y-8379424D02*
X3168705Y-8369900D01*
X3168705Y-8369900D02*
X3197277Y-8369900D01*
X3197277Y-8369900D02*
X3216324Y-8379424D01*
X3216324Y-8379424D02*
X3225848Y-8398472D01*
X3225848Y-8398472D02*
X3225848Y-8503234D01*
X3321086Y-8503234D02*
X3321086Y-8369900D01*
X3321086Y-8388948D02*
X3330610Y-8379424D01*
X3330610Y-8379424D02*
X3349658Y-8369900D01*
X3349658Y-8369900D02*
X3378229Y-8369900D01*
X3378229Y-8369900D02*
X3397277Y-8379424D01*
X3397277Y-8379424D02*
X3406801Y-8398472D01*
X3406801Y-8398472D02*
X3406801Y-8503234D01*
X3406801Y-8398472D02*
X3416324Y-8379424D01*
X3416324Y-8379424D02*
X3435372Y-8369900D01*
X3435372Y-8369900D02*
X3463943Y-8369900D01*
X3463943Y-8369900D02*
X3482991Y-8379424D01*
X3482991Y-8379424D02*
X3492515Y-8398472D01*
X3492515Y-8398472D02*
X3492515Y-8503234D01*
X3882991Y-8293710D02*
X3711563Y-8550853D01*
X4140134Y-8303234D02*
X4159182Y-8303234D01*
X4159182Y-8303234D02*
X4178229Y-8312758D01*
X4178229Y-8312758D02*
X4187753Y-8322281D01*
X4187753Y-8322281D02*
X4197277Y-8341329D01*
X4197277Y-8341329D02*
X4206801Y-8379424D01*
X4206801Y-8379424D02*
X4206801Y-8427043D01*
X4206801Y-8427043D02*
X4197277Y-8465139D01*
X4197277Y-8465139D02*
X4187753Y-8484186D01*
X4187753Y-8484186D02*
X4178229Y-8493710D01*
X4178229Y-8493710D02*
X4159182Y-8503234D01*
X4159182Y-8503234D02*
X4140134Y-8503234D01*
X4140134Y-8503234D02*
X4121086Y-8493710D01*
X4121086Y-8493710D02*
X4111563Y-8484186D01*
X4111563Y-8484186D02*
X4102039Y-8465139D01*
X4102039Y-8465139D02*
X4092515Y-8427043D01*
X4092515Y-8427043D02*
X4092515Y-8379424D01*
X4092515Y-8379424D02*
X4102039Y-8341329D01*
X4102039Y-8341329D02*
X4111563Y-8322281D01*
X4111563Y-8322281D02*
X4121086Y-8312758D01*
X4121086Y-8312758D02*
X4140134Y-8303234D01*
X4292515Y-8484186D02*
X4302039Y-8493710D01*
X4302039Y-8493710D02*
X4292515Y-8503234D01*
X4292515Y-8503234D02*
X4282991Y-8493710D01*
X4282991Y-8493710D02*
X4292515Y-8484186D01*
X4292515Y-8484186D02*
X4292515Y-8503234D01*
X4425848Y-8303234D02*
X4444896Y-8303234D01*
X4444896Y-8303234D02*
X4463944Y-8312758D01*
X4463944Y-8312758D02*
X4473468Y-8322281D01*
X4473468Y-8322281D02*
X4482991Y-8341329D01*
X4482991Y-8341329D02*
X4492515Y-8379424D01*
X4492515Y-8379424D02*
X4492515Y-8427043D01*
X4492515Y-8427043D02*
X4482991Y-8465139D01*
X4482991Y-8465139D02*
X4473468Y-8484186D01*
X4473468Y-8484186D02*
X4463944Y-8493710D01*
X4463944Y-8493710D02*
X4444896Y-8503234D01*
X4444896Y-8503234D02*
X4425848Y-8503234D01*
X4425848Y-8503234D02*
X4406801Y-8493710D01*
X4406801Y-8493710D02*
X4397277Y-8484186D01*
X4397277Y-8484186D02*
X4387753Y-8465139D01*
X4387753Y-8465139D02*
X4378229Y-8427043D01*
X4378229Y-8427043D02*
X4378229Y-8379424D01*
X4378229Y-8379424D02*
X4387753Y-8341329D01*
X4387753Y-8341329D02*
X4397277Y-8322281D01*
X4397277Y-8322281D02*
X4406801Y-8312758D01*
X4406801Y-8312758D02*
X4425848Y-8303234D01*
X4663944Y-8369900D02*
X4663944Y-8503234D01*
X4616325Y-8293710D02*
X4568706Y-8436567D01*
X4568706Y-8436567D02*
X4692515Y-8436567D01*
X4749658Y-8303234D02*
X4873468Y-8303234D01*
X4873468Y-8303234D02*
X4806801Y-8379424D01*
X4806801Y-8379424D02*
X4835372Y-8379424D01*
X4835372Y-8379424D02*
X4854420Y-8388948D01*
X4854420Y-8388948D02*
X4863944Y-8398472D01*
X4863944Y-8398472D02*
X4873468Y-8417520D01*
X4873468Y-8417520D02*
X4873468Y-8465139D01*
X4873468Y-8465139D02*
X4863944Y-8484186D01*
X4863944Y-8484186D02*
X4854420Y-8493710D01*
X4854420Y-8493710D02*
X4835372Y-8503234D01*
X4835372Y-8503234D02*
X4778229Y-8503234D01*
X4778229Y-8503234D02*
X4759182Y-8493710D01*
X4759182Y-8493710D02*
X4749658Y-8484186D01*
X4940134Y-8303234D02*
X5063944Y-8303234D01*
X5063944Y-8303234D02*
X4997277Y-8379424D01*
X4997277Y-8379424D02*
X5025849Y-8379424D01*
X5025849Y-8379424D02*
X5044896Y-8388948D01*
X5044896Y-8388948D02*
X5054420Y-8398472D01*
X5054420Y-8398472D02*
X5063944Y-8417520D01*
X5063944Y-8417520D02*
X5063944Y-8465139D01*
X5063944Y-8465139D02*
X5054420Y-8484186D01*
X5054420Y-8484186D02*
X5044896Y-8493710D01*
X5044896Y-8493710D02*
X5025849Y-8503234D01*
X5025849Y-8503234D02*
X4968706Y-8503234D01*
X4968706Y-8503234D02*
X4949658Y-8493710D01*
X4949658Y-8493710D02*
X4940134Y-8484186D01*
X5140134Y-8303234D02*
X5140134Y-8341329D01*
X5216325Y-8303234D02*
X5216325Y-8341329D01*
X5511563Y-8579424D02*
X5502039Y-8569900D01*
X5502039Y-8569900D02*
X5482991Y-8541329D01*
X5482991Y-8541329D02*
X5473468Y-8522281D01*
X5473468Y-8522281D02*
X5463944Y-8493710D01*
X5463944Y-8493710D02*
X5454420Y-8446091D01*
X5454420Y-8446091D02*
X5454420Y-8407996D01*
X5454420Y-8407996D02*
X5463944Y-8360377D01*
X5463944Y-8360377D02*
X5473468Y-8331805D01*
X5473468Y-8331805D02*
X5482991Y-8312758D01*
X5482991Y-8312758D02*
X5502039Y-8284186D01*
X5502039Y-8284186D02*
X5511563Y-8274662D01*
X5578230Y-8322281D02*
X5587753Y-8312758D01*
X5587753Y-8312758D02*
X5606801Y-8303234D01*
X5606801Y-8303234D02*
X5654420Y-8303234D01*
X5654420Y-8303234D02*
X5673468Y-8312758D01*
X5673468Y-8312758D02*
X5682991Y-8322281D01*
X5682991Y-8322281D02*
X5692515Y-8341329D01*
X5692515Y-8341329D02*
X5692515Y-8360377D01*
X5692515Y-8360377D02*
X5682991Y-8388948D01*
X5682991Y-8388948D02*
X5568706Y-8503234D01*
X5568706Y-8503234D02*
X5692515Y-8503234D01*
X5930610Y-8503234D02*
X5930610Y-8303234D01*
X6016325Y-8503234D02*
X6016325Y-8398472D01*
X6016325Y-8398472D02*
X6006801Y-8379424D01*
X6006801Y-8379424D02*
X5987753Y-8369900D01*
X5987753Y-8369900D02*
X5959182Y-8369900D01*
X5959182Y-8369900D02*
X5940134Y-8379424D01*
X5940134Y-8379424D02*
X5930610Y-8388948D01*
X6140134Y-8503234D02*
X6121087Y-8493710D01*
X6121087Y-8493710D02*
X6111563Y-8484186D01*
X6111563Y-8484186D02*
X6102039Y-8465139D01*
X6102039Y-8465139D02*
X6102039Y-8407996D01*
X6102039Y-8407996D02*
X6111563Y-8388948D01*
X6111563Y-8388948D02*
X6121087Y-8379424D01*
X6121087Y-8379424D02*
X6140134Y-8369900D01*
X6140134Y-8369900D02*
X6168706Y-8369900D01*
X6168706Y-8369900D02*
X6187753Y-8379424D01*
X6187753Y-8379424D02*
X6197277Y-8388948D01*
X6197277Y-8388948D02*
X6206801Y-8407996D01*
X6206801Y-8407996D02*
X6206801Y-8465139D01*
X6206801Y-8465139D02*
X6197277Y-8484186D01*
X6197277Y-8484186D02*
X6187753Y-8493710D01*
X6187753Y-8493710D02*
X6168706Y-8503234D01*
X6168706Y-8503234D02*
X6140134Y-8503234D01*
X6321087Y-8503234D02*
X6302039Y-8493710D01*
X6302039Y-8493710D02*
X6292515Y-8474662D01*
X6292515Y-8474662D02*
X6292515Y-8303234D01*
X6473468Y-8493710D02*
X6454420Y-8503234D01*
X6454420Y-8503234D02*
X6416325Y-8503234D01*
X6416325Y-8503234D02*
X6397277Y-8493710D01*
X6397277Y-8493710D02*
X6387753Y-8474662D01*
X6387753Y-8474662D02*
X6387753Y-8398472D01*
X6387753Y-8398472D02*
X6397277Y-8379424D01*
X6397277Y-8379424D02*
X6416325Y-8369900D01*
X6416325Y-8369900D02*
X6454420Y-8369900D01*
X6454420Y-8369900D02*
X6473468Y-8379424D01*
X6473468Y-8379424D02*
X6482991Y-8398472D01*
X6482991Y-8398472D02*
X6482991Y-8417520D01*
X6482991Y-8417520D02*
X6387753Y-8436567D01*
X6559182Y-8493710D02*
X6578230Y-8503234D01*
X6578230Y-8503234D02*
X6616325Y-8503234D01*
X6616325Y-8503234D02*
X6635372Y-8493710D01*
X6635372Y-8493710D02*
X6644896Y-8474662D01*
X6644896Y-8474662D02*
X6644896Y-8465139D01*
X6644896Y-8465139D02*
X6635372Y-8446091D01*
X6635372Y-8446091D02*
X6616325Y-8436567D01*
X6616325Y-8436567D02*
X6587753Y-8436567D01*
X6587753Y-8436567D02*
X6568706Y-8427043D01*
X6568706Y-8427043D02*
X6559182Y-8407996D01*
X6559182Y-8407996D02*
X6559182Y-8398472D01*
X6559182Y-8398472D02*
X6568706Y-8379424D01*
X6568706Y-8379424D02*
X6587753Y-8369900D01*
X6587753Y-8369900D02*
X6616325Y-8369900D01*
X6616325Y-8369900D02*
X6635372Y-8379424D01*
X6711563Y-8579424D02*
X6721087Y-8569900D01*
X6721087Y-8569900D02*
X6740134Y-8541329D01*
X6740134Y-8541329D02*
X6749658Y-8522281D01*
X6749658Y-8522281D02*
X6759182Y-8493710D01*
X6759182Y-8493710D02*
X6768706Y-8446091D01*
X6768706Y-8446091D02*
X6768706Y-8407996D01*
X6768706Y-8407996D02*
X6759182Y-8360377D01*
X6759182Y-8360377D02*
X6749658Y-8331805D01*
X6749658Y-8331805D02*
X6740134Y-8312758D01*
X6740134Y-8312758D02*
X6721087Y-8284186D01*
X6721087Y-8284186D02*
X6711563Y-8274662D01*
X7073468Y-8579424D02*
X7063944Y-8569900D01*
X7063944Y-8569900D02*
X7044896Y-8541329D01*
X7044896Y-8541329D02*
X7035372Y-8522281D01*
X7035372Y-8522281D02*
X7025849Y-8493710D01*
X7025849Y-8493710D02*
X7016325Y-8446091D01*
X7016325Y-8446091D02*
X7016325Y-8407996D01*
X7016325Y-8407996D02*
X7025849Y-8360377D01*
X7025849Y-8360377D02*
X7035372Y-8331805D01*
X7035372Y-8331805D02*
X7044896Y-8312758D01*
X7044896Y-8312758D02*
X7063944Y-8284186D01*
X7063944Y-8284186D02*
X7073468Y-8274662D01*
X7149658Y-8369900D02*
X7149658Y-8503234D01*
X7149658Y-8388948D02*
X7159182Y-8379424D01*
X7159182Y-8379424D02*
X7178230Y-8369900D01*
X7178230Y-8369900D02*
X7206801Y-8369900D01*
X7206801Y-8369900D02*
X7225849Y-8379424D01*
X7225849Y-8379424D02*
X7235372Y-8398472D01*
X7235372Y-8398472D02*
X7235372Y-8503234D01*
X7359182Y-8503234D02*
X7340134Y-8493710D01*
X7340134Y-8493710D02*
X7330611Y-8484186D01*
X7330611Y-8484186D02*
X7321087Y-8465139D01*
X7321087Y-8465139D02*
X7321087Y-8407996D01*
X7321087Y-8407996D02*
X7330611Y-8388948D01*
X7330611Y-8388948D02*
X7340134Y-8379424D01*
X7340134Y-8379424D02*
X7359182Y-8369900D01*
X7359182Y-8369900D02*
X7387753Y-8369900D01*
X7387753Y-8369900D02*
X7406801Y-8379424D01*
X7406801Y-8379424D02*
X7416325Y-8388948D01*
X7416325Y-8388948D02*
X7425849Y-8407996D01*
X7425849Y-8407996D02*
X7425849Y-8465139D01*
X7425849Y-8465139D02*
X7416325Y-8484186D01*
X7416325Y-8484186D02*
X7406801Y-8493710D01*
X7406801Y-8493710D02*
X7387753Y-8503234D01*
X7387753Y-8503234D02*
X7359182Y-8503234D01*
X7482992Y-8369900D02*
X7559182Y-8369900D01*
X7511563Y-8303234D02*
X7511563Y-8474662D01*
X7511563Y-8474662D02*
X7521087Y-8493710D01*
X7521087Y-8493710D02*
X7540134Y-8503234D01*
X7540134Y-8503234D02*
X7559182Y-8503234D01*
X7778230Y-8369900D02*
X7778230Y-8569900D01*
X7778230Y-8379424D02*
X7797277Y-8369900D01*
X7797277Y-8369900D02*
X7835373Y-8369900D01*
X7835373Y-8369900D02*
X7854420Y-8379424D01*
X7854420Y-8379424D02*
X7863944Y-8388948D01*
X7863944Y-8388948D02*
X7873468Y-8407996D01*
X7873468Y-8407996D02*
X7873468Y-8465139D01*
X7873468Y-8465139D02*
X7863944Y-8484186D01*
X7863944Y-8484186D02*
X7854420Y-8493710D01*
X7854420Y-8493710D02*
X7835373Y-8503234D01*
X7835373Y-8503234D02*
X7797277Y-8503234D01*
X7797277Y-8503234D02*
X7778230Y-8493710D01*
X7987753Y-8503234D02*
X7968706Y-8493710D01*
X7968706Y-8493710D02*
X7959182Y-8474662D01*
X7959182Y-8474662D02*
X7959182Y-8303234D01*
X8149658Y-8503234D02*
X8149658Y-8398472D01*
X8149658Y-8398472D02*
X8140134Y-8379424D01*
X8140134Y-8379424D02*
X8121087Y-8369900D01*
X8121087Y-8369900D02*
X8082992Y-8369900D01*
X8082992Y-8369900D02*
X8063944Y-8379424D01*
X8149658Y-8493710D02*
X8130611Y-8503234D01*
X8130611Y-8503234D02*
X8082992Y-8503234D01*
X8082992Y-8503234D02*
X8063944Y-8493710D01*
X8063944Y-8493710D02*
X8054420Y-8474662D01*
X8054420Y-8474662D02*
X8054420Y-8455615D01*
X8054420Y-8455615D02*
X8063944Y-8436567D01*
X8063944Y-8436567D02*
X8082992Y-8427043D01*
X8082992Y-8427043D02*
X8130611Y-8427043D01*
X8130611Y-8427043D02*
X8149658Y-8417520D01*
X8216325Y-8369900D02*
X8292515Y-8369900D01*
X8244896Y-8303234D02*
X8244896Y-8474662D01*
X8244896Y-8474662D02*
X8254420Y-8493710D01*
X8254420Y-8493710D02*
X8273468Y-8503234D01*
X8273468Y-8503234D02*
X8292515Y-8503234D01*
X8435373Y-8493710D02*
X8416325Y-8503234D01*
X8416325Y-8503234D02*
X8378230Y-8503234D01*
X8378230Y-8503234D02*
X8359182Y-8493710D01*
X8359182Y-8493710D02*
X8349658Y-8474662D01*
X8349658Y-8474662D02*
X8349658Y-8398472D01*
X8349658Y-8398472D02*
X8359182Y-8379424D01*
X8359182Y-8379424D02*
X8378230Y-8369900D01*
X8378230Y-8369900D02*
X8416325Y-8369900D01*
X8416325Y-8369900D02*
X8435373Y-8379424D01*
X8435373Y-8379424D02*
X8444896Y-8398472D01*
X8444896Y-8398472D02*
X8444896Y-8417520D01*
X8444896Y-8417520D02*
X8349658Y-8436567D01*
X8616325Y-8503234D02*
X8616325Y-8303234D01*
X8616325Y-8493710D02*
X8597277Y-8503234D01*
X8597277Y-8503234D02*
X8559182Y-8503234D01*
X8559182Y-8503234D02*
X8540135Y-8493710D01*
X8540135Y-8493710D02*
X8530611Y-8484186D01*
X8530611Y-8484186D02*
X8521087Y-8465139D01*
X8521087Y-8465139D02*
X8521087Y-8407996D01*
X8521087Y-8407996D02*
X8530611Y-8388948D01*
X8530611Y-8388948D02*
X8540135Y-8379424D01*
X8540135Y-8379424D02*
X8559182Y-8369900D01*
X8559182Y-8369900D02*
X8597277Y-8369900D01*
X8597277Y-8369900D02*
X8616325Y-8379424D01*
X8692516Y-8579424D02*
X8702039Y-8569900D01*
X8702039Y-8569900D02*
X8721087Y-8541329D01*
X8721087Y-8541329D02*
X8730611Y-8522281D01*
X8730611Y-8522281D02*
X8740135Y-8493710D01*
X8740135Y-8493710D02*
X8749658Y-8446091D01*
X8749658Y-8446091D02*
X8749658Y-8407996D01*
X8749658Y-8407996D02*
X8740135Y-8360377D01*
X8740135Y-8360377D02*
X8730611Y-8331805D01*
X8730611Y-8331805D02*
X8721087Y-8312758D01*
X8721087Y-8312758D02*
X8702039Y-8284186D01*
X8702039Y-8284186D02*
X8692516Y-8274662D01*
M02*
